;TYPE=PLATED
;Layer: PTH_Through
;EasyEDA Pro v3.2.148, 2026-07-20 15:09:29
;Gerber Generator version 0.3
M48
METRIC,LZ,0000.00000
;Hole size 1 = 0.30500 METRIC
T01C0.30500
;Hole size 2 = 0.60000 METRIC
T02C0.60000
;Hole size 3 = 0.76200 METRIC
T03C0.76200
;Hole size 4 = 1.00000 METRIC
T04C1.00000
;Hole size 5 = 1.02001 METRIC
T05C1.02001
;Hole size 6 = 2.50002 METRIC
T06C2.50002
%
G05
G90
T01
X84.71743Y-22.98395
X44.41401Y-39.25692
X45.43001Y-40.27292
X48.478Y-43.32091
X42.50081Y-42.74731
X15.64517Y-41.00002
X26.05915Y-41.00002
X17.62806Y-37.25272
X24.14575Y-42.09532
X11.06228Y-41.84132
X26.23805Y-45.92881
X39.43102Y-46.58731
X11.01088Y-47.5619
X72.47876Y-47.5619
X28.22204Y-45.42081
X15.31297Y-40.29592
X20.76196Y-45.92881
X14.66597Y-42.62682
X23.43105Y-46.58731
X45.23801Y-46.69081
X47.524Y-46.69081
X14.75807Y-45.92881
X12.87908Y-41.76382
X35.23803Y-46.18281
X14.66407Y-41.86482
X84.48063Y-23.74595
X82.86303Y-22.12836
X27.76205Y-44.42201
X27.76205Y-40.94602
X16.84007Y-39.08802
X9.62888Y-45.0399
X74.14475Y-46.8179
X60.49998Y-43.84201
X61.26198Y-45.62001
X13.02107Y-45.0399
X33.93403Y-41.72712
X32.41003Y-40.20312
X25.29805Y-39.69512
X10.95908Y-42.60412
X86.46093Y-21.35696
T02
X83.72498Y-19.32494G85X84.62497Y-19.32494
X83.72499Y-10.67492G85X84.62501Y-10.67492
X88.07504Y-19.32499G85X88.67504Y-19.32499
X88.07504Y-10.67502G85X88.67504Y-10.67502
T03
X88.54Y-5.27
X86.0Y-2.73
X83.46Y-5.27
T04
X47.59999Y-4.0
X45.05999Y-4.0
X42.51999Y-4.0
X39.97999Y-4.0
X37.43999Y-4.0
X34.89999Y-4.0
X32.35999Y-4.0
X29.81999Y-4.0
X27.27999Y-4.0
X24.73999Y-4.0
X22.19999Y-4.0
X19.65999Y-4.0
X17.11999Y-4.0
X14.57999Y-4.0
X12.03999Y-4.0
X9.49999Y-4.0
T05
X3.0Y-46.04
X3.0Y-43.5
X3.0Y-40.96
T06
X4.0625Y-4.0G85X3.9375Y-4.0
X4.0625Y-34.99999G85X3.9375Y-34.99999
X79.0625Y-4.0G85X78.93751Y-4.0
X79.0625Y-34.99999G85X78.93751Y-34.99999
M30