G04 Layer: TopSolderMaskLayer*
G04 EasyEDA Pro v3.2.148, 2026-07-20 15:09:28*
G04 Gerber Generator version 0.3*
G04 Scale: 100 percent, Rotated: No, Reflected: No*
G04 Dimensions in millimeters*
G04 Leading zeros omitted, absolute positions, 4 integers and 5 decimals*
G04 Generated by one-click*
G04 Object Configs: Pad,Via,Track,Text,Image,Dimension,BoardOutline,BoardCutout,CopperFilled,SolidRegion,FPCStiffener,Line,PlaneZone,ComponentProperty,ComponentSilkscreen,TearDrop*
G04 Layer Configs: 1,2,3,4,5,6,7,8,9,10,11,13,14,56*
G04 Copper Areas: 0*
%FSLAX45Y45*%
%MOMM*%
%AMRoundRect*1,1,$1,$2,$3*1,1,$1,$4,$5*1,1,$1,0-$2,0-$3*1,1,$1,0-$4,0-$5*20,1,$1,$2,$3,$4,$5,0*20,1,$1,$4,$5,0-$2,0-$3,0*20,1,$1,0-$2,0-$3,0-$4,0-$5,0*20,1,$1,0-$4,0-$5,$2,$3,0*4,1,4,$2,$3,$4,$5,0-$2,0-$3,0-$4,0-$5,$2,$3,0*%
%ADD10RoundRect,0.1016X-0.8405X0.84X0.8405X0.84*%
%ADD11RoundRect,0.1016X-0.45X-0.4X-0.45X0.4*%
%ADD12RoundRect,0.1016X-0.4X0.45X0.4X0.45*%
%ADD13RoundRect,0.1016X-0.85X-0.85X-0.85X0.85*%
%ADD14C,1.8016*%
%ADD15RoundRect,0.1016X-0.3X-0.535X-0.3X0.535*%
%ADD16RoundRect,0.1016X-0.45X-0.2X-0.45X0.2*%
%ADD17RoundRect,0.1016X-0.40324X0.432X0.40324X0.432*%
%ADD18RoundRect,0.1097X-0.432X-0.40324X-0.432X0.40324*%
%ADD19RoundRect,0.1016X-0.432X-0.40324X-0.432X0.40324*%
%ADD20O,0.46561X1.84361*%
%ADD21RoundRect,0.1016X-0.55X-1.25X-0.55X1.25*%
%ADD22RoundRect,0.1016X-1.8X-1.17X-1.8X1.17*%
%ADD23RoundRect,0.1016X-1.0X1.0X1.0X1.0*%
%ADD24RoundRect,0.1016X-1.5X0.75X1.5X0.75*%
%ADD25C,1.7016*%
%ADD26RoundRect,0.1016X-0.8X0.8X0.8X0.8*%
%ADD27C,3.30159*%
%ADD28RoundRect,0.10003X-0.55X-0.27501X-0.55X0.27501*%
%ADD29RoundRect,0.10003X-0.55X-0.15X-0.55X0.15*%
%ADD30O,2.10002X1.20002*%
%ADD31O,1.90002X1.30002*%
%ADD32C,1.6256*%
G75*


G04 Image Start*
G36*
G01X8686170Y-3694909D02*
G01X8457028Y-3694909D01*
G01X8457028Y-3667631D01*
G01X8558418Y-3667631D01*
G01X8558418Y-3457661D01*
G01X8550561Y-3457017D01*
G01X8532378Y-3455080D01*
G01X8516513Y-3452413D01*
G01X8502859Y-3448969D01*
G01X8491309Y-3444700D01*
G01X8486291Y-3442242D01*
G01X8481758Y-3439560D01*
G01X8477699Y-3436648D01*
G01X8474099Y-3433500D01*
G01X8470946Y-3430111D01*
G01X8468227Y-3426474D01*
G01X8465927Y-3422583D01*
G01X8464034Y-3418434D01*
G01X8461872Y-3411154D01*
G01X8461198Y-3404029D01*
G01X8462000Y-3397081D01*
G01X8464271Y-3390332D01*
G01X8467999Y-3383803D01*
G01X8473175Y-3377516D01*
G01X8479790Y-3371493D01*
G01X8487833Y-3365754D01*
G01X8495709Y-3360726D01*
G01X8494757Y-3360108D01*
G01X8575209Y-3360108D01*
G01X8575211Y-3360578D01*
G01X8576357Y-3361067D01*
G01X8581738Y-3362375D01*
G01X8595260Y-3364900D01*
G01X8595260Y-3364900D01*
G01X8609051Y-3366486D01*
G01X8622341Y-3367174D01*
G01X8634360Y-3367006D01*
G01X8644336Y-3366020D01*
G01X8651500Y-3364257D01*
G01X8653787Y-3363098D01*
G01X8655082Y-3361759D01*
G01X8655289Y-3360246D01*
G01X8654311Y-3358565D01*
G01X8651489Y-3356632D01*
G01X8647419Y-3354970D01*
G01X8642478Y-3353868D01*
G01X8636556Y-3353164D01*
G01X8629794Y-3352854D01*
G01X8622334Y-3352933D01*
G01X8605883Y-3354238D01*
G01X8588328Y-3357038D01*
G01X8578974Y-3358948D01*
G01X8575209Y-3360108D01*
G01X8494757Y-3360108D01*
G01X8486834Y-3354961D01*
G01X8480814Y-3350729D01*
G01X8475606Y-3346389D01*
G01X8471211Y-3341957D01*
G01X8467627Y-3337450D01*
G01X8464856Y-3332883D01*
G01X8462895Y-3328272D01*
G01X8461746Y-3323631D01*
G01X8461408Y-3318978D01*
G01X8461881Y-3314327D01*
G01X8463165Y-3309695D01*
G01X8465259Y-3305096D01*
G01X8468163Y-3300547D01*
G01X8471877Y-3296063D01*
G01X8476400Y-3291661D01*
G01X8481733Y-3287354D01*
G01X8487876Y-3283160D01*
G01X8495464Y-3278370D01*
G01X8494593Y-3277799D01*
G01X8574754Y-3277799D01*
G01X8575795Y-3278454D01*
G01X8580588Y-3279847D01*
G01X8588220Y-3281256D01*
G01X8597764Y-3282569D01*
G01X8597764Y-3282569D01*
G01X8618873Y-3284459D01*
G01X8628581Y-3284814D01*
G01X8636489Y-3284625D01*
G01X8643285Y-3283820D01*
G01X8648648Y-3282589D01*
G01X8652495Y-3281038D01*
G01X8654744Y-3279273D01*
G01X8655244Y-3278343D01*
G01X8655314Y-3277400D01*
G01X8654943Y-3276456D01*
G01X8654121Y-3275525D01*
G01X8651084Y-3273754D01*
G01X8646121Y-3272193D01*
G01X8639180Y-3271244D01*
G01X8629657Y-3270886D01*
G01X8618562Y-3271048D01*
G01X8606901Y-3271659D01*
G01X8595684Y-3272650D01*
G01X8585917Y-3273948D01*
G01X8578610Y-3275485D01*
G01X8576194Y-3276320D01*
G01X8574770Y-3277189D01*
G01X8574754Y-3277799D01*
G01X8494593Y-3277799D01*
G01X8486557Y-3272524D01*
G01X8480630Y-3268327D01*
G01X8475494Y-3264044D01*
G01X8471148Y-3259688D01*
G01X8467592Y-3255271D01*
G01X8464828Y-3250806D01*
G01X8462853Y-3246303D01*
G01X8461670Y-3241776D01*
G01X8461277Y-3237237D01*
G01X8461674Y-3232697D01*
G01X8462862Y-3228170D01*
G01X8464840Y-3223667D01*
G01X8467609Y-3219200D01*
G01X8471169Y-3214781D01*
G01X8475519Y-3210424D01*
G01X8480659Y-3206139D01*
G01X8486590Y-3201940D01*
G01X8494285Y-3196889D01*
G01X8574641Y-3196889D01*
G01X8575199Y-3197496D01*
G01X8576791Y-3198146D01*
G01X8582571Y-3199520D01*
G01X8600992Y-3202167D01*
G01X8600992Y-3202167D01*
G01X8621849Y-3203925D01*
G01X8630672Y-3204189D01*
G01X8637084Y-3203891D01*
G01X8644780Y-3202540D01*
G01X8650437Y-3200786D01*
G01X8654025Y-3198781D01*
G01X8655034Y-3197731D01*
G01X8655513Y-3196675D01*
G01X8655460Y-3195631D01*
G01X8654870Y-3194619D01*
G01X8652066Y-3192764D01*
G01X8647070Y-3191260D01*
G01X8639851Y-3190259D01*
G01X8629392Y-3189376D01*
G01X8623829Y-3189322D01*
G01X8616120Y-3189796D01*
G01X8597823Y-3191839D01*
G01X8581623Y-3194529D01*
G01X8576535Y-3195811D01*
G01X8575133Y-3196383D01*
G01X8574641Y-3196889D01*
G01X8494285Y-3196889D01*
G01X8495530Y-3196071D01*
G01X8488839Y-3192172D01*
G01X8482521Y-3188136D01*
G01X8477036Y-3183897D01*
G01X8472387Y-3179481D01*
G01X8468573Y-3174916D01*
G01X8465595Y-3170230D01*
G01X8463452Y-3165449D01*
G01X8462146Y-3160601D01*
G01X8461676Y-3155713D01*
G01X8462042Y-3150812D01*
G01X8463246Y-3145925D01*
G01X8465287Y-3141080D01*
G01X8468165Y-3136304D01*
G01X8471881Y-3131624D01*
G01X8476435Y-3127067D01*
G01X8481828Y-3122661D01*
G01X8488059Y-3118433D01*
G01X8495317Y-3113925D01*
G01X8576021Y-3113925D01*
G01X8576036Y-3114457D01*
G01X8577147Y-3115005D01*
G01X8582474Y-3116326D01*
G01X8594945Y-3118644D01*
G01X8607217Y-3120280D01*
G01X8618899Y-3121238D01*
G01X8618899Y-3121238D01*
G01X8629600Y-3121519D01*
G01X8638930Y-3121126D01*
G01X8646498Y-3120060D01*
G01X8651913Y-3118324D01*
G01X8653692Y-3117206D01*
G01X8654785Y-3115921D01*
G01X8655317Y-3113953D01*
G01X8654499Y-3112291D01*
G01X8652198Y-3110802D01*
G01X8648281Y-3109352D01*
G01X8643469Y-3108252D01*
G01X8637520Y-3107537D01*
G01X8630609Y-3107203D01*
G01X8622914Y-3107244D01*
G01X8605877Y-3108434D01*
G01X8587822Y-3111065D01*
G01X8579458Y-3112731D01*
G01X8576021Y-3113925D01*
G01X8495317Y-3113925D01*
G01X8495648Y-3113720D01*
G01X8487744Y-3108676D01*
G01X8480244Y-3103380D01*
G01X8473969Y-3097857D01*
G01X8468930Y-3092122D01*
G01X8465135Y-3086194D01*
G01X8462593Y-3080087D01*
G01X8461312Y-3073820D01*
G01X8461302Y-3067408D01*
G01X8462570Y-3060869D01*
G01X8464169Y-3056197D01*
G01X8466180Y-3051821D01*
G01X8468615Y-3047733D01*
G01X8471489Y-3043928D01*
G01X8474814Y-3040399D01*
G01X8478602Y-3037138D01*
G01X8482868Y-3034139D01*
G01X8487624Y-3031395D01*
G01X8492883Y-3028900D01*
G01X8498658Y-3026646D01*
G01X8511808Y-3022835D01*
G01X8527179Y-3019908D01*
G01X8544874Y-3017811D01*
G01X8558418Y-3016592D01*
G01X8558418Y-2811933D01*
G01X8506709Y-2718780D01*
G01X8469918Y-2652278D01*
G01X8500694Y-2652278D01*
G01X8502583Y-2655562D01*
G01X8502583Y-2655562D01*
G01X8531054Y-2706835D01*
G01X8558028Y-2755245D01*
G01X8558418Y-2704006D01*
G01X8584780Y-2704006D01*
G01X8585030Y-2740256D01*
G01X8585632Y-2754773D01*
G01X8611634Y-2708350D01*
G01X8639775Y-2657582D01*
G01X8642766Y-2652278D01*
G01X8584780Y-2652278D01*
G01X8584780Y-2704006D01*
G01X8584780Y-2704006D01*
G01X8558418Y-2704006D01*
G01X8558418Y-2703972D01*
G01X8558418Y-2652278D01*
G01X8500694Y-2652278D01*
G01X8469918Y-2652278D01*
G01X8455000Y-2625314D01*
G01X8571599Y-2625000D01*
G01X8688198Y-2625343D01*
G01X8636489Y-2718859D01*
G01X8584780Y-2812033D01*
G01X8584780Y-3043265D01*
G01X8579964Y-3043293D01*
G01X8564127Y-3043644D01*
G01X8549706Y-3044480D01*
G01X8536733Y-3045777D01*
G01X8525242Y-3047509D01*
G01X8515264Y-3049653D01*
G01X8506833Y-3052182D01*
G01X8499981Y-3055072D01*
G01X8494741Y-3058297D01*
G01X8491146Y-3061833D01*
G01X8489976Y-3063709D01*
G01X8489229Y-3065654D01*
G01X8488910Y-3067664D01*
G01X8489022Y-3069735D01*
G01X8489571Y-3071866D01*
G01X8490559Y-3074052D01*
G01X8493871Y-3078579D01*
G01X8498992Y-3083291D01*
G01X8505955Y-3088163D01*
G01X8514792Y-3093170D01*
G01X8522265Y-3096950D01*
G01X8524864Y-3097956D01*
G01X8527173Y-3098412D01*
G01X8529544Y-3098347D01*
G01X8532327Y-3097792D01*
G01X8540533Y-3095323D01*
G01X8557263Y-3090510D01*
G01X8573285Y-3086654D01*
G01X8588523Y-3083740D01*
G01X8602901Y-3081752D01*
G01X8616343Y-3080674D01*
G01X8628771Y-3080491D01*
G01X8640110Y-3081186D01*
G01X8650283Y-3082744D01*
G01X8659214Y-3085148D01*
G01X8666825Y-3088384D01*
G01X8673042Y-3092434D01*
G01X8675603Y-3094760D01*
G01X8677786Y-3097284D01*
G01X8679583Y-3100004D01*
G01X8680982Y-3102917D01*
G01X8681976Y-3106022D01*
G01X8682554Y-3109318D01*
G01X8682707Y-3112801D01*
G01X8682425Y-3116470D01*
G01X8681698Y-3120323D01*
G01X8680518Y-3124358D01*
G01X8678039Y-3129468D01*
G01X8674353Y-3133971D01*
G01X8669531Y-3137862D01*
G01X8663646Y-3141138D01*
G01X8656768Y-3143796D01*
G01X8648969Y-3145833D01*
G01X8640321Y-3147245D01*
G01X8630896Y-3148029D01*
G01X8620765Y-3148180D01*
G01X8610000Y-3147697D01*
G01X8598673Y-3146574D01*
G01X8586856Y-3144810D01*
G01X8574619Y-3142400D01*
G01X8562035Y-3139341D01*
G01X8549176Y-3135630D01*
G01X8536112Y-3131263D01*
G01X8527494Y-3128183D01*
G01X8518920Y-3132251D01*
G01X8506337Y-3138664D01*
G01X8497330Y-3144414D01*
G01X8494167Y-3147113D01*
G01X8491897Y-3149731D01*
G01X8490518Y-3152298D01*
G01X8490032Y-3154842D01*
G01X8490438Y-3157391D01*
G01X8491734Y-3159974D01*
G01X8493921Y-3162620D01*
G01X8496998Y-3165357D01*
G01X8505820Y-3171217D01*
G01X8518197Y-3177782D01*
G01X8526974Y-3182120D01*
G01X8538387Y-3178409D01*
G01X8553781Y-3173739D01*
G01X8568620Y-3169897D01*
G01X8582838Y-3166874D01*
G01X8596372Y-3164663D01*
G01X8609157Y-3163254D01*
G01X8621128Y-3162638D01*
G01X8632221Y-3162806D01*
G01X8642372Y-3163750D01*
G01X8651515Y-3165460D01*
G01X8659587Y-3167928D01*
G01X8666523Y-3171145D01*
G01X8672259Y-3175102D01*
G01X8676729Y-3179790D01*
G01X8678470Y-3182405D01*
G01X8679870Y-3185200D01*
G01X8680922Y-3188173D01*
G01X8681617Y-3191323D01*
G01X8681948Y-3194650D01*
G01X8681906Y-3198151D01*
G01X8680817Y-3204718D01*
G01X8678471Y-3210574D01*
G01X8674916Y-3215715D01*
G01X8670196Y-3220134D01*
G01X8664359Y-3223827D01*
G01X8657450Y-3226787D01*
G01X8649514Y-3229010D01*
G01X8640600Y-3230490D01*
G01X8630751Y-3231221D01*
G01X8620015Y-3231199D01*
G01X8608437Y-3230418D01*
G01X8596063Y-3228871D01*
G01X8582941Y-3226555D01*
G01X8569115Y-3223463D01*
G01X8554631Y-3219590D01*
G01X8539537Y-3214931D01*
G01X8527246Y-3210893D01*
G01X8516724Y-3215864D01*
G01X8505075Y-3221790D01*
G01X8496719Y-3227133D01*
G01X8493775Y-3229647D01*
G01X8491652Y-3232090D01*
G01X8490350Y-3234486D01*
G01X8489867Y-3236859D01*
G01X8490203Y-3239235D01*
G01X8491358Y-3241637D01*
G01X8493329Y-3244091D01*
G01X8496118Y-3246621D01*
G01X8504142Y-3252009D01*
G01X8515424Y-3257997D01*
G01X8526673Y-3263535D01*
G01X8539250Y-3259452D01*
G01X8554586Y-3254786D01*
G01X8569313Y-3250931D01*
G01X8583381Y-3247877D01*
G01X8596734Y-3245619D01*
G01X8609322Y-3244150D01*
G01X8621090Y-3243463D01*
G01X8631987Y-3243550D01*
G01X8641958Y-3244405D01*
G01X8650952Y-3246022D01*
G01X8658916Y-3248392D01*
G01X8665796Y-3251510D01*
G01X8671539Y-3255369D01*
G01X8676093Y-3259961D01*
G01X8679406Y-3265279D01*
G01X8681423Y-3271317D01*
G01X8682092Y-3278069D01*
G01X8681398Y-3284663D01*
G01X8679392Y-3290563D01*
G01X8676120Y-3295761D01*
G01X8671632Y-3300252D01*
G01X8665975Y-3304028D01*
G01X8659197Y-3307085D01*
G01X8651347Y-3309414D01*
G01X8642473Y-3311011D01*
G01X8632622Y-3311869D01*
G01X8621843Y-3311981D01*
G01X8610183Y-3311341D01*
G01X8597692Y-3309944D01*
G01X8584416Y-3307782D01*
G01X8570404Y-3304849D01*
G01X8555704Y-3301139D01*
G01X8540364Y-3296646D01*
G01X8526873Y-3292432D01*
G01X8520086Y-3295761D01*
G01X8508973Y-3301720D01*
G01X8499499Y-3307786D01*
G01X8492400Y-3313438D01*
G01X8489970Y-3315948D01*
G01X8488409Y-3318159D01*
G01X8488314Y-3320025D01*
G01X8489602Y-3322431D01*
G01X8492128Y-3325263D01*
G01X8495747Y-3328406D01*
G01X8500312Y-3331743D01*
G01X8505679Y-3335160D01*
G01X8511702Y-3338542D01*
G01X8518235Y-3341772D01*
G01X8527924Y-3346253D01*
G01X8536834Y-3343227D01*
G01X8552237Y-3338324D01*
G01X8567069Y-3334250D01*
G01X8581273Y-3331000D01*
G01X8594789Y-3328566D01*
G01X8607559Y-3326942D01*
G01X8619525Y-3326120D01*
G01X8630629Y-3326093D01*
G01X8640812Y-3326854D01*
G01X8650015Y-3328397D01*
G01X8658181Y-3330715D01*
G01X8665251Y-3333801D01*
G01X8671166Y-3337647D01*
G01X8675868Y-3342247D01*
G01X8679300Y-3347593D01*
G01X8680520Y-3350544D01*
G01X8681401Y-3353680D01*
G01X8682115Y-3360499D01*
G01X8681405Y-3367112D01*
G01X8679316Y-3373026D01*
G01X8675907Y-3378234D01*
G01X8671236Y-3382730D01*
G01X8665363Y-3386506D01*
G01X8658347Y-3389554D01*
G01X8650247Y-3391868D01*
G01X8641121Y-3393439D01*
G01X8631029Y-3394260D01*
G01X8620030Y-3394325D01*
G01X8608182Y-3393626D01*
G01X8595546Y-3392154D01*
G01X8582179Y-3389904D01*
G01X8568141Y-3386868D01*
G01X8553492Y-3383038D01*
G01X8538289Y-3378407D01*
G01X8527792Y-3374989D01*
G01X8516490Y-3380642D01*
G01X8507252Y-3385691D01*
G01X8499928Y-3390610D01*
G01X8494485Y-3395372D01*
G01X8490890Y-3399953D01*
G01X8489775Y-3402166D01*
G01X8489110Y-3404324D01*
G01X8488890Y-3406424D01*
G01X8489112Y-3408461D01*
G01X8489772Y-3410434D01*
G01X8490864Y-3412338D01*
G01X8494334Y-3415928D01*
G01X8499487Y-3419205D01*
G01X8506291Y-3422143D01*
G01X8514715Y-3424716D01*
G01X8524724Y-3426897D01*
G01X8536286Y-3428662D01*
G01X8549369Y-3429983D01*
G01X8563939Y-3430835D01*
G01X8579964Y-3431192D01*
G01X8584780Y-3431220D01*
G01X8584780Y-3667631D01*
G01X8686170Y-3667631D01*
G01X8686170Y-3694909D01*
G37*
G36*
G01X8662850Y-3746434D02*
G01X8480348Y-3746434D01*
G01X8480348Y-3719156D01*
G01X8662850Y-3719156D01*
G01X8662850Y-3746434D01*
G37*
G36*
G01X8639531Y-3796949D02*
G01X8503667Y-3796949D01*
G01X8503667Y-3770682D01*
G01X8639531Y-3770682D01*
G01X8639531Y-3796949D01*
G37*
G36*
G01X8572275Y-3822207D02*
G01X8616211Y-3822207D01*
G01X8616211Y-3848475D01*
G01X8526987Y-3848475D01*
G01X8526987Y-3836014D01*
G01X8527186Y-3827016D01*
G01X8527663Y-3822880D01*
G01X8541047Y-3822405D01*
G01X8572275Y-3822207D01*
G37*
G36*
G01X8595426Y-3873227D02*
G01X8595709Y-3886614D01*
G01X8595992Y-3900000D01*
G01X8547265Y-3900000D01*
G01X8547265Y-3887035D01*
G01X8547469Y-3877674D01*
G01X8547959Y-3873377D01*
G01X8555319Y-3872968D01*
G01X8572040Y-3872956D01*
G01X8595426Y-3873227D01*
G37*
G04 Image End*

G04 Pad Start*
G54D10*
G01X5050255Y-4035002D03*
G01X5050255Y-4664998D03*
G01X5749745Y-4664998D03*
G01X5749745Y-4035002D03*
G54D11*
G01X7150001Y-4479998D03*
G01X7150001Y-4620003D03*
G01X6050001Y-4129998D03*
G01X6050001Y-4270003D03*
G01X7150001Y-4129998D03*
G01X7150001Y-4270003D03*
G01X6050000Y-4479998D03*
G01X6050000Y-4620002D03*
G54D12*
G01X1189997Y-4850000D03*
G01X1330002Y-4850000D03*
G54D13*
G01X300000Y-4604000D03*
G54D14*
G01X300000Y-4350000D03*
G01X300000Y-4096000D03*
G54D15*
G01X3305004Y-4223508D03*
G01X3494996Y-4223508D03*
G01X3400000Y-3976493D03*
G54D16*
G01X2439982Y-4093729D03*
G01X2439982Y-4028730D03*
G01X2259998Y-4028730D03*
G01X2259998Y-4093729D03*
G01X2259998Y-4158727D03*
G01X2439982Y-4158727D03*
G01X2439982Y-4593729D03*
G01X2439982Y-4528730D03*
G01X2259998Y-4528730D03*
G01X2259998Y-4593729D03*
G01X2259998Y-4658727D03*
G01X2439982Y-4658727D03*
G01X4039982Y-4593729D03*
G01X4039982Y-4528730D03*
G01X3859998Y-4528730D03*
G01X3859998Y-4593729D03*
G01X3859998Y-4658727D03*
G01X4039982Y-4658727D03*
G54D17*
G01X8525336Y-2200000D03*
G01X8374663Y-2200000D03*
G01X8875336Y-2200000D03*
G01X8724664Y-2200000D03*
G01X8700336Y-2400000D03*
G01X8549664Y-2400000D03*
G01X3925336Y-4100000D03*
G01X3774664Y-4100000D03*
G54D19*
G01X3000000Y-4169075D03*
G01X3000000Y-4018402D03*
G01X1700000Y-4169075D03*
G01X1700000Y-4018402D03*
G01X2700000Y-4169075D03*
G01X2700000Y-4018402D03*
G01X2000000Y-4018402D03*
G01X2000000Y-4169075D03*
G01X3000000Y-4669075D03*
G01X3000000Y-4518402D03*
G01X1700000Y-4669075D03*
G01X1700000Y-4518402D03*
G01X2700000Y-4669075D03*
G01X2700000Y-4518402D03*
G01X2000000Y-4518402D03*
G01X2000000Y-4669075D03*
G01X4600000Y-4669075D03*
G01X4600000Y-4518402D03*
G01X3300000Y-4669075D03*
G01X3300000Y-4518402D03*
G01X4300000Y-4669075D03*
G01X4300000Y-4518402D03*
G01X3600000Y-4518402D03*
G01X3600000Y-4669075D03*
G01X600002Y-4675336D03*
G01X600002Y-4524664D03*
G01X600002Y-4024664D03*
G01X600002Y-4175336D03*
G54D20*
G01X807494Y-4629192D03*
G01X872493Y-4629192D03*
G01X937491Y-4629192D03*
G01X1002490Y-4629192D03*
G01X1067514Y-4629192D03*
G01X1132512Y-4629192D03*
G01X1197511Y-4629192D03*
G01X1262510Y-4629192D03*
G01X1327508Y-4629192D03*
G01X1392507Y-4629192D03*
G01X807494Y-4054999D03*
G01X872493Y-4054999D03*
G01X937491Y-4054999D03*
G01X1002490Y-4054999D03*
G01X1067514Y-4054999D03*
G01X1132512Y-4054999D03*
G01X1197511Y-4054999D03*
G01X1262510Y-4054999D03*
G01X1327508Y-4054999D03*
G01X1392507Y-4054999D03*
G54D21*
G01X6370004Y-4696995D03*
G01X6600001Y-4696995D03*
G01X6829998Y-4696995D03*
G54D22*
G01X6600001Y-4103003D03*
G54D23*
G01X4679997Y-4100000D03*
G01X4220003Y-4100000D03*
G54D24*
G01X8250000Y-4050001D03*
G01X7450002Y-4550000D03*
G01X8250000Y-4749999D03*
G54D25*
G01X4760006Y-399990D03*
G01X4506006Y-399990D03*
G01X4252006Y-399990D03*
G01X3998006Y-399990D03*
G01X3744006Y-399990D03*
G01X3490006Y-399990D03*
G01X3236006Y-399990D03*
G01X2982006Y-399990D03*
G01X2728006Y-399990D03*
G01X2474006Y-399990D03*
G01X2220006Y-399990D03*
G01X1966006Y-399990D03*
G01X1712006Y-399990D03*
G01X1458006Y-399990D03*
G01X1204006Y-399990D03*
G54D26*
G01X950006Y-399990D03*
G54D27*
G01X399995Y-399990D03*
G01X399995Y-3500010D03*
G01X7900005Y-399990D03*
G01X7900005Y-3500010D03*
G54D28*
G01X8362499Y-1820003D03*
G01X8362499Y-1739993D03*
G54D29*
G01X8362499Y-1674994D03*
G01X8362499Y-1624982D03*
G01X8362499Y-1574994D03*
G01X8362499Y-1525007D03*
G01X8362499Y-1474995D03*
G01X8362499Y-1425007D03*
G01X8362499Y-1374995D03*
G01X8362499Y-1324982D03*
G54D28*
G01X8362499Y-1259984D03*
G01X8362499Y-1179999D03*
G54D30*
G01X8417490Y-1932499D03*
G01X8417490Y-1067502D03*
G54D31*
G01X8837504Y-1932499D03*
G01X8837504Y-1067502D03*
G54D32*
G01X8854000Y-527000D03*
G01X8600000Y-273000D03*
G01X8346000Y-527000D03*
G04 Pad End*

M02*

