G04 Layer: BottomLayer*
G04 EasyEDA Pro v3.2.148, 2026-07-20 15:09:28*
G04 Gerber Generator version 0.3*
G04 Scale: 100 percent, Rotated: No, Reflected: No*
G04 Dimensions in millimeters*
G04 Leading zeros omitted, absolute positions, 4 integers and 5 decimals*
G04 Generated by one-click*
G04 Object Configs: Pad,Via,Track,Text,Image,Dimension,BoardOutline,BoardCutout,CopperFilled,SolidRegion,FPCStiffener,Line,PlaneZone,ComponentProperty,ComponentSilkscreen,TearDrop*
G04 Layer Configs: 1,2,3,4,5,6,7,8,9,10,11,13,14,56*
G04 Copper Areas: 37*
%FSLAX45Y45*%
%MOMM*%
%ADD10C,0.2032*%
%ADD11C,0.254*%
%ADD12R,1.7X1.7*%
%ADD13C,1.7*%
%ADD14C,1.6*%
%ADD15R,1.6X1.6*%
%ADD16C,3.19999*%
%ADD17O,2.0X1.1*%
%ADD18O,1.8097X1.2*%
%ADD19O,1.8X1.2*%
%ADD20C,1.524*%
%ADD21C,0.61*%
G75*


G04 Copper Start*
G36*
G01X35814Y-200000D02*
G01X37835Y-174316D01*
G01X43850Y-149264D01*
G01X53709Y-125461D01*
G01X67171Y-103494D01*
G01X83903Y-83903D01*
G01X103494Y-67171D01*
G01X125461Y-53709D01*
G01X149264Y-43850D01*
G01X174316Y-37835D01*
G01X200000Y-35814D01*
G01X8850000Y-35814D01*
G01X8875684Y-37835D01*
G01X8900736Y-43850D01*
G01X8924539Y-53709D01*
G01X8946506Y-67171D01*
G01X8966097Y-83903D01*
G01X8982829Y-103494D01*
G01X8996291Y-125461D01*
G01X9006150Y-149264D01*
G01X9012165Y-174316D01*
G01X9014186Y-200000D01*
G01X9014186Y-4800000D01*
G01X9012165Y-4825684D01*
G01X9006150Y-4850736D01*
G01X8996291Y-4874539D01*
G01X8982829Y-4896506D01*
G01X8966097Y-4916097D01*
G01X8946506Y-4932829D01*
G01X8924539Y-4946291D01*
G01X8900736Y-4956150D01*
G01X8875684Y-4962165D01*
G01X8850000Y-4964186D01*
G01X200000Y-4964186D01*
G01X174316Y-4962165D01*
G01X149264Y-4956150D01*
G01X125461Y-4946291D01*
G01X103494Y-4932829D01*
G01X83903Y-4916097D01*
G01X67171Y-4896506D01*
G01X53709Y-4874539D01*
G01X43850Y-4850736D01*
G01X37835Y-4825684D01*
G01X35814Y-4800000D01*
G01X35814Y-4689000D01*
G01X179186Y-4689000D01*
G01X180939Y-4700067D01*
G01X186026Y-4710051D01*
G01X193949Y-4717974D01*
G01X203933Y-4723061D01*
G01X215000Y-4724814D01*
G01X385000Y-4724814D01*
G01X396067Y-4723061D01*
G01X406051Y-4717974D01*
G01X413974Y-4710051D01*
G01X419061Y-4700067D01*
G01X420814Y-4689000D01*
G01X420814Y-4551795D01*
G01X496305Y-4476305D01*
G01X902630Y-4476305D01*
G01X897825Y-4491172D01*
G01X896632Y-4506752D01*
G01X899117Y-4522178D01*
G01X905143Y-4536594D01*
G01X914374Y-4549200D01*
G01X914374Y-4707190D01*
G01X916027Y-4719746D01*
G01X920874Y-4731447D01*
G01X928584Y-4741495D01*
G01X1055583Y-4868494D01*
G01X1065631Y-4876204D01*
G01X1077331Y-4881051D01*
G01X1089888Y-4882704D01*
G01X7262075Y-4882704D01*
G01X7274632Y-4881051D01*
G01X7286332Y-4876204D01*
G01X7296380Y-4868494D01*
G01X7414875Y-4749999D01*
G01X7754187Y-4749999D01*
G01X7756028Y-4768692D01*
G01X7761481Y-4786666D01*
G01X7770335Y-4803231D01*
G01X7782250Y-4817750D01*
G01X7796770Y-4829666D01*
G01X7813335Y-4838520D01*
G01X7831309Y-4843972D01*
G01X7850001Y-4845813D01*
G01X7868693Y-4843972D01*
G01X7886667Y-4838520D01*
G01X7903232Y-4829666D01*
G01X7917752Y-4817750D01*
G01X7929667Y-4803231D01*
G01X7938521Y-4786666D01*
G01X7943974Y-4768692D01*
G01X7945815Y-4749999D01*
G01X7943974Y-4731307D01*
G01X7938521Y-4713333D01*
G01X7929667Y-4696768D01*
G01X7917752Y-4682249D01*
G01X7903232Y-4670333D01*
G01X7886667Y-4661479D01*
G01X7868693Y-4656026D01*
G01X7850001Y-4654185D01*
G01X7831309Y-4656026D01*
G01X7813335Y-4661479D01*
G01X7796770Y-4670333D01*
G01X7782250Y-4682249D01*
G01X7770335Y-4696768D01*
G01X7761481Y-4713333D01*
G01X7756028Y-4731307D01*
G01X7754187Y-4749999D01*
G01X7754187Y-4749999D01*
G01X7414875Y-4749999D01*
G01X7416812Y-4748063D01*
G01X7431993Y-4745748D01*
G01X7446235Y-4740004D01*
G01X7458773Y-4731138D01*
G01X7468936Y-4719625D01*
G01X7476179Y-4706084D01*
G01X7480112Y-4691240D01*
G01X7480526Y-4675889D01*
G01X7477397Y-4660854D01*
G01X7470895Y-4646942D01*
G01X7461366Y-4634899D01*
G01X7449323Y-4625371D01*
G01X7435411Y-4618868D01*
G01X7420377Y-4615739D01*
G01X7405026Y-4616153D01*
G01X7390181Y-4620086D01*
G01X7376640Y-4627329D01*
G01X7365127Y-4637492D01*
G01X7356261Y-4650031D01*
G01X7350517Y-4664272D01*
G01X7348202Y-4679454D01*
G01X7305054Y-4722602D01*
G01X7296177Y-4710753D01*
G01X7284892Y-4701169D01*
G01X7271762Y-4694328D01*
G01X7257441Y-4690570D01*
G01X7242644Y-4690083D01*
G01X7228107Y-4692892D01*
G01X7214556Y-4698855D01*
G01X7202666Y-4707677D01*
G01X4806325Y-4707677D01*
G01X4814081Y-4693433D01*
G01X4818148Y-4677733D01*
G01X4818281Y-4661515D01*
G01X4814475Y-4645750D01*
G01X4806955Y-4631381D01*
G01X4796173Y-4619266D01*
G01X4782772Y-4610131D01*
G01X4767555Y-4604522D01*
G01X4751431Y-4602774D01*
G01X4735365Y-4604992D01*
G01X4720319Y-4611044D01*
G01X4707191Y-4620567D01*
G01X4569011Y-4620567D01*
G01X4555883Y-4611044D01*
G01X4540836Y-4604992D01*
G01X4524770Y-4602774D01*
G01X4508647Y-4604522D01*
G01X4493429Y-4610131D01*
G01X4480029Y-4619266D01*
G01X4469246Y-4631381D01*
G01X4461727Y-4645750D01*
G01X4457920Y-4661515D01*
G01X4458054Y-4677733D01*
G01X4462120Y-4693433D01*
G01X4469876Y-4707677D01*
G01X3987844Y-4707677D01*
G01X3997666Y-4696419D01*
G01X4004718Y-4683248D01*
G01X4008642Y-4668832D01*
G01X4009240Y-4653904D01*
G01X4006481Y-4639221D01*
G01X4000505Y-4625528D01*
G01X3991616Y-4613521D01*
G01X3991616Y-515628D01*
G01X4013225Y-514800D01*
G01X4034304Y-509969D01*
G01X4054117Y-501304D01*
G01X4071974Y-489106D01*
G01X4087252Y-473802D01*
G01X4099418Y-455924D01*
G01X4108049Y-436096D01*
G01X4112842Y-415008D01*
G01X4113237Y-404213D01*
G01X4136270Y-404213D01*
G01X4138911Y-424935D01*
G01X4145232Y-444846D01*
G01X4155026Y-463297D01*
G01X4167976Y-479689D01*
G01X4183660Y-493487D01*
G01X4201568Y-504244D01*
G01X4201568Y-4229522D01*
G01X4192469Y-4241893D01*
G01X4186461Y-4256025D01*
G01X4183864Y-4271161D01*
G01X4184818Y-4286488D01*
G01X4189272Y-4301184D01*
G01X4196987Y-4314462D01*
G01X4207550Y-4325609D01*
G01X4220393Y-4334028D01*
G01X4234828Y-4339267D01*
G01X4250081Y-4341045D01*
G01X4250081Y-4341045D01*
G01X4265335Y-4339267D01*
G01X4279770Y-4334028D01*
G01X4292613Y-4325609D01*
G01X4303176Y-4314462D01*
G01X4310891Y-4301184D01*
G01X4315345Y-4286488D01*
G01X4316299Y-4271161D01*
G01X4313702Y-4256025D01*
G01X4307694Y-4241893D01*
G01X4298595Y-4229522D01*
G01X4298595Y-3919791D01*
G01X4375350Y-3919791D01*
G01X4375764Y-3935142D01*
G01X4379697Y-3949986D01*
G01X4386940Y-3963528D01*
G01X4397103Y-3975040D01*
G01X4409642Y-3983906D01*
G01X4423884Y-3989651D01*
G01X4439065Y-3991965D01*
G01X4476728Y-4029628D01*
G01X4478741Y-4043671D01*
G01X4483695Y-4056963D01*
G01X4491363Y-4068898D01*
G01X4501394Y-4078929D01*
G01X4513329Y-4086597D01*
G01X4526622Y-4091551D01*
G01X4540665Y-4093565D01*
G01X4781528Y-4334428D01*
G01X4781528Y-4334428D01*
G01X4783842Y-4349609D01*
G01X4789586Y-4363851D01*
G01X4798452Y-4376389D01*
G01X4809965Y-4386553D01*
G01X4823506Y-4393795D01*
G01X4838351Y-4397729D01*
G01X4853702Y-4398142D01*
G01X4868736Y-4395014D01*
G01X4882648Y-4388511D01*
G01X4883582Y-4387772D01*
G01X5983780Y-4387772D01*
G01X5986377Y-4402907D01*
G01X5992386Y-4417040D01*
G01X6001484Y-4429411D01*
G01X6001484Y-4485801D01*
G01X6003137Y-4498357D01*
G01X6007984Y-4510058D01*
G01X6015693Y-4520106D01*
G01X6059925Y-4564337D01*
G01X6062239Y-4579518D01*
G01X6067984Y-4593760D01*
G01X6076850Y-4606299D01*
G01X6088362Y-4616462D01*
G01X6101904Y-4623705D01*
G01X6116748Y-4627638D01*
G01X6132099Y-4628052D01*
G01X6147134Y-4624923D01*
G01X6161046Y-4618420D01*
G01X6173089Y-4608892D01*
G01X6173089Y-4608892D01*
G01X6182617Y-4596849D01*
G01X6189120Y-4582937D01*
G01X6192249Y-4567902D01*
G01X6191835Y-4552551D01*
G01X6187901Y-4537707D01*
G01X6180659Y-4524165D01*
G01X6170496Y-4512653D01*
G01X6157957Y-4503787D01*
G01X6143715Y-4498043D01*
G01X6128534Y-4495728D01*
G01X6098512Y-4465706D01*
G01X6098512Y-4429411D01*
G01X6107610Y-4417040D01*
G01X6113619Y-4402907D01*
G01X6116216Y-4387772D01*
G01X6115261Y-4372445D01*
G01X6110807Y-4357749D01*
G01X6103092Y-4344471D01*
G01X6092530Y-4333323D01*
G01X6079687Y-4324904D01*
G01X6065251Y-4319665D01*
G01X6049998Y-4317887D01*
G01X6034745Y-4319665D01*
G01X6020309Y-4324904D01*
G01X6007466Y-4333323D01*
G01X5996904Y-4344471D01*
G01X5989188Y-4357749D01*
G01X5984734Y-4372445D01*
G01X5983780Y-4387772D01*
G01X4883582Y-4387772D01*
G01X4894691Y-4378982D01*
G01X4904220Y-4366939D01*
G01X4910723Y-4353027D01*
G01X4913851Y-4337993D01*
G01X4913438Y-4322642D01*
G01X4909504Y-4307797D01*
G01X4902261Y-4294256D01*
G01X4892098Y-4282743D01*
G01X4879560Y-4273877D01*
G01X4865318Y-4268133D01*
G01X4850137Y-4265819D01*
G01X4744326Y-4160008D01*
G01X7754187Y-4160008D01*
G01X7756028Y-4178700D01*
G01X7761481Y-4196674D01*
G01X7770335Y-4213239D01*
G01X7782250Y-4227759D01*
G01X7796770Y-4239674D01*
G01X7813335Y-4248529D01*
G01X7831309Y-4253981D01*
G01X7850001Y-4255822D01*
G01X7868693Y-4253981D01*
G01X7886667Y-4248529D01*
G01X7903232Y-4239674D01*
G01X7917752Y-4227759D01*
G01X7929667Y-4213239D01*
G01X7938521Y-4196674D01*
G01X7943974Y-4178700D01*
G01X7945815Y-4160008D01*
G01X7943974Y-4141316D01*
G01X7938521Y-4123342D01*
G01X7929667Y-4106777D01*
G01X7917752Y-4092257D01*
G01X7903232Y-4080342D01*
G01X7886667Y-4071488D01*
G01X7868693Y-4066035D01*
G01X7850001Y-4064194D01*
G01X7831309Y-4066035D01*
G01X7813335Y-4071488D01*
G01X7796770Y-4080342D01*
G01X7782250Y-4092257D01*
G01X7770335Y-4106777D01*
G01X7761481Y-4123342D01*
G01X7756028Y-4141316D01*
G01X7754187Y-4160008D01*
G01X7754187Y-4160008D01*
G01X4744326Y-4160008D01*
G01X4609274Y-4024956D01*
G01X4607260Y-4010913D01*
G01X4602306Y-3997620D01*
G01X4594638Y-3985685D01*
G01X4584607Y-3975654D01*
G01X4572672Y-3967986D01*
G01X4559380Y-3963033D01*
G01X4545337Y-3961019D01*
G01X4507674Y-3923356D01*
G01X4505359Y-3908175D01*
G01X4499615Y-3893933D01*
G01X4490749Y-3881394D01*
G01X4479237Y-3871231D01*
G01X4465695Y-3863988D01*
G01X4450851Y-3860055D01*
G01X4435500Y-3859641D01*
G01X4420465Y-3862770D01*
G01X4406553Y-3869273D01*
G01X4394510Y-3878801D01*
G01X4384982Y-3890844D01*
G01X4378479Y-3904756D01*
G01X4375350Y-3919791D01*
G01X4298595Y-3919791D01*
G01X4298595Y-3500010D01*
G01X7704192Y-3500010D01*
G01X7706185Y-3527877D01*
G01X7712123Y-3555177D01*
G01X7721887Y-3581354D01*
G01X7735276Y-3605874D01*
G01X7752019Y-3628240D01*
G01X7771775Y-3647996D01*
G01X7794140Y-3664739D01*
G01X7818661Y-3678128D01*
G01X7844838Y-3687891D01*
G01X7872138Y-3693830D01*
G01X7900005Y-3695823D01*
G01X7927872Y-3693830D01*
G01X7955172Y-3687891D01*
G01X7981349Y-3678128D01*
G01X8005870Y-3664739D01*
G01X8028236Y-3647996D01*
G01X8047991Y-3628240D01*
G01X8064734Y-3605874D01*
G01X8078124Y-3581354D01*
G01X8087887Y-3555177D01*
G01X8093826Y-3527877D01*
G01X8095819Y-3500010D01*
G01X8093826Y-3472142D01*
G01X8087887Y-3444843D01*
G01X8078124Y-3418666D01*
G01X8064734Y-3394145D01*
G01X8047991Y-3371779D01*
G01X8028236Y-3352023D01*
G01X8005870Y-3335281D01*
G01X7981349Y-3321891D01*
G01X7955172Y-3312128D01*
G01X7927872Y-3306189D01*
G01X7900005Y-3304196D01*
G01X7872138Y-3306189D01*
G01X7844838Y-3312128D01*
G01X7818661Y-3321891D01*
G01X7794140Y-3335281D01*
G01X7771775Y-3352023D01*
G01X7752019Y-3371779D01*
G01X7735276Y-3394145D01*
G01X7721887Y-3418666D01*
G01X7712123Y-3444843D01*
G01X7706185Y-3472142D01*
G01X7704192Y-3500010D01*
G01X7704192Y-3500010D01*
G01X4298595Y-3500010D01*
G01X4298595Y-506020D01*
G01X4316885Y-495926D01*
G01X4333063Y-482711D01*
G01X4346604Y-466804D01*
G01X4357068Y-448724D01*
G01X4364113Y-429058D01*
G01X4367511Y-408447D01*
G01X4367240Y-392715D01*
G01X4390421Y-392715D01*
G01X4390995Y-413597D01*
G01X4395310Y-434037D01*
G01X4403227Y-453369D01*
G01X4414488Y-470964D01*
G01X4428727Y-486250D01*
G01X4445481Y-498730D01*
G01X4464203Y-507997D01*
G01X4484286Y-513749D01*
G01X4505075Y-515800D01*
G01X4525895Y-514084D01*
G01X4546067Y-508655D01*
G01X4598706Y-561294D01*
G01X4608754Y-569003D01*
G01X4620454Y-573850D01*
G01X4633011Y-575503D01*
G01X6680241Y-575503D01*
G01X8257731Y-2152993D01*
G01X8257731Y-2152993D01*
G01X8245270Y-2160742D01*
G01X8234817Y-2171042D01*
G01X8226886Y-2183388D01*
G01X8221865Y-2197177D01*
G01X8219999Y-2211732D01*
G01X8221379Y-2226342D01*
G01X8225939Y-2240290D01*
G01X8233455Y-2252893D01*
G01X8243559Y-2263535D01*
G01X8255756Y-2271695D01*
G01X8269449Y-2276972D01*
G01X8283967Y-2279108D01*
G01X8381790Y-2376932D01*
G01X8384363Y-2393031D01*
G01X8390786Y-2408015D01*
G01X8400671Y-2420980D01*
G01X8413420Y-2431141D01*
G01X8428264Y-2437884D01*
G01X8444303Y-2440803D01*
G01X8460571Y-2439719D01*
G01X8476082Y-2434699D01*
G01X8489899Y-2426047D01*
G01X8501188Y-2414284D01*
G01X8509267Y-2400123D01*
G01X8513645Y-2384419D01*
G01X8514060Y-2368121D01*
G01X8510486Y-2352215D01*
G01X8520714Y-2343109D01*
G01X8528854Y-2332098D01*
G01X8534559Y-2319649D01*
G01X8537585Y-2306293D01*
G01X8537803Y-2292601D01*
G01X8535205Y-2279156D01*
G01X8529900Y-2266532D01*
G01X8522116Y-2255266D01*
G01X8512183Y-2245839D01*
G01X8500526Y-2238654D01*
G01X8487642Y-2234016D01*
G01X8474079Y-2232123D01*
G01X8164964Y-1923007D01*
G01X8282174Y-1923007D01*
G01X8282174Y-1941992D01*
G01X8286121Y-1960562D01*
G01X8293843Y-1977906D01*
G01X8305002Y-1993266D01*
G01X8319111Y-2005969D01*
G01X8335553Y-2015462D01*
G01X8353609Y-2021329D01*
G01X8372490Y-2023313D01*
G01X8462490Y-2023313D01*
G01X8481061Y-2021394D01*
G01X8498846Y-2015718D01*
G01X8515096Y-2006525D01*
G01X8529122Y-1994203D01*
G01X8540332Y-1979274D01*
G01X8548252Y-1962367D01*
G01X8552547Y-1944198D01*
G01X8552854Y-1932499D01*
G01X8711690Y-1932499D01*
G01X8713532Y-1951192D01*
G01X8718984Y-1969166D01*
G01X8727838Y-1985731D01*
G01X8739754Y-2000250D01*
G01X8754273Y-2012166D01*
G01X8770838Y-2021020D01*
G01X8788812Y-2026472D01*
G01X8807504Y-2028313D01*
G01X8807504Y-2028313D01*
G01X8867504Y-2028313D01*
G01X8886197Y-2026472D01*
G01X8904171Y-2021020D01*
G01X8920736Y-2012166D01*
G01X8935255Y-2000250D01*
G01X8947171Y-1985731D01*
G01X8956025Y-1969166D01*
G01X8961477Y-1951192D01*
G01X8963318Y-1932499D01*
G01X8961477Y-1913807D01*
G01X8956025Y-1895833D01*
G01X8947171Y-1879268D01*
G01X8935255Y-1864749D01*
G01X8920736Y-1852833D01*
G01X8904171Y-1843979D01*
G01X8886197Y-1838527D01*
G01X8867504Y-1836686D01*
G01X8807504Y-1836686D01*
G01X8788812Y-1838527D01*
G01X8770838Y-1843979D01*
G01X8754273Y-1852833D01*
G01X8739754Y-1864749D01*
G01X8727838Y-1879268D01*
G01X8718984Y-1895833D01*
G01X8713532Y-1913807D01*
G01X8711690Y-1932499D01*
G01X8552854Y-1932499D01*
G01X8553036Y-1925535D01*
G01X8549699Y-1907166D01*
G01X8542676Y-1889868D01*
G01X8532263Y-1874372D01*
G01X8518902Y-1861332D01*
G01X8503157Y-1851300D01*
G01X8516468Y-1841996D01*
G01X8527309Y-1829903D01*
G01X8535110Y-1815659D01*
G01X8539461Y-1800013D01*
G01X8540133Y-1783786D01*
G01X8537090Y-1767833D01*
G01X8530493Y-1752993D01*
G01X8520689Y-1740046D01*
G01X8508193Y-1729673D01*
G01X8493662Y-1722420D01*
G01X8477861Y-1718668D01*
G01X8461620Y-1718615D01*
G01X8445795Y-1722263D01*
G01X8431217Y-1729420D01*
G01X8418653Y-1739711D01*
G01X8408763Y-1752593D01*
G01X8402069Y-1767389D01*
G01X8398921Y-1783322D01*
G01X8399486Y-1799552D01*
G01X8403734Y-1815227D01*
G01X8411441Y-1829522D01*
G01X8422203Y-1841686D01*
G01X8372490Y-1841686D01*
G01X8372490Y-1841686D01*
G01X8353609Y-1843670D01*
G01X8335553Y-1849537D01*
G01X8319111Y-1859029D01*
G01X8305002Y-1871733D01*
G01X8293843Y-1887092D01*
G01X8286121Y-1904436D01*
G01X8282174Y-1923007D01*
G01X8164964Y-1923007D01*
G01X7299967Y-1058010D01*
G01X8282174Y-1058010D01*
G01X8282174Y-1076995D01*
G01X8286121Y-1095565D01*
G01X8293843Y-1112909D01*
G01X8305002Y-1128269D01*
G01X8319111Y-1140972D01*
G01X8335553Y-1150465D01*
G01X8353609Y-1156332D01*
G01X8372490Y-1158316D01*
G01X8422174Y-1158316D01*
G01X8411421Y-1170483D01*
G01X8403722Y-1184779D01*
G01X8399482Y-1200453D01*
G01X8398923Y-1216681D01*
G01X8402076Y-1232609D01*
G01X8408773Y-1247401D01*
G01X8418664Y-1260278D01*
G01X8431229Y-1270564D01*
G01X8445805Y-1277717D01*
G01X8461628Y-1281362D01*
G01X8477866Y-1281307D01*
G01X8493664Y-1277555D01*
G01X8508192Y-1270303D01*
G01X8520686Y-1259933D01*
G01X8530490Y-1246989D01*
G01X8537087Y-1232152D01*
G01X8540132Y-1216203D01*
G01X8539464Y-1199979D01*
G01X8535117Y-1184334D01*
G01X8527322Y-1170091D01*
G01X8516486Y-1157997D01*
G01X8503181Y-1148690D01*
G01X8518922Y-1138654D01*
G01X8532278Y-1125612D01*
G01X8542685Y-1110115D01*
G01X8549704Y-1092817D01*
G01X8553038Y-1074450D01*
G01X8552854Y-1067502D01*
G01X8711690Y-1067502D01*
G01X8713532Y-1086195D01*
G01X8718984Y-1104169D01*
G01X8727838Y-1120734D01*
G01X8739754Y-1135253D01*
G01X8754273Y-1147169D01*
G01X8770838Y-1156023D01*
G01X8788812Y-1161475D01*
G01X8807504Y-1163316D01*
G01X8807504Y-1163316D01*
G01X8867504Y-1163316D01*
G01X8886197Y-1161475D01*
G01X8904171Y-1156023D01*
G01X8920736Y-1147169D01*
G01X8935255Y-1135253D01*
G01X8947171Y-1120734D01*
G01X8956025Y-1104169D01*
G01X8961477Y-1086195D01*
G01X8963318Y-1067502D01*
G01X8961477Y-1048810D01*
G01X8956025Y-1030836D01*
G01X8947171Y-1014271D01*
G01X8935255Y-999752D01*
G01X8920736Y-987836D01*
G01X8904171Y-978982D01*
G01X8886197Y-973530D01*
G01X8867504Y-971689D01*
G01X8807504Y-971689D01*
G01X8788812Y-973530D01*
G01X8770838Y-978982D01*
G01X8754273Y-987836D01*
G01X8739754Y-999752D01*
G01X8727838Y-1014271D01*
G01X8718984Y-1030836D01*
G01X8713532Y-1048810D01*
G01X8711690Y-1067502D01*
G01X8552854Y-1067502D01*
G01X8552545Y-1055789D01*
G01X8548247Y-1037623D01*
G01X8540326Y-1020719D01*
G01X8529116Y-1005792D01*
G01X8515091Y-993473D01*
G01X8498843Y-984282D01*
G01X8481058Y-978607D01*
G01X8462490Y-976689D01*
G01X8462490Y-976689D01*
G01X8372490Y-976689D01*
G01X8353609Y-978673D01*
G01X8335553Y-984540D01*
G01X8319111Y-994032D01*
G01X8305002Y-1006736D01*
G01X8293843Y-1022095D01*
G01X8286121Y-1039439D01*
G01X8282174Y-1058010D01*
G01X7299967Y-1058010D01*
G01X6734641Y-492684D01*
G01X6724594Y-484975D01*
G01X6712893Y-480128D01*
G01X6700337Y-478475D01*
G01X4845171Y-478475D01*
G01X4857729Y-462145D01*
G01X4867195Y-443849D01*
G01X4873269Y-424165D01*
G01X4875760Y-403716D01*
G01X4874589Y-383149D01*
G01X4869793Y-363115D01*
G01X4861523Y-344248D01*
G01X4850041Y-327144D01*
G01X4835711Y-312345D01*
G01X4818986Y-300319D01*
G01X4800394Y-291447D01*
G01X4780525Y-286009D01*
G01X4760006Y-284177D01*
G01X4739488Y-286009D01*
G01X4719619Y-291447D01*
G01X4701027Y-300319D01*
G01X4684302Y-312345D01*
G01X4669972Y-327144D01*
G01X4658490Y-344248D01*
G01X4650220Y-363115D01*
G01X4645424Y-383149D01*
G01X4644252Y-403716D01*
G01X4646744Y-424165D01*
G01X4652818Y-443849D01*
G01X4662284Y-462145D01*
G01X4674842Y-478475D01*
G01X4653106Y-478475D01*
G01X4614674Y-440043D01*
G01X4620101Y-419870D01*
G01X4621816Y-399050D01*
G01X4619763Y-378261D01*
G01X4614009Y-358179D01*
G01X4604741Y-339457D01*
G01X4592260Y-322705D01*
G01X4576973Y-308467D01*
G01X4559377Y-297207D01*
G01X4540045Y-289291D01*
G01X4519604Y-284978D01*
G01X4498722Y-284406D01*
G01X4478076Y-287595D01*
G01X4458340Y-294441D01*
G01X4440154Y-304721D01*
G01X4424110Y-318101D01*
G01X4410732Y-334145D01*
G01X4400453Y-352332D01*
G01X4393609Y-372069D01*
G01X4390421Y-392715D01*
G01X4367240Y-392715D01*
G01X4367151Y-387560D01*
G01X4363045Y-367078D01*
G01X4355326Y-347666D01*
G01X4344246Y-329957D01*
G01X4330165Y-314527D01*
G01X4313541Y-301877D01*
G01X4294915Y-292419D01*
G01X4274893Y-286460D01*
G01X4254126Y-284196D01*
G01X4233291Y-285699D01*
G01X4213064Y-290920D01*
G01X4194104Y-299690D01*
G01X4177028Y-311723D01*
G01X4162392Y-326628D01*
G01X4150671Y-343920D01*
G01X4142247Y-363035D01*
G01X4137394Y-383354D01*
G01X4136270Y-404213D01*
G01X4113237Y-404213D01*
G01X4113632Y-393398D01*
G01X4110391Y-372017D01*
G01X4103232Y-351612D01*
G01X4092403Y-332893D01*
G01X4078284Y-316513D01*
G01X4061365Y-303045D01*
G01X4042238Y-292956D01*
G01X4021568Y-286599D01*
G01X4000077Y-284195D01*
G01X3978514Y-285829D01*
G01X3957630Y-291443D01*
G01X3938154Y-300841D01*
G01X3920765Y-313697D01*
G01X3906069Y-329561D01*
G01X3894578Y-347880D01*
G01X3886694Y-368017D01*
G01X3882690Y-389268D01*
G01X3882707Y-410893D01*
G01X3886744Y-432138D01*
G01X3894660Y-452262D01*
G01X3894588Y-454899D01*
G01X3894588Y-4613521D01*
G01X3885699Y-4625528D01*
G01X3879723Y-4639221D01*
G01X3876964Y-4653904D01*
G01X3877562Y-4668832D01*
G01X3881487Y-4683248D01*
G01X3888539Y-4696419D01*
G01X3898360Y-4707677D01*
G01X3503016Y-4707677D01*
G01X3526139Y-4684554D01*
G01X3541321Y-4682239D01*
G01X3555562Y-4676495D01*
G01X3568101Y-4667629D01*
G01X3578264Y-4656116D01*
G01X3585507Y-4642575D01*
G01X3589440Y-4627730D01*
G01X3589854Y-4612379D01*
G01X3586725Y-4597345D01*
G01X3580222Y-4583433D01*
G01X3570694Y-4571390D01*
G01X3558651Y-4561861D01*
G01X3544739Y-4555358D01*
G01X3529704Y-4552230D01*
G01X3514353Y-4552644D01*
G01X3499509Y-4556577D01*
G01X3485968Y-4563820D01*
G01X3474455Y-4573983D01*
G01X3465589Y-4586521D01*
G01X3459845Y-4600763D01*
G01X3457530Y-4615944D01*
G01X3402108Y-4671367D01*
G01X3059477Y-4671367D01*
G01X3520408Y-4210436D01*
G01X3528117Y-4200389D01*
G01X3532964Y-4188688D01*
G01X3534617Y-4176132D01*
G01X3534617Y-506868D01*
G01X3552304Y-497622D01*
G01X3568140Y-485477D01*
G01X3581657Y-470793D01*
G01X3592452Y-454007D01*
G01X3600204Y-435617D01*
G01X3604685Y-416169D01*
G01X3605759Y-396240D01*
G01X3603397Y-376423D01*
G01X3597667Y-357305D01*
G01X3588740Y-339456D01*
G01X3576881Y-323403D01*
G01X3598818Y-323403D01*
G01X3635342Y-359928D01*
G01X3629913Y-380101D01*
G01X3628196Y-400920D01*
G01X3630247Y-421710D01*
G01X3636000Y-441793D01*
G01X3645266Y-460515D01*
G01X3657746Y-477269D01*
G01X3673031Y-491508D01*
G01X3690627Y-502769D01*
G01X3709959Y-510686D01*
G01X3730398Y-515002D01*
G01X3751281Y-515576D01*
G01X3771927Y-512388D01*
G01X3791664Y-505544D01*
G01X3809851Y-495266D01*
G01X3825895Y-481887D01*
G01X3839275Y-465844D01*
G01X3849556Y-447658D01*
G01X3856402Y-427922D01*
G01X3859591Y-407276D01*
G01X3859019Y-386394D01*
G01X3854706Y-365953D01*
G01X3846790Y-346621D01*
G01X3835531Y-329024D01*
G01X3821293Y-313737D01*
G01X3804541Y-301256D01*
G01X3785819Y-291988D01*
G01X3765737Y-286234D01*
G01X3744948Y-284180D01*
G01X3724128Y-285895D01*
G01X3703955Y-291322D01*
G01X3657936Y-245304D01*
G01X7779943Y-245304D01*
G01X7759824Y-263271D01*
G01X7742365Y-283833D01*
G01X7727897Y-306600D01*
G01X7716696Y-331138D01*
G01X7708973Y-356983D01*
G01X7704875Y-383645D01*
G01X7704480Y-410616D01*
G01X7707795Y-437386D01*
G01X7714758Y-463446D01*
G01X7725237Y-488302D01*
G01X7739031Y-511482D01*
G01X7755881Y-532547D01*
G01X7775465Y-551096D01*
G01X7797413Y-566777D01*
G01X7821307Y-579294D01*
G01X7846695Y-588408D01*
G01X7873095Y-593946D01*
G01X7900005Y-595804D01*
G01X7926915Y-593946D01*
G01X7953315Y-588408D01*
G01X7978703Y-579294D01*
G01X8002598Y-566777D01*
G01X8024545Y-551096D01*
G01X8044130Y-532547D01*
G01X8048566Y-527000D01*
G01X8233986Y-527000D01*
G01X8235893Y-547583D01*
G01X8241550Y-567464D01*
G01X8250764Y-585968D01*
G01X8263221Y-602463D01*
G01X8278497Y-616389D01*
G01X8296071Y-627271D01*
G01X8315346Y-634738D01*
G01X8335665Y-638536D01*
G01X8356335Y-638536D01*
G01X8376654Y-634738D01*
G01X8395929Y-627271D01*
G01X8413504Y-616389D01*
G01X8428779Y-602463D01*
G01X8441236Y-585968D01*
G01X8450450Y-567464D01*
G01X8456107Y-547583D01*
G01X8458014Y-527000D01*
G01X8458014Y-527000D01*
G01X8741986Y-527000D01*
G01X8743893Y-547583D01*
G01X8749550Y-567464D01*
G01X8758764Y-585968D01*
G01X8771221Y-602463D01*
G01X8786497Y-616389D01*
G01X8804071Y-627271D01*
G01X8823346Y-634738D01*
G01X8843665Y-638536D01*
G01X8864335Y-638536D01*
G01X8884654Y-634738D01*
G01X8903929Y-627271D01*
G01X8921504Y-616389D01*
G01X8936779Y-602463D01*
G01X8949236Y-585968D01*
G01X8958450Y-567464D01*
G01X8964107Y-547583D01*
G01X8966014Y-527000D01*
G01X8964107Y-506417D01*
G01X8958450Y-486536D01*
G01X8949236Y-468032D01*
G01X8936779Y-451537D01*
G01X8921504Y-437611D01*
G01X8903929Y-426729D01*
G01X8884654Y-419262D01*
G01X8864335Y-415464D01*
G01X8843665Y-415464D01*
G01X8823346Y-419262D01*
G01X8804071Y-426729D01*
G01X8786497Y-437611D01*
G01X8771221Y-451537D01*
G01X8758764Y-468032D01*
G01X8749550Y-486536D01*
G01X8743893Y-506417D01*
G01X8741986Y-527000D01*
G01X8741986Y-527000D01*
G01X8458014Y-527000D01*
G01X8456107Y-506417D01*
G01X8450450Y-486536D01*
G01X8441236Y-468032D01*
G01X8428779Y-451537D01*
G01X8413504Y-437611D01*
G01X8395929Y-426729D01*
G01X8376654Y-419262D01*
G01X8356335Y-415464D01*
G01X8335665Y-415464D01*
G01X8315346Y-419262D01*
G01X8296071Y-426729D01*
G01X8278497Y-437611D01*
G01X8263221Y-451537D01*
G01X8250764Y-468032D01*
G01X8241550Y-486536D01*
G01X8235893Y-506417D01*
G01X8233986Y-527000D01*
G01X8233986Y-527000D01*
G01X8048566Y-527000D01*
G01X8060979Y-511482D01*
G01X8074774Y-488302D01*
G01X8085252Y-463446D01*
G01X8092215Y-437386D01*
G01X8095530Y-410616D01*
G01X8095135Y-383645D01*
G01X8091038Y-356983D01*
G01X8083315Y-331138D01*
G01X8072113Y-306600D01*
G01X8057646Y-283833D01*
G01X8040187Y-263271D01*
G01X8020068Y-245304D01*
G01X8491464Y-245304D01*
G01X8488192Y-266219D01*
G01X8488912Y-287376D01*
G01X8493601Y-308020D01*
G01X8502090Y-327413D01*
G01X8514077Y-344863D01*
G01X8529132Y-359746D01*
G01X8546718Y-371530D01*
G01X8566208Y-379795D01*
G01X8586905Y-384246D01*
G01X8608069Y-384723D01*
G01X8628945Y-381210D01*
G01X8648787Y-373831D01*
G01X8666887Y-362851D01*
G01X8682598Y-348662D01*
G01X8695358Y-331771D01*
G01X8704713Y-312780D01*
G01X8710327Y-292368D01*
G01X8712001Y-271265D01*
G01X8709674Y-250223D01*
G01X8703430Y-229995D01*
G01X8693492Y-211303D01*
G01X8680214Y-194815D01*
G01X8664071Y-181119D01*
G01X8645640Y-170706D01*
G01X8625579Y-163946D01*
G01X8604604Y-161081D01*
G01X8583464Y-162213D01*
G01X8562915Y-167303D01*
G01X8558098Y-162485D01*
G01X8548050Y-154775D01*
G01X8536349Y-149929D01*
G01X8523793Y-148276D01*
G01X1661207Y-148276D01*
G01X1648650Y-149929D01*
G01X1636950Y-154775D01*
G01X1626902Y-162485D01*
G01X1498063Y-291324D01*
G01X1477890Y-285896D01*
G01X1457070Y-284180D01*
G01X1436281Y-286233D01*
G01X1416199Y-291986D01*
G01X1397476Y-301254D01*
G01X1380724Y-313734D01*
G01X1366485Y-329020D01*
G01X1355225Y-346616D01*
G01X1347309Y-365948D01*
G01X1342994Y-386388D01*
G01X1342422Y-407271D01*
G01X1345610Y-427916D01*
G01X1352455Y-447653D01*
G01X1362735Y-465840D01*
G01X1376114Y-481883D01*
G01X1392158Y-495263D01*
G01X1410344Y-505542D01*
G01X1430081Y-512387D01*
G01X1450727Y-515575D01*
G01X1471609Y-515003D01*
G01X1492049Y-510688D01*
G01X1511381Y-502771D01*
G01X1528977Y-491511D01*
G01X1544264Y-477273D01*
G01X1556744Y-460520D01*
G01X1566011Y-441798D01*
G01X1571764Y-421715D01*
G01X1573816Y-400926D01*
G01X1572100Y-380106D01*
G01X1566672Y-359933D01*
G01X1681302Y-245304D01*
G01X3397580Y-245304D01*
G01X3326099Y-316785D01*
G01X3321599Y-321972D01*
G01X3306221Y-307888D01*
G01X3288567Y-296790D01*
G01X3269209Y-289038D01*
G01X3248774Y-284883D01*
G01X3227926Y-284459D01*
G01X3207340Y-287780D01*
G01X3187683Y-294740D01*
G01X3169592Y-305111D01*
G01X3153655Y-318559D01*
G01X3140388Y-334646D01*
G01X3130220Y-352852D01*
G01X3123482Y-372586D01*
G01X3120391Y-393208D01*
G01X3121049Y-414050D01*
G01X3125434Y-434437D01*
G01X3133403Y-453706D01*
G01X3144699Y-471235D01*
G01X3158954Y-486453D01*
G01X3175708Y-498869D01*
G01X3194416Y-508079D01*
G01X3214473Y-513785D01*
G01X3235228Y-515802D01*
G01X3256008Y-514064D01*
G01X3276140Y-508628D01*
G01X3294970Y-499670D01*
G01X3311889Y-487481D01*
G01X3311889Y-3785387D01*
G01X3148299Y-3948977D01*
G01X3140589Y-3959025D01*
G01X3135743Y-3970726D01*
G01X3134090Y-3983282D01*
G01X3134090Y-4267986D01*
G01X2884015Y-4518061D01*
G01X2877734Y-4505831D01*
G01X2869066Y-4495160D01*
G01X2858383Y-4486506D01*
G01X2846146Y-4480240D01*
G01X2832880Y-4476632D01*
G01X2838771Y-4464177D01*
G01X2841962Y-4450773D01*
G01X2842314Y-4436999D01*
G01X2839812Y-4423450D01*
G01X2834564Y-4410711D01*
G01X2826797Y-4399330D01*
G01X2816846Y-4389801D01*
G01X2805140Y-4382533D01*
G01X2792186Y-4377842D01*
G01X2778541Y-4375928D01*
G01X2773919Y-4371306D01*
G01X2773919Y-4182897D01*
G01X2800517Y-4156298D01*
G01X2812978Y-4149785D01*
G01X2823786Y-4140792D01*
G01X2832455Y-4129722D01*
G01X2838595Y-4117073D01*
G01X2841930Y-4103414D01*
G01X2842311Y-4089359D01*
G01X2839719Y-4075539D01*
G01X2834273Y-4062577D01*
G01X2826216Y-4051054D01*
G01X2815910Y-4041489D01*
G01X2803820Y-4034311D01*
G01X2790488Y-4029844D01*
G01X2776514Y-4028289D01*
G01X2762526Y-4029714D01*
G01X2607309Y-3874498D01*
G01X2597262Y-3866788D01*
G01X2585561Y-3861941D01*
G01X2573005Y-3860288D01*
G01X1732521Y-3860288D01*
G01X1732521Y-3784267D01*
G01X1746957Y-3789664D01*
G01X1762249Y-3791584D01*
G01X1777571Y-3789922D01*
G01X1792095Y-3784768D01*
G01X1805038Y-3776400D01*
G01X1815700Y-3765271D01*
G01X1823504Y-3751981D01*
G01X1828030Y-3737248D01*
G01X1829033Y-3721869D01*
G01X1826459Y-3706673D01*
G01X1820446Y-3692482D01*
G01X1811320Y-3680063D01*
G01X1811320Y-459569D01*
G01X1820208Y-441286D01*
G01X1825761Y-421732D01*
G01X1827810Y-401507D01*
G01X1827697Y-399990D01*
G01X1850193Y-399990D01*
G01X1852165Y-421271D01*
G01X1858013Y-441827D01*
G01X1867539Y-460959D01*
G01X1880419Y-478014D01*
G01X1896213Y-492412D01*
G01X1914384Y-503663D01*
G01X1934312Y-511383D01*
G01X1955320Y-515310D01*
G01X1976692Y-515310D01*
G01X1997700Y-511383D01*
G01X2017629Y-503663D01*
G01X2035800Y-492412D01*
G01X2051594Y-478014D01*
G01X2064473Y-460959D01*
G01X2074000Y-441827D01*
G01X2079848Y-421271D01*
G01X2081820Y-399990D01*
G01X2081820Y-399990D01*
G01X2104193Y-399990D01*
G01X2106165Y-421271D01*
G01X2112013Y-441827D01*
G01X2121539Y-460959D01*
G01X2134419Y-478014D01*
G01X2150213Y-492412D01*
G01X2168384Y-503663D01*
G01X2188312Y-511383D01*
G01X2209320Y-515310D01*
G01X2230692Y-515310D01*
G01X2251700Y-511383D01*
G01X2271629Y-503663D01*
G01X2289800Y-492412D01*
G01X2305594Y-478014D01*
G01X2318473Y-460959D01*
G01X2328000Y-441827D01*
G01X2333848Y-421271D01*
G01X2335820Y-399990D01*
G01X2335820Y-399990D01*
G01X2358193Y-399990D01*
G01X2360165Y-421271D01*
G01X2366013Y-441827D01*
G01X2375539Y-460959D01*
G01X2388419Y-478014D01*
G01X2404213Y-492412D01*
G01X2422384Y-503663D01*
G01X2442312Y-511383D01*
G01X2463320Y-515310D01*
G01X2484692Y-515310D01*
G01X2505700Y-511383D01*
G01X2525629Y-503663D01*
G01X2543800Y-492412D01*
G01X2559594Y-478014D01*
G01X2572473Y-460959D01*
G01X2582000Y-441827D01*
G01X2587848Y-421271D01*
G01X2589820Y-399990D01*
G01X2589820Y-399990D01*
G01X2612193Y-399990D01*
G01X2614165Y-421271D01*
G01X2620013Y-441827D01*
G01X2629539Y-460959D01*
G01X2642419Y-478014D01*
G01X2658213Y-492412D01*
G01X2676384Y-503663D01*
G01X2696312Y-511383D01*
G01X2717320Y-515310D01*
G01X2738692Y-515310D01*
G01X2759700Y-511383D01*
G01X2779629Y-503663D01*
G01X2797800Y-492412D01*
G01X2813594Y-478014D01*
G01X2826473Y-460959D01*
G01X2836000Y-441827D01*
G01X2841848Y-421271D01*
G01X2843820Y-399990D01*
G01X2843820Y-399990D01*
G01X2866193Y-399990D01*
G01X2868165Y-421271D01*
G01X2874013Y-441827D01*
G01X2883539Y-460959D01*
G01X2896419Y-478014D01*
G01X2912213Y-492412D01*
G01X2930384Y-503663D01*
G01X2950312Y-511383D01*
G01X2971320Y-515310D01*
G01X2992692Y-515310D01*
G01X3013700Y-511383D01*
G01X3033629Y-503663D01*
G01X3051800Y-492412D01*
G01X3067594Y-478014D01*
G01X3080473Y-460959D01*
G01X3090000Y-441827D01*
G01X3095848Y-421271D01*
G01X3097820Y-399990D01*
G01X3095848Y-378710D01*
G01X3090000Y-358154D01*
G01X3080473Y-339022D01*
G01X3067594Y-321967D01*
G01X3051800Y-307569D01*
G01X3033629Y-296318D01*
G01X3013700Y-288598D01*
G01X2992692Y-284671D01*
G01X2971320Y-284671D01*
G01X2950312Y-288598D01*
G01X2930384Y-296318D01*
G01X2912213Y-307569D01*
G01X2896419Y-321967D01*
G01X2883539Y-339022D01*
G01X2874013Y-358154D01*
G01X2868165Y-378710D01*
G01X2866193Y-399990D01*
G01X2866193Y-399990D01*
G01X2843820Y-399990D01*
G01X2841848Y-378710D01*
G01X2836000Y-358154D01*
G01X2826473Y-339022D01*
G01X2813594Y-321967D01*
G01X2797800Y-307569D01*
G01X2779629Y-296318D01*
G01X2759700Y-288598D01*
G01X2738692Y-284671D01*
G01X2717320Y-284671D01*
G01X2696312Y-288598D01*
G01X2676384Y-296318D01*
G01X2658213Y-307569D01*
G01X2642419Y-321967D01*
G01X2629539Y-339022D01*
G01X2620013Y-358154D01*
G01X2614165Y-378710D01*
G01X2612193Y-399990D01*
G01X2612193Y-399990D01*
G01X2589820Y-399990D01*
G01X2587848Y-378710D01*
G01X2582000Y-358154D01*
G01X2572473Y-339022D01*
G01X2559594Y-321967D01*
G01X2543800Y-307569D01*
G01X2525629Y-296318D01*
G01X2505700Y-288598D01*
G01X2484692Y-284671D01*
G01X2463320Y-284671D01*
G01X2442312Y-288598D01*
G01X2422384Y-296318D01*
G01X2404213Y-307569D01*
G01X2388419Y-321967D01*
G01X2375539Y-339022D01*
G01X2366013Y-358154D01*
G01X2360165Y-378710D01*
G01X2358193Y-399990D01*
G01X2358193Y-399990D01*
G01X2335820Y-399990D01*
G01X2333848Y-378710D01*
G01X2328000Y-358154D01*
G01X2318473Y-339022D01*
G01X2305594Y-321967D01*
G01X2289800Y-307569D01*
G01X2271629Y-296318D01*
G01X2251700Y-288598D01*
G01X2230692Y-284671D01*
G01X2209320Y-284671D01*
G01X2188312Y-288598D01*
G01X2168384Y-296318D01*
G01X2150213Y-307569D01*
G01X2134419Y-321967D01*
G01X2121539Y-339022D01*
G01X2112013Y-358154D01*
G01X2106165Y-378710D01*
G01X2104193Y-399990D01*
G01X2104193Y-399990D01*
G01X2081820Y-399990D01*
G01X2079848Y-378710D01*
G01X2074000Y-358154D01*
G01X2064473Y-339022D01*
G01X2051594Y-321967D01*
G01X2035800Y-307569D01*
G01X2017629Y-296318D01*
G01X1997700Y-288598D01*
G01X1976692Y-284671D01*
G01X1955320Y-284671D01*
G01X1934312Y-288598D01*
G01X1914384Y-296318D01*
G01X1896213Y-307569D01*
G01X1880419Y-321967D01*
G01X1867539Y-339022D01*
G01X1858013Y-358154D01*
G01X1852165Y-378710D01*
G01X1850193Y-399990D01*
G01X1850193Y-399990D01*
G01X1827697Y-399990D01*
G01X1826292Y-381236D01*
G01X1821252Y-361543D01*
G01X1812847Y-343034D01*
G01X1801335Y-326280D01*
G01X1787071Y-311796D01*
G01X1770494Y-300030D01*
G01X1752115Y-291344D01*
G01X1732501Y-286004D01*
G01X1712255Y-284177D01*
G01X1692002Y-285917D01*
G01X1672365Y-291172D01*
G01X1653949Y-299780D01*
G01X1637322Y-311474D01*
G01X1622996Y-325896D01*
G01X1611412Y-342600D01*
G01X1602927Y-361073D01*
G01X1597803Y-380744D01*
G01X1596197Y-401009D01*
G01X1598159Y-421242D01*
G01X1603629Y-440820D01*
G01X1612437Y-459141D01*
G01X1624313Y-475639D01*
G01X1638891Y-489807D01*
G01X1655721Y-501207D01*
G01X1674285Y-509489D01*
G01X1694012Y-514398D01*
G01X1714292Y-515782D01*
G01X1714292Y-841665D01*
G01X1312673Y-440046D01*
G01X1318101Y-419873D01*
G01X1319816Y-399053D01*
G01X1317764Y-378264D01*
G01X1312010Y-358181D01*
G01X1302742Y-339459D01*
G01X1290262Y-322707D01*
G01X1274975Y-308469D01*
G01X1257379Y-297208D01*
G01X1238047Y-289292D01*
G01X1217607Y-284978D01*
G01X1196725Y-284406D01*
G01X1176079Y-287594D01*
G01X1156342Y-294440D01*
G01X1138156Y-304719D01*
G01X1122112Y-318099D01*
G01X1108733Y-334143D01*
G01X1098454Y-352329D01*
G01X1091609Y-372067D01*
G01X1088421Y-392712D01*
G01X1088994Y-413595D01*
G01X1093309Y-434035D01*
G01X1101226Y-453367D01*
G01X1112487Y-470962D01*
G01X1126725Y-486249D01*
G01X1143478Y-498728D01*
G01X1162201Y-507996D01*
G01X1182283Y-513749D01*
G01X1203073Y-515800D01*
G01X1223892Y-514084D01*
G01X1244065Y-508656D01*
G01X1635493Y-900083D01*
G01X1635493Y-3863592D01*
G01X1626817Y-3875233D01*
G01X1620883Y-3888482D01*
G01X1617974Y-3902706D01*
G01X1618229Y-3917221D01*
G01X1621638Y-3931333D01*
G01X1628035Y-3944366D01*
G01X1637116Y-3955693D01*
G01X1637116Y-3955693D01*
G01X1648443Y-3964773D01*
G01X1661475Y-3971171D01*
G01X1675588Y-3974580D01*
G01X1690103Y-3974835D01*
G01X1704326Y-3971926D01*
G01X1717576Y-3965992D01*
G01X1729217Y-3957316D01*
G01X2552910Y-3957316D01*
G01X2576672Y-3981078D01*
G01X1576507Y-3981078D01*
G01X1564124Y-3971973D01*
G01X1549979Y-3965964D01*
G01X1534829Y-3963372D01*
G01X1519490Y-3964337D01*
G01X1504786Y-3968808D01*
G01X1491505Y-3976544D01*
G01X1480362Y-3987129D01*
G01X1471954Y-3999995D01*
G01X1466735Y-4014451D01*
G01X1464983Y-4029720D01*
G01X1466794Y-4044982D01*
G01X1472069Y-4059418D01*
G01X1182428Y-4059418D01*
G01X1169871Y-4061071D01*
G01X1158171Y-4065917D01*
G01X1148123Y-4073627D01*
G01X1103891Y-4117859D01*
G01X1088710Y-4120173D01*
G01X1074468Y-4125918D01*
G01X1061930Y-4134784D01*
G01X1051767Y-4146296D01*
G01X1044524Y-4159838D01*
G01X1040591Y-4174682D01*
G01X1040177Y-4190033D01*
G01X1043305Y-4205068D01*
G01X1049808Y-4218980D01*
G01X1059337Y-4231023D01*
G01X1071380Y-4240551D01*
G01X1085292Y-4247054D01*
G01X1100326Y-4250182D01*
G01X1115677Y-4249769D01*
G01X1130522Y-4245835D01*
G01X1144063Y-4238593D01*
G01X1155576Y-4228430D01*
G01X1164442Y-4215891D01*
G01X1170186Y-4201649D01*
G01X1172501Y-4186468D01*
G01X1202523Y-4156446D01*
G01X1224661Y-4156446D01*
G01X1221781Y-4171397D01*
G01X1222387Y-4186611D01*
G01X1226447Y-4201286D01*
G01X1233748Y-4214648D01*
G01X1243904Y-4225992D01*
G01X1256379Y-4234721D01*
G01X1270517Y-4240375D01*
G01X1285571Y-4242654D01*
G01X1427293Y-4384376D01*
G01X1427293Y-4547671D01*
G01X1418195Y-4560042D01*
G01X1412186Y-4574175D01*
G01X1409589Y-4589310D01*
G01X1410544Y-4604637D01*
G01X1414998Y-4619334D01*
G01X1422713Y-4632611D01*
G01X1433275Y-4643759D01*
G01X1446118Y-4652178D01*
G01X1460554Y-4657417D01*
G01X1475807Y-4659195D01*
G01X1491060Y-4657417D01*
G01X1505496Y-4652178D01*
G01X1518339Y-4643759D01*
G01X1528901Y-4632611D01*
G01X1536617Y-4619334D01*
G01X1541071Y-4604637D01*
G01X1542025Y-4589310D01*
G01X1539428Y-4574175D01*
G01X1533419Y-4560042D01*
G01X1524321Y-4547671D01*
G01X1524321Y-4389015D01*
G01X1762492Y-4627185D01*
G01X1772539Y-4634895D01*
G01X1784240Y-4639742D01*
G01X1796796Y-4641395D01*
G01X2030986Y-4641395D01*
G01X2043618Y-4650641D01*
G01X2058065Y-4656668D01*
G01X2073522Y-4659141D01*
G01X2089128Y-4657922D01*
G01X2104014Y-4653078D01*
G01X2117349Y-4644880D01*
G01X2128392Y-4633785D01*
G01X2136526Y-4620410D01*
G01X2223792Y-4707677D01*
G01X1146298Y-4707677D01*
G01X1134643Y-4698993D01*
G01X1121376Y-4693056D01*
G01X1107135Y-4690153D01*
G01X1092603Y-4690422D01*
G01X1078479Y-4693850D01*
G01X1065441Y-4700272D01*
G01X1054115Y-4709381D01*
G01X1045046Y-4720739D01*
G01X1011402Y-4687095D01*
G01X1011402Y-4549200D01*
G01X1020634Y-4536594D01*
G01X1026659Y-4522178D01*
G01X1029145Y-4506752D01*
G01X1027951Y-4491172D01*
G01X1023146Y-4476305D01*
G01X1205812Y-4476305D01*
G01X1235835Y-4506327D01*
G01X1238149Y-4521508D01*
G01X1243893Y-4535750D01*
G01X1252759Y-4548288D01*
G01X1264272Y-4558452D01*
G01X1277814Y-4565694D01*
G01X1292658Y-4569628D01*
G01X1308009Y-4570041D01*
G01X1323044Y-4566913D01*
G01X1336955Y-4560410D01*
G01X1348998Y-4550881D01*
G01X1358527Y-4538838D01*
G01X1365030Y-4524927D01*
G01X1368158Y-4509892D01*
G01X1367745Y-4494541D01*
G01X1363811Y-4479697D01*
G01X1356569Y-4466155D01*
G01X1346405Y-4454642D01*
G01X1333867Y-4445776D01*
G01X1319625Y-4440032D01*
G01X1304444Y-4437718D01*
G01X1260212Y-4393486D01*
G01X1250165Y-4385776D01*
G01X1238464Y-4380930D01*
G01X1225908Y-4379277D01*
G01X476210Y-4379277D01*
G01X463653Y-4380930D01*
G01X451953Y-4385776D01*
G01X441905Y-4393486D01*
G01X352205Y-4483186D01*
G01X215000Y-4483186D01*
G01X203933Y-4484939D01*
G01X193949Y-4490026D01*
G01X186026Y-4497949D01*
G01X180939Y-4507933D01*
G01X179186Y-4519000D01*
G01X179186Y-4689000D01*
G01X35814Y-4689000D01*
G01X35814Y-4350000D01*
G01X179186Y-4350000D01*
G01X181022Y-4370979D01*
G01X186472Y-4391321D01*
G01X195372Y-4410407D01*
G01X207451Y-4427658D01*
G01X222342Y-4442549D01*
G01X239593Y-4454628D01*
G01X258679Y-4463528D01*
G01X279021Y-4468978D01*
G01X300000Y-4470814D01*
G01X300000Y-4470814D01*
G01X320979Y-4468978D01*
G01X341321Y-4463528D01*
G01X360407Y-4454628D01*
G01X377658Y-4442549D01*
G01X392549Y-4427658D01*
G01X404628Y-4410407D01*
G01X413528Y-4391321D01*
G01X418978Y-4370979D01*
G01X420814Y-4350000D01*
G01X418978Y-4329021D01*
G01X413528Y-4308679D01*
G01X404628Y-4289593D01*
G01X392549Y-4272342D01*
G01X377658Y-4257451D01*
G01X360407Y-4245372D01*
G01X341321Y-4236472D01*
G01X320979Y-4231022D01*
G01X300000Y-4229186D01*
G01X279021Y-4231022D01*
G01X258679Y-4236472D01*
G01X239593Y-4245372D01*
G01X222342Y-4257451D01*
G01X207451Y-4272342D01*
G01X195372Y-4289593D01*
G01X186472Y-4308679D01*
G01X181022Y-4329021D01*
G01X179186Y-4350000D01*
G01X35814Y-4350000D01*
G01X35814Y-4096000D01*
G01X179186Y-4096000D01*
G01X181022Y-4116979D01*
G01X186472Y-4137321D01*
G01X195372Y-4156407D01*
G01X207451Y-4173658D01*
G01X222342Y-4188549D01*
G01X239593Y-4200628D01*
G01X258679Y-4209528D01*
G01X279021Y-4214978D01*
G01X300000Y-4216814D01*
G01X300000Y-4216814D01*
G01X320979Y-4214978D01*
G01X341321Y-4209528D01*
G01X360407Y-4200628D01*
G01X377658Y-4188549D01*
G01X392549Y-4173658D01*
G01X404628Y-4156407D01*
G01X413528Y-4137321D01*
G01X418978Y-4116979D01*
G01X420814Y-4096000D01*
G01X418978Y-4075021D01*
G01X413528Y-4054679D01*
G01X404628Y-4035593D01*
G01X392549Y-4018342D01*
G01X377658Y-4003451D01*
G01X360407Y-3991372D01*
G01X341321Y-3982472D01*
G01X320979Y-3977022D01*
G01X300000Y-3975186D01*
G01X279021Y-3977022D01*
G01X258679Y-3982472D01*
G01X239593Y-3991372D01*
G01X222342Y-4003451D01*
G01X207451Y-4018342D01*
G01X195372Y-4035593D01*
G01X186472Y-4054679D01*
G01X181022Y-4075021D01*
G01X179186Y-4096000D01*
G01X35814Y-4096000D01*
G01X35814Y-3500010D01*
G01X204181Y-3500010D01*
G01X206174Y-3527877D01*
G01X212113Y-3555177D01*
G01X221876Y-3581354D01*
G01X235266Y-3605874D01*
G01X252009Y-3628240D01*
G01X271764Y-3647996D01*
G01X294130Y-3664739D01*
G01X318651Y-3678128D01*
G01X344828Y-3687891D01*
G01X372128Y-3693830D01*
G01X399995Y-3695823D01*
G01X427862Y-3693830D01*
G01X455162Y-3687891D01*
G01X481339Y-3678128D01*
G01X505860Y-3664739D01*
G01X528225Y-3647996D01*
G01X547981Y-3628240D01*
G01X564724Y-3605874D01*
G01X578113Y-3581354D01*
G01X587877Y-3555177D01*
G01X593815Y-3527877D01*
G01X595808Y-3500010D01*
G01X593815Y-3472142D01*
G01X587877Y-3444843D01*
G01X578113Y-3418666D01*
G01X564724Y-3394145D01*
G01X547981Y-3371779D01*
G01X528225Y-3352023D01*
G01X505860Y-3335281D01*
G01X481339Y-3321891D01*
G01X455162Y-3312128D01*
G01X427862Y-3306189D01*
G01X399995Y-3304196D01*
G01X372128Y-3306189D01*
G01X344828Y-3312128D01*
G01X318651Y-3321891D01*
G01X294130Y-3335281D01*
G01X271764Y-3352023D01*
G01X252009Y-3371779D01*
G01X235266Y-3394145D01*
G01X221876Y-3418666D01*
G01X212113Y-3444843D01*
G01X206174Y-3472142D01*
G01X204181Y-3500010D01*
G01X204181Y-3500010D01*
G01X35814Y-3500010D01*
G01X35814Y-399990D01*
G01X204181Y-399990D01*
G01X206174Y-427858D01*
G01X212113Y-455157D01*
G01X221876Y-481334D01*
G01X235266Y-505855D01*
G01X252009Y-528221D01*
G01X271764Y-547977D01*
G01X294130Y-564719D01*
G01X318651Y-578109D01*
G01X344828Y-587872D01*
G01X372128Y-593811D01*
G01X399995Y-595804D01*
G01X427862Y-593811D01*
G01X455162Y-587872D01*
G01X481339Y-578109D01*
G01X505860Y-564719D01*
G01X528225Y-547977D01*
G01X547981Y-528221D01*
G01X564724Y-505855D01*
G01X578113Y-481334D01*
G01X587877Y-455157D01*
G01X593815Y-427858D01*
G01X595808Y-399990D01*
G01X593815Y-372123D01*
G01X587877Y-344823D01*
G01X578615Y-319991D01*
G01X834193Y-319991D01*
G01X834193Y-479990D01*
G01X835945Y-491057D01*
G01X841032Y-501041D01*
G01X848956Y-508964D01*
G01X858939Y-514051D01*
G01X870007Y-515804D01*
G01X1030006Y-515804D01*
G01X1030006Y-515804D01*
G01X1041073Y-514051D01*
G01X1051057Y-508964D01*
G01X1058980Y-501041D01*
G01X1064067Y-491057D01*
G01X1065820Y-479990D01*
G01X1065820Y-319991D01*
G01X1064067Y-308923D01*
G01X1058980Y-298940D01*
G01X1051057Y-291016D01*
G01X1041073Y-285929D01*
G01X1030006Y-284177D01*
G01X870007Y-284177D01*
G01X858939Y-285929D01*
G01X848956Y-291016D01*
G01X841032Y-298940D01*
G01X835945Y-308923D01*
G01X834193Y-319991D01*
G01X578615Y-319991D01*
G01X578113Y-318646D01*
G01X564724Y-294126D01*
G01X547981Y-271760D01*
G01X528225Y-252004D01*
G01X505860Y-235261D01*
G01X481339Y-221872D01*
G01X455162Y-212109D01*
G01X427862Y-206170D01*
G01X399995Y-204177D01*
G01X372128Y-206170D01*
G01X344828Y-212109D01*
G01X318651Y-221872D01*
G01X294130Y-235261D01*
G01X271764Y-252004D01*
G01X252009Y-271760D01*
G01X235266Y-294126D01*
G01X221876Y-318646D01*
G01X212113Y-344823D01*
G01X206174Y-372123D01*
G01X204181Y-399990D01*
G01X204181Y-399990D01*
G01X35814Y-399990D01*
G01X35814Y-200000D01*
G37*
G36*
G01X2983409Y-4610217D02*
G01X2929077Y-4610217D01*
G01X3216908Y-4322386D01*
G01X3224618Y-4312338D01*
G01X3229465Y-4300638D01*
G01X3231118Y-4288081D01*
G01X3231118Y-4003377D01*
G01X3394708Y-3839787D01*
G01X3402418Y-3829739D01*
G01X3407264Y-3818039D01*
G01X3408917Y-3805482D01*
G01X3408917Y-482679D01*
G01X3422464Y-494070D01*
G01X3437589Y-503263D01*
G01X3437589Y-4156037D01*
G01X2983409Y-4610217D01*
G37*
G54D10*
G01X35814Y-200000D02*
G02X200000Y-35814I164186J0D01*
G01X8850000Y-35814D01*
G02X9014186Y-200000I0J-164186D01*
G01X9014186Y-4800000D01*
G02X8850000Y-4964186I-164186J0D01*
G01X200000Y-4964186D01*
G02X35814Y-4800000I0J164186D01*
G01X35814Y-200000D01*
G01X1637116Y-3955693D02*
G03X1729217Y-3957316I46891J46891D01*
G01X2552910Y-3957316D01*
G01X2576672Y-3981078D01*
G01X1576507Y-3981078D01*
G03X1491505Y-3976544I-45210J-48514D01*
G03X1472069Y-4059418I39792J-53048D01*
G01X1182428Y-4059418D01*
G03X1148123Y-4073627I0J-48514D01*
G01X1103891Y-4117859D01*
G03X1059337Y-4231023I2336J-66273D01*
G03X1172501Y-4186468I46891J46891D01*
G01X1202523Y-4156446D01*
G01X1224661Y-4156446D01*
G03X1285571Y-4242654I63246J-19936D01*
G01X1427293Y-4384376D01*
G01X1427293Y-4547671D01*
G03X1475807Y-4659195I48514J-45210D01*
G03X1524321Y-4547671I0J66314D01*
G01X1524321Y-4389015D01*
G01X1762492Y-4627185D01*
G03X1796796Y-4641395I34305J34305D01*
G01X2030986Y-4641395D01*
G03X2136526Y-4620410I45210J48514D01*
G01X2223792Y-4707677D01*
G01X1146298Y-4707677D01*
G03X1045046Y-4720739I-45210J-48514D01*
G01X1011402Y-4687095D01*
G01X1011402Y-4549200D01*
G03X1023146Y-4476305I-48514J45210D01*
G01X1205812Y-4476305D01*
G01X1235835Y-4506327D01*
G03X1348998Y-4550881I66273J2336D01*
G03X1304444Y-4437718I-46891J46891D01*
G01X1260212Y-4393486D01*
G03X1225908Y-4379277I-34305J-34305D01*
G01X476210Y-4379277D01*
G03X441905Y-4393486I0J-48514D01*
G01X352205Y-4483186D01*
G01X215000Y-4483186D01*
G03X179186Y-4519000I0J-35814D01*
G01X179186Y-4689000D01*
G03X215000Y-4724814I35814J0D01*
G01X385000Y-4724814D01*
G03X420814Y-4689000I0J35814D01*
G01X420814Y-4551795D01*
G01X496305Y-4476305D01*
G01X902630Y-4476305D01*
G03X914374Y-4549200I60258J-27686D01*
G01X914374Y-4707190D01*
G03X928584Y-4741495I48514J0D01*
G01X1055583Y-4868494D01*
G03X1089888Y-4882704I34305J34305D01*
G01X7262075Y-4882704D01*
G03X7296380Y-4868494I0J48514D01*
G01X7416812Y-4748063D01*
G03X7461366Y-4634899I-2336J66273D01*
G03X7348202Y-4679454I-46891J-46891D01*
G01X7305054Y-4722602D01*
G03X7202666Y-4707677I-57178J-33588D01*
G01X4806325Y-4707677D01*
G03X4796173Y-4619266I-53925J38596D01*
G03X4707191Y-4620567I-43772J-49815D01*
G01X4569011Y-4620567D01*
G03X4480029Y-4619266I-45210J-48514D01*
G03X4469876Y-4707677I43772J-49815D01*
G01X3987844Y-4707677D01*
G03X3991616Y-4613521I-44742J48946D01*
G01X3991616Y-515628D01*
G03X4061365Y-303045I6390J115637D01*
G03X3894660Y-452262I-63359J-96946D01*
G03X3894588Y-454899I48442J-2637D01*
G01X3894588Y-4613521D01*
G03X3898360Y-4707677I48514J-45210D01*
G01X3503016Y-4707677D01*
G01X3526139Y-4684554D01*
G03X3570694Y-4571390I-2336J66273D01*
G03X3457530Y-4615944I-46891J-46891D01*
G01X3402108Y-4671367D01*
G01X3059477Y-4671367D01*
G01X3520408Y-4210436D01*
G03X3534617Y-4176132I-34305J34305D01*
G01X3534617Y-506868D01*
G03X3576881Y-323403I-44611J106877D01*
G01X3598818Y-323403D01*
G01X3635342Y-359928D01*
G03X3825895Y-481887I108664J-40062D01*
G03X3703955Y-291322I-81889J81897D01*
G01X3657936Y-245304D01*
G01X7779943Y-245304D01*
G03X7900005Y-595804I120062J-154687D01*
G03X8020068Y-245304I0J195814D01*
G01X8491464Y-245304D01*
G03X8682598Y-348662I108536J-27696D01*
G03X8562915Y-167303I-82598J75662D01*
G01X8558098Y-162485D01*
G03X8523793Y-148276I-34305J-34305D01*
G01X1661207Y-148276D01*
G03X1626902Y-162485I0J-48514D01*
G01X1498063Y-291324D01*
G03X1376114Y-481883I-40056J-108666D01*
G03X1566672Y-359933I81892J81893D01*
G01X1681302Y-245304D01*
G01X3397580Y-245304D01*
G01X3326099Y-316785D01*
G03X3321599Y-321972I34305J-34305D01*
G03X3120391Y-393208I-85592J-78018D01*
G03X3311889Y-487481I115615J-6782D01*
G01X3311889Y-3785387D01*
G01X3148299Y-3948977D01*
G03X3134090Y-3983282I34305J-34305D01*
G01X3134090Y-4267986D01*
G01X2884015Y-4518061D01*
G03X2832880Y-4476632I-61811J-24020D01*
G03X2834564Y-4410711I-56675J34431D01*
G03X2778541Y-4375928I-58360J-31491D01*
G01X2773919Y-4371306D01*
G01X2773919Y-4182897D01*
G01X2800517Y-4156298D01*
G03X2839719Y-4075539I-24313J61696D01*
G03X2762526Y-4029714I-63515J-19063D01*
G01X2607309Y-3874498D01*
G03X2573005Y-3860288I-34305J-34305D01*
G01X1732521Y-3860288D01*
G01X1732521Y-3784267D01*
G03X1815700Y-3765271I30286J58994D01*
G03X1811320Y-3680063I-52893J39998D01*
G01X1811320Y-459569D01*
G03X1653949Y-299780I-99314J59578D01*
G03X1714292Y-515782I58057J-100211D01*
G01X1714292Y-841665D01*
G01X1312673Y-440046D01*
G03X1122112Y-318099I-108667J40055D01*
G03X1244065Y-508656I81894J-81891D01*
G01X1635493Y-900083D01*
G01X1635493Y-3863592D01*
G03X1637116Y-3955693I48514J-45210D01*
G01X300000Y-4216814D02*
G03X300000Y-3975186I0J120814D01*
G03X300000Y-4216814I0J-120814D01*
G01X300000Y-4470814D02*
G03X300000Y-4229186I0J120814D01*
G03X300000Y-4470814I0J-120814D01*
G01X204181Y-399990D02*
G03X595808Y-399990I195814J0D01*
G03X204181Y-399990I-195814J0D01*
G01X204181Y-3500010D02*
G03X595808Y-3500010I195814J0D01*
G03X204181Y-3500010I-195814J0D01*
G01X1030006Y-515804D02*
G03X1065820Y-479990I0J35814D01*
G01X1065820Y-319991D01*
G03X1030006Y-284177I-35814J0D01*
G01X870007Y-284177D01*
G03X834193Y-319991I0J-35814D01*
G01X834193Y-479990D01*
G03X870007Y-515804I35814J0D01*
G01X1030006Y-515804D01*
G01X1850193Y-399990D02*
G03X2081820Y-399990I115814J0D01*
G03X1850193Y-399990I-115814J0D01*
G01X2104193Y-399990D02*
G03X2335820Y-399990I115814J0D01*
G03X2104193Y-399990I-115814J0D01*
G01X2358193Y-399990D02*
G03X2589820Y-399990I115814J0D01*
G03X2358193Y-399990I-115814J0D01*
G01X2612193Y-399990D02*
G03X2843820Y-399990I115814J0D01*
G03X2612193Y-399990I-115814J0D01*
G01X2866193Y-399990D02*
G03X3097820Y-399990I115814J0D01*
G03X2866193Y-399990I-115814J0D01*
G01X4250081Y-4341045D02*
G03X4298595Y-4229522I0J66314D01*
G01X4298595Y-506020D01*
G03X4254126Y-284196I-46589J106030D01*
G03X4201568Y-504244I-2120J-115794D01*
G01X4201568Y-4229522D01*
G03X4250081Y-4341045I48514J-45210D01*
G01X4781528Y-4334428D02*
G03X4894691Y-4378982I66273J2336D01*
G03X4850137Y-4265819I-46891J46891D01*
G01X4609274Y-4024956D01*
G03X4545337Y-3961019I-66273J-2336D01*
G01X4507674Y-3923356D01*
G03X4394510Y-3878801I-66273J-2336D01*
G03X4439065Y-3991965I46891J-46891D01*
G01X4476728Y-4029628D01*
G03X4540665Y-4093565I66273J2336D01*
G01X4781528Y-4334428D01*
G01X8257731Y-2152993D02*
G03X8221379Y-2226342I28572J-59843D01*
G03X8283967Y-2279108I64924J13506D01*
G01X8381790Y-2376932D01*
G03X8460571Y-2439719I66273J2336D01*
G03X8510486Y-2352215I-12507J65124D01*
G03X8535205Y-2279156I-38743J53819D01*
G03X8474079Y-2232123I-63462J-19239D01*
G01X6734641Y-492684D01*
G03X6700337Y-478475I-34305J-34305D01*
G01X4845171Y-478475D01*
G03X4760006Y-284177I-85165J78485D01*
G03X4674842Y-478475I0J-115814D01*
G01X4653106Y-478475D01*
G01X4614674Y-440043D01*
G03X4424110Y-318101I-108668J40053D01*
G03X4546067Y-508655I81896J-81890D01*
G01X4598706Y-561294D01*
G03X4633011Y-575503I34305J34305D01*
G01X6680241Y-575503D01*
G01X8257731Y-2152993D01*
G01X6173089Y-4608892D02*
G03X6128534Y-4495728I-46891J46891D01*
G01X6098512Y-4465706D01*
G01X6098512Y-4429411D01*
G03X6049998Y-4317887I-48514J45210D01*
G03X6001484Y-4429411I0J-66314D01*
G01X6001484Y-4485801D01*
G03X6015693Y-4520106I48514J0D01*
G01X6059925Y-4564337D01*
G03X6173089Y-4608892I66273J2336D01*
G01X7704192Y-3500010D02*
G03X8095819Y-3500010I195814J0D01*
G03X7704192Y-3500010I-195814J0D01*
G01X7754187Y-4749999D02*
G03X7945815Y-4749999I95814J0D01*
G03X7754187Y-4749999I-95814J0D01*
G01X7754187Y-4160008D02*
G03X7945815Y-4160008I95814J0D01*
G03X7754187Y-4160008I-95814J0D01*
G01X8233986Y-527000D02*
G03X8458014Y-527000I112014J0D01*
G03X8233986Y-527000I-112014J0D01*
G01X8462490Y-976689D02*
G01X8372490Y-976689D01*
G03X8372490Y-1158316I0J-90814D01*
G01X8422174Y-1158316D01*
G03X8477866Y-1281307I47335J-52671D01*
G03X8503181Y-1148690I-8357J70320D01*
G03X8462490Y-976689I-40692J81187D01*
G01X8372490Y-1841686D02*
G03X8372490Y-2023313I0J-90814D01*
G01X8462490Y-2023313D01*
G03X8503157Y-1851300I0J90814D01*
G03X8477861Y-1718668I-33648J62311D01*
G03X8422203Y-1841686I-8352J-70321D01*
G01X8372490Y-1841686D01*
G01X8807504Y-1163316D02*
G01X8867504Y-1163316D01*
G03X8867504Y-971689I0J95814D01*
G01X8807504Y-971689D01*
G03X8807504Y-1163316I0J-95814D01*
G01X8807504Y-2028313D02*
G01X8867504Y-2028313D01*
G03X8867504Y-1836686I0J95814D01*
G01X8807504Y-1836686D01*
G03X8807504Y-2028313I0J-95814D01*
G01X8741986Y-527000D02*
G03X8966014Y-527000I112014J0D01*
G03X8741986Y-527000I-112014J0D01*
G01X2983409Y-4610217D02*
G01X2929077Y-4610217D01*
G01X3216908Y-4322386D01*
G03X3231118Y-4288081I-34305J34305D01*
G01X3231118Y-4003377D01*
G01X3394708Y-3839787D01*
G03X3408917Y-3805482I-34305J34305D01*
G01X3408917Y-482679D01*
G03X3437589Y-503263I81089J82689D01*
G01X3437589Y-4156037D01*
G01X2983409Y-4610217D01*
G54D11*
G01X300000Y-4350000D02*
G01X300000Y-4460654D01*
G01X300000Y-4350000D02*
G01X300000Y-4239346D01*
G01X300000Y-4350000D02*
G01X189346Y-4350000D01*
G01X300000Y-4350000D02*
G01X410654Y-4350000D01*
G01X950006Y-399990D02*
G01X844353Y-399990D01*
G01X950006Y-399990D02*
G01X1055660Y-399990D01*
G01X950006Y-399990D02*
G01X950006Y-294337D01*
G01X950006Y-399990D02*
G01X950006Y-505644D01*
G01X1966006Y-399990D02*
G01X1860353Y-399990D01*
G01X1966006Y-399990D02*
G01X2071660Y-399990D01*
G01X1966006Y-399990D02*
G01X1966006Y-294337D01*
G01X1966006Y-399990D02*
G01X1966006Y-505644D01*
G01X4760006Y-399990D02*
G01X4654353Y-399990D01*
G01X4760006Y-399990D02*
G01X4865660Y-399990D01*
G01X4760006Y-399990D02*
G01X4760006Y-294337D01*
G01X8346000Y-527000D02*
G01X8244146Y-527000D01*
G01X8346000Y-527000D02*
G01X8447854Y-527000D01*
G01X8346000Y-527000D02*
G01X8346000Y-425146D01*
G01X8346000Y-527000D02*
G01X8346000Y-628854D01*
G01X8417490Y-1067502D02*
G01X8417490Y-1148156D01*
G01X8417490Y-1067502D02*
G01X8417490Y-986849D01*
G01X8417490Y-1067502D02*
G01X8291836Y-1067502D01*
G01X8417490Y-1067502D02*
G01X8543144Y-1067502D01*
G01X8417490Y-1932499D02*
G01X8417490Y-2013153D01*
G01X8417490Y-1932499D02*
G01X8417490Y-1851846D01*
G01X8417490Y-1932499D02*
G01X8291836Y-1932499D01*
G01X8417490Y-1932499D02*
G01X8543144Y-1932499D01*
G01X8837504Y-1932499D02*
G01X8837504Y-2018153D01*
G01X8837504Y-1932499D02*
G01X8837504Y-1846846D01*
G01X8837504Y-1932499D02*
G01X8721850Y-1932499D01*
G01X8837504Y-1932499D02*
G01X8953158Y-1932499D01*
G01X8837504Y-1067502D02*
G01X8837504Y-1153156D01*
G01X8837504Y-1067502D02*
G01X8837504Y-981849D01*
G01X8837504Y-1067502D02*
G01X8721850Y-1067502D01*
G01X8837504Y-1067502D02*
G01X8953158Y-1067502D01*
G04 Copper End*

G04 Pad Start*
G54D12*
G01X300000Y-4604000D03*
G54D13*
G01X300000Y-4350000D03*
G01X300000Y-4096000D03*
G54D14*
G01X4760006Y-399990D03*
G01X4506006Y-399990D03*
G01X4252006Y-399990D03*
G01X3998006Y-399990D03*
G01X3744006Y-399990D03*
G01X3490006Y-399990D03*
G01X3236006Y-399990D03*
G01X2982006Y-399990D03*
G01X2728006Y-399990D03*
G01X2474006Y-399990D03*
G01X2220006Y-399990D03*
G01X1966006Y-399990D03*
G01X1712006Y-399990D03*
G01X1458006Y-399990D03*
G01X1204006Y-399990D03*
G54D15*
G01X950006Y-399990D03*
G54D16*
G01X399995Y-399990D03*
G01X399995Y-3500010D03*
G01X7900005Y-399990D03*
G01X7900005Y-3500010D03*
G54D17*
G01X8417490Y-1932499D03*
G01X8417490Y-1067502D03*
G54D19*
G01X8837504Y-1932499D03*
G01X8837504Y-1067502D03*
G54D20*
G01X8854000Y-527000D03*
G01X8600000Y-273000D03*
G01X8346000Y-527000D03*
G04 Pad End*

G04 Via Start*
G54D21*
G01X8471743Y-2298395D03*
G01X4441401Y-3925692D03*
G01X4543001Y-4027292D03*
G01X4847800Y-4332091D03*
G01X4250081Y-4274731D03*
G01X1564517Y-4100002D03*
G01X2605915Y-4100002D03*
G01X1762806Y-3725272D03*
G01X2414575Y-4209532D03*
G01X1106228Y-4184132D03*
G01X2623805Y-4592881D03*
G01X3943102Y-4658731D03*
G01X1101088Y-4756190D03*
G01X7247876Y-4756190D03*
G01X2822204Y-4542081D03*
G01X1531297Y-4029592D03*
G01X2076196Y-4592881D03*
G01X1466597Y-4262682D03*
G01X2343105Y-4658731D03*
G01X4523801Y-4669081D03*
G01X4752400Y-4669081D03*
G01X1475807Y-4592881D03*
G01X1287908Y-4176382D03*
G01X3523803Y-4618281D03*
G01X1466407Y-4186482D03*
G01X8448063Y-2374595D03*
G01X8286303Y-2212836D03*
G01X2776205Y-4442201D03*
G01X2776205Y-4094602D03*
G01X1684007Y-3908802D03*
G01X962888Y-4503990D03*
G01X7414475Y-4681790D03*
G01X6049998Y-4384201D03*
G01X6126198Y-4562001D03*
G01X1302107Y-4503990D03*
G01X3393403Y-4172712D03*
G01X3241003Y-4020312D03*
G01X2529805Y-3969512D03*
G01X1095908Y-4260412D03*
G01X8646093Y-2135696D03*
G04 Via End*

G04 Track Start*
G54D11*
G01X1458007Y-399989D02*
G01X1661207Y-196790D01*
G01X8523793Y-196790D01*
G01X8600003Y-272999D01*
G01X8471743Y-2298395D02*
G01X6700337Y-526989D01*
G01X4633011Y-526989D01*
G01X4506011Y-399989D01*
G01X4441401Y-3925692D02*
G01X4543001Y-4027292D01*
G01X4847800Y-4332091D01*
G01X4250081Y-4274731D02*
G01X4250081Y-401919D01*
G01X4252012Y-399989D01*
G01X1564517Y-4100002D02*
G01X2605915Y-4100002D01*
G01X1762806Y-3725272D02*
G01X1762806Y-450789D01*
G01X1712006Y-399989D01*
G01X2414575Y-4209532D02*
G01X2363775Y-4158732D01*
G01X1525577Y-4158732D01*
G01X1474777Y-4107932D01*
G01X1182428Y-4107932D01*
G01X1106228Y-4184132D01*
G01X2623805Y-4592881D02*
G01X2649205Y-4618281D01*
G01X2852404Y-4618281D01*
G01X3182604Y-4288081D01*
G01X3182604Y-3983282D01*
G01X3360403Y-3805482D01*
G01X3360403Y-351089D01*
G01X3436603Y-274889D01*
G01X3618913Y-274889D01*
G01X3744013Y-399989D01*
G01X3943102Y-4658731D02*
G01X3943102Y-454899D01*
G01X3998012Y-399989D01*
G01X1101088Y-4756190D02*
G01X7247876Y-4756190D01*
G01X2822204Y-4542081D02*
G01X2771404Y-4542081D01*
G01X2669805Y-4440481D01*
G01X2669805Y-4059482D01*
G01X2639915Y-4029592D01*
G01X1531297Y-4029592D01*
G01X2076196Y-4592881D02*
G01X1796797Y-4592881D01*
G01X1466597Y-4262682D01*
G01X2343105Y-4658731D02*
G01X3003504Y-4658731D01*
G01X3486103Y-4176132D01*
G01X3486103Y-403899D01*
G01X3490013Y-399989D01*
G01X4523801Y-4669081D02*
G01X4752400Y-4669081D01*
G01X1475807Y-4592881D02*
G01X1475807Y-4364281D01*
G01X1287908Y-4176382D01*
G01X3523803Y-4618281D02*
G01X3422203Y-4719881D01*
G01X2304606Y-4719881D01*
G01X1796607Y-4211882D01*
G01X1517207Y-4211882D01*
G01X1491807Y-4186482D01*
G01X1466407Y-4186482D01*
G01X8448063Y-2374595D02*
G01X8286303Y-2212836D01*
G01X2776205Y-4442201D02*
G01X2725405Y-4391401D01*
G01X2725405Y-4162802D01*
G01X2776205Y-4112002D01*
G01X2776205Y-4094602D01*
G01X2776205Y-4112002D02*
G01X2573005Y-3908802D01*
G01X1684007Y-3908802D01*
G01X1684007Y-879988D01*
G01X1204007Y-399989D01*
G01X962888Y-4503990D02*
G01X962888Y-4707190D01*
G01X1089888Y-4834190D01*
G01X7262075Y-4834190D01*
G01X7414475Y-4681790D01*
G01X6049998Y-4384201D02*
G01X6049998Y-4485801D01*
G01X6126198Y-4562001D01*
G01X1302107Y-4503990D02*
G01X1225908Y-4427790D01*
G01X476210Y-4427790D01*
G01X299999Y-4604001D01*
G01X3393403Y-4172712D02*
G01X3241003Y-4020312D01*
G01X2529805Y-3969512D02*
G01X1234407Y-3969512D01*
G01X1045108Y-4158812D01*
G01X1045108Y-4209612D01*
G01X1095908Y-4260412D01*
G01X8417493Y-1932496D02*
G01X8620693Y-2135696D01*
G01X8646093Y-2135696D01*
G01X8646093Y-2123906D01*
G01X8837502Y-1932496D01*
G01X8417493Y-1067498D02*
G01X8417493Y-598489D01*
G01X8346003Y-526999D01*
G04 Track End*

M02*

