G04 Layer: TopPasteMaskLayer*
G04 EasyEDA Pro v3.2.148, 2026-07-20 15:09:28*
G04 Gerber Generator version 0.3*
G04 Scale: 100 percent, Rotated: No, Reflected: No*
G04 Dimensions in millimeters*
G04 Leading zeros omitted, absolute positions, 4 integers and 5 decimals*
G04 Generated by one-click*
G04 Object Configs: Pad,Via,Track,Text,Image,Dimension,BoardOutline,BoardCutout,CopperFilled,SolidRegion,FPCStiffener,Line,PlaneZone,ComponentProperty,ComponentSilkscreen,TearDrop*
G04 Layer Configs: 1,2,3,4,5,6,7,8,9,10,11,13,14,56*
G04 Copper Areas: 0*
%FSLAX45Y45*%
%MOMM*%
%ADD10R,1.681X1.68001*%
%ADD11R,0.9X0.8*%
%ADD12R,0.8X0.9*%
%ADD13R,0.6X1.07*%
%ADD14R,0.9X0.4*%
%ADD15O,0.36401X1.74201*%
%ADD16R,1.1051X2.49999*%
%ADD17R,1.1X2.49999*%
%ADD18R,3.59999X2.34*%
%ADD19R,2.0X2.0*%
%ADD20R,2.99999X1.5*%
G75*


G04 PolygonModel Start*
G36*
G01X8569502Y-2155001D02*
G01X8574501Y-2160003D01*
G01X8574501Y-2240002D01*
G01X8569502Y-2245001D01*
G01X8489502Y-2245001D01*
G01X8484501Y-2240002D01*
G01X8484501Y-2215799D01*
G01X8521501Y-2215799D01*
G01X8521501Y-2182799D01*
G01X8484501Y-2182799D01*
G01X8484501Y-2160003D01*
G01X8489502Y-2155001D01*
G01X8569502Y-2155001D01*
G37*
G36*
G01X8330498Y-2244999D02*
G01X8325499Y-2239997D01*
G01X8325499Y-2159997D01*
G01X8330498Y-2154999D01*
G01X8410498Y-2154999D01*
G01X8415499Y-2159997D01*
G01X8415499Y-2184201D01*
G01X8378499Y-2184201D01*
G01X8378499Y-2217201D01*
G01X8415499Y-2217201D01*
G01X8415499Y-2239997D01*
G01X8410498Y-2244999D01*
G01X8330498Y-2244999D01*
G37*
G36*
G01X8919502Y-2155001D02*
G01X8924501Y-2160003D01*
G01X8924501Y-2240002D01*
G01X8919502Y-2245001D01*
G01X8839502Y-2245001D01*
G01X8834501Y-2240002D01*
G01X8834501Y-2215799D01*
G01X8871501Y-2215799D01*
G01X8871501Y-2182799D01*
G01X8834501Y-2182799D01*
G01X8834501Y-2160003D01*
G01X8839502Y-2155001D01*
G01X8919502Y-2155001D01*
G37*
G36*
G01X8680498Y-2244999D02*
G01X8675499Y-2239997D01*
G01X8675499Y-2159997D01*
G01X8680498Y-2154999D01*
G01X8760498Y-2154999D01*
G01X8765499Y-2159997D01*
G01X8765499Y-2184201D01*
G01X8728499Y-2184201D01*
G01X8728499Y-2217201D01*
G01X8765499Y-2217201D01*
G01X8765499Y-2239997D01*
G01X8760498Y-2244999D01*
G01X8680498Y-2244999D01*
G37*
G36*
G01X8744502Y-2355001D02*
G01X8749501Y-2360003D01*
G01X8749501Y-2440002D01*
G01X8744502Y-2445001D01*
G01X8664502Y-2445001D01*
G01X8659501Y-2440002D01*
G01X8659501Y-2415799D01*
G01X8696501Y-2415799D01*
G01X8696501Y-2382799D01*
G01X8659501Y-2382799D01*
G01X8659501Y-2360003D01*
G01X8664502Y-2355001D01*
G01X8744502Y-2355001D01*
G37*
G36*
G01X8505498Y-2444999D02*
G01X8500499Y-2439997D01*
G01X8500499Y-2359998D01*
G01X8505498Y-2354999D01*
G01X8585498Y-2354999D01*
G01X8590499Y-2359998D01*
G01X8590499Y-2384201D01*
G01X8553499Y-2384201D01*
G01X8553499Y-2417201D01*
G01X8590499Y-2417201D01*
G01X8590499Y-2439997D01*
G01X8585498Y-2444999D01*
G01X8505498Y-2444999D01*
G37*
G36*
G01X3969502Y-4055002D02*
G01X3974501Y-4060003D01*
G01X3974501Y-4140003D01*
G01X3969502Y-4145001D01*
G01X3889502Y-4145001D01*
G01X3884501Y-4140003D01*
G01X3884501Y-4115799D01*
G01X3921501Y-4115799D01*
G01X3921501Y-4082799D01*
G01X3884501Y-4082799D01*
G01X3884501Y-4060003D01*
G01X3889502Y-4055002D01*
G01X3969502Y-4055002D01*
G37*
G36*
G01X3730498Y-4144999D02*
G01X3725499Y-4139998D01*
G01X3725499Y-4059998D01*
G01X3730498Y-4054999D01*
G01X3810498Y-4054999D01*
G01X3815499Y-4059998D01*
G01X3815499Y-4084201D01*
G01X3778499Y-4084201D01*
G01X3778499Y-4117201D01*
G01X3815499Y-4117201D01*
G01X3815499Y-4139998D01*
G01X3810498Y-4144999D01*
G01X3730498Y-4144999D01*
G37*
G36*
G01X3044999Y-4213241D02*
G01X3039998Y-4218239D01*
G01X2959998Y-4218239D01*
G01X2954999Y-4213241D01*
G01X2954999Y-4133241D01*
G01X2959998Y-4128240D01*
G01X2984202Y-4128240D01*
G01X2984202Y-4165240D01*
G01X3017201Y-4165240D01*
G01X3017201Y-4128240D01*
G01X3039998Y-4128240D01*
G01X3044999Y-4133241D01*
G01X3044999Y-4213241D01*
G37*
G36*
G01X2955002Y-3974237D02*
G01X2960003Y-3969238D01*
G01X3040003Y-3969238D01*
G01X3045002Y-3974237D01*
G01X3045002Y-4054237D01*
G01X3040003Y-4059238D01*
G01X3015799Y-4059238D01*
G01X3015799Y-4022238D01*
G01X2982799Y-4022238D01*
G01X2982799Y-4059238D01*
G01X2960003Y-4059238D01*
G01X2955002Y-4054237D01*
G01X2955002Y-3974237D01*
G37*
G36*
G01X1744999Y-4213241D02*
G01X1739998Y-4218239D01*
G01X1659998Y-4218239D01*
G01X1654999Y-4213241D01*
G01X1654999Y-4133241D01*
G01X1659998Y-4128240D01*
G01X1684201Y-4128240D01*
G01X1684201Y-4165240D01*
G01X1717201Y-4165240D01*
G01X1717201Y-4128240D01*
G01X1739998Y-4128240D01*
G01X1744999Y-4133241D01*
G01X1744999Y-4213241D01*
G37*
G36*
G01X1655002Y-3974237D02*
G01X1660003Y-3969238D01*
G01X1740003Y-3969238D01*
G01X1745001Y-3974237D01*
G01X1745001Y-4054237D01*
G01X1740003Y-4059238D01*
G01X1715799Y-4059238D01*
G01X1715799Y-4022238D01*
G01X1682799Y-4022238D01*
G01X1682799Y-4059238D01*
G01X1660003Y-4059238D01*
G01X1655002Y-4054237D01*
G01X1655002Y-3974237D01*
G37*
G36*
G01X2744999Y-4213241D02*
G01X2739998Y-4218239D01*
G01X2659998Y-4218239D01*
G01X2654999Y-4213241D01*
G01X2654999Y-4133241D01*
G01X2659998Y-4128240D01*
G01X2684202Y-4128240D01*
G01X2684202Y-4165240D01*
G01X2717201Y-4165240D01*
G01X2717201Y-4128240D01*
G01X2739998Y-4128240D01*
G01X2744999Y-4133241D01*
G01X2744999Y-4213241D01*
G37*
G36*
G01X2655002Y-3974237D02*
G01X2660003Y-3969238D01*
G01X2740003Y-3969238D01*
G01X2745002Y-3974237D01*
G01X2745002Y-4054237D01*
G01X2740003Y-4059238D01*
G01X2715799Y-4059238D01*
G01X2715799Y-4022238D01*
G01X2682800Y-4022238D01*
G01X2682800Y-4059238D01*
G01X2660003Y-4059238D01*
G01X2655002Y-4054237D01*
G01X2655002Y-3974237D01*
G37*
G36*
G01X1955001Y-3974237D02*
G01X1960003Y-3969238D01*
G01X2040003Y-3969238D01*
G01X2045001Y-3974237D01*
G01X2045001Y-4054237D01*
G01X2040003Y-4059238D01*
G01X2015799Y-4059238D01*
G01X2015799Y-4022238D01*
G01X1982799Y-4022238D01*
G01X1982799Y-4059238D01*
G01X1960003Y-4059238D01*
G01X1955001Y-4054237D01*
G01X1955001Y-3974237D01*
G37*
G36*
G01X2044999Y-4213241D02*
G01X2039997Y-4218239D01*
G01X1959998Y-4218239D01*
G01X1954999Y-4213241D01*
G01X1954999Y-4133241D01*
G01X1959998Y-4128240D01*
G01X1984201Y-4128240D01*
G01X1984201Y-4165240D01*
G01X2017201Y-4165240D01*
G01X2017201Y-4128240D01*
G01X2039997Y-4128240D01*
G01X2044999Y-4133241D01*
G01X2044999Y-4213241D01*
G37*
G36*
G01X3044999Y-4713241D02*
G01X3039998Y-4718239D01*
G01X2959998Y-4718239D01*
G01X2954999Y-4713241D01*
G01X2954999Y-4633241D01*
G01X2959998Y-4628240D01*
G01X2984202Y-4628240D01*
G01X2984202Y-4665240D01*
G01X3017201Y-4665240D01*
G01X3017201Y-4628240D01*
G01X3039998Y-4628240D01*
G01X3044999Y-4633241D01*
G01X3044999Y-4713241D01*
G37*
G36*
G01X2955002Y-4474237D02*
G01X2960003Y-4469238D01*
G01X3040003Y-4469238D01*
G01X3045002Y-4474237D01*
G01X3045002Y-4554237D01*
G01X3040003Y-4559238D01*
G01X3015799Y-4559238D01*
G01X3015799Y-4522238D01*
G01X2982799Y-4522238D01*
G01X2982799Y-4559238D01*
G01X2960003Y-4559238D01*
G01X2955002Y-4554237D01*
G01X2955002Y-4474237D01*
G37*
G36*
G01X1744999Y-4713241D02*
G01X1739998Y-4718239D01*
G01X1659998Y-4718239D01*
G01X1654999Y-4713241D01*
G01X1654999Y-4633241D01*
G01X1659998Y-4628240D01*
G01X1684201Y-4628240D01*
G01X1684201Y-4665240D01*
G01X1717201Y-4665240D01*
G01X1717201Y-4628240D01*
G01X1739998Y-4628240D01*
G01X1744999Y-4633241D01*
G01X1744999Y-4713241D01*
G37*
G36*
G01X1655002Y-4474237D02*
G01X1660003Y-4469238D01*
G01X1740003Y-4469238D01*
G01X1745001Y-4474237D01*
G01X1745001Y-4554237D01*
G01X1740003Y-4559238D01*
G01X1715799Y-4559238D01*
G01X1715799Y-4522238D01*
G01X1682799Y-4522238D01*
G01X1682799Y-4559238D01*
G01X1660003Y-4559238D01*
G01X1655002Y-4554237D01*
G01X1655002Y-4474237D01*
G37*
G36*
G01X2744999Y-4713241D02*
G01X2739998Y-4718239D01*
G01X2659998Y-4718239D01*
G01X2654999Y-4713241D01*
G01X2654999Y-4633241D01*
G01X2659998Y-4628240D01*
G01X2684202Y-4628240D01*
G01X2684202Y-4665240D01*
G01X2717201Y-4665240D01*
G01X2717201Y-4628240D01*
G01X2739998Y-4628240D01*
G01X2744999Y-4633241D01*
G01X2744999Y-4713241D01*
G37*
G36*
G01X2655002Y-4474237D02*
G01X2660003Y-4469238D01*
G01X2740003Y-4469238D01*
G01X2745002Y-4474237D01*
G01X2745002Y-4554237D01*
G01X2740003Y-4559238D01*
G01X2715799Y-4559238D01*
G01X2715799Y-4522238D01*
G01X2682800Y-4522238D01*
G01X2682800Y-4559238D01*
G01X2660003Y-4559238D01*
G01X2655002Y-4554237D01*
G01X2655002Y-4474237D01*
G37*
G36*
G01X1955001Y-4474237D02*
G01X1960003Y-4469238D01*
G01X2040003Y-4469238D01*
G01X2045001Y-4474237D01*
G01X2045001Y-4554237D01*
G01X2040003Y-4559238D01*
G01X2015799Y-4559238D01*
G01X2015799Y-4522238D01*
G01X1982799Y-4522238D01*
G01X1982799Y-4559238D01*
G01X1960003Y-4559238D01*
G01X1955001Y-4554237D01*
G01X1955001Y-4474237D01*
G37*
G36*
G01X2044999Y-4713241D02*
G01X2039997Y-4718239D01*
G01X1959998Y-4718239D01*
G01X1954999Y-4713241D01*
G01X1954999Y-4633241D01*
G01X1959998Y-4628240D01*
G01X1984201Y-4628240D01*
G01X1984201Y-4665240D01*
G01X2017201Y-4665240D01*
G01X2017201Y-4628240D01*
G01X2039997Y-4628240D01*
G01X2044999Y-4633241D01*
G01X2044999Y-4713241D01*
G37*
G36*
G01X4644999Y-4713241D02*
G01X4639998Y-4718239D01*
G01X4559998Y-4718239D01*
G01X4554999Y-4713241D01*
G01X4554999Y-4633241D01*
G01X4559998Y-4628240D01*
G01X4584201Y-4628240D01*
G01X4584201Y-4665240D01*
G01X4617201Y-4665240D01*
G01X4617201Y-4628240D01*
G01X4639998Y-4628240D01*
G01X4644999Y-4633241D01*
G01X4644999Y-4713241D01*
G37*
G36*
G01X4555002Y-4474237D02*
G01X4560003Y-4469238D01*
G01X4640003Y-4469238D01*
G01X4645001Y-4474237D01*
G01X4645001Y-4554237D01*
G01X4640003Y-4559238D01*
G01X4615799Y-4559238D01*
G01X4615799Y-4522238D01*
G01X4582799Y-4522238D01*
G01X4582799Y-4559238D01*
G01X4560003Y-4559238D01*
G01X4555002Y-4554237D01*
G01X4555002Y-4474237D01*
G37*
G36*
G01X3344999Y-4713241D02*
G01X3339998Y-4718239D01*
G01X3259998Y-4718239D01*
G01X3254999Y-4713241D01*
G01X3254999Y-4633241D01*
G01X3259998Y-4628240D01*
G01X3284201Y-4628240D01*
G01X3284201Y-4665240D01*
G01X3317201Y-4665240D01*
G01X3317201Y-4628240D01*
G01X3339998Y-4628240D01*
G01X3344999Y-4633241D01*
G01X3344999Y-4713241D01*
G37*
G36*
G01X3255002Y-4474237D02*
G01X3260003Y-4469238D01*
G01X3340003Y-4469238D01*
G01X3345001Y-4474237D01*
G01X3345001Y-4554237D01*
G01X3340003Y-4559238D01*
G01X3315799Y-4559238D01*
G01X3315799Y-4522238D01*
G01X3282799Y-4522238D01*
G01X3282799Y-4559238D01*
G01X3260003Y-4559238D01*
G01X3255002Y-4554237D01*
G01X3255002Y-4474237D01*
G37*
G36*
G01X4344999Y-4713241D02*
G01X4339998Y-4718239D01*
G01X4259998Y-4718239D01*
G01X4254999Y-4713241D01*
G01X4254999Y-4633241D01*
G01X4259998Y-4628240D01*
G01X4284201Y-4628240D01*
G01X4284201Y-4665240D01*
G01X4317201Y-4665240D01*
G01X4317201Y-4628240D01*
G01X4339998Y-4628240D01*
G01X4344999Y-4633241D01*
G01X4344999Y-4713241D01*
G37*
G36*
G01X4255002Y-4474237D02*
G01X4260003Y-4469238D01*
G01X4340003Y-4469238D01*
G01X4345001Y-4474237D01*
G01X4345001Y-4554237D01*
G01X4340003Y-4559238D01*
G01X4315799Y-4559238D01*
G01X4315799Y-4522238D01*
G01X4282799Y-4522238D01*
G01X4282799Y-4559238D01*
G01X4260003Y-4559238D01*
G01X4255002Y-4554237D01*
G01X4255002Y-4474237D01*
G37*
G36*
G01X3555002Y-4474237D02*
G01X3560003Y-4469238D01*
G01X3640003Y-4469238D01*
G01X3645001Y-4474237D01*
G01X3645001Y-4554237D01*
G01X3640003Y-4559238D01*
G01X3615799Y-4559238D01*
G01X3615799Y-4522238D01*
G01X3582799Y-4522238D01*
G01X3582799Y-4559238D01*
G01X3560003Y-4559238D01*
G01X3555002Y-4554237D01*
G01X3555002Y-4474237D01*
G37*
G36*
G01X3644999Y-4713241D02*
G01X3639998Y-4718239D01*
G01X3559998Y-4718239D01*
G01X3554999Y-4713241D01*
G01X3554999Y-4633241D01*
G01X3559998Y-4628240D01*
G01X3584201Y-4628240D01*
G01X3584201Y-4665240D01*
G01X3617201Y-4665240D01*
G01X3617201Y-4628240D01*
G01X3639998Y-4628240D01*
G01X3644999Y-4633241D01*
G01X3644999Y-4713241D01*
G37*
G36*
G01X645001Y-4719502D02*
G01X640000Y-4724501D01*
G01X560000Y-4724501D01*
G01X555001Y-4719502D01*
G01X555001Y-4639502D01*
G01X560000Y-4634501D01*
G01X584204Y-4634501D01*
G01X584204Y-4671501D01*
G01X617203Y-4671501D01*
G01X617203Y-4634501D01*
G01X640000Y-4634501D01*
G01X645001Y-4639502D01*
G01X645001Y-4719502D01*
G37*
G36*
G01X555004Y-4480498D02*
G01X560005Y-4475499D01*
G01X640005Y-4475499D01*
G01X645004Y-4480498D01*
G01X645004Y-4560498D01*
G01X640005Y-4565499D01*
G01X615801Y-4565499D01*
G01X615801Y-4528499D01*
G01X582801Y-4528499D01*
G01X582801Y-4565499D01*
G01X560005Y-4565499D01*
G01X555004Y-4560498D01*
G01X555004Y-4480498D01*
G37*
G36*
G01X555004Y-3980498D02*
G01X560005Y-3975499D01*
G01X640005Y-3975499D01*
G01X645004Y-3980498D01*
G01X645004Y-4060498D01*
G01X640005Y-4065499D01*
G01X615801Y-4065499D01*
G01X615801Y-4028499D01*
G01X582801Y-4028499D01*
G01X582801Y-4065499D01*
G01X560005Y-4065499D01*
G01X555004Y-4060498D01*
G01X555004Y-3980498D01*
G37*
G36*
G01X645001Y-4219502D02*
G01X640000Y-4224501D01*
G01X560000Y-4224501D01*
G01X555001Y-4219502D01*
G01X555001Y-4139502D01*
G01X560000Y-4134501D01*
G01X584204Y-4134501D01*
G01X584204Y-4171501D01*
G01X617203Y-4171501D01*
G01X617203Y-4134501D01*
G01X640000Y-4134501D01*
G01X645001Y-4139502D01*
G01X645001Y-4219502D01*
G37*
G36*
G01X8417498Y-1359993D02*
G01X8417498Y-1389996D01*
G01X8307498Y-1389996D01*
G01X8307498Y-1359993D01*
G01X8417498Y-1359993D01*
G37*
G36*
G01X8307498Y-1339983D02*
G01X8307498Y-1309981D01*
G01X8417498Y-1309981D01*
G01X8417498Y-1339983D01*
G01X8307498Y-1339983D01*
G37*
G36*
G01X8307498Y-1850003D02*
G01X8307498Y-1790003D01*
G01X8417498Y-1790003D01*
G01X8417498Y-1850003D01*
G01X8307498Y-1850003D01*
G37*
G36*
G01X8417498Y-1410006D02*
G01X8417498Y-1440009D01*
G01X8307498Y-1440009D01*
G01X8307498Y-1410006D01*
G01X8417498Y-1410006D01*
G37*
G36*
G01X8307498Y-1289983D02*
G01X8307498Y-1229984D01*
G01X8417498Y-1229984D01*
G01X8417498Y-1289983D01*
G01X8307498Y-1289983D01*
G37*
G36*
G01X8417498Y-1149999D02*
G01X8417498Y-1209999D01*
G01X8307498Y-1209999D01*
G01X8307498Y-1149999D01*
G01X8417498Y-1149999D01*
G37*
G36*
G01X8417498Y-1459993D02*
G01X8417498Y-1489996D01*
G01X8307498Y-1489996D01*
G01X8307498Y-1459993D01*
G01X8417498Y-1459993D01*
G37*
G36*
G01X8417498Y-1510006D02*
G01X8417498Y-1540008D01*
G01X8307498Y-1540008D01*
G01X8307498Y-1510006D01*
G01X8417498Y-1510006D01*
G37*
G36*
G01X8307498Y-1769993D02*
G01X8307498Y-1709993D01*
G01X8417498Y-1709993D01*
G01X8417498Y-1769993D01*
G01X8307498Y-1769993D01*
G37*
G36*
G01X8417498Y-1559993D02*
G01X8417498Y-1589996D01*
G01X8307498Y-1589996D01*
G01X8307498Y-1559993D01*
G01X8417498Y-1559993D01*
G37*
G36*
G01X8417498Y-1609980D02*
G01X8417498Y-1639983D01*
G01X8307498Y-1639983D01*
G01X8307498Y-1609980D01*
G01X8417498Y-1609980D01*
G37*
G36*
G01X8417498Y-1659993D02*
G01X8417498Y-1689995D01*
G01X8307498Y-1689995D01*
G01X8307498Y-1659993D01*
G01X8417498Y-1659993D01*
G37*
G36*
G01X8317658Y-1063019D02*
G01X8317955Y-1060042D01*
G01X8318402Y-1057083D01*
G01X8318994Y-1054152D01*
G01X8319733Y-1051251D01*
G01X8320614Y-1048394D01*
G01X8321638Y-1045582D01*
G01X8322799Y-1042826D01*
G01X8324097Y-1040129D01*
G01X8325529Y-1037502D01*
G01X8327089Y-1034950D01*
G01X8328773Y-1032478D01*
G01X8330581Y-1030093D01*
G01X8332504Y-1027802D01*
G01X8334539Y-1025608D01*
G01X8336680Y-1023520D01*
G01X8338923Y-1021538D01*
G01X8341262Y-1019674D01*
G01X8343690Y-1017929D01*
G01X8346205Y-1016306D01*
G01X8348796Y-1014810D01*
G01X8351458Y-1013443D01*
G01X8354183Y-1012214D01*
G01X8356969Y-1011122D01*
G01X8359804Y-1010167D01*
G01X8362684Y-1009357D01*
G01X8365600Y-1008691D01*
G01X8368547Y-1008173D01*
G01X8371516Y-1007800D01*
G01X8374500Y-1007576D01*
G01X8377490Y-1007502D01*
G01X8457490Y-1007502D01*
G01X8460479Y-1007576D01*
G01X8463464Y-1007800D01*
G01X8466433Y-1008173D01*
G01X8469380Y-1008691D01*
G01X8472295Y-1009357D01*
G01X8475176Y-1010167D01*
G01X8478010Y-1011122D01*
G01X8480797Y-1012214D01*
G01X8483522Y-1013443D01*
G01X8486184Y-1014810D01*
G01X8488775Y-1016306D01*
G01X8491290Y-1017929D01*
G01X8493718Y-1019674D01*
G01X8496057Y-1021538D01*
G01X8498300Y-1023520D01*
G01X8500441Y-1025608D01*
G01X8502476Y-1027802D01*
G01X8504399Y-1030093D01*
G01X8506207Y-1032478D01*
G01X8507891Y-1034950D01*
G01X8509451Y-1037502D01*
G01X8510883Y-1040129D01*
G01X8512181Y-1042826D01*
G01X8513342Y-1045582D01*
G01X8514365Y-1048394D01*
G01X8515247Y-1051251D01*
G01X8515986Y-1054152D01*
G01X8516578Y-1057083D01*
G01X8517025Y-1060042D01*
G01X8517322Y-1063019D01*
G01X8517472Y-1066006D01*
G01X8517472Y-1068998D01*
G01X8517322Y-1071985D01*
G01X8517025Y-1074962D01*
G01X8516578Y-1077921D01*
G01X8515986Y-1080853D01*
G01X8515247Y-1083753D01*
G01X8514365Y-1086611D01*
G01X8513342Y-1089423D01*
G01X8512181Y-1092178D01*
G01X8510883Y-1094876D01*
G01X8509451Y-1097502D01*
G01X8507891Y-1100055D01*
G01X8506207Y-1102526D01*
G01X8504399Y-1104911D01*
G01X8502476Y-1107203D01*
G01X8500441Y-1109397D01*
G01X8498300Y-1111485D01*
G01X8496057Y-1113466D01*
G01X8493718Y-1115331D01*
G01X8491290Y-1117075D01*
G01X8488775Y-1118699D01*
G01X8486184Y-1120195D01*
G01X8483522Y-1121561D01*
G01X8480797Y-1122790D01*
G01X8478010Y-1123883D01*
G01X8475176Y-1124838D01*
G01X8472295Y-1125648D01*
G01X8469380Y-1126313D01*
G01X8466433Y-1126832D01*
G01X8463464Y-1127205D01*
G01X8460479Y-1127429D01*
G01X8457490Y-1127502D01*
G01X8377490Y-1127502D01*
G01X8374500Y-1127429D01*
G01X8371516Y-1127205D01*
G01X8368547Y-1126832D01*
G01X8365600Y-1126313D01*
G01X8362684Y-1125648D01*
G01X8359804Y-1124838D01*
G01X8356969Y-1123883D01*
G01X8354183Y-1122790D01*
G01X8351458Y-1121561D01*
G01X8348796Y-1120195D01*
G01X8346205Y-1118699D01*
G01X8343690Y-1117075D01*
G01X8341262Y-1115331D01*
G01X8338923Y-1113466D01*
G01X8336680Y-1111485D01*
G01X8334539Y-1109397D01*
G01X8332504Y-1107203D01*
G01X8330581Y-1104911D01*
G01X8328773Y-1102526D01*
G01X8327089Y-1100055D01*
G01X8325529Y-1097502D01*
G01X8324097Y-1094876D01*
G01X8322799Y-1092178D01*
G01X8321638Y-1089423D01*
G01X8320614Y-1086611D01*
G01X8319733Y-1083753D01*
G01X8318994Y-1080853D01*
G01X8318402Y-1077921D01*
G01X8317955Y-1074962D01*
G01X8317658Y-1071985D01*
G01X8317508Y-1068998D01*
G01X8317508Y-1066006D01*
G01X8317658Y-1063019D01*
G37*
G36*
G01X8317508Y-1933995D02*
G01X8317508Y-1931003D01*
G01X8317658Y-1928016D01*
G01X8317955Y-1925039D01*
G01X8318402Y-1922080D01*
G01X8318994Y-1919149D01*
G01X8319733Y-1916248D01*
G01X8320614Y-1913391D01*
G01X8321638Y-1910579D01*
G01X8322799Y-1907823D01*
G01X8324097Y-1905126D01*
G01X8325529Y-1902499D01*
G01X8327089Y-1899947D01*
G01X8328773Y-1897475D01*
G01X8330581Y-1895090D01*
G01X8332504Y-1892799D01*
G01X8334539Y-1890605D01*
G01X8336680Y-1888517D01*
G01X8338923Y-1886535D01*
G01X8341262Y-1884671D01*
G01X8343690Y-1882926D01*
G01X8346205Y-1881303D01*
G01X8348796Y-1879807D01*
G01X8351458Y-1878440D01*
G01X8354183Y-1877211D01*
G01X8356969Y-1876119D01*
G01X8359804Y-1875164D01*
G01X8362684Y-1874354D01*
G01X8365600Y-1873688D01*
G01X8368547Y-1873170D01*
G01X8371516Y-1872797D01*
G01X8374500Y-1872573D01*
G01X8377490Y-1872499D01*
G01X8457490Y-1872499D01*
G01X8460479Y-1872573D01*
G01X8463464Y-1872797D01*
G01X8466433Y-1873170D01*
G01X8469380Y-1873688D01*
G01X8472295Y-1874354D01*
G01X8475176Y-1875164D01*
G01X8478010Y-1876119D01*
G01X8480797Y-1877211D01*
G01X8483522Y-1878440D01*
G01X8486184Y-1879807D01*
G01X8488775Y-1881303D01*
G01X8491290Y-1882926D01*
G01X8493718Y-1884671D01*
G01X8496057Y-1886535D01*
G01X8498300Y-1888517D01*
G01X8500441Y-1890605D01*
G01X8502476Y-1892799D01*
G01X8504399Y-1895090D01*
G01X8506207Y-1897475D01*
G01X8507891Y-1899947D01*
G01X8509451Y-1902499D01*
G01X8510883Y-1905126D01*
G01X8512181Y-1907823D01*
G01X8513342Y-1910579D01*
G01X8514365Y-1913391D01*
G01X8515247Y-1916248D01*
G01X8515986Y-1919149D01*
G01X8516578Y-1922080D01*
G01X8517025Y-1925039D01*
G01X8517322Y-1928016D01*
G01X8517472Y-1931003D01*
G01X8517472Y-1933995D01*
G01X8517322Y-1936982D01*
G01X8517025Y-1939959D01*
G01X8516578Y-1942918D01*
G01X8515986Y-1945850D01*
G01X8515247Y-1948750D01*
G01X8514365Y-1951608D01*
G01X8513342Y-1954420D01*
G01X8512181Y-1957175D01*
G01X8510883Y-1959873D01*
G01X8509451Y-1962499D01*
G01X8507891Y-1965052D01*
G01X8506207Y-1967523D01*
G01X8504399Y-1969908D01*
G01X8502476Y-1972200D01*
G01X8500441Y-1974394D01*
G01X8498300Y-1976482D01*
G01X8496057Y-1978463D01*
G01X8493718Y-1980328D01*
G01X8491290Y-1982072D01*
G01X8488775Y-1983696D01*
G01X8486184Y-1985192D01*
G01X8483522Y-1986558D01*
G01X8480797Y-1987787D01*
G01X8478010Y-1988880D01*
G01X8475176Y-1989835D01*
G01X8472295Y-1990645D01*
G01X8469380Y-1991310D01*
G01X8466433Y-1991829D01*
G01X8463464Y-1992202D01*
G01X8460479Y-1992426D01*
G01X8457490Y-1992499D01*
G01X8377490Y-1992499D01*
G01X8374500Y-1992426D01*
G01X8371516Y-1992202D01*
G01X8368547Y-1991829D01*
G01X8365600Y-1991310D01*
G01X8362684Y-1990645D01*
G01X8359804Y-1989835D01*
G01X8356969Y-1988880D01*
G01X8354183Y-1987787D01*
G01X8351458Y-1986558D01*
G01X8348796Y-1985192D01*
G01X8346205Y-1983696D01*
G01X8343690Y-1982072D01*
G01X8341262Y-1980328D01*
G01X8338923Y-1978463D01*
G01X8336680Y-1976482D01*
G01X8334539Y-1974394D01*
G01X8332504Y-1972200D01*
G01X8330581Y-1969908D01*
G01X8328773Y-1967523D01*
G01X8327089Y-1965052D01*
G01X8325529Y-1962499D01*
G01X8324097Y-1959873D01*
G01X8322799Y-1957175D01*
G01X8321638Y-1954420D01*
G01X8320614Y-1951608D01*
G01X8319733Y-1948750D01*
G01X8318994Y-1945850D01*
G01X8318402Y-1942918D01*
G01X8317955Y-1939959D01*
G01X8317658Y-1936982D01*
G01X8317508Y-1933995D01*
G37*
G36*
G01X8762673Y-1928016D02*
G01X8762971Y-1925039D01*
G01X8763418Y-1922080D01*
G01X8764009Y-1919149D01*
G01X8764749Y-1916248D01*
G01X8765630Y-1913391D01*
G01X8766654Y-1910579D01*
G01X8767814Y-1907823D01*
G01X8769112Y-1905126D01*
G01X8770545Y-1902499D01*
G01X8772104Y-1899947D01*
G01X8773788Y-1897475D01*
G01X8775597Y-1895090D01*
G01X8777520Y-1892799D01*
G01X8779554Y-1890605D01*
G01X8781695Y-1888517D01*
G01X8783938Y-1886535D01*
G01X8786278Y-1884671D01*
G01X8788706Y-1882926D01*
G01X8791220Y-1881303D01*
G01X8793811Y-1879807D01*
G01X8796473Y-1878440D01*
G01X8799199Y-1877211D01*
G01X8801985Y-1876119D01*
G01X8804820Y-1875164D01*
G01X8807700Y-1874354D01*
G01X8810616Y-1873688D01*
G01X8813562Y-1873170D01*
G01X8816532Y-1872797D01*
G01X8819516Y-1872573D01*
G01X8822506Y-1872499D01*
G01X8852506Y-1872499D01*
G01X8855495Y-1872573D01*
G01X8858480Y-1872797D01*
G01X8861449Y-1873170D01*
G01X8864395Y-1873688D01*
G01X8867311Y-1874354D01*
G01X8870192Y-1875164D01*
G01X8873026Y-1876119D01*
G01X8875813Y-1877211D01*
G01X8878538Y-1878440D01*
G01X8881200Y-1879807D01*
G01X8883791Y-1881303D01*
G01X8886305Y-1882926D01*
G01X8888734Y-1884671D01*
G01X8891073Y-1886535D01*
G01X8893316Y-1888517D01*
G01X8895457Y-1890605D01*
G01X8897491Y-1892799D01*
G01X8899414Y-1895090D01*
G01X8901223Y-1897475D01*
G01X8902907Y-1899947D01*
G01X8904466Y-1902499D01*
G01X8905899Y-1905126D01*
G01X8907197Y-1907823D01*
G01X8908358Y-1910579D01*
G01X8909381Y-1913391D01*
G01X8910263Y-1916248D01*
G01X8911002Y-1919149D01*
G01X8911594Y-1922080D01*
G01X8912041Y-1925039D01*
G01X8912338Y-1928016D01*
G01X8912488Y-1931003D01*
G01X8912488Y-1933995D01*
G01X8912338Y-1936982D01*
G01X8912041Y-1939959D01*
G01X8911594Y-1942918D01*
G01X8911002Y-1945850D01*
G01X8910263Y-1948750D01*
G01X8909381Y-1951608D01*
G01X8908358Y-1954420D01*
G01X8907197Y-1957175D01*
G01X8905899Y-1959873D01*
G01X8904466Y-1962499D01*
G01X8902907Y-1965052D01*
G01X8901223Y-1967523D01*
G01X8899414Y-1969908D01*
G01X8897491Y-1972200D01*
G01X8895457Y-1974394D01*
G01X8893316Y-1976482D01*
G01X8891073Y-1978463D01*
G01X8888734Y-1980328D01*
G01X8886305Y-1982072D01*
G01X8883791Y-1983696D01*
G01X8881200Y-1985192D01*
G01X8878538Y-1986558D01*
G01X8875813Y-1987787D01*
G01X8873026Y-1988880D01*
G01X8870192Y-1989835D01*
G01X8867311Y-1990645D01*
G01X8864395Y-1991310D01*
G01X8861449Y-1991829D01*
G01X8858480Y-1992202D01*
G01X8855495Y-1992426D01*
G01X8852506Y-1992499D01*
G01X8822506Y-1992499D01*
G01X8819516Y-1992426D01*
G01X8816532Y-1992202D01*
G01X8813562Y-1991829D01*
G01X8810616Y-1991310D01*
G01X8807700Y-1990645D01*
G01X8804820Y-1989835D01*
G01X8801985Y-1988880D01*
G01X8799199Y-1987787D01*
G01X8796473Y-1986558D01*
G01X8793811Y-1985192D01*
G01X8791220Y-1983696D01*
G01X8788706Y-1982072D01*
G01X8786278Y-1980328D01*
G01X8783938Y-1978463D01*
G01X8781695Y-1976482D01*
G01X8779554Y-1974394D01*
G01X8777520Y-1972200D01*
G01X8775597Y-1969908D01*
G01X8773788Y-1967523D01*
G01X8772104Y-1965052D01*
G01X8770545Y-1962499D01*
G01X8769112Y-1959873D01*
G01X8767814Y-1957175D01*
G01X8766654Y-1954420D01*
G01X8765630Y-1951608D01*
G01X8764749Y-1948750D01*
G01X8764009Y-1945850D01*
G01X8763418Y-1942918D01*
G01X8762971Y-1939959D01*
G01X8762673Y-1936982D01*
G01X8762523Y-1933995D01*
G01X8762523Y-1931003D01*
G01X8762673Y-1928016D01*
G37*
G36*
G01X8762523Y-1068998D02*
G01X8762523Y-1066006D01*
G01X8762673Y-1063019D01*
G01X8762971Y-1060042D01*
G01X8763418Y-1057083D01*
G01X8764009Y-1054152D01*
G01X8764749Y-1051251D01*
G01X8765630Y-1048394D01*
G01X8766654Y-1045582D01*
G01X8767814Y-1042826D01*
G01X8769112Y-1040129D01*
G01X8770545Y-1037502D01*
G01X8772104Y-1034950D01*
G01X8773788Y-1032478D01*
G01X8775597Y-1030093D01*
G01X8777520Y-1027802D01*
G01X8779554Y-1025608D01*
G01X8781695Y-1023520D01*
G01X8783938Y-1021538D01*
G01X8786278Y-1019674D01*
G01X8788706Y-1017929D01*
G01X8791220Y-1016306D01*
G01X8793811Y-1014810D01*
G01X8796473Y-1013443D01*
G01X8799199Y-1012214D01*
G01X8801985Y-1011122D01*
G01X8804820Y-1010167D01*
G01X8807700Y-1009357D01*
G01X8810616Y-1008691D01*
G01X8813562Y-1008173D01*
G01X8816532Y-1007800D01*
G01X8819516Y-1007576D01*
G01X8822506Y-1007502D01*
G01X8852506Y-1007502D01*
G01X8855495Y-1007576D01*
G01X8858480Y-1007800D01*
G01X8861449Y-1008173D01*
G01X8864395Y-1008691D01*
G01X8867311Y-1009357D01*
G01X8870192Y-1010167D01*
G01X8873026Y-1011122D01*
G01X8875813Y-1012214D01*
G01X8878538Y-1013443D01*
G01X8881200Y-1014810D01*
G01X8883791Y-1016306D01*
G01X8886305Y-1017929D01*
G01X8888734Y-1019674D01*
G01X8891073Y-1021538D01*
G01X8893316Y-1023520D01*
G01X8895457Y-1025608D01*
G01X8897491Y-1027802D01*
G01X8899414Y-1030093D01*
G01X8901223Y-1032478D01*
G01X8902907Y-1034950D01*
G01X8904466Y-1037502D01*
G01X8905899Y-1040129D01*
G01X8907197Y-1042826D01*
G01X8908358Y-1045582D01*
G01X8909381Y-1048394D01*
G01X8910263Y-1051251D01*
G01X8911002Y-1054152D01*
G01X8911594Y-1057083D01*
G01X8912041Y-1060042D01*
G01X8912338Y-1063019D01*
G01X8912488Y-1066006D01*
G01X8912488Y-1068998D01*
G01X8912338Y-1071985D01*
G01X8912041Y-1074962D01*
G01X8911594Y-1077921D01*
G01X8911002Y-1080853D01*
G01X8910263Y-1083753D01*
G01X8909381Y-1086611D01*
G01X8908358Y-1089423D01*
G01X8907197Y-1092178D01*
G01X8905899Y-1094876D01*
G01X8904466Y-1097502D01*
G01X8902907Y-1100055D01*
G01X8901223Y-1102526D01*
G01X8899414Y-1104911D01*
G01X8897491Y-1107203D01*
G01X8895457Y-1109397D01*
G01X8893316Y-1111485D01*
G01X8891073Y-1113466D01*
G01X8888734Y-1115331D01*
G01X8886305Y-1117075D01*
G01X8883791Y-1118699D01*
G01X8881200Y-1120195D01*
G01X8878538Y-1121561D01*
G01X8875813Y-1122790D01*
G01X8873026Y-1123883D01*
G01X8870192Y-1124838D01*
G01X8867311Y-1125648D01*
G01X8864395Y-1126313D01*
G01X8861449Y-1126832D01*
G01X8858480Y-1127205D01*
G01X8855495Y-1127429D01*
G01X8852506Y-1127502D01*
G01X8822506Y-1127502D01*
G01X8819516Y-1127429D01*
G01X8816532Y-1127205D01*
G01X8813562Y-1126832D01*
G01X8810616Y-1126313D01*
G01X8807700Y-1125648D01*
G01X8804820Y-1124838D01*
G01X8801985Y-1123883D01*
G01X8799199Y-1122790D01*
G01X8796473Y-1121561D01*
G01X8793811Y-1120195D01*
G01X8791220Y-1118699D01*
G01X8788706Y-1117075D01*
G01X8786278Y-1115331D01*
G01X8783938Y-1113466D01*
G01X8781695Y-1111485D01*
G01X8779554Y-1109397D01*
G01X8777520Y-1107203D01*
G01X8775597Y-1104911D01*
G01X8773788Y-1102526D01*
G01X8772104Y-1100055D01*
G01X8770545Y-1097502D01*
G01X8769112Y-1094876D01*
G01X8767814Y-1092178D01*
G01X8766654Y-1089423D01*
G01X8765630Y-1086611D01*
G01X8764749Y-1083753D01*
G01X8764009Y-1080853D01*
G01X8763418Y-1077921D01*
G01X8762971Y-1074962D01*
G01X8762673Y-1071985D01*
G01X8762523Y-1068998D01*
G37*

G04 Pad Start*
G54D10*
G01X5050255Y-4035002D03*
G01X5050255Y-4664998D03*
G01X5749745Y-4664998D03*
G01X5749745Y-4035002D03*
G54D11*
G01X7150001Y-4479998D03*
G01X7150001Y-4620003D03*
G01X6050001Y-4129998D03*
G01X6050001Y-4270003D03*
G01X7150001Y-4129998D03*
G01X7150001Y-4270003D03*
G01X6050000Y-4479998D03*
G01X6050000Y-4620002D03*
G54D12*
G01X1189997Y-4850000D03*
G01X1330002Y-4850000D03*
G54D13*
G01X3305004Y-4223508D03*
G01X3494996Y-4223508D03*
G01X3400000Y-3976493D03*
G54D14*
G01X2439982Y-4093729D03*
G01X2439982Y-4028730D03*
G01X2259998Y-4028730D03*
G01X2259998Y-4093729D03*
G01X2259998Y-4158727D03*
G01X2439982Y-4158727D03*
G01X2439982Y-4593729D03*
G01X2439982Y-4528730D03*
G01X2259998Y-4528730D03*
G01X2259998Y-4593729D03*
G01X2259998Y-4658727D03*
G01X2439982Y-4658727D03*
G01X4039982Y-4593729D03*
G01X4039982Y-4528730D03*
G01X3859998Y-4528730D03*
G01X3859998Y-4593729D03*
G01X3859998Y-4658727D03*
G01X4039982Y-4658727D03*
G54D15*
G01X807494Y-4629192D03*
G01X872493Y-4629192D03*
G01X937491Y-4629192D03*
G01X1002490Y-4629192D03*
G01X1067514Y-4629192D03*
G01X1132512Y-4629192D03*
G01X1197511Y-4629192D03*
G01X1262510Y-4629192D03*
G01X1327508Y-4629192D03*
G01X1392507Y-4629192D03*
G01X807494Y-4054999D03*
G01X872493Y-4054999D03*
G01X937491Y-4054999D03*
G01X1002490Y-4054999D03*
G01X1067514Y-4054999D03*
G01X1132512Y-4054999D03*
G01X1197511Y-4054999D03*
G01X1262510Y-4054999D03*
G01X1327508Y-4054999D03*
G01X1392507Y-4054999D03*
G54D17*
G01X6370004Y-4696995D03*
G01X6600001Y-4696995D03*
G01X6829998Y-4696995D03*
G54D18*
G01X6600001Y-4103003D03*
G54D19*
G01X4679997Y-4100000D03*
G01X4220003Y-4100000D03*
G54D20*
G01X8250000Y-4050001D03*
G01X7450002Y-4550000D03*
G01X8250000Y-4749999D03*
G04 Pad End*

M02*

