G04 Layer: DrillDrawingLayer*
G04 EasyEDA Pro v3.2.148, 2026-07-20 15:09:28*
G04 Gerber Generator version 0.3*
G04 Scale: 100 percent, Rotated: No, Reflected: No*
G04 Dimensions in millimeters*
G04 Leading zeros omitted, absolute positions, 4 integers and 5 decimals*
G04 Generated by one-click*
G04 Object Configs: Pad,Via,Track,Text,Image,Dimension,BoardOutline,BoardCutout,CopperFilled,SolidRegion,FPCStiffener,Line,PlaneZone,ComponentProperty,ComponentSilkscreen,TearDrop*
G04 Layer Configs: 1,2,3,4,5,6,7,8,9,10,11,13,14,56*
G04 Copper Areas: 0*
%FSLAX45Y45*%
%MOMM*%
%AMIconRect*4,1,4,0.28,-0.28,-0.28,-0.28,-0.28,0.28,0.28,0.28,0.28,-0.28,0*4,0,4,0.233333,-0.233333,0.233333,0.233333,-0.233333,0.233333,-0.233333,-0.233333,0.233333,-0.233333,0*%
%AMIconTriangle*4,1,3,-0.339593,0.240473,0.339593,0.240473,0,-0.37884,-0.339593,0.240473,0*4,0,3,-0.265673,0.19404,0,-0.27342,0.266233,0.19404,-0.265673,0.19404,0*%
%AMIconStar6*4,1,12,0.12068,0.20888,0.298527,0.172713,0.241313,0,0.298527,-0.17206,0.12068,-0.208227,0,-0.344073,-0.120073,-0.208227,-0.298573,-0.17206,-0.240707,0,-0.298573,0.17206,-0.120073,0.20888,0,0.344073,0.12068,0.20888,0*4,0,12,-0.000467,0.273467,-0.090067,0.171733,-0.237533,0.136733,-0.193667,-0.007467,-0.237533,-0.1372,-0.090067,-0.171733,-0.000467,-0.273933,0.090067,-0.171733,0.237533,-0.1372,0.194133,0.007,0.237533,0.1372,0.090067,0.171267,-0.000467,0.273467,0*%
%AMIconStar4*4,1,8,-0.311733,0.311733,0,0.202533,0.311733,0.311733,0.202533,0,0.311733,-0.311733,0,-0.202533,-0.304407,-0.311733,-0.202533,0,-0.311733,0.311733,0*4,0,8,0.233333,-0.233333,0.1512,0,0.233333,0.233333,0,0.1512,-0.233333,0.233333,-0.1512,0,-0.233333,-0.233333,0,-0.1512,0.233333,-0.233333,0*%
%AMIconPlus*4,1,12,0.1736,-0.28,-0.1736,-0.28,-0.1736,-0.1736,-0.28,-0.1736,-0.28,0.1736,-0.1736,0.1736,-0.1736,0.28,0.1736,0.28,0.1736,0.1736,0.28,0.1736,0.28,-0.1736,0.1736,-0.1736,0.1736,-0.28,0*4,0,12,0.126933,-0.233333,0.126933,-0.126933,0.233333,-0.126933,0.233333,0.126933,0.126933,0.126933,0.126933,0.233333,-0.126933,0.233333,-0.126933,0.126933,-0.233333,0.126933,-0.233333,-0.126933,-0.126933,-0.126933,-0.126933,-0.233333,0.126933,-0.233333,0*%
%AMIconX*4,1,16,0.28,-0.28,0.076347,-0.28,0,-0.203653,-0.076347,-0.28,-0.28,-0.28,-0.28,-0.076347,-0.203653,0,-0.28,0.076347,-0.28,0.28,-0.076347,0.28,0,0.203653,0.076347,0.28,0.28,0.28,0.28,0.076347,0.203653,0,0.28,-0.076347,0.28,-0.28,0*4,0,16,0.23352,-0.23296,0.23352,-0.095853,0.137107,0.000093,0.23352,0.095853,0.23352,0.2331,0.095853,0.2331,0,0.137107,-0.095853,0.2331,-0.23352,0.2331,-0.23352,0.095853,-0.137107,0.000093,-0.23352,-0.095853,-0.23352,-0.23296,-0.095853,-0.23296,0,-0.137107,0.095853,-0.23296,0.23352,-0.23296,0*%
%AMIconDiamond*4,1,4,0,-0.364,-0.364,0,0,0.364,0.364,0,0,-0.364,0*4,0,4,0,-0.284807,0.284807,0,0,0.28504,-0.284807,0,0,-0.284807,0*%
%AMIconRect2*4,1,6,0.28,-0.28,-0.28,-0.28,-0.28,0.28,-0.23352,0.2331,-0.233333,-0.233333,0.23352,-0.233333,0.28,-0.28,0*4,1,6,0.28,-0.28,0.23352,-0.233333,0.23352,0.2331,-0.23352,0.2331,-0.28,0.28,0.28,0.28,0.28,-0.28,0*4,1,6,0.186853,-0.186667,-0.186667,-0.186667,-0.186667,0.186853,-0.14,0.140187,-0.14,-0.14,0.140187,-0.14,0.186853,-0.186667,0*4,1,6,0.186853,-0.186667,0.140187,-0.14,0.140187,0.140187,-0.14,0.140187,-0.186667,0.186853,0.186853,0.186853,0.186853,-0.186667,0*%
%ADD10IconRect*%
%ADD11C,0.616X0.522667*%
%ADD12IconTriangle*%
%ADD13IconStar6*%
%ADD14IconStar4*%
%ADD15IconPlus*%
%ADD16IconX*%
%ADD17IconDiamond*%
%ADD18IconRect2*%
%ADD19C,0.2032*%
%ADD20C,0.254*%
G75*


G04 Drill Drawing Start*
G54D10*
G01X8417498Y-1932494D03*
G01X8417500Y-1067492D03*
G54D11*
G01X8837504Y-1932499D03*
G01X8837504Y-1067502D03*
G54D12*
G01X7850001Y-4749999D03*
G01X7850001Y-4160008D03*
G54D13*
G01X8469509Y-1788989D03*
G01X8469509Y-1210987D03*
G54D14*
G01X300000Y-4604000D03*
G01X300000Y-4350000D03*
G01X300000Y-4096000D03*
G54D15*
G01X8346000Y-527000D03*
G01X8600000Y-273000D03*
G01X8854000Y-527000D03*
G54D16*
G01X400000Y-3499999D03*
G01X400000Y-400000D03*
G01X7900000Y-3499999D03*
G01X7900000Y-400000D03*
G54D17*
G01X949999Y-400000D03*
G01X1203999Y-400000D03*
G01X1457999Y-400000D03*
G01X1711999Y-400000D03*
G01X1965999Y-400000D03*
G01X2219999Y-400000D03*
G01X2473999Y-400000D03*
G01X2727999Y-400000D03*
G01X2981999Y-400000D03*
G01X3235999Y-400000D03*
G01X3489999Y-400000D03*
G01X3743999Y-400000D03*
G01X3997999Y-400000D03*
G01X4251999Y-400000D03*
G01X4505999Y-400000D03*
G01X4759999Y-400000D03*
G54D18*
G01X962888Y-4503990D03*
G01X1095908Y-4260412D03*
G01X1101088Y-4756190D03*
G01X1106228Y-4184132D03*
G01X1287908Y-4176382D03*
G01X1302107Y-4503990D03*
G01X1466407Y-4186482D03*
G01X1466597Y-4262682D03*
G01X1475807Y-4592881D03*
G01X1531297Y-4029592D03*
G01X1564517Y-4100002D03*
G01X1684007Y-3908802D03*
G01X1762806Y-3725272D03*
G01X2076196Y-4592881D03*
G01X2343105Y-4658731D03*
G01X2414575Y-4209532D03*
G01X2529805Y-3969512D03*
G01X2605915Y-4100002D03*
G01X2623805Y-4592881D03*
G01X2776205Y-4442201D03*
G01X2776205Y-4094602D03*
G01X2822204Y-4542081D03*
G01X3241003Y-4020312D03*
G01X3393403Y-4172712D03*
G01X3523803Y-4618281D03*
G01X3943102Y-4658731D03*
G01X4250081Y-4274731D03*
G01X4441401Y-3925692D03*
G01X4523801Y-4669081D03*
G01X4543001Y-4027292D03*
G01X4752400Y-4669081D03*
G01X4847800Y-4332091D03*
G01X6049998Y-4384201D03*
G01X6126198Y-4562001D03*
G01X7247876Y-4756190D03*
G01X7414475Y-4681790D03*
G01X8286303Y-2212836D03*
G01X8448063Y-2374595D03*
G01X8471743Y-2298395D03*
G01X8646093Y-2135696D03*
G04 Drill Drawing End*

G04 Text Start*
G54D19*
G01X11350446Y-221706D02*
G01X11350446Y-341848D01*
G01X11350446Y-221706D02*
G01X11396166Y-341848D01*
G01X11441886Y-221706D02*
G01X11396166Y-341848D01*
G01X11441886Y-221706D02*
G01X11441886Y-341848D01*
G01X11558218Y-261838D02*
G01X11558218Y-341848D01*
G01X11558218Y-278856D02*
G01X11546788Y-267426D01*
G01X11535358Y-261838D01*
G01X11518340Y-261838D01*
G01X11506910Y-267426D01*
G01X11495480Y-278856D01*
G01X11489638Y-296128D01*
G01X11489638Y-307558D01*
G01X11495480Y-324576D01*
G01X11506910Y-336006D01*
G01X11518340Y-341848D01*
G01X11535358Y-341848D01*
G01X11546788Y-336006D01*
G01X11558218Y-324576D01*
G01X11605970Y-261838D02*
G01X11605970Y-341848D01*
G01X11605970Y-296128D02*
G01X11611812Y-278856D01*
G01X11623242Y-267426D01*
G01X11634672Y-261838D01*
G01X11651690Y-261838D01*
G01X11699442Y-221706D02*
G01X11699442Y-341848D01*
G01X11756592Y-261838D02*
G01X11699442Y-318988D01*
G01X11722302Y-296128D02*
G01X11762434Y-341848D01*
G01X12887726Y-250408D02*
G01X12881884Y-238978D01*
G01X12870454Y-227548D01*
G01X12859024Y-221706D01*
G01X12836164Y-221706D01*
G01X12824734Y-227548D01*
G01X12813304Y-238978D01*
G01X12807716Y-250408D01*
G01X12801874Y-267426D01*
G01X12801874Y-296128D01*
G01X12807716Y-313146D01*
G01X12813304Y-324576D01*
G01X12824734Y-336006D01*
G01X12836164Y-341848D01*
G01X12859024Y-341848D01*
G01X12870454Y-336006D01*
G01X12881884Y-324576D01*
G01X12887726Y-313146D01*
G01X12964180Y-261838D02*
G01X12952750Y-267426D01*
G01X12941320Y-278856D01*
G01X12935478Y-296128D01*
G01X12935478Y-307558D01*
G01X12941320Y-324576D01*
G01X12952750Y-336006D01*
G01X12964180Y-341848D01*
G01X12981198Y-341848D01*
G01X12992628Y-336006D01*
G01X13004058Y-324576D01*
G01X13009900Y-307558D01*
G01X13009900Y-296128D01*
G01X13004058Y-278856D01*
G01X12992628Y-267426D01*
G01X12981198Y-261838D01*
G01X12964180Y-261838D01*
G01X13057652Y-261838D02*
G01X13057652Y-318988D01*
G01X13063494Y-336006D01*
G01X13074924Y-341848D01*
G01X13091942Y-341848D01*
G01X13103372Y-336006D01*
G01X13120644Y-318988D01*
G01X13120644Y-261838D02*
G01X13120644Y-341848D01*
G01X13168396Y-261838D02*
G01X13168396Y-341848D01*
G01X13168396Y-284698D02*
G01X13185668Y-267426D01*
G01X13197098Y-261838D01*
G01X13214116Y-261838D01*
G01X13225546Y-267426D01*
G01X13231388Y-284698D01*
G01X13231388Y-341848D01*
G01X13296412Y-221706D02*
G01X13296412Y-318988D01*
G01X13302000Y-336006D01*
G01X13313430Y-341848D01*
G01X13324860Y-341848D01*
G01X13279140Y-261838D02*
G01X13319272Y-261838D01*
G01X14296047Y-238978D02*
G01X14284617Y-227548D01*
G01X14267599Y-221706D01*
G01X14244739Y-221706D01*
G01X14227467Y-227548D01*
G01X14216037Y-238978D01*
G01X14216037Y-250408D01*
G01X14221879Y-261838D01*
G01X14227467Y-267426D01*
G01X14238897Y-273268D01*
G01X14273187Y-284698D01*
G01X14284617Y-290286D01*
G01X14290459Y-296128D01*
G01X14296047Y-307558D01*
G01X14296047Y-324576D01*
G01X14284617Y-336006D01*
G01X14267599Y-341848D01*
G01X14244739Y-341848D01*
G01X14227467Y-336006D01*
G01X14216037Y-324576D01*
G01X14343799Y-221706D02*
G01X14349641Y-227548D01*
G01X14355229Y-221706D01*
G01X14349641Y-216118D01*
G01X14343799Y-221706D01*
G01X14349641Y-261838D02*
G01X14349641Y-341848D01*
G01X14465973Y-261838D02*
G01X14402981Y-341848D01*
G01X14402981Y-261838D02*
G01X14465973Y-261838D01*
G01X14402981Y-341848D02*
G01X14465973Y-341848D01*
G01X14513725Y-296128D02*
G01X14582305Y-296128D01*
G01X14582305Y-284698D01*
G01X14576717Y-273268D01*
G01X14570875Y-267426D01*
G01X14559445Y-261838D01*
G01X14542427Y-261838D01*
G01X14530997Y-267426D01*
G01X14519567Y-278856D01*
G01X14513725Y-296128D01*
G01X14513725Y-307558D01*
G01X14519567Y-324576D01*
G01X14530997Y-336006D01*
G01X14542427Y-341848D01*
G01X14559445Y-341848D01*
G01X14570875Y-336006D01*
G01X14582305Y-324576D01*
G01X18180614Y-221706D02*
G01X18180614Y-341848D01*
G01X18180614Y-221706D02*
G01X18232176Y-221706D01*
G01X18249194Y-227548D01*
G01X18255036Y-233136D01*
G01X18260624Y-244566D01*
G01X18260624Y-261838D01*
G01X18255036Y-273268D01*
G01X18249194Y-278856D01*
G01X18232176Y-284698D01*
G01X18180614Y-284698D01*
G01X18308376Y-221706D02*
G01X18308376Y-341848D01*
G01X18424708Y-261838D02*
G01X18424708Y-341848D01*
G01X18424708Y-278856D02*
G01X18413278Y-267426D01*
G01X18401848Y-261838D01*
G01X18384830Y-261838D01*
G01X18373400Y-267426D01*
G01X18361970Y-278856D01*
G01X18356128Y-296128D01*
G01X18356128Y-307558D01*
G01X18361970Y-324576D01*
G01X18373400Y-336006D01*
G01X18384830Y-341848D01*
G01X18401848Y-341848D01*
G01X18413278Y-336006D01*
G01X18424708Y-324576D01*
G01X18489732Y-221706D02*
G01X18489732Y-318988D01*
G01X18495320Y-336006D01*
G01X18506750Y-341848D01*
G01X18518180Y-341848D01*
G01X18472460Y-261838D02*
G01X18512592Y-261838D01*
G01X18565932Y-296128D02*
G01X18634512Y-296128D01*
G01X18634512Y-284698D01*
G01X18628924Y-273268D01*
G01X18623082Y-267426D01*
G01X18611652Y-261838D01*
G01X18594634Y-261838D01*
G01X18583204Y-267426D01*
G01X18571774Y-278856D01*
G01X18565932Y-296128D01*
G01X18565932Y-307558D01*
G01X18571774Y-324576D01*
G01X18583204Y-336006D01*
G01X18594634Y-341848D01*
G01X18611652Y-341848D01*
G01X18623082Y-336006D01*
G01X18634512Y-324576D01*
G01X18750844Y-221706D02*
G01X18750844Y-341848D01*
G01X18750844Y-278856D02*
G01X18739414Y-267426D01*
G01X18727984Y-261838D01*
G01X18710966Y-261838D01*
G01X18699536Y-267426D01*
G01X18688106Y-278856D01*
G01X18682264Y-296128D01*
G01X18682264Y-307558D01*
G01X18688106Y-324576D01*
G01X18699536Y-336006D01*
G01X18710966Y-341848D01*
G01X18727984Y-341848D01*
G01X18739414Y-336006D01*
G01X18750844Y-324576D01*
G01X19722032Y-238978D02*
G01X19710602Y-227548D01*
G01X19693584Y-221706D01*
G01X19670724Y-221706D01*
G01X19653452Y-227548D01*
G01X19642022Y-238978D01*
G01X19642022Y-250408D01*
G01X19647864Y-261838D01*
G01X19653452Y-267426D01*
G01X19664882Y-273268D01*
G01X19699172Y-284698D01*
G01X19710602Y-290286D01*
G01X19716444Y-296128D01*
G01X19722032Y-307558D01*
G01X19722032Y-324576D01*
G01X19710602Y-336006D01*
G01X19693584Y-341848D01*
G01X19670724Y-341848D01*
G01X19653452Y-336006D01*
G01X19642022Y-324576D01*
G01X19769784Y-221706D02*
G01X19769784Y-341848D01*
G01X19769784Y-284698D02*
G01X19787056Y-267426D01*
G01X19798486Y-261838D01*
G01X19815504Y-261838D01*
G01X19826934Y-267426D01*
G01X19832776Y-284698D01*
G01X19832776Y-341848D01*
G01X19949108Y-261838D02*
G01X19949108Y-341848D01*
G01X19949108Y-278856D02*
G01X19937678Y-267426D01*
G01X19926248Y-261838D01*
G01X19909230Y-261838D01*
G01X19897800Y-267426D01*
G01X19886370Y-278856D01*
G01X19880528Y-296128D01*
G01X19880528Y-307558D01*
G01X19886370Y-324576D01*
G01X19897800Y-336006D01*
G01X19909230Y-341848D01*
G01X19926248Y-341848D01*
G01X19937678Y-336006D01*
G01X19949108Y-324576D01*
G01X19996860Y-261838D02*
G01X19996860Y-381726D01*
G01X19996860Y-278856D02*
G01X20008290Y-267426D01*
G01X20019720Y-261838D01*
G01X20036992Y-261838D01*
G01X20048422Y-267426D01*
G01X20059852Y-278856D01*
G01X20065440Y-296128D01*
G01X20065440Y-307558D01*
G01X20059852Y-324576D01*
G01X20048422Y-336006D01*
G01X20036992Y-341848D01*
G01X20019720Y-341848D01*
G01X20008290Y-336006D01*
G01X19996860Y-324576D01*
G01X20113192Y-296128D02*
G01X20181772Y-296128D01*
G01X20181772Y-284698D01*
G01X20176184Y-273268D01*
G01X20170342Y-267426D01*
G01X20158912Y-261838D01*
G01X20141894Y-261838D01*
G01X20130464Y-267426D01*
G01X20119034Y-278856D01*
G01X20113192Y-296128D01*
G01X20113192Y-307558D01*
G01X20119034Y-324576D01*
G01X20130464Y-336006D01*
G01X20141894Y-341848D01*
G01X20158912Y-341848D01*
G01X20170342Y-336006D01*
G01X20181772Y-324576D01*
G01X21073203Y-221706D02*
G01X21118923Y-341848D01*
G01X21164643Y-221706D02*
G01X21118923Y-341848D01*
G01X21212395Y-221706D02*
G01X21218237Y-227548D01*
G01X21223825Y-221706D01*
G01X21218237Y-216118D01*
G01X21212395Y-221706D01*
G01X21218237Y-261838D02*
G01X21218237Y-341848D01*
G01X21340157Y-261838D02*
G01X21340157Y-341848D01*
G01X21340157Y-278856D02*
G01X21328727Y-267426D01*
G01X21317297Y-261838D01*
G01X21300279Y-261838D01*
G01X21288849Y-267426D01*
G01X21277419Y-278856D01*
G01X21271577Y-296128D01*
G01X21271577Y-307558D01*
G01X21277419Y-324576D01*
G01X21288849Y-336006D01*
G01X21300279Y-341848D01*
G01X21317297Y-341848D01*
G01X21328727Y-336006D01*
G01X21340157Y-324576D01*
G01X21490779Y-198846D02*
G01X21387909Y-381726D01*
G01X21538531Y-221706D02*
G01X21538531Y-341848D01*
G01X21538531Y-221706D02*
G01X21590093Y-221706D01*
G01X21607111Y-227548D01*
G01X21612953Y-233136D01*
G01X21618541Y-244566D01*
G01X21618541Y-261838D01*
G01X21612953Y-273268D01*
G01X21607111Y-278856D01*
G01X21590093Y-284698D01*
G01X21538531Y-284698D01*
G01X21734873Y-261838D02*
G01X21734873Y-341848D01*
G01X21734873Y-278856D02*
G01X21723443Y-267426D01*
G01X21712013Y-261838D01*
G01X21694995Y-261838D01*
G01X21683565Y-267426D01*
G01X21672135Y-278856D01*
G01X21666293Y-296128D01*
G01X21666293Y-307558D01*
G01X21672135Y-324576D01*
G01X21683565Y-336006D01*
G01X21694995Y-341848D01*
G01X21712013Y-341848D01*
G01X21723443Y-336006D01*
G01X21734873Y-324576D01*
G01X21851205Y-221706D02*
G01X21851205Y-341848D01*
G01X21851205Y-278856D02*
G01X21839775Y-267426D01*
G01X21828345Y-261838D01*
G01X21811327Y-261838D01*
G01X21799897Y-267426D01*
G01X21788467Y-278856D01*
G01X21782625Y-296128D01*
G01X21782625Y-307558D01*
G01X21788467Y-324576D01*
G01X21799897Y-336006D01*
G01X21811327Y-341848D01*
G01X21828345Y-341848D01*
G01X21839775Y-336006D01*
G01X21851205Y-324576D01*
G01X22742382Y-221706D02*
G01X22742382Y-341848D01*
G01X22742382Y-221706D02*
G01X22793944Y-221706D01*
G01X22810962Y-227548D01*
G01X22816804Y-233136D01*
G01X22822392Y-244566D01*
G01X22822392Y-261838D01*
G01X22816804Y-273268D01*
G01X22810962Y-278856D01*
G01X22793944Y-284698D01*
G01X22742382Y-284698D01*
G01X22938724Y-261838D02*
G01X22938724Y-341848D01*
G01X22938724Y-278856D02*
G01X22927294Y-267426D01*
G01X22915864Y-261838D01*
G01X22898846Y-261838D01*
G01X22887416Y-267426D01*
G01X22875986Y-278856D01*
G01X22870144Y-296128D01*
G01X22870144Y-307558D01*
G01X22875986Y-324576D01*
G01X22887416Y-336006D01*
G01X22898846Y-341848D01*
G01X22915864Y-341848D01*
G01X22927294Y-336006D01*
G01X22938724Y-324576D01*
G01X23055056Y-221706D02*
G01X23055056Y-341848D01*
G01X23055056Y-278856D02*
G01X23043626Y-267426D01*
G01X23032196Y-261838D01*
G01X23015178Y-261838D01*
G01X23003748Y-267426D01*
G01X22992318Y-278856D01*
G01X22986476Y-296128D01*
G01X22986476Y-307558D01*
G01X22992318Y-324576D01*
G01X23003748Y-336006D01*
G01X23015178Y-341848D01*
G01X23032196Y-341848D01*
G01X23043626Y-336006D01*
G01X23055056Y-324576D01*
G01X23310834Y-238978D02*
G01X23299404Y-227548D01*
G01X23282386Y-221706D01*
G01X23259526Y-221706D01*
G01X23242254Y-227548D01*
G01X23230824Y-238978D01*
G01X23230824Y-250408D01*
G01X23236666Y-261838D01*
G01X23242254Y-267426D01*
G01X23253684Y-273268D01*
G01X23287974Y-284698D01*
G01X23299404Y-290286D01*
G01X23305246Y-296128D01*
G01X23310834Y-307558D01*
G01X23310834Y-324576D01*
G01X23299404Y-336006D01*
G01X23282386Y-341848D01*
G01X23259526Y-341848D01*
G01X23242254Y-336006D01*
G01X23230824Y-324576D01*
G01X23358586Y-221706D02*
G01X23358586Y-341848D01*
G01X23358586Y-284698D02*
G01X23375858Y-267426D01*
G01X23387288Y-261838D01*
G01X23404306Y-261838D01*
G01X23415736Y-267426D01*
G01X23421578Y-284698D01*
G01X23421578Y-341848D01*
G01X23537910Y-261838D02*
G01X23537910Y-341848D01*
G01X23537910Y-278856D02*
G01X23526480Y-267426D01*
G01X23515050Y-261838D01*
G01X23498032Y-261838D01*
G01X23486602Y-267426D01*
G01X23475172Y-278856D01*
G01X23469330Y-296128D01*
G01X23469330Y-307558D01*
G01X23475172Y-324576D01*
G01X23486602Y-336006D01*
G01X23498032Y-341848D01*
G01X23515050Y-341848D01*
G01X23526480Y-336006D01*
G01X23537910Y-324576D01*
G01X23585662Y-261838D02*
G01X23585662Y-381726D01*
G01X23585662Y-278856D02*
G01X23597092Y-267426D01*
G01X23608522Y-261838D01*
G01X23625794Y-261838D01*
G01X23637224Y-267426D01*
G01X23648654Y-278856D01*
G01X23654242Y-296128D01*
G01X23654242Y-307558D01*
G01X23648654Y-324576D01*
G01X23637224Y-336006D01*
G01X23625794Y-341848D01*
G01X23608522Y-341848D01*
G01X23597092Y-336006D01*
G01X23585662Y-324576D01*
G01X23701994Y-296128D02*
G01X23770574Y-296128D01*
G01X23770574Y-284698D01*
G01X23764986Y-273268D01*
G01X23759144Y-267426D01*
G01X23747714Y-261838D01*
G01X23730696Y-261838D01*
G01X23719266Y-267426D01*
G01X23707836Y-278856D01*
G01X23701994Y-296128D01*
G01X23701994Y-307558D01*
G01X23707836Y-324576D01*
G01X23719266Y-336006D01*
G01X23730696Y-341848D01*
G01X23747714Y-341848D01*
G01X23759144Y-336006D01*
G01X23770574Y-324576D01*
G01X24661751Y-221706D02*
G01X24661751Y-341848D01*
G01X24661751Y-341848D02*
G01X24730331Y-341848D01*
G01X24846663Y-261838D02*
G01X24846663Y-341848D01*
G01X24846663Y-278856D02*
G01X24835233Y-267426D01*
G01X24823803Y-261838D01*
G01X24806785Y-261838D01*
G01X24795355Y-267426D01*
G01X24783925Y-278856D01*
G01X24778083Y-296128D01*
G01X24778083Y-307558D01*
G01X24783925Y-324576D01*
G01X24795355Y-336006D01*
G01X24806785Y-341848D01*
G01X24823803Y-341848D01*
G01X24835233Y-336006D01*
G01X24846663Y-324576D01*
G01X24900257Y-261838D02*
G01X24934547Y-341848D01*
G01X24968837Y-261838D02*
G01X24934547Y-341848D01*
G01X24923117Y-364708D01*
G01X24911687Y-376138D01*
G01X24900257Y-381726D01*
G01X24894415Y-381726D01*
G01X25016589Y-296128D02*
G01X25085169Y-296128D01*
G01X25085169Y-284698D01*
G01X25079581Y-273268D01*
G01X25073739Y-267426D01*
G01X25062309Y-261838D01*
G01X25045291Y-261838D01*
G01X25033861Y-267426D01*
G01X25022431Y-278856D01*
G01X25016589Y-296128D01*
G01X25016589Y-307558D01*
G01X25022431Y-324576D01*
G01X25033861Y-336006D01*
G01X25045291Y-341848D01*
G01X25062309Y-341848D01*
G01X25073739Y-336006D01*
G01X25085169Y-324576D01*
G01X25132921Y-261838D02*
G01X25132921Y-341848D01*
G01X25132921Y-296128D02*
G01X25138763Y-278856D01*
G01X25150193Y-267426D01*
G01X25161623Y-261838D01*
G01X25178641Y-261838D01*
G01X25354409Y-221706D02*
G01X25354409Y-341848D01*
G01X25354409Y-221706D02*
G01X25405971Y-221706D01*
G01X25422989Y-227548D01*
G01X25428831Y-233136D01*
G01X25434419Y-244566D01*
G01X25434419Y-261838D01*
G01X25428831Y-273268D01*
G01X25422989Y-278856D01*
G01X25405971Y-284698D01*
G01X25354409Y-284698D01*
G01X25550751Y-261838D02*
G01X25550751Y-341848D01*
G01X25550751Y-278856D02*
G01X25539321Y-267426D01*
G01X25527891Y-261838D01*
G01X25510873Y-261838D01*
G01X25499443Y-267426D01*
G01X25488013Y-278856D01*
G01X25482171Y-296128D01*
G01X25482171Y-307558D01*
G01X25488013Y-324576D01*
G01X25499443Y-336006D01*
G01X25510873Y-341848D01*
G01X25527891Y-341848D01*
G01X25539321Y-336006D01*
G01X25550751Y-324576D01*
G01X25598503Y-221706D02*
G01X25604345Y-227548D01*
G01X25609933Y-221706D01*
G01X25604345Y-216118D01*
G01X25598503Y-221706D01*
G01X25604345Y-261838D02*
G01X25604345Y-341848D01*
G01X25657685Y-261838D02*
G01X25657685Y-341848D01*
G01X25657685Y-296128D02*
G01X25663527Y-278856D01*
G01X25674957Y-267426D01*
G01X25686387Y-261838D01*
G01X25703405Y-261838D01*
G01X12807716Y-830979D02*
G01X12807716Y-825137D01*
G01X12813304Y-813707D01*
G01X12819146Y-808119D01*
G01X12830576Y-802277D01*
G01X12853436Y-802277D01*
G01X12864866Y-808119D01*
G01X12870454Y-813707D01*
G01X12876296Y-825137D01*
G01X12876296Y-836567D01*
G01X12870454Y-847997D01*
G01X12859024Y-865269D01*
G01X12801874Y-922419D01*
G01X12881884Y-922419D01*
G01X14221879Y-830979D02*
G01X14221879Y-825137D01*
G01X14227467Y-813707D01*
G01X14233309Y-808119D01*
G01X14244739Y-802277D01*
G01X14267599Y-802277D01*
G01X14279029Y-808119D01*
G01X14284617Y-813707D01*
G01X14290459Y-825137D01*
G01X14290459Y-836567D01*
G01X14284617Y-847997D01*
G01X14273187Y-865269D01*
G01X14216037Y-922419D01*
G01X14296047Y-922419D01*
G01X14355229Y-802277D02*
G01X14418221Y-802277D01*
G01X14383931Y-847997D01*
G01X14400949Y-847997D01*
G01X14412379Y-853839D01*
G01X14418221Y-859427D01*
G01X14423809Y-876699D01*
G01X14423809Y-888129D01*
G01X14418221Y-905147D01*
G01X14406791Y-916577D01*
G01X14389519Y-922419D01*
G01X14372501Y-922419D01*
G01X14355229Y-916577D01*
G01X14349641Y-910989D01*
G01X14343799Y-899559D01*
G01X14477403Y-893717D02*
G01X14471561Y-899559D01*
G01X14477403Y-905147D01*
G01X14482991Y-899559D01*
G01X14477403Y-893717D01*
G01X14599323Y-819549D02*
G01X14593735Y-808119D01*
G01X14576463Y-802277D01*
G01X14565033Y-802277D01*
G01X14548015Y-808119D01*
G01X14536585Y-825137D01*
G01X14530743Y-853839D01*
G01X14530743Y-882287D01*
G01X14536585Y-905147D01*
G01X14548015Y-916577D01*
G01X14565033Y-922419D01*
G01X14570875Y-922419D01*
G01X14587893Y-916577D01*
G01X14599323Y-905147D01*
G01X14605165Y-888129D01*
G01X14605165Y-882287D01*
G01X14599323Y-865269D01*
G01X14587893Y-853839D01*
G01X14570875Y-847997D01*
G01X14565033Y-847997D01*
G01X14548015Y-853839D01*
G01X14536585Y-865269D01*
G01X14530743Y-882287D01*
G01X14652917Y-842409D02*
G01X14715909Y-922419D01*
G01X14715909Y-842409D02*
G01X14652917Y-922419D01*
G01X14832241Y-802277D02*
G01X14775091Y-802277D01*
G01X14769503Y-853839D01*
G01X14775091Y-847997D01*
G01X14792363Y-842409D01*
G01X14809381Y-842409D01*
G01X14826653Y-847997D01*
G01X14838083Y-859427D01*
G01X14843671Y-876699D01*
G01X14843671Y-888129D01*
G01X14838083Y-905147D01*
G01X14826653Y-916577D01*
G01X14809381Y-922419D01*
G01X14792363Y-922419D01*
G01X14775091Y-916577D01*
G01X14769503Y-910989D01*
G01X14763661Y-899559D01*
G01X14965845Y-842409D02*
G01X14960003Y-859427D01*
G01X14948573Y-870857D01*
G01X14931555Y-876699D01*
G01X14925713Y-876699D01*
G01X14908695Y-870857D01*
G01X14897265Y-859427D01*
G01X14891423Y-842409D01*
G01X14891423Y-836567D01*
G01X14897265Y-819549D01*
G01X14908695Y-808119D01*
G01X14925713Y-802277D01*
G01X14931555Y-802277D01*
G01X14948573Y-808119D01*
G01X14960003Y-819549D01*
G01X14965845Y-842409D01*
G01X14965845Y-870857D01*
G01X14960003Y-899559D01*
G01X14948573Y-916577D01*
G01X14931555Y-922419D01*
G01X14920125Y-922419D01*
G01X14902853Y-916577D01*
G01X14897265Y-905147D01*
G01X15019439Y-893717D02*
G01X15013597Y-899559D01*
G01X15019439Y-905147D01*
G01X15025027Y-899559D01*
G01X15019439Y-893717D01*
G01X15072779Y-825137D02*
G01X15084209Y-819549D01*
G01X15101481Y-802277D01*
G01X15101481Y-922419D01*
G01X15149233Y-842409D02*
G01X15149233Y-922419D01*
G01X15149233Y-865269D02*
G01X15166505Y-847997D01*
G01X15177935Y-842409D01*
G01X15194953Y-842409D01*
G01X15206383Y-847997D01*
G01X15212225Y-865269D01*
G01X15212225Y-922419D01*
G01X15212225Y-865269D02*
G01X15229243Y-847997D01*
G01X15240673Y-842409D01*
G01X15257945Y-842409D01*
G01X15269375Y-847997D01*
G01X15274963Y-865269D01*
G01X15274963Y-922419D01*
G01X15322715Y-802277D02*
G01X15328557Y-808119D01*
G01X15334145Y-802277D01*
G01X15328557Y-796689D01*
G01X15322715Y-802277D01*
G01X15328557Y-842409D02*
G01X15328557Y-922419D01*
G01X15381897Y-802277D02*
G01X15381897Y-922419D01*
G01X15469781Y-779417D02*
G01X15458351Y-790847D01*
G01X15446921Y-808119D01*
G01X15435491Y-830979D01*
G01X15429649Y-859427D01*
G01X15429649Y-882287D01*
G01X15435491Y-910989D01*
G01X15446921Y-933849D01*
G01X15458351Y-950867D01*
G01X15469781Y-962297D01*
G01X15551823Y-802277D02*
G01X15534805Y-808119D01*
G01X15523375Y-825137D01*
G01X15517533Y-853839D01*
G01X15517533Y-870857D01*
G01X15523375Y-899559D01*
G01X15534805Y-916577D01*
G01X15551823Y-922419D01*
G01X15563253Y-922419D01*
G01X15580525Y-916577D01*
G01X15591955Y-899559D01*
G01X15597543Y-870857D01*
G01X15597543Y-853839D01*
G01X15591955Y-825137D01*
G01X15580525Y-808119D01*
G01X15563253Y-802277D01*
G01X15551823Y-802277D01*
G01X15651137Y-893717D02*
G01X15645295Y-899559D01*
G01X15651137Y-905147D01*
G01X15656725Y-899559D01*
G01X15651137Y-893717D01*
G01X15773057Y-819549D02*
G01X15767469Y-808119D01*
G01X15750197Y-802277D01*
G01X15738767Y-802277D01*
G01X15721749Y-808119D01*
G01X15710319Y-825137D01*
G01X15704477Y-853839D01*
G01X15704477Y-882287D01*
G01X15710319Y-905147D01*
G01X15721749Y-916577D01*
G01X15738767Y-922419D01*
G01X15744609Y-922419D01*
G01X15761627Y-916577D01*
G01X15773057Y-905147D01*
G01X15778899Y-888129D01*
G01X15778899Y-882287D01*
G01X15773057Y-865269D01*
G01X15761627Y-853839D01*
G01X15744609Y-847997D01*
G01X15738767Y-847997D01*
G01X15721749Y-853839D01*
G01X15710319Y-865269D01*
G01X15704477Y-882287D01*
G01X15860941Y-802277D02*
G01X15843923Y-808119D01*
G01X15832493Y-825137D01*
G01X15826651Y-853839D01*
G01X15826651Y-870857D01*
G01X15832493Y-899559D01*
G01X15843923Y-916577D01*
G01X15860941Y-922419D01*
G01X15872371Y-922419D01*
G01X15889643Y-916577D01*
G01X15901073Y-899559D01*
G01X15906661Y-870857D01*
G01X15906661Y-853839D01*
G01X15901073Y-825137D01*
G01X15889643Y-808119D01*
G01X15872371Y-802277D01*
G01X15860941Y-802277D01*
G01X15988703Y-802277D02*
G01X15971685Y-808119D01*
G01X15960255Y-825137D01*
G01X15954413Y-853839D01*
G01X15954413Y-870857D01*
G01X15960255Y-899559D01*
G01X15971685Y-916577D01*
G01X15988703Y-922419D01*
G01X16000133Y-922419D01*
G01X16017405Y-916577D01*
G01X16028835Y-899559D01*
G01X16034423Y-870857D01*
G01X16034423Y-853839D01*
G01X16028835Y-825137D01*
G01X16017405Y-808119D01*
G01X16000133Y-802277D01*
G01X15988703Y-802277D01*
G01X16082175Y-842409D02*
G01X16145167Y-922419D01*
G01X16145167Y-842409D02*
G01X16082175Y-922419D01*
G01X16192919Y-825137D02*
G01X16204349Y-819549D01*
G01X16221621Y-802277D01*
G01X16221621Y-922419D01*
G01X16275215Y-893717D02*
G01X16269373Y-899559D01*
G01X16275215Y-905147D01*
G01X16280803Y-899559D01*
G01X16275215Y-893717D01*
G01X16397135Y-802277D02*
G01X16339985Y-802277D01*
G01X16334397Y-853839D01*
G01X16339985Y-847997D01*
G01X16357257Y-842409D01*
G01X16374275Y-842409D01*
G01X16391547Y-847997D01*
G01X16402977Y-859427D01*
G01X16408565Y-876699D01*
G01X16408565Y-888129D01*
G01X16402977Y-905147D01*
G01X16391547Y-916577D01*
G01X16374275Y-922419D01*
G01X16357257Y-922419D01*
G01X16339985Y-916577D01*
G01X16334397Y-910989D01*
G01X16328555Y-899559D01*
G01X16490607Y-802277D02*
G01X16473589Y-808119D01*
G01X16462159Y-825137D01*
G01X16456317Y-853839D01*
G01X16456317Y-870857D01*
G01X16462159Y-899559D01*
G01X16473589Y-916577D01*
G01X16490607Y-922419D01*
G01X16502037Y-922419D01*
G01X16519309Y-916577D01*
G01X16530739Y-899559D01*
G01X16536327Y-870857D01*
G01X16536327Y-853839D01*
G01X16530739Y-825137D01*
G01X16519309Y-808119D01*
G01X16502037Y-802277D01*
G01X16490607Y-802277D01*
G01X16618369Y-802277D02*
G01X16601351Y-808119D01*
G01X16589921Y-825137D01*
G01X16584079Y-853839D01*
G01X16584079Y-870857D01*
G01X16589921Y-899559D01*
G01X16601351Y-916577D01*
G01X16618369Y-922419D01*
G01X16629799Y-922419D01*
G01X16647071Y-916577D01*
G01X16658501Y-899559D01*
G01X16664089Y-870857D01*
G01X16664089Y-853839D01*
G01X16658501Y-825137D01*
G01X16647071Y-808119D01*
G01X16629799Y-802277D01*
G01X16618369Y-802277D01*
G01X16711841Y-842409D02*
G01X16711841Y-922419D01*
G01X16711841Y-865269D02*
G01X16729113Y-847997D01*
G01X16740543Y-842409D01*
G01X16757561Y-842409D01*
G01X16768991Y-847997D01*
G01X16774833Y-865269D01*
G01X16774833Y-922419D01*
G01X16774833Y-865269D02*
G01X16791851Y-847997D01*
G01X16803281Y-842409D01*
G01X16820553Y-842409D01*
G01X16831983Y-847997D01*
G01X16837571Y-865269D01*
G01X16837571Y-922419D01*
G01X16885323Y-842409D02*
G01X16885323Y-922419D01*
G01X16885323Y-865269D02*
G01X16902595Y-847997D01*
G01X16914025Y-842409D01*
G01X16931043Y-842409D01*
G01X16942473Y-847997D01*
G01X16948315Y-865269D01*
G01X16948315Y-922419D01*
G01X16948315Y-865269D02*
G01X16965333Y-847997D01*
G01X16976763Y-842409D01*
G01X16994035Y-842409D01*
G01X17005465Y-847997D01*
G01X17011053Y-865269D01*
G01X17011053Y-922419D01*
G01X17058805Y-779417D02*
G01X17070235Y-790847D01*
G01X17081665Y-808119D01*
G01X17093095Y-830979D01*
G01X17098937Y-859427D01*
G01X17098937Y-882287D01*
G01X17093095Y-910989D01*
G01X17081665Y-933849D01*
G01X17070235Y-950867D01*
G01X17058805Y-962297D01*
G01X18180614Y-802277D02*
G01X18180614Y-922419D01*
G01X18180614Y-802277D02*
G01X18232176Y-802277D01*
G01X18249194Y-808119D01*
G01X18255036Y-813707D01*
G01X18260624Y-825137D01*
G01X18260624Y-842409D01*
G01X18255036Y-853839D01*
G01X18249194Y-859427D01*
G01X18232176Y-865269D01*
G01X18180614Y-865269D01*
G01X18348508Y-802277D02*
G01X18348508Y-922419D01*
G01X18308376Y-802277D02*
G01X18388386Y-802277D01*
G01X18436138Y-802277D02*
G01X18436138Y-922419D01*
G01X18516148Y-802277D02*
G01X18516148Y-922419D01*
G01X18436138Y-859427D02*
G01X18516148Y-859427D01*
G01X19722032Y-819549D02*
G01X19710602Y-808119D01*
G01X19693584Y-802277D01*
G01X19670724Y-802277D01*
G01X19653452Y-808119D01*
G01X19642022Y-819549D01*
G01X19642022Y-830979D01*
G01X19647864Y-842409D01*
G01X19653452Y-847997D01*
G01X19664882Y-853839D01*
G01X19699172Y-865269D01*
G01X19710602Y-870857D01*
G01X19716444Y-876699D01*
G01X19722032Y-888129D01*
G01X19722032Y-905147D01*
G01X19710602Y-916577D01*
G01X19693584Y-922419D01*
G01X19670724Y-922419D01*
G01X19653452Y-916577D01*
G01X19642022Y-905147D01*
G01X19769784Y-802277D02*
G01X19769784Y-922419D01*
G01X19846238Y-842409D02*
G01X19834808Y-847997D01*
G01X19823378Y-859427D01*
G01X19817536Y-876699D01*
G01X19817536Y-888129D01*
G01X19823378Y-905147D01*
G01X19834808Y-916577D01*
G01X19846238Y-922419D01*
G01X19863256Y-922419D01*
G01X19874686Y-916577D01*
G01X19886116Y-905147D01*
G01X19891958Y-888129D01*
G01X19891958Y-876699D01*
G01X19886116Y-859427D01*
G01X19874686Y-847997D01*
G01X19863256Y-842409D01*
G01X19846238Y-842409D01*
G01X19956982Y-802277D02*
G01X19956982Y-899559D01*
G01X19962570Y-916577D01*
G01X19974000Y-922419D01*
G01X19985430Y-922419D01*
G01X19939710Y-842409D02*
G01X19979842Y-842409D01*
G01X21073203Y-802277D02*
G01X21073203Y-922419D01*
G01X21073203Y-802277D02*
G01X21124765Y-802277D01*
G01X21141783Y-808119D01*
G01X21147625Y-813707D01*
G01X21153213Y-825137D01*
G01X21153213Y-842409D01*
G01X21147625Y-853839D01*
G01X21141783Y-859427D01*
G01X21124765Y-865269D01*
G01X21073203Y-865269D01*
G01X21269545Y-842409D02*
G01X21269545Y-922419D01*
G01X21269545Y-859427D02*
G01X21258115Y-847997D01*
G01X21246685Y-842409D01*
G01X21229667Y-842409D01*
G01X21218237Y-847997D01*
G01X21206807Y-859427D01*
G01X21200965Y-876699D01*
G01X21200965Y-888129D01*
G01X21206807Y-905147D01*
G01X21218237Y-916577D01*
G01X21229667Y-922419D01*
G01X21246685Y-922419D01*
G01X21258115Y-916577D01*
G01X21269545Y-905147D01*
G01X21385877Y-802277D02*
G01X21385877Y-922419D01*
G01X21385877Y-859427D02*
G01X21374447Y-847997D01*
G01X21363017Y-842409D01*
G01X21345999Y-842409D01*
G01X21334569Y-847997D01*
G01X21323139Y-859427D01*
G01X21317297Y-876699D01*
G01X21317297Y-888129D01*
G01X21323139Y-905147D01*
G01X21334569Y-916577D01*
G01X21345999Y-922419D01*
G01X21363017Y-922419D01*
G01X21374447Y-916577D01*
G01X21385877Y-905147D01*
G01X22776672Y-802277D02*
G01X22765242Y-808119D01*
G01X22753812Y-819549D01*
G01X22748224Y-830979D01*
G01X22742382Y-847997D01*
G01X22742382Y-876699D01*
G01X22748224Y-893717D01*
G01X22753812Y-905147D01*
G01X22765242Y-916577D01*
G01X22776672Y-922419D01*
G01X22799532Y-922419D01*
G01X22810962Y-916577D01*
G01X22822392Y-905147D01*
G01X22828234Y-893717D01*
G01X22833822Y-876699D01*
G01X22833822Y-847997D01*
G01X22828234Y-830979D01*
G01X22822392Y-819549D01*
G01X22810962Y-808119D01*
G01X22799532Y-802277D01*
G01X22776672Y-802277D01*
G01X22881574Y-842409D02*
G01X22915864Y-922419D01*
G01X22950154Y-842409D02*
G01X22915864Y-922419D01*
G01X23066486Y-842409D02*
G01X23066486Y-922419D01*
G01X23066486Y-859427D02*
G01X23055056Y-847997D01*
G01X23043626Y-842409D01*
G01X23026608Y-842409D01*
G01X23015178Y-847997D01*
G01X23003748Y-859427D01*
G01X22997906Y-876699D01*
G01X22997906Y-888129D01*
G01X23003748Y-905147D01*
G01X23015178Y-916577D01*
G01X23026608Y-922419D01*
G01X23043626Y-922419D01*
G01X23055056Y-916577D01*
G01X23066486Y-905147D01*
G01X23114238Y-802277D02*
G01X23114238Y-922419D01*
G01X24701883Y-802277D02*
G01X24701883Y-922419D01*
G01X24661751Y-802277D02*
G01X24741761Y-802277D01*
G01X24818215Y-842409D02*
G01X24806785Y-847997D01*
G01X24795355Y-859427D01*
G01X24789513Y-876699D01*
G01X24789513Y-888129D01*
G01X24795355Y-905147D01*
G01X24806785Y-916577D01*
G01X24818215Y-922419D01*
G01X24835233Y-922419D01*
G01X24846663Y-916577D01*
G01X24858093Y-905147D01*
G01X24863935Y-888129D01*
G01X24863935Y-876699D01*
G01X24858093Y-859427D01*
G01X24846663Y-847997D01*
G01X24835233Y-842409D01*
G01X24818215Y-842409D01*
G01X24911687Y-842409D02*
G01X24911687Y-962297D01*
G01X24911687Y-859427D02*
G01X24923117Y-847997D01*
G01X24934547Y-842409D01*
G01X24951819Y-842409D01*
G01X24963249Y-847997D01*
G01X24974679Y-859427D01*
G01X24980267Y-876699D01*
G01X24980267Y-888129D01*
G01X24974679Y-905147D01*
G01X24963249Y-916577D01*
G01X24951819Y-922419D01*
G01X24934547Y-922419D01*
G01X24923117Y-916577D01*
G01X24911687Y-905147D01*
G01X25156035Y-802277D02*
G01X25156035Y-922419D01*
G01X25156035Y-922419D02*
G01X25224615Y-922419D01*
G01X25340947Y-842409D02*
G01X25340947Y-922419D01*
G01X25340947Y-859427D02*
G01X25329517Y-847997D01*
G01X25318087Y-842409D01*
G01X25301069Y-842409D01*
G01X25289639Y-847997D01*
G01X25278209Y-859427D01*
G01X25272367Y-876699D01*
G01X25272367Y-888129D01*
G01X25278209Y-905147D01*
G01X25289639Y-916577D01*
G01X25301069Y-922419D01*
G01X25318087Y-922419D01*
G01X25329517Y-916577D01*
G01X25340947Y-905147D01*
G01X25394541Y-842409D02*
G01X25428831Y-922419D01*
G01X25463121Y-842409D02*
G01X25428831Y-922419D01*
G01X25417401Y-945279D01*
G01X25405971Y-956709D01*
G01X25394541Y-962297D01*
G01X25388699Y-962297D01*
G01X25510873Y-876699D02*
G01X25579453Y-876699D01*
G01X25579453Y-865269D01*
G01X25573865Y-853839D01*
G01X25568023Y-847997D01*
G01X25556593Y-842409D01*
G01X25539575Y-842409D01*
G01X25528145Y-847997D01*
G01X25516715Y-859427D01*
G01X25510873Y-876699D01*
G01X25510873Y-888129D01*
G01X25516715Y-905147D01*
G01X25528145Y-916577D01*
G01X25539575Y-922419D01*
G01X25556593Y-922419D01*
G01X25568023Y-916577D01*
G01X25579453Y-905147D01*
G01X25627205Y-842409D02*
G01X25627205Y-922419D01*
G01X25627205Y-876699D02*
G01X25633047Y-859427D01*
G01X25644477Y-847997D01*
G01X25655907Y-842409D01*
G01X25672925Y-842409D01*
G01X25720677Y-870857D02*
G01X25823547Y-870857D01*
G01X25871299Y-802277D02*
G01X25871299Y-922419D01*
G01X25871299Y-802277D02*
G01X25922861Y-802277D01*
G01X25939879Y-808119D01*
G01X25945721Y-813707D01*
G01X25951309Y-825137D01*
G01X25951309Y-836567D01*
G01X25945721Y-847997D01*
G01X25939879Y-853839D01*
G01X25922861Y-859427D01*
G01X25871299Y-859427D02*
G01X25922861Y-859427D01*
G01X25939879Y-865269D01*
G01X25945721Y-870857D01*
G01X25951309Y-882287D01*
G01X25951309Y-899559D01*
G01X25945721Y-910989D01*
G01X25939879Y-916577D01*
G01X25922861Y-922419D01*
G01X25871299Y-922419D01*
G01X26027763Y-842409D02*
G01X26016333Y-847997D01*
G01X26004903Y-859427D01*
G01X25999061Y-876699D01*
G01X25999061Y-888129D01*
G01X26004903Y-905147D01*
G01X26016333Y-916577D01*
G01X26027763Y-922419D01*
G01X26044781Y-922419D01*
G01X26056211Y-916577D01*
G01X26067641Y-905147D01*
G01X26073483Y-888129D01*
G01X26073483Y-876699D01*
G01X26067641Y-859427D01*
G01X26056211Y-847997D01*
G01X26044781Y-842409D01*
G01X26027763Y-842409D01*
G01X26138507Y-802277D02*
G01X26138507Y-899559D01*
G01X26144095Y-916577D01*
G01X26155525Y-922419D01*
G01X26166955Y-922419D01*
G01X26121235Y-842409D02*
G01X26161367Y-842409D01*
G01X26231979Y-802277D02*
G01X26231979Y-899559D01*
G01X26237567Y-916577D01*
G01X26248997Y-922419D01*
G01X26260427Y-922419D01*
G01X26214707Y-842409D02*
G01X26254839Y-842409D01*
G01X26336881Y-842409D02*
G01X26325451Y-847997D01*
G01X26314021Y-859427D01*
G01X26308179Y-876699D01*
G01X26308179Y-888129D01*
G01X26314021Y-905147D01*
G01X26325451Y-916577D01*
G01X26336881Y-922419D01*
G01X26353899Y-922419D01*
G01X26365329Y-916577D01*
G01X26376759Y-905147D01*
G01X26382601Y-888129D01*
G01X26382601Y-876699D01*
G01X26376759Y-859427D01*
G01X26365329Y-847997D01*
G01X26353899Y-842409D01*
G01X26336881Y-842409D01*
G01X26430353Y-842409D02*
G01X26430353Y-922419D01*
G01X26430353Y-865269D02*
G01X26447625Y-847997D01*
G01X26459055Y-842409D01*
G01X26476073Y-842409D01*
G01X26487503Y-847997D01*
G01X26493345Y-865269D01*
G01X26493345Y-922419D01*
G01X26493345Y-865269D02*
G01X26510363Y-847997D01*
G01X26521793Y-842409D01*
G01X26539065Y-842409D01*
G01X26550495Y-847997D01*
G01X26556083Y-865269D01*
G01X26556083Y-922419D01*
G01X26731851Y-802277D02*
G01X26731851Y-922419D01*
G01X26731851Y-922419D02*
G01X26800431Y-922419D01*
G01X26916763Y-842409D02*
G01X26916763Y-922419D01*
G01X26916763Y-859427D02*
G01X26905333Y-847997D01*
G01X26893903Y-842409D01*
G01X26876885Y-842409D01*
G01X26865455Y-847997D01*
G01X26854025Y-859427D01*
G01X26848183Y-876699D01*
G01X26848183Y-888129D01*
G01X26854025Y-905147D01*
G01X26865455Y-916577D01*
G01X26876885Y-922419D01*
G01X26893903Y-922419D01*
G01X26905333Y-916577D01*
G01X26916763Y-905147D01*
G01X26970357Y-842409D02*
G01X27004647Y-922419D01*
G01X27038937Y-842409D02*
G01X27004647Y-922419D01*
G01X26993217Y-945279D01*
G01X26981787Y-956709D01*
G01X26970357Y-962297D01*
G01X26964515Y-962297D01*
G01X27086689Y-876699D02*
G01X27155269Y-876699D01*
G01X27155269Y-865269D01*
G01X27149681Y-853839D01*
G01X27143839Y-847997D01*
G01X27132409Y-842409D01*
G01X27115391Y-842409D01*
G01X27103961Y-847997D01*
G01X27092531Y-859427D01*
G01X27086689Y-876699D01*
G01X27086689Y-888129D01*
G01X27092531Y-905147D01*
G01X27103961Y-916577D01*
G01X27115391Y-922419D01*
G01X27132409Y-922419D01*
G01X27143839Y-916577D01*
G01X27155269Y-905147D01*
G01X27203021Y-842409D02*
G01X27203021Y-922419D01*
G01X27203021Y-876699D02*
G01X27208863Y-859427D01*
G01X27220293Y-847997D01*
G01X27231723Y-842409D01*
G01X27248741Y-842409D01*
G01X12807716Y-1411551D02*
G01X12807716Y-1405709D01*
G01X12813304Y-1394279D01*
G01X12819146Y-1388691D01*
G01X12830576Y-1382849D01*
G01X12853436Y-1382849D01*
G01X12864866Y-1388691D01*
G01X12870454Y-1394279D01*
G01X12876296Y-1405709D01*
G01X12876296Y-1417139D01*
G01X12870454Y-1428569D01*
G01X12859024Y-1445841D01*
G01X12801874Y-1502991D01*
G01X12881884Y-1502991D01*
G01X14221879Y-1411551D02*
G01X14221879Y-1405709D01*
G01X14227467Y-1394279D01*
G01X14233309Y-1388691D01*
G01X14244739Y-1382849D01*
G01X14267599Y-1382849D01*
G01X14279029Y-1388691D01*
G01X14284617Y-1394279D01*
G01X14290459Y-1405709D01*
G01X14290459Y-1417139D01*
G01X14284617Y-1428569D01*
G01X14273187Y-1445841D01*
G01X14216037Y-1502991D01*
G01X14296047Y-1502991D01*
G01X14355229Y-1382849D02*
G01X14418221Y-1382849D01*
G01X14383931Y-1428569D01*
G01X14400949Y-1428569D01*
G01X14412379Y-1434411D01*
G01X14418221Y-1439999D01*
G01X14423809Y-1457271D01*
G01X14423809Y-1468701D01*
G01X14418221Y-1485719D01*
G01X14406791Y-1497149D01*
G01X14389519Y-1502991D01*
G01X14372501Y-1502991D01*
G01X14355229Y-1497149D01*
G01X14349641Y-1491561D01*
G01X14343799Y-1480131D01*
G01X14477403Y-1474289D02*
G01X14471561Y-1480131D01*
G01X14477403Y-1485719D01*
G01X14482991Y-1480131D01*
G01X14477403Y-1474289D01*
G01X14599323Y-1400121D02*
G01X14593735Y-1388691D01*
G01X14576463Y-1382849D01*
G01X14565033Y-1382849D01*
G01X14548015Y-1388691D01*
G01X14536585Y-1405709D01*
G01X14530743Y-1434411D01*
G01X14530743Y-1462859D01*
G01X14536585Y-1485719D01*
G01X14548015Y-1497149D01*
G01X14565033Y-1502991D01*
G01X14570875Y-1502991D01*
G01X14587893Y-1497149D01*
G01X14599323Y-1485719D01*
G01X14605165Y-1468701D01*
G01X14605165Y-1462859D01*
G01X14599323Y-1445841D01*
G01X14587893Y-1434411D01*
G01X14570875Y-1428569D01*
G01X14565033Y-1428569D01*
G01X14548015Y-1434411D01*
G01X14536585Y-1445841D01*
G01X14530743Y-1462859D01*
G01X14652917Y-1422981D02*
G01X14715909Y-1502991D01*
G01X14715909Y-1422981D02*
G01X14652917Y-1502991D01*
G01X14820811Y-1382849D02*
G01X14763661Y-1462859D01*
G01X14849513Y-1462859D01*
G01X14820811Y-1382849D02*
G01X14820811Y-1502991D01*
G01X14977275Y-1382849D02*
G01X14920125Y-1502991D01*
G01X14897265Y-1382849D02*
G01X14977275Y-1382849D01*
G01X15030869Y-1474289D02*
G01X15025027Y-1480131D01*
G01X15030869Y-1485719D01*
G01X15036457Y-1480131D01*
G01X15030869Y-1474289D01*
G01X15090051Y-1411551D02*
G01X15090051Y-1405709D01*
G01X15095639Y-1394279D01*
G01X15101481Y-1388691D01*
G01X15112911Y-1382849D01*
G01X15135771Y-1382849D01*
G01X15147201Y-1388691D01*
G01X15152789Y-1394279D01*
G01X15158631Y-1405709D01*
G01X15158631Y-1417139D01*
G01X15152789Y-1428569D01*
G01X15141359Y-1445841D01*
G01X15084209Y-1502991D01*
G01X15164219Y-1502991D01*
G01X15211971Y-1422981D02*
G01X15211971Y-1502991D01*
G01X15211971Y-1445841D02*
G01X15229243Y-1428569D01*
G01X15240673Y-1422981D01*
G01X15257691Y-1422981D01*
G01X15269121Y-1428569D01*
G01X15274963Y-1445841D01*
G01X15274963Y-1502991D01*
G01X15274963Y-1445841D02*
G01X15291981Y-1428569D01*
G01X15303411Y-1422981D01*
G01X15320683Y-1422981D01*
G01X15332113Y-1428569D01*
G01X15337701Y-1445841D01*
G01X15337701Y-1502991D01*
G01X15385453Y-1382849D02*
G01X15391295Y-1388691D01*
G01X15396883Y-1382849D01*
G01X15391295Y-1377261D01*
G01X15385453Y-1382849D01*
G01X15391295Y-1422981D02*
G01X15391295Y-1502991D01*
G01X15444635Y-1382849D02*
G01X15444635Y-1502991D01*
G01X15532519Y-1359989D02*
G01X15521089Y-1371419D01*
G01X15509659Y-1388691D01*
G01X15498229Y-1411551D01*
G01X15492387Y-1439999D01*
G01X15492387Y-1462859D01*
G01X15498229Y-1491561D01*
G01X15509659Y-1514421D01*
G01X15521089Y-1531439D01*
G01X15532519Y-1542869D01*
G01X15614561Y-1382849D02*
G01X15597543Y-1388691D01*
G01X15586113Y-1405709D01*
G01X15580271Y-1434411D01*
G01X15580271Y-1451429D01*
G01X15586113Y-1480131D01*
G01X15597543Y-1497149D01*
G01X15614561Y-1502991D01*
G01X15625991Y-1502991D01*
G01X15643263Y-1497149D01*
G01X15654693Y-1480131D01*
G01X15660281Y-1451429D01*
G01X15660281Y-1434411D01*
G01X15654693Y-1405709D01*
G01X15643263Y-1388691D01*
G01X15625991Y-1382849D01*
G01X15614561Y-1382849D01*
G01X15713875Y-1474289D02*
G01X15708033Y-1480131D01*
G01X15713875Y-1485719D01*
G01X15719463Y-1480131D01*
G01X15713875Y-1474289D01*
G01X15835795Y-1400121D02*
G01X15830207Y-1388691D01*
G01X15812935Y-1382849D01*
G01X15801505Y-1382849D01*
G01X15784487Y-1388691D01*
G01X15773057Y-1405709D01*
G01X15767215Y-1434411D01*
G01X15767215Y-1462859D01*
G01X15773057Y-1485719D01*
G01X15784487Y-1497149D01*
G01X15801505Y-1502991D01*
G01X15807347Y-1502991D01*
G01X15824365Y-1497149D01*
G01X15835795Y-1485719D01*
G01X15841637Y-1468701D01*
G01X15841637Y-1462859D01*
G01X15835795Y-1445841D01*
G01X15824365Y-1434411D01*
G01X15807347Y-1428569D01*
G01X15801505Y-1428569D01*
G01X15784487Y-1434411D01*
G01X15773057Y-1445841D01*
G01X15767215Y-1462859D01*
G01X15923679Y-1382849D02*
G01X15906661Y-1388691D01*
G01X15895231Y-1405709D01*
G01X15889389Y-1434411D01*
G01X15889389Y-1451429D01*
G01X15895231Y-1480131D01*
G01X15906661Y-1497149D01*
G01X15923679Y-1502991D01*
G01X15935109Y-1502991D01*
G01X15952381Y-1497149D01*
G01X15963811Y-1480131D01*
G01X15969399Y-1451429D01*
G01X15969399Y-1434411D01*
G01X15963811Y-1405709D01*
G01X15952381Y-1388691D01*
G01X15935109Y-1382849D01*
G01X15923679Y-1382849D01*
G01X16051441Y-1382849D02*
G01X16034423Y-1388691D01*
G01X16022993Y-1405709D01*
G01X16017151Y-1434411D01*
G01X16017151Y-1451429D01*
G01X16022993Y-1480131D01*
G01X16034423Y-1497149D01*
G01X16051441Y-1502991D01*
G01X16062871Y-1502991D01*
G01X16080143Y-1497149D01*
G01X16091573Y-1480131D01*
G01X16097161Y-1451429D01*
G01X16097161Y-1434411D01*
G01X16091573Y-1405709D01*
G01X16080143Y-1388691D01*
G01X16062871Y-1382849D01*
G01X16051441Y-1382849D01*
G01X16144913Y-1422981D02*
G01X16207905Y-1502991D01*
G01X16207905Y-1422981D02*
G01X16144913Y-1502991D01*
G01X16255657Y-1405709D02*
G01X16267087Y-1400121D01*
G01X16284359Y-1382849D01*
G01X16284359Y-1502991D01*
G01X16337953Y-1474289D02*
G01X16332111Y-1480131D01*
G01X16337953Y-1485719D01*
G01X16343541Y-1480131D01*
G01X16337953Y-1474289D01*
G01X16397135Y-1411551D02*
G01X16397135Y-1405709D01*
G01X16402723Y-1394279D01*
G01X16408565Y-1388691D01*
G01X16419995Y-1382849D01*
G01X16442855Y-1382849D01*
G01X16454285Y-1388691D01*
G01X16459873Y-1394279D01*
G01X16465715Y-1405709D01*
G01X16465715Y-1417139D01*
G01X16459873Y-1428569D01*
G01X16448443Y-1445841D01*
G01X16391293Y-1502991D01*
G01X16471303Y-1502991D01*
G01X16553345Y-1382849D02*
G01X16536327Y-1388691D01*
G01X16524897Y-1405709D01*
G01X16519055Y-1434411D01*
G01X16519055Y-1451429D01*
G01X16524897Y-1480131D01*
G01X16536327Y-1497149D01*
G01X16553345Y-1502991D01*
G01X16564775Y-1502991D01*
G01X16582047Y-1497149D01*
G01X16593477Y-1480131D01*
G01X16599065Y-1451429D01*
G01X16599065Y-1434411D01*
G01X16593477Y-1405709D01*
G01X16582047Y-1388691D01*
G01X16564775Y-1382849D01*
G01X16553345Y-1382849D01*
G01X16681107Y-1382849D02*
G01X16664089Y-1388691D01*
G01X16652659Y-1405709D01*
G01X16646817Y-1434411D01*
G01X16646817Y-1451429D01*
G01X16652659Y-1480131D01*
G01X16664089Y-1497149D01*
G01X16681107Y-1502991D01*
G01X16692537Y-1502991D01*
G01X16709809Y-1497149D01*
G01X16721239Y-1480131D01*
G01X16726827Y-1451429D01*
G01X16726827Y-1434411D01*
G01X16721239Y-1405709D01*
G01X16709809Y-1388691D01*
G01X16692537Y-1382849D01*
G01X16681107Y-1382849D01*
G01X16774579Y-1422981D02*
G01X16774579Y-1502991D01*
G01X16774579Y-1445841D02*
G01X16791851Y-1428569D01*
G01X16803281Y-1422981D01*
G01X16820299Y-1422981D01*
G01X16831729Y-1428569D01*
G01X16837571Y-1445841D01*
G01X16837571Y-1502991D01*
G01X16837571Y-1445841D02*
G01X16854589Y-1428569D01*
G01X16866019Y-1422981D01*
G01X16883291Y-1422981D01*
G01X16894721Y-1428569D01*
G01X16900309Y-1445841D01*
G01X16900309Y-1502991D01*
G01X16948061Y-1422981D02*
G01X16948061Y-1502991D01*
G01X16948061Y-1445841D02*
G01X16965333Y-1428569D01*
G01X16976763Y-1422981D01*
G01X16993781Y-1422981D01*
G01X17005211Y-1428569D01*
G01X17011053Y-1445841D01*
G01X17011053Y-1502991D01*
G01X17011053Y-1445841D02*
G01X17028071Y-1428569D01*
G01X17039501Y-1422981D01*
G01X17056773Y-1422981D01*
G01X17068203Y-1428569D01*
G01X17073791Y-1445841D01*
G01X17073791Y-1502991D01*
G01X17121543Y-1359989D02*
G01X17132973Y-1371419D01*
G01X17144403Y-1388691D01*
G01X17155833Y-1411551D01*
G01X17161675Y-1439999D01*
G01X17161675Y-1462859D01*
G01X17155833Y-1491561D01*
G01X17144403Y-1514421D01*
G01X17132973Y-1531439D01*
G01X17121543Y-1542869D01*
G01X18180614Y-1382849D02*
G01X18180614Y-1502991D01*
G01X18180614Y-1382849D02*
G01X18232176Y-1382849D01*
G01X18249194Y-1388691D01*
G01X18255036Y-1394279D01*
G01X18260624Y-1405709D01*
G01X18260624Y-1422981D01*
G01X18255036Y-1434411D01*
G01X18249194Y-1439999D01*
G01X18232176Y-1445841D01*
G01X18180614Y-1445841D01*
G01X18348508Y-1382849D02*
G01X18348508Y-1502991D01*
G01X18308376Y-1382849D02*
G01X18388386Y-1382849D01*
G01X18436138Y-1382849D02*
G01X18436138Y-1502991D01*
G01X18516148Y-1382849D02*
G01X18516148Y-1502991D01*
G01X18436138Y-1439999D02*
G01X18516148Y-1439999D01*
G01X19722032Y-1400121D02*
G01X19710602Y-1388691D01*
G01X19693584Y-1382849D01*
G01X19670724Y-1382849D01*
G01X19653452Y-1388691D01*
G01X19642022Y-1400121D01*
G01X19642022Y-1411551D01*
G01X19647864Y-1422981D01*
G01X19653452Y-1428569D01*
G01X19664882Y-1434411D01*
G01X19699172Y-1445841D01*
G01X19710602Y-1451429D01*
G01X19716444Y-1457271D01*
G01X19722032Y-1468701D01*
G01X19722032Y-1485719D01*
G01X19710602Y-1497149D01*
G01X19693584Y-1502991D01*
G01X19670724Y-1502991D01*
G01X19653452Y-1497149D01*
G01X19642022Y-1485719D01*
G01X19769784Y-1382849D02*
G01X19769784Y-1502991D01*
G01X19846238Y-1422981D02*
G01X19834808Y-1428569D01*
G01X19823378Y-1439999D01*
G01X19817536Y-1457271D01*
G01X19817536Y-1468701D01*
G01X19823378Y-1485719D01*
G01X19834808Y-1497149D01*
G01X19846238Y-1502991D01*
G01X19863256Y-1502991D01*
G01X19874686Y-1497149D01*
G01X19886116Y-1485719D01*
G01X19891958Y-1468701D01*
G01X19891958Y-1457271D01*
G01X19886116Y-1439999D01*
G01X19874686Y-1428569D01*
G01X19863256Y-1422981D01*
G01X19846238Y-1422981D01*
G01X19956982Y-1382849D02*
G01X19956982Y-1480131D01*
G01X19962570Y-1497149D01*
G01X19974000Y-1502991D01*
G01X19985430Y-1502991D01*
G01X19939710Y-1422981D02*
G01X19979842Y-1422981D01*
G01X21073203Y-1382849D02*
G01X21073203Y-1502991D01*
G01X21073203Y-1382849D02*
G01X21124765Y-1382849D01*
G01X21141783Y-1388691D01*
G01X21147625Y-1394279D01*
G01X21153213Y-1405709D01*
G01X21153213Y-1422981D01*
G01X21147625Y-1434411D01*
G01X21141783Y-1439999D01*
G01X21124765Y-1445841D01*
G01X21073203Y-1445841D01*
G01X21269545Y-1422981D02*
G01X21269545Y-1502991D01*
G01X21269545Y-1439999D02*
G01X21258115Y-1428569D01*
G01X21246685Y-1422981D01*
G01X21229667Y-1422981D01*
G01X21218237Y-1428569D01*
G01X21206807Y-1439999D01*
G01X21200965Y-1457271D01*
G01X21200965Y-1468701D01*
G01X21206807Y-1485719D01*
G01X21218237Y-1497149D01*
G01X21229667Y-1502991D01*
G01X21246685Y-1502991D01*
G01X21258115Y-1497149D01*
G01X21269545Y-1485719D01*
G01X21385877Y-1382849D02*
G01X21385877Y-1502991D01*
G01X21385877Y-1439999D02*
G01X21374447Y-1428569D01*
G01X21363017Y-1422981D01*
G01X21345999Y-1422981D01*
G01X21334569Y-1428569D01*
G01X21323139Y-1439999D01*
G01X21317297Y-1457271D01*
G01X21317297Y-1468701D01*
G01X21323139Y-1485719D01*
G01X21334569Y-1497149D01*
G01X21345999Y-1502991D01*
G01X21363017Y-1502991D01*
G01X21374447Y-1497149D01*
G01X21385877Y-1485719D01*
G01X22776672Y-1382849D02*
G01X22765242Y-1388691D01*
G01X22753812Y-1400121D01*
G01X22748224Y-1411551D01*
G01X22742382Y-1428569D01*
G01X22742382Y-1457271D01*
G01X22748224Y-1474289D01*
G01X22753812Y-1485719D01*
G01X22765242Y-1497149D01*
G01X22776672Y-1502991D01*
G01X22799532Y-1502991D01*
G01X22810962Y-1497149D01*
G01X22822392Y-1485719D01*
G01X22828234Y-1474289D01*
G01X22833822Y-1457271D01*
G01X22833822Y-1428569D01*
G01X22828234Y-1411551D01*
G01X22822392Y-1400121D01*
G01X22810962Y-1388691D01*
G01X22799532Y-1382849D01*
G01X22776672Y-1382849D01*
G01X22881574Y-1422981D02*
G01X22915864Y-1502991D01*
G01X22950154Y-1422981D02*
G01X22915864Y-1502991D01*
G01X23066486Y-1422981D02*
G01X23066486Y-1502991D01*
G01X23066486Y-1439999D02*
G01X23055056Y-1428569D01*
G01X23043626Y-1422981D01*
G01X23026608Y-1422981D01*
G01X23015178Y-1428569D01*
G01X23003748Y-1439999D01*
G01X22997906Y-1457271D01*
G01X22997906Y-1468701D01*
G01X23003748Y-1485719D01*
G01X23015178Y-1497149D01*
G01X23026608Y-1502991D01*
G01X23043626Y-1502991D01*
G01X23055056Y-1497149D01*
G01X23066486Y-1485719D01*
G01X23114238Y-1382849D02*
G01X23114238Y-1502991D01*
G01X24701883Y-1382849D02*
G01X24701883Y-1502991D01*
G01X24661751Y-1382849D02*
G01X24741761Y-1382849D01*
G01X24818215Y-1422981D02*
G01X24806785Y-1428569D01*
G01X24795355Y-1439999D01*
G01X24789513Y-1457271D01*
G01X24789513Y-1468701D01*
G01X24795355Y-1485719D01*
G01X24806785Y-1497149D01*
G01X24818215Y-1502991D01*
G01X24835233Y-1502991D01*
G01X24846663Y-1497149D01*
G01X24858093Y-1485719D01*
G01X24863935Y-1468701D01*
G01X24863935Y-1457271D01*
G01X24858093Y-1439999D01*
G01X24846663Y-1428569D01*
G01X24835233Y-1422981D01*
G01X24818215Y-1422981D01*
G01X24911687Y-1422981D02*
G01X24911687Y-1542869D01*
G01X24911687Y-1439999D02*
G01X24923117Y-1428569D01*
G01X24934547Y-1422981D01*
G01X24951819Y-1422981D01*
G01X24963249Y-1428569D01*
G01X24974679Y-1439999D01*
G01X24980267Y-1457271D01*
G01X24980267Y-1468701D01*
G01X24974679Y-1485719D01*
G01X24963249Y-1497149D01*
G01X24951819Y-1502991D01*
G01X24934547Y-1502991D01*
G01X24923117Y-1497149D01*
G01X24911687Y-1485719D01*
G01X25156035Y-1382849D02*
G01X25156035Y-1502991D01*
G01X25156035Y-1502991D02*
G01X25224615Y-1502991D01*
G01X25340947Y-1422981D02*
G01X25340947Y-1502991D01*
G01X25340947Y-1439999D02*
G01X25329517Y-1428569D01*
G01X25318087Y-1422981D01*
G01X25301069Y-1422981D01*
G01X25289639Y-1428569D01*
G01X25278209Y-1439999D01*
G01X25272367Y-1457271D01*
G01X25272367Y-1468701D01*
G01X25278209Y-1485719D01*
G01X25289639Y-1497149D01*
G01X25301069Y-1502991D01*
G01X25318087Y-1502991D01*
G01X25329517Y-1497149D01*
G01X25340947Y-1485719D01*
G01X25394541Y-1422981D02*
G01X25428831Y-1502991D01*
G01X25463121Y-1422981D02*
G01X25428831Y-1502991D01*
G01X25417401Y-1525851D01*
G01X25405971Y-1537281D01*
G01X25394541Y-1542869D01*
G01X25388699Y-1542869D01*
G01X25510873Y-1457271D02*
G01X25579453Y-1457271D01*
G01X25579453Y-1445841D01*
G01X25573865Y-1434411D01*
G01X25568023Y-1428569D01*
G01X25556593Y-1422981D01*
G01X25539575Y-1422981D01*
G01X25528145Y-1428569D01*
G01X25516715Y-1439999D01*
G01X25510873Y-1457271D01*
G01X25510873Y-1468701D01*
G01X25516715Y-1485719D01*
G01X25528145Y-1497149D01*
G01X25539575Y-1502991D01*
G01X25556593Y-1502991D01*
G01X25568023Y-1497149D01*
G01X25579453Y-1485719D01*
G01X25627205Y-1422981D02*
G01X25627205Y-1502991D01*
G01X25627205Y-1457271D02*
G01X25633047Y-1439999D01*
G01X25644477Y-1428569D01*
G01X25655907Y-1422981D01*
G01X25672925Y-1422981D01*
G01X25720677Y-1451429D02*
G01X25823547Y-1451429D01*
G01X25871299Y-1382849D02*
G01X25871299Y-1502991D01*
G01X25871299Y-1382849D02*
G01X25922861Y-1382849D01*
G01X25939879Y-1388691D01*
G01X25945721Y-1394279D01*
G01X25951309Y-1405709D01*
G01X25951309Y-1417139D01*
G01X25945721Y-1428569D01*
G01X25939879Y-1434411D01*
G01X25922861Y-1439999D01*
G01X25871299Y-1439999D02*
G01X25922861Y-1439999D01*
G01X25939879Y-1445841D01*
G01X25945721Y-1451429D01*
G01X25951309Y-1462859D01*
G01X25951309Y-1480131D01*
G01X25945721Y-1491561D01*
G01X25939879Y-1497149D01*
G01X25922861Y-1502991D01*
G01X25871299Y-1502991D01*
G01X26027763Y-1422981D02*
G01X26016333Y-1428569D01*
G01X26004903Y-1439999D01*
G01X25999061Y-1457271D01*
G01X25999061Y-1468701D01*
G01X26004903Y-1485719D01*
G01X26016333Y-1497149D01*
G01X26027763Y-1502991D01*
G01X26044781Y-1502991D01*
G01X26056211Y-1497149D01*
G01X26067641Y-1485719D01*
G01X26073483Y-1468701D01*
G01X26073483Y-1457271D01*
G01X26067641Y-1439999D01*
G01X26056211Y-1428569D01*
G01X26044781Y-1422981D01*
G01X26027763Y-1422981D01*
G01X26138507Y-1382849D02*
G01X26138507Y-1480131D01*
G01X26144095Y-1497149D01*
G01X26155525Y-1502991D01*
G01X26166955Y-1502991D01*
G01X26121235Y-1422981D02*
G01X26161367Y-1422981D01*
G01X26231979Y-1382849D02*
G01X26231979Y-1480131D01*
G01X26237567Y-1497149D01*
G01X26248997Y-1502991D01*
G01X26260427Y-1502991D01*
G01X26214707Y-1422981D02*
G01X26254839Y-1422981D01*
G01X26336881Y-1422981D02*
G01X26325451Y-1428569D01*
G01X26314021Y-1439999D01*
G01X26308179Y-1457271D01*
G01X26308179Y-1468701D01*
G01X26314021Y-1485719D01*
G01X26325451Y-1497149D01*
G01X26336881Y-1502991D01*
G01X26353899Y-1502991D01*
G01X26365329Y-1497149D01*
G01X26376759Y-1485719D01*
G01X26382601Y-1468701D01*
G01X26382601Y-1457271D01*
G01X26376759Y-1439999D01*
G01X26365329Y-1428569D01*
G01X26353899Y-1422981D01*
G01X26336881Y-1422981D01*
G01X26430353Y-1422981D02*
G01X26430353Y-1502991D01*
G01X26430353Y-1445841D02*
G01X26447625Y-1428569D01*
G01X26459055Y-1422981D01*
G01X26476073Y-1422981D01*
G01X26487503Y-1428569D01*
G01X26493345Y-1445841D01*
G01X26493345Y-1502991D01*
G01X26493345Y-1445841D02*
G01X26510363Y-1428569D01*
G01X26521793Y-1422981D01*
G01X26539065Y-1422981D01*
G01X26550495Y-1428569D01*
G01X26556083Y-1445841D01*
G01X26556083Y-1502991D01*
G01X26731851Y-1382849D02*
G01X26731851Y-1502991D01*
G01X26731851Y-1502991D02*
G01X26800431Y-1502991D01*
G01X26916763Y-1422981D02*
G01X26916763Y-1502991D01*
G01X26916763Y-1439999D02*
G01X26905333Y-1428569D01*
G01X26893903Y-1422981D01*
G01X26876885Y-1422981D01*
G01X26865455Y-1428569D01*
G01X26854025Y-1439999D01*
G01X26848183Y-1457271D01*
G01X26848183Y-1468701D01*
G01X26854025Y-1485719D01*
G01X26865455Y-1497149D01*
G01X26876885Y-1502991D01*
G01X26893903Y-1502991D01*
G01X26905333Y-1497149D01*
G01X26916763Y-1485719D01*
G01X26970357Y-1422981D02*
G01X27004647Y-1502991D01*
G01X27038937Y-1422981D02*
G01X27004647Y-1502991D01*
G01X26993217Y-1525851D01*
G01X26981787Y-1537281D01*
G01X26970357Y-1542869D01*
G01X26964515Y-1542869D01*
G01X27086689Y-1457271D02*
G01X27155269Y-1457271D01*
G01X27155269Y-1445841D01*
G01X27149681Y-1434411D01*
G01X27143839Y-1428569D01*
G01X27132409Y-1422981D01*
G01X27115391Y-1422981D01*
G01X27103961Y-1428569D01*
G01X27092531Y-1439999D01*
G01X27086689Y-1457271D01*
G01X27086689Y-1468701D01*
G01X27092531Y-1485719D01*
G01X27103961Y-1497149D01*
G01X27115391Y-1502991D01*
G01X27132409Y-1502991D01*
G01X27143839Y-1497149D01*
G01X27155269Y-1485719D01*
G01X27203021Y-1422981D02*
G01X27203021Y-1502991D01*
G01X27203021Y-1457271D02*
G01X27208863Y-1439999D01*
G01X27220293Y-1428569D01*
G01X27231723Y-1422981D01*
G01X27248741Y-1422981D01*
G01X12807716Y-1992122D02*
G01X12807716Y-1986280D01*
G01X12813304Y-1974850D01*
G01X12819146Y-1969262D01*
G01X12830576Y-1963420D01*
G01X12853436Y-1963420D01*
G01X12864866Y-1969262D01*
G01X12870454Y-1974850D01*
G01X12876296Y-1986280D01*
G01X12876296Y-1997710D01*
G01X12870454Y-2009140D01*
G01X12859024Y-2026412D01*
G01X12801874Y-2083562D01*
G01X12881884Y-2083562D01*
G01X14273187Y-1963420D02*
G01X14216037Y-2043430D01*
G01X14301889Y-2043430D01*
G01X14273187Y-1963420D02*
G01X14273187Y-2083562D01*
G01X14429651Y-1963420D02*
G01X14372501Y-2083562D01*
G01X14349641Y-1963420D02*
G01X14429651Y-1963420D01*
G01X14483245Y-2054860D02*
G01X14477403Y-2060702D01*
G01X14483245Y-2066290D01*
G01X14488833Y-2060702D01*
G01X14483245Y-2054860D01*
G01X14542427Y-1992122D02*
G01X14542427Y-1986280D01*
G01X14548015Y-1974850D01*
G01X14553857Y-1969262D01*
G01X14565287Y-1963420D01*
G01X14588147Y-1963420D01*
G01X14599577Y-1969262D01*
G01X14605165Y-1974850D01*
G01X14611007Y-1986280D01*
G01X14611007Y-1997710D01*
G01X14605165Y-2009140D01*
G01X14593735Y-2026412D01*
G01X14536585Y-2083562D01*
G01X14616595Y-2083562D01*
G01X14664347Y-2003552D02*
G01X14664347Y-2083562D01*
G01X14664347Y-2026412D02*
G01X14681619Y-2009140D01*
G01X14693049Y-2003552D01*
G01X14710067Y-2003552D01*
G01X14721497Y-2009140D01*
G01X14727339Y-2026412D01*
G01X14727339Y-2083562D01*
G01X14727339Y-2026412D02*
G01X14744357Y-2009140D01*
G01X14755787Y-2003552D01*
G01X14773059Y-2003552D01*
G01X14784489Y-2009140D01*
G01X14790077Y-2026412D01*
G01X14790077Y-2083562D01*
G01X14837829Y-1963420D02*
G01X14843671Y-1969262D01*
G01X14849259Y-1963420D01*
G01X14843671Y-1957832D01*
G01X14837829Y-1963420D01*
G01X14843671Y-2003552D02*
G01X14843671Y-2083562D01*
G01X14897011Y-1963420D02*
G01X14897011Y-2083562D01*
G01X14984895Y-1940560D02*
G01X14973465Y-1951990D01*
G01X14962035Y-1969262D01*
G01X14950605Y-1992122D01*
G01X14944763Y-2020570D01*
G01X14944763Y-2043430D01*
G01X14950605Y-2072132D01*
G01X14962035Y-2094992D01*
G01X14973465Y-2112010D01*
G01X14984895Y-2123440D01*
G01X15032647Y-1986280D02*
G01X15044077Y-1980692D01*
G01X15061349Y-1963420D01*
G01X15061349Y-2083562D01*
G01X15114943Y-2054860D02*
G01X15109101Y-2060702D01*
G01X15114943Y-2066290D01*
G01X15120531Y-2060702D01*
G01X15114943Y-2054860D01*
G01X15174125Y-1992122D02*
G01X15174125Y-1986280D01*
G01X15179713Y-1974850D01*
G01X15185555Y-1969262D01*
G01X15196985Y-1963420D01*
G01X15219845Y-1963420D01*
G01X15231275Y-1969262D01*
G01X15236863Y-1974850D01*
G01X15242705Y-1986280D01*
G01X15242705Y-1997710D01*
G01X15236863Y-2009140D01*
G01X15225433Y-2026412D01*
G01X15168283Y-2083562D01*
G01X15248293Y-2083562D01*
G01X15330335Y-1963420D02*
G01X15313317Y-1969262D01*
G01X15301887Y-1986280D01*
G01X15296045Y-2014982D01*
G01X15296045Y-2032000D01*
G01X15301887Y-2060702D01*
G01X15313317Y-2077720D01*
G01X15330335Y-2083562D01*
G01X15341765Y-2083562D01*
G01X15359037Y-2077720D01*
G01X15370467Y-2060702D01*
G01X15376055Y-2032000D01*
G01X15376055Y-2014982D01*
G01X15370467Y-1986280D01*
G01X15359037Y-1969262D01*
G01X15341765Y-1963420D01*
G01X15330335Y-1963420D01*
G01X15458097Y-1963420D02*
G01X15441079Y-1969262D01*
G01X15429649Y-1986280D01*
G01X15423807Y-2014982D01*
G01X15423807Y-2032000D01*
G01X15429649Y-2060702D01*
G01X15441079Y-2077720D01*
G01X15458097Y-2083562D01*
G01X15469527Y-2083562D01*
G01X15486799Y-2077720D01*
G01X15498229Y-2060702D01*
G01X15503817Y-2032000D01*
G01X15503817Y-2014982D01*
G01X15498229Y-1986280D01*
G01X15486799Y-1969262D01*
G01X15469527Y-1963420D01*
G01X15458097Y-1963420D01*
G01X15551569Y-2003552D02*
G01X15551569Y-2083562D01*
G01X15551569Y-2026412D02*
G01X15568841Y-2009140D01*
G01X15580271Y-2003552D01*
G01X15597289Y-2003552D01*
G01X15608719Y-2009140D01*
G01X15614561Y-2026412D01*
G01X15614561Y-2083562D01*
G01X15614561Y-2026412D02*
G01X15631579Y-2009140D01*
G01X15643009Y-2003552D01*
G01X15660281Y-2003552D01*
G01X15671711Y-2009140D01*
G01X15677299Y-2026412D01*
G01X15677299Y-2083562D01*
G01X15725051Y-2003552D02*
G01X15725051Y-2083562D01*
G01X15725051Y-2026412D02*
G01X15742323Y-2009140D01*
G01X15753753Y-2003552D01*
G01X15770771Y-2003552D01*
G01X15782201Y-2009140D01*
G01X15788043Y-2026412D01*
G01X15788043Y-2083562D01*
G01X15788043Y-2026412D02*
G01X15805061Y-2009140D01*
G01X15816491Y-2003552D01*
G01X15833763Y-2003552D01*
G01X15845193Y-2009140D01*
G01X15850781Y-2026412D01*
G01X15850781Y-2083562D01*
G01X15898533Y-1940560D02*
G01X15909963Y-1951990D01*
G01X15921393Y-1969262D01*
G01X15932823Y-1992122D01*
G01X15938665Y-2020570D01*
G01X15938665Y-2043430D01*
G01X15932823Y-2072132D01*
G01X15921393Y-2094992D01*
G01X15909963Y-2112010D01*
G01X15898533Y-2123440D01*
G01X18180614Y-1963420D02*
G01X18180614Y-2083562D01*
G01X18180614Y-1963420D02*
G01X18260624Y-2083562D01*
G01X18260624Y-1963420D02*
G01X18260624Y-2083562D01*
G01X18308376Y-1963420D02*
G01X18308376Y-2083562D01*
G01X18308376Y-1963420D02*
G01X18359938Y-1963420D01*
G01X18376956Y-1969262D01*
G01X18382798Y-1974850D01*
G01X18388386Y-1986280D01*
G01X18388386Y-2003552D01*
G01X18382798Y-2014982D01*
G01X18376956Y-2020570D01*
G01X18359938Y-2026412D01*
G01X18308376Y-2026412D01*
G01X18476270Y-1963420D02*
G01X18476270Y-2083562D01*
G01X18436138Y-1963420D02*
G01X18516148Y-1963420D01*
G01X18563900Y-1963420D02*
G01X18563900Y-2083562D01*
G01X18643910Y-1963420D02*
G01X18643910Y-2083562D01*
G01X18563900Y-2020570D02*
G01X18643910Y-2020570D01*
G01X19642022Y-1963420D02*
G01X19642022Y-2083562D01*
G01X19642022Y-1963420D02*
G01X19693584Y-1963420D01*
G01X19710602Y-1969262D01*
G01X19716444Y-1974850D01*
G01X19722032Y-1986280D01*
G01X19722032Y-1997710D01*
G01X19716444Y-2009140D01*
G01X19710602Y-2014982D01*
G01X19693584Y-2020570D01*
G01X19642022Y-2020570D01*
G01X19682154Y-2020570D02*
G01X19722032Y-2083562D01*
G01X19798486Y-2003552D02*
G01X19787056Y-2009140D01*
G01X19775626Y-2020570D01*
G01X19769784Y-2037842D01*
G01X19769784Y-2049272D01*
G01X19775626Y-2066290D01*
G01X19787056Y-2077720D01*
G01X19798486Y-2083562D01*
G01X19815504Y-2083562D01*
G01X19826934Y-2077720D01*
G01X19838364Y-2066290D01*
G01X19844206Y-2049272D01*
G01X19844206Y-2037842D01*
G01X19838364Y-2020570D01*
G01X19826934Y-2009140D01*
G01X19815504Y-2003552D01*
G01X19798486Y-2003552D01*
G01X19891958Y-2003552D02*
G01X19891958Y-2060702D01*
G01X19897800Y-2077720D01*
G01X19909230Y-2083562D01*
G01X19926248Y-2083562D01*
G01X19937678Y-2077720D01*
G01X19954950Y-2060702D01*
G01X19954950Y-2003552D02*
G01X19954950Y-2083562D01*
G01X20002702Y-2003552D02*
G01X20002702Y-2083562D01*
G01X20002702Y-2026412D02*
G01X20019974Y-2009140D01*
G01X20031404Y-2003552D01*
G01X20048422Y-2003552D01*
G01X20059852Y-2009140D01*
G01X20065694Y-2026412D01*
G01X20065694Y-2083562D01*
G01X20182026Y-1963420D02*
G01X20182026Y-2083562D01*
G01X20182026Y-2020570D02*
G01X20170596Y-2009140D01*
G01X20159166Y-2003552D01*
G01X20142148Y-2003552D01*
G01X20130718Y-2009140D01*
G01X20119288Y-2020570D01*
G01X20113446Y-2037842D01*
G01X20113446Y-2049272D01*
G01X20119288Y-2066290D01*
G01X20130718Y-2077720D01*
G01X20142148Y-2083562D01*
G01X20159166Y-2083562D01*
G01X20170596Y-2077720D01*
G01X20182026Y-2066290D01*
G01X21073203Y-1963420D02*
G01X21118923Y-2083562D01*
G01X21164643Y-1963420D02*
G01X21118923Y-2083562D01*
G01X21212395Y-1963420D02*
G01X21218237Y-1969262D01*
G01X21223825Y-1963420D01*
G01X21218237Y-1957832D01*
G01X21212395Y-1963420D01*
G01X21218237Y-2003552D02*
G01X21218237Y-2083562D01*
G01X21340157Y-2003552D02*
G01X21340157Y-2083562D01*
G01X21340157Y-2020570D02*
G01X21328727Y-2009140D01*
G01X21317297Y-2003552D01*
G01X21300279Y-2003552D01*
G01X21288849Y-2009140D01*
G01X21277419Y-2020570D01*
G01X21271577Y-2037842D01*
G01X21271577Y-2049272D01*
G01X21277419Y-2066290D01*
G01X21288849Y-2077720D01*
G01X21300279Y-2083562D01*
G01X21317297Y-2083562D01*
G01X21328727Y-2077720D01*
G01X21340157Y-2066290D01*
G01X24701883Y-1963420D02*
G01X24701883Y-2083562D01*
G01X24661751Y-1963420D02*
G01X24741761Y-1963420D01*
G01X24818215Y-2003552D02*
G01X24806785Y-2009140D01*
G01X24795355Y-2020570D01*
G01X24789513Y-2037842D01*
G01X24789513Y-2049272D01*
G01X24795355Y-2066290D01*
G01X24806785Y-2077720D01*
G01X24818215Y-2083562D01*
G01X24835233Y-2083562D01*
G01X24846663Y-2077720D01*
G01X24858093Y-2066290D01*
G01X24863935Y-2049272D01*
G01X24863935Y-2037842D01*
G01X24858093Y-2020570D01*
G01X24846663Y-2009140D01*
G01X24835233Y-2003552D01*
G01X24818215Y-2003552D01*
G01X24911687Y-2003552D02*
G01X24911687Y-2123440D01*
G01X24911687Y-2020570D02*
G01X24923117Y-2009140D01*
G01X24934547Y-2003552D01*
G01X24951819Y-2003552D01*
G01X24963249Y-2009140D01*
G01X24974679Y-2020570D01*
G01X24980267Y-2037842D01*
G01X24980267Y-2049272D01*
G01X24974679Y-2066290D01*
G01X24963249Y-2077720D01*
G01X24951819Y-2083562D01*
G01X24934547Y-2083562D01*
G01X24923117Y-2077720D01*
G01X24911687Y-2066290D01*
G01X25156035Y-1963420D02*
G01X25156035Y-2083562D01*
G01X25156035Y-2083562D02*
G01X25224615Y-2083562D01*
G01X25340947Y-2003552D02*
G01X25340947Y-2083562D01*
G01X25340947Y-2020570D02*
G01X25329517Y-2009140D01*
G01X25318087Y-2003552D01*
G01X25301069Y-2003552D01*
G01X25289639Y-2009140D01*
G01X25278209Y-2020570D01*
G01X25272367Y-2037842D01*
G01X25272367Y-2049272D01*
G01X25278209Y-2066290D01*
G01X25289639Y-2077720D01*
G01X25301069Y-2083562D01*
G01X25318087Y-2083562D01*
G01X25329517Y-2077720D01*
G01X25340947Y-2066290D01*
G01X25394541Y-2003552D02*
G01X25428831Y-2083562D01*
G01X25463121Y-2003552D02*
G01X25428831Y-2083562D01*
G01X25417401Y-2106422D01*
G01X25405971Y-2117852D01*
G01X25394541Y-2123440D01*
G01X25388699Y-2123440D01*
G01X25510873Y-2037842D02*
G01X25579453Y-2037842D01*
G01X25579453Y-2026412D01*
G01X25573865Y-2014982D01*
G01X25568023Y-2009140D01*
G01X25556593Y-2003552D01*
G01X25539575Y-2003552D01*
G01X25528145Y-2009140D01*
G01X25516715Y-2020570D01*
G01X25510873Y-2037842D01*
G01X25510873Y-2049272D01*
G01X25516715Y-2066290D01*
G01X25528145Y-2077720D01*
G01X25539575Y-2083562D01*
G01X25556593Y-2083562D01*
G01X25568023Y-2077720D01*
G01X25579453Y-2066290D01*
G01X25627205Y-2003552D02*
G01X25627205Y-2083562D01*
G01X25627205Y-2037842D02*
G01X25633047Y-2020570D01*
G01X25644477Y-2009140D01*
G01X25655907Y-2003552D01*
G01X25672925Y-2003552D01*
G01X25720677Y-2032000D02*
G01X25823547Y-2032000D01*
G01X25871299Y-1963420D02*
G01X25871299Y-2083562D01*
G01X25871299Y-1963420D02*
G01X25922861Y-1963420D01*
G01X25939879Y-1969262D01*
G01X25945721Y-1974850D01*
G01X25951309Y-1986280D01*
G01X25951309Y-1997710D01*
G01X25945721Y-2009140D01*
G01X25939879Y-2014982D01*
G01X25922861Y-2020570D01*
G01X25871299Y-2020570D02*
G01X25922861Y-2020570D01*
G01X25939879Y-2026412D01*
G01X25945721Y-2032000D01*
G01X25951309Y-2043430D01*
G01X25951309Y-2060702D01*
G01X25945721Y-2072132D01*
G01X25939879Y-2077720D01*
G01X25922861Y-2083562D01*
G01X25871299Y-2083562D01*
G01X26027763Y-2003552D02*
G01X26016333Y-2009140D01*
G01X26004903Y-2020570D01*
G01X25999061Y-2037842D01*
G01X25999061Y-2049272D01*
G01X26004903Y-2066290D01*
G01X26016333Y-2077720D01*
G01X26027763Y-2083562D01*
G01X26044781Y-2083562D01*
G01X26056211Y-2077720D01*
G01X26067641Y-2066290D01*
G01X26073483Y-2049272D01*
G01X26073483Y-2037842D01*
G01X26067641Y-2020570D01*
G01X26056211Y-2009140D01*
G01X26044781Y-2003552D01*
G01X26027763Y-2003552D01*
G01X26138507Y-1963420D02*
G01X26138507Y-2060702D01*
G01X26144095Y-2077720D01*
G01X26155525Y-2083562D01*
G01X26166955Y-2083562D01*
G01X26121235Y-2003552D02*
G01X26161367Y-2003552D01*
G01X26231979Y-1963420D02*
G01X26231979Y-2060702D01*
G01X26237567Y-2077720D01*
G01X26248997Y-2083562D01*
G01X26260427Y-2083562D01*
G01X26214707Y-2003552D02*
G01X26254839Y-2003552D01*
G01X26336881Y-2003552D02*
G01X26325451Y-2009140D01*
G01X26314021Y-2020570D01*
G01X26308179Y-2037842D01*
G01X26308179Y-2049272D01*
G01X26314021Y-2066290D01*
G01X26325451Y-2077720D01*
G01X26336881Y-2083562D01*
G01X26353899Y-2083562D01*
G01X26365329Y-2077720D01*
G01X26376759Y-2066290D01*
G01X26382601Y-2049272D01*
G01X26382601Y-2037842D01*
G01X26376759Y-2020570D01*
G01X26365329Y-2009140D01*
G01X26353899Y-2003552D01*
G01X26336881Y-2003552D01*
G01X26430353Y-2003552D02*
G01X26430353Y-2083562D01*
G01X26430353Y-2026412D02*
G01X26447625Y-2009140D01*
G01X26459055Y-2003552D01*
G01X26476073Y-2003552D01*
G01X26487503Y-2009140D01*
G01X26493345Y-2026412D01*
G01X26493345Y-2083562D01*
G01X26493345Y-2026412D02*
G01X26510363Y-2009140D01*
G01X26521793Y-2003552D01*
G01X26539065Y-2003552D01*
G01X26550495Y-2009140D01*
G01X26556083Y-2026412D01*
G01X26556083Y-2083562D01*
G01X26731851Y-1963420D02*
G01X26731851Y-2083562D01*
G01X26731851Y-2083562D02*
G01X26800431Y-2083562D01*
G01X26916763Y-2003552D02*
G01X26916763Y-2083562D01*
G01X26916763Y-2020570D02*
G01X26905333Y-2009140D01*
G01X26893903Y-2003552D01*
G01X26876885Y-2003552D01*
G01X26865455Y-2009140D01*
G01X26854025Y-2020570D01*
G01X26848183Y-2037842D01*
G01X26848183Y-2049272D01*
G01X26854025Y-2066290D01*
G01X26865455Y-2077720D01*
G01X26876885Y-2083562D01*
G01X26893903Y-2083562D01*
G01X26905333Y-2077720D01*
G01X26916763Y-2066290D01*
G01X26970357Y-2003552D02*
G01X27004647Y-2083562D01*
G01X27038937Y-2003552D02*
G01X27004647Y-2083562D01*
G01X26993217Y-2106422D01*
G01X26981787Y-2117852D01*
G01X26970357Y-2123440D01*
G01X26964515Y-2123440D01*
G01X27086689Y-2037842D02*
G01X27155269Y-2037842D01*
G01X27155269Y-2026412D01*
G01X27149681Y-2014982D01*
G01X27143839Y-2009140D01*
G01X27132409Y-2003552D01*
G01X27115391Y-2003552D01*
G01X27103961Y-2009140D01*
G01X27092531Y-2020570D01*
G01X27086689Y-2037842D01*
G01X27086689Y-2049272D01*
G01X27092531Y-2066290D01*
G01X27103961Y-2077720D01*
G01X27115391Y-2083562D01*
G01X27132409Y-2083562D01*
G01X27143839Y-2077720D01*
G01X27155269Y-2066290D01*
G01X27203021Y-2003552D02*
G01X27203021Y-2083562D01*
G01X27203021Y-2037842D02*
G01X27208863Y-2020570D01*
G01X27220293Y-2009140D01*
G01X27231723Y-2003552D01*
G01X27248741Y-2003552D01*
G01X12807716Y-2572693D02*
G01X12807716Y-2566851D01*
G01X12813304Y-2555421D01*
G01X12819146Y-2549833D01*
G01X12830576Y-2543991D01*
G01X12853436Y-2543991D01*
G01X12864866Y-2549833D01*
G01X12870454Y-2555421D01*
G01X12876296Y-2566851D01*
G01X12876296Y-2578281D01*
G01X12870454Y-2589711D01*
G01X12859024Y-2606983D01*
G01X12801874Y-2664133D01*
G01X12881884Y-2664133D01*
G01X14221879Y-2572693D02*
G01X14221879Y-2566851D01*
G01X14227467Y-2555421D01*
G01X14233309Y-2549833D01*
G01X14244739Y-2543991D01*
G01X14267599Y-2543991D01*
G01X14279029Y-2549833D01*
G01X14284617Y-2555421D01*
G01X14290459Y-2566851D01*
G01X14290459Y-2578281D01*
G01X14284617Y-2589711D01*
G01X14273187Y-2606983D01*
G01X14216037Y-2664133D01*
G01X14296047Y-2664133D01*
G01X14423809Y-2543991D02*
G01X14366659Y-2664133D01*
G01X14343799Y-2543991D02*
G01X14423809Y-2543991D01*
G01X14477403Y-2635431D02*
G01X14471561Y-2641273D01*
G01X14477403Y-2646861D01*
G01X14482991Y-2641273D01*
G01X14477403Y-2635431D01*
G01X14599323Y-2561263D02*
G01X14593735Y-2549833D01*
G01X14576463Y-2543991D01*
G01X14565033Y-2543991D01*
G01X14548015Y-2549833D01*
G01X14536585Y-2566851D01*
G01X14530743Y-2595553D01*
G01X14530743Y-2624001D01*
G01X14536585Y-2646861D01*
G01X14548015Y-2658291D01*
G01X14565033Y-2664133D01*
G01X14570875Y-2664133D01*
G01X14587893Y-2658291D01*
G01X14599323Y-2646861D01*
G01X14605165Y-2629843D01*
G01X14605165Y-2624001D01*
G01X14599323Y-2606983D01*
G01X14587893Y-2595553D01*
G01X14570875Y-2589711D01*
G01X14565033Y-2589711D01*
G01X14548015Y-2595553D01*
G01X14536585Y-2606983D01*
G01X14530743Y-2624001D01*
G01X14652917Y-2584123D02*
G01X14652917Y-2664133D01*
G01X14652917Y-2606983D02*
G01X14670189Y-2589711D01*
G01X14681619Y-2584123D01*
G01X14698637Y-2584123D01*
G01X14710067Y-2589711D01*
G01X14715909Y-2606983D01*
G01X14715909Y-2664133D01*
G01X14715909Y-2606983D02*
G01X14732927Y-2589711D01*
G01X14744357Y-2584123D01*
G01X14761629Y-2584123D01*
G01X14773059Y-2589711D01*
G01X14778647Y-2606983D01*
G01X14778647Y-2664133D01*
G01X14826399Y-2543991D02*
G01X14832241Y-2549833D01*
G01X14837829Y-2543991D01*
G01X14832241Y-2538403D01*
G01X14826399Y-2543991D01*
G01X14832241Y-2584123D02*
G01X14832241Y-2664133D01*
G01X14885581Y-2543991D02*
G01X14885581Y-2664133D01*
G01X14973465Y-2521131D02*
G01X14962035Y-2532561D01*
G01X14950605Y-2549833D01*
G01X14939175Y-2572693D01*
G01X14933333Y-2601141D01*
G01X14933333Y-2624001D01*
G01X14939175Y-2652703D01*
G01X14950605Y-2675563D01*
G01X14962035Y-2692581D01*
G01X14973465Y-2704011D01*
G01X15055507Y-2543991D02*
G01X15038489Y-2549833D01*
G01X15027059Y-2566851D01*
G01X15021217Y-2595553D01*
G01X15021217Y-2612571D01*
G01X15027059Y-2641273D01*
G01X15038489Y-2658291D01*
G01X15055507Y-2664133D01*
G01X15066937Y-2664133D01*
G01X15084209Y-2658291D01*
G01X15095639Y-2641273D01*
G01X15101227Y-2612571D01*
G01X15101227Y-2595553D01*
G01X15095639Y-2566851D01*
G01X15084209Y-2549833D01*
G01X15066937Y-2543991D01*
G01X15055507Y-2543991D01*
G01X15154821Y-2635431D02*
G01X15148979Y-2641273D01*
G01X15154821Y-2646861D01*
G01X15160409Y-2641273D01*
G01X15154821Y-2635431D01*
G01X15288171Y-2543991D02*
G01X15231021Y-2664133D01*
G01X15208161Y-2543991D02*
G01X15288171Y-2543991D01*
G01X15370213Y-2543991D02*
G01X15353195Y-2549833D01*
G01X15341765Y-2566851D01*
G01X15335923Y-2595553D01*
G01X15335923Y-2612571D01*
G01X15341765Y-2641273D01*
G01X15353195Y-2658291D01*
G01X15370213Y-2664133D01*
G01X15381643Y-2664133D01*
G01X15398915Y-2658291D01*
G01X15410345Y-2641273D01*
G01X15415933Y-2612571D01*
G01X15415933Y-2595553D01*
G01X15410345Y-2566851D01*
G01X15398915Y-2549833D01*
G01X15381643Y-2543991D01*
G01X15370213Y-2543991D01*
G01X15497975Y-2543991D02*
G01X15480957Y-2549833D01*
G01X15469527Y-2566851D01*
G01X15463685Y-2595553D01*
G01X15463685Y-2612571D01*
G01X15469527Y-2641273D01*
G01X15480957Y-2658291D01*
G01X15497975Y-2664133D01*
G01X15509405Y-2664133D01*
G01X15526677Y-2658291D01*
G01X15538107Y-2641273D01*
G01X15543695Y-2612571D01*
G01X15543695Y-2595553D01*
G01X15538107Y-2566851D01*
G01X15526677Y-2549833D01*
G01X15509405Y-2543991D01*
G01X15497975Y-2543991D01*
G01X15591447Y-2584123D02*
G01X15591447Y-2664133D01*
G01X15591447Y-2606983D02*
G01X15608719Y-2589711D01*
G01X15620149Y-2584123D01*
G01X15637167Y-2584123D01*
G01X15648597Y-2589711D01*
G01X15654439Y-2606983D01*
G01X15654439Y-2664133D01*
G01X15654439Y-2606983D02*
G01X15671457Y-2589711D01*
G01X15682887Y-2584123D01*
G01X15700159Y-2584123D01*
G01X15711589Y-2589711D01*
G01X15717177Y-2606983D01*
G01X15717177Y-2664133D01*
G01X15764929Y-2584123D02*
G01X15764929Y-2664133D01*
G01X15764929Y-2606983D02*
G01X15782201Y-2589711D01*
G01X15793631Y-2584123D01*
G01X15810649Y-2584123D01*
G01X15822079Y-2589711D01*
G01X15827921Y-2606983D01*
G01X15827921Y-2664133D01*
G01X15827921Y-2606983D02*
G01X15844939Y-2589711D01*
G01X15856369Y-2584123D01*
G01X15873641Y-2584123D01*
G01X15885071Y-2589711D01*
G01X15890659Y-2606983D01*
G01X15890659Y-2664133D01*
G01X15938411Y-2521131D02*
G01X15949841Y-2532561D01*
G01X15961271Y-2549833D01*
G01X15972701Y-2572693D01*
G01X15978543Y-2601141D01*
G01X15978543Y-2624001D01*
G01X15972701Y-2652703D01*
G01X15961271Y-2675563D01*
G01X15949841Y-2692581D01*
G01X15938411Y-2704011D01*
G01X18180614Y-2543991D02*
G01X18180614Y-2664133D01*
G01X18180614Y-2543991D02*
G01X18260624Y-2664133D01*
G01X18260624Y-2543991D02*
G01X18260624Y-2664133D01*
G01X18308376Y-2543991D02*
G01X18308376Y-2664133D01*
G01X18308376Y-2543991D02*
G01X18359938Y-2543991D01*
G01X18376956Y-2549833D01*
G01X18382798Y-2555421D01*
G01X18388386Y-2566851D01*
G01X18388386Y-2584123D01*
G01X18382798Y-2595553D01*
G01X18376956Y-2601141D01*
G01X18359938Y-2606983D01*
G01X18308376Y-2606983D01*
G01X18476270Y-2543991D02*
G01X18476270Y-2664133D01*
G01X18436138Y-2543991D02*
G01X18516148Y-2543991D01*
G01X18563900Y-2543991D02*
G01X18563900Y-2664133D01*
G01X18643910Y-2543991D02*
G01X18643910Y-2664133D01*
G01X18563900Y-2601141D02*
G01X18643910Y-2601141D01*
G01X19642022Y-2543991D02*
G01X19642022Y-2664133D01*
G01X19642022Y-2543991D02*
G01X19693584Y-2543991D01*
G01X19710602Y-2549833D01*
G01X19716444Y-2555421D01*
G01X19722032Y-2566851D01*
G01X19722032Y-2578281D01*
G01X19716444Y-2589711D01*
G01X19710602Y-2595553D01*
G01X19693584Y-2601141D01*
G01X19642022Y-2601141D01*
G01X19682154Y-2601141D02*
G01X19722032Y-2664133D01*
G01X19798486Y-2584123D02*
G01X19787056Y-2589711D01*
G01X19775626Y-2601141D01*
G01X19769784Y-2618413D01*
G01X19769784Y-2629843D01*
G01X19775626Y-2646861D01*
G01X19787056Y-2658291D01*
G01X19798486Y-2664133D01*
G01X19815504Y-2664133D01*
G01X19826934Y-2658291D01*
G01X19838364Y-2646861D01*
G01X19844206Y-2629843D01*
G01X19844206Y-2618413D01*
G01X19838364Y-2601141D01*
G01X19826934Y-2589711D01*
G01X19815504Y-2584123D01*
G01X19798486Y-2584123D01*
G01X19891958Y-2584123D02*
G01X19891958Y-2641273D01*
G01X19897800Y-2658291D01*
G01X19909230Y-2664133D01*
G01X19926248Y-2664133D01*
G01X19937678Y-2658291D01*
G01X19954950Y-2641273D01*
G01X19954950Y-2584123D02*
G01X19954950Y-2664133D01*
G01X20002702Y-2584123D02*
G01X20002702Y-2664133D01*
G01X20002702Y-2606983D02*
G01X20019974Y-2589711D01*
G01X20031404Y-2584123D01*
G01X20048422Y-2584123D01*
G01X20059852Y-2589711D01*
G01X20065694Y-2606983D01*
G01X20065694Y-2664133D01*
G01X20182026Y-2543991D02*
G01X20182026Y-2664133D01*
G01X20182026Y-2601141D02*
G01X20170596Y-2589711D01*
G01X20159166Y-2584123D01*
G01X20142148Y-2584123D01*
G01X20130718Y-2589711D01*
G01X20119288Y-2601141D01*
G01X20113446Y-2618413D01*
G01X20113446Y-2629843D01*
G01X20119288Y-2646861D01*
G01X20130718Y-2658291D01*
G01X20142148Y-2664133D01*
G01X20159166Y-2664133D01*
G01X20170596Y-2658291D01*
G01X20182026Y-2646861D01*
G01X21073203Y-2543991D02*
G01X21118923Y-2664133D01*
G01X21164643Y-2543991D02*
G01X21118923Y-2664133D01*
G01X21212395Y-2543991D02*
G01X21218237Y-2549833D01*
G01X21223825Y-2543991D01*
G01X21218237Y-2538403D01*
G01X21212395Y-2543991D01*
G01X21218237Y-2584123D02*
G01X21218237Y-2664133D01*
G01X21340157Y-2584123D02*
G01X21340157Y-2664133D01*
G01X21340157Y-2601141D02*
G01X21328727Y-2589711D01*
G01X21317297Y-2584123D01*
G01X21300279Y-2584123D01*
G01X21288849Y-2589711D01*
G01X21277419Y-2601141D01*
G01X21271577Y-2618413D01*
G01X21271577Y-2629843D01*
G01X21277419Y-2646861D01*
G01X21288849Y-2658291D01*
G01X21300279Y-2664133D01*
G01X21317297Y-2664133D01*
G01X21328727Y-2658291D01*
G01X21340157Y-2646861D01*
G01X24701883Y-2543991D02*
G01X24701883Y-2664133D01*
G01X24661751Y-2543991D02*
G01X24741761Y-2543991D01*
G01X24818215Y-2584123D02*
G01X24806785Y-2589711D01*
G01X24795355Y-2601141D01*
G01X24789513Y-2618413D01*
G01X24789513Y-2629843D01*
G01X24795355Y-2646861D01*
G01X24806785Y-2658291D01*
G01X24818215Y-2664133D01*
G01X24835233Y-2664133D01*
G01X24846663Y-2658291D01*
G01X24858093Y-2646861D01*
G01X24863935Y-2629843D01*
G01X24863935Y-2618413D01*
G01X24858093Y-2601141D01*
G01X24846663Y-2589711D01*
G01X24835233Y-2584123D01*
G01X24818215Y-2584123D01*
G01X24911687Y-2584123D02*
G01X24911687Y-2704011D01*
G01X24911687Y-2601141D02*
G01X24923117Y-2589711D01*
G01X24934547Y-2584123D01*
G01X24951819Y-2584123D01*
G01X24963249Y-2589711D01*
G01X24974679Y-2601141D01*
G01X24980267Y-2618413D01*
G01X24980267Y-2629843D01*
G01X24974679Y-2646861D01*
G01X24963249Y-2658291D01*
G01X24951819Y-2664133D01*
G01X24934547Y-2664133D01*
G01X24923117Y-2658291D01*
G01X24911687Y-2646861D01*
G01X25156035Y-2543991D02*
G01X25156035Y-2664133D01*
G01X25156035Y-2664133D02*
G01X25224615Y-2664133D01*
G01X25340947Y-2584123D02*
G01X25340947Y-2664133D01*
G01X25340947Y-2601141D02*
G01X25329517Y-2589711D01*
G01X25318087Y-2584123D01*
G01X25301069Y-2584123D01*
G01X25289639Y-2589711D01*
G01X25278209Y-2601141D01*
G01X25272367Y-2618413D01*
G01X25272367Y-2629843D01*
G01X25278209Y-2646861D01*
G01X25289639Y-2658291D01*
G01X25301069Y-2664133D01*
G01X25318087Y-2664133D01*
G01X25329517Y-2658291D01*
G01X25340947Y-2646861D01*
G01X25394541Y-2584123D02*
G01X25428831Y-2664133D01*
G01X25463121Y-2584123D02*
G01X25428831Y-2664133D01*
G01X25417401Y-2686993D01*
G01X25405971Y-2698423D01*
G01X25394541Y-2704011D01*
G01X25388699Y-2704011D01*
G01X25510873Y-2618413D02*
G01X25579453Y-2618413D01*
G01X25579453Y-2606983D01*
G01X25573865Y-2595553D01*
G01X25568023Y-2589711D01*
G01X25556593Y-2584123D01*
G01X25539575Y-2584123D01*
G01X25528145Y-2589711D01*
G01X25516715Y-2601141D01*
G01X25510873Y-2618413D01*
G01X25510873Y-2629843D01*
G01X25516715Y-2646861D01*
G01X25528145Y-2658291D01*
G01X25539575Y-2664133D01*
G01X25556593Y-2664133D01*
G01X25568023Y-2658291D01*
G01X25579453Y-2646861D01*
G01X25627205Y-2584123D02*
G01X25627205Y-2664133D01*
G01X25627205Y-2618413D02*
G01X25633047Y-2601141D01*
G01X25644477Y-2589711D01*
G01X25655907Y-2584123D01*
G01X25672925Y-2584123D01*
G01X25720677Y-2612571D02*
G01X25823547Y-2612571D01*
G01X25871299Y-2543991D02*
G01X25871299Y-2664133D01*
G01X25871299Y-2543991D02*
G01X25922861Y-2543991D01*
G01X25939879Y-2549833D01*
G01X25945721Y-2555421D01*
G01X25951309Y-2566851D01*
G01X25951309Y-2578281D01*
G01X25945721Y-2589711D01*
G01X25939879Y-2595553D01*
G01X25922861Y-2601141D01*
G01X25871299Y-2601141D02*
G01X25922861Y-2601141D01*
G01X25939879Y-2606983D01*
G01X25945721Y-2612571D01*
G01X25951309Y-2624001D01*
G01X25951309Y-2641273D01*
G01X25945721Y-2652703D01*
G01X25939879Y-2658291D01*
G01X25922861Y-2664133D01*
G01X25871299Y-2664133D01*
G01X26027763Y-2584123D02*
G01X26016333Y-2589711D01*
G01X26004903Y-2601141D01*
G01X25999061Y-2618413D01*
G01X25999061Y-2629843D01*
G01X26004903Y-2646861D01*
G01X26016333Y-2658291D01*
G01X26027763Y-2664133D01*
G01X26044781Y-2664133D01*
G01X26056211Y-2658291D01*
G01X26067641Y-2646861D01*
G01X26073483Y-2629843D01*
G01X26073483Y-2618413D01*
G01X26067641Y-2601141D01*
G01X26056211Y-2589711D01*
G01X26044781Y-2584123D01*
G01X26027763Y-2584123D01*
G01X26138507Y-2543991D02*
G01X26138507Y-2641273D01*
G01X26144095Y-2658291D01*
G01X26155525Y-2664133D01*
G01X26166955Y-2664133D01*
G01X26121235Y-2584123D02*
G01X26161367Y-2584123D01*
G01X26231979Y-2543991D02*
G01X26231979Y-2641273D01*
G01X26237567Y-2658291D01*
G01X26248997Y-2664133D01*
G01X26260427Y-2664133D01*
G01X26214707Y-2584123D02*
G01X26254839Y-2584123D01*
G01X26336881Y-2584123D02*
G01X26325451Y-2589711D01*
G01X26314021Y-2601141D01*
G01X26308179Y-2618413D01*
G01X26308179Y-2629843D01*
G01X26314021Y-2646861D01*
G01X26325451Y-2658291D01*
G01X26336881Y-2664133D01*
G01X26353899Y-2664133D01*
G01X26365329Y-2658291D01*
G01X26376759Y-2646861D01*
G01X26382601Y-2629843D01*
G01X26382601Y-2618413D01*
G01X26376759Y-2601141D01*
G01X26365329Y-2589711D01*
G01X26353899Y-2584123D01*
G01X26336881Y-2584123D01*
G01X26430353Y-2584123D02*
G01X26430353Y-2664133D01*
G01X26430353Y-2606983D02*
G01X26447625Y-2589711D01*
G01X26459055Y-2584123D01*
G01X26476073Y-2584123D01*
G01X26487503Y-2589711D01*
G01X26493345Y-2606983D01*
G01X26493345Y-2664133D01*
G01X26493345Y-2606983D02*
G01X26510363Y-2589711D01*
G01X26521793Y-2584123D01*
G01X26539065Y-2584123D01*
G01X26550495Y-2589711D01*
G01X26556083Y-2606983D01*
G01X26556083Y-2664133D01*
G01X26731851Y-2543991D02*
G01X26731851Y-2664133D01*
G01X26731851Y-2664133D02*
G01X26800431Y-2664133D01*
G01X26916763Y-2584123D02*
G01X26916763Y-2664133D01*
G01X26916763Y-2601141D02*
G01X26905333Y-2589711D01*
G01X26893903Y-2584123D01*
G01X26876885Y-2584123D01*
G01X26865455Y-2589711D01*
G01X26854025Y-2601141D01*
G01X26848183Y-2618413D01*
G01X26848183Y-2629843D01*
G01X26854025Y-2646861D01*
G01X26865455Y-2658291D01*
G01X26876885Y-2664133D01*
G01X26893903Y-2664133D01*
G01X26905333Y-2658291D01*
G01X26916763Y-2646861D01*
G01X26970357Y-2584123D02*
G01X27004647Y-2664133D01*
G01X27038937Y-2584123D02*
G01X27004647Y-2664133D01*
G01X26993217Y-2686993D01*
G01X26981787Y-2698423D01*
G01X26970357Y-2704011D01*
G01X26964515Y-2704011D01*
G01X27086689Y-2618413D02*
G01X27155269Y-2618413D01*
G01X27155269Y-2606983D01*
G01X27149681Y-2595553D01*
G01X27143839Y-2589711D01*
G01X27132409Y-2584123D01*
G01X27115391Y-2584123D01*
G01X27103961Y-2589711D01*
G01X27092531Y-2601141D01*
G01X27086689Y-2618413D01*
G01X27086689Y-2629843D01*
G01X27092531Y-2646861D01*
G01X27103961Y-2658291D01*
G01X27115391Y-2664133D01*
G01X27132409Y-2664133D01*
G01X27143839Y-2658291D01*
G01X27155269Y-2646861D01*
G01X27203021Y-2584123D02*
G01X27203021Y-2664133D01*
G01X27203021Y-2618413D02*
G01X27208863Y-2601141D01*
G01X27220293Y-2589711D01*
G01X27231723Y-2584123D01*
G01X27248741Y-2584123D01*
G01X12813304Y-3124563D02*
G01X12876296Y-3124563D01*
G01X12842006Y-3170283D01*
G01X12859024Y-3170283D01*
G01X12870454Y-3176125D01*
G01X12876296Y-3181713D01*
G01X12881884Y-3198985D01*
G01X12881884Y-3210415D01*
G01X12876296Y-3227433D01*
G01X12864866Y-3238863D01*
G01X12847594Y-3244705D01*
G01X12830576Y-3244705D01*
G01X12813304Y-3238863D01*
G01X12807716Y-3233275D01*
G01X12801874Y-3221845D01*
G01X14273187Y-3124563D02*
G01X14216037Y-3204573D01*
G01X14301889Y-3204573D01*
G01X14273187Y-3124563D02*
G01X14273187Y-3244705D01*
G01X14383931Y-3124563D02*
G01X14366913Y-3130405D01*
G01X14355483Y-3147423D01*
G01X14349641Y-3176125D01*
G01X14349641Y-3193143D01*
G01X14355483Y-3221845D01*
G01X14366913Y-3238863D01*
G01X14383931Y-3244705D01*
G01X14395361Y-3244705D01*
G01X14412633Y-3238863D01*
G01X14424063Y-3221845D01*
G01X14429651Y-3193143D01*
G01X14429651Y-3176125D01*
G01X14424063Y-3147423D01*
G01X14412633Y-3130405D01*
G01X14395361Y-3124563D01*
G01X14383931Y-3124563D01*
G01X14483245Y-3216003D02*
G01X14477403Y-3221845D01*
G01X14483245Y-3227433D01*
G01X14488833Y-3221845D01*
G01X14483245Y-3216003D01*
G01X14542427Y-3153265D02*
G01X14542427Y-3147423D01*
G01X14548015Y-3135993D01*
G01X14553857Y-3130405D01*
G01X14565287Y-3124563D01*
G01X14588147Y-3124563D01*
G01X14599577Y-3130405D01*
G01X14605165Y-3135993D01*
G01X14611007Y-3147423D01*
G01X14611007Y-3158853D01*
G01X14605165Y-3170283D01*
G01X14593735Y-3187555D01*
G01X14536585Y-3244705D01*
G01X14616595Y-3244705D01*
G01X14664347Y-3164695D02*
G01X14727339Y-3244705D01*
G01X14727339Y-3164695D02*
G01X14664347Y-3244705D01*
G01X14832241Y-3124563D02*
G01X14775091Y-3204573D01*
G01X14860943Y-3204573D01*
G01X14832241Y-3124563D02*
G01X14832241Y-3244705D01*
G01X14942985Y-3124563D02*
G01X14925967Y-3130405D01*
G01X14914537Y-3147423D01*
G01X14908695Y-3176125D01*
G01X14908695Y-3193143D01*
G01X14914537Y-3221845D01*
G01X14925967Y-3238863D01*
G01X14942985Y-3244705D01*
G01X14954415Y-3244705D01*
G01X14971687Y-3238863D01*
G01X14983117Y-3221845D01*
G01X14988705Y-3193143D01*
G01X14988705Y-3176125D01*
G01X14983117Y-3147423D01*
G01X14971687Y-3130405D01*
G01X14954415Y-3124563D01*
G01X14942985Y-3124563D01*
G01X15042299Y-3216003D02*
G01X15036457Y-3221845D01*
G01X15042299Y-3227433D01*
G01X15047887Y-3221845D01*
G01X15042299Y-3216003D01*
G01X15101481Y-3153265D02*
G01X15101481Y-3147423D01*
G01X15107069Y-3135993D01*
G01X15112911Y-3130405D01*
G01X15124341Y-3124563D01*
G01X15147201Y-3124563D01*
G01X15158631Y-3130405D01*
G01X15164219Y-3135993D01*
G01X15170061Y-3147423D01*
G01X15170061Y-3158853D01*
G01X15164219Y-3170283D01*
G01X15152789Y-3187555D01*
G01X15095639Y-3244705D01*
G01X15175649Y-3244705D01*
G01X15223401Y-3164695D02*
G01X15223401Y-3244705D01*
G01X15223401Y-3187555D02*
G01X15240673Y-3170283D01*
G01X15252103Y-3164695D01*
G01X15269121Y-3164695D01*
G01X15280551Y-3170283D01*
G01X15286393Y-3187555D01*
G01X15286393Y-3244705D01*
G01X15286393Y-3187555D02*
G01X15303411Y-3170283D01*
G01X15314841Y-3164695D01*
G01X15332113Y-3164695D01*
G01X15343543Y-3170283D01*
G01X15349131Y-3187555D01*
G01X15349131Y-3244705D01*
G01X15396883Y-3124563D02*
G01X15402725Y-3130405D01*
G01X15408313Y-3124563D01*
G01X15402725Y-3118975D01*
G01X15396883Y-3124563D01*
G01X15402725Y-3164695D02*
G01X15402725Y-3244705D01*
G01X15456065Y-3124563D02*
G01X15456065Y-3244705D01*
G01X15543949Y-3101703D02*
G01X15532519Y-3113133D01*
G01X15521089Y-3130405D01*
G01X15509659Y-3153265D01*
G01X15503817Y-3181713D01*
G01X15503817Y-3204573D01*
G01X15509659Y-3233275D01*
G01X15521089Y-3256135D01*
G01X15532519Y-3273153D01*
G01X15543949Y-3284583D01*
G01X15591701Y-3147423D02*
G01X15603131Y-3141835D01*
G01X15620403Y-3124563D01*
G01X15620403Y-3244705D01*
G01X15673997Y-3216003D02*
G01X15668155Y-3221845D01*
G01X15673997Y-3227433D01*
G01X15679585Y-3221845D01*
G01X15673997Y-3216003D01*
G01X15761627Y-3124563D02*
G01X15744609Y-3130405D01*
G01X15733179Y-3147423D01*
G01X15727337Y-3176125D01*
G01X15727337Y-3193143D01*
G01X15733179Y-3221845D01*
G01X15744609Y-3238863D01*
G01X15761627Y-3244705D01*
G01X15773057Y-3244705D01*
G01X15790329Y-3238863D01*
G01X15801759Y-3221845D01*
G01X15807347Y-3193143D01*
G01X15807347Y-3176125D01*
G01X15801759Y-3147423D01*
G01X15790329Y-3130405D01*
G01X15773057Y-3124563D01*
G01X15761627Y-3124563D01*
G01X15860941Y-3153265D02*
G01X15860941Y-3147423D01*
G01X15866529Y-3135993D01*
G01X15872371Y-3130405D01*
G01X15883801Y-3124563D01*
G01X15906661Y-3124563D01*
G01X15918091Y-3130405D01*
G01X15923679Y-3135993D01*
G01X15929521Y-3147423D01*
G01X15929521Y-3158853D01*
G01X15923679Y-3170283D01*
G01X15912249Y-3187555D01*
G01X15855099Y-3244705D01*
G01X15935109Y-3244705D01*
G01X16017151Y-3124563D02*
G01X16000133Y-3130405D01*
G01X15988703Y-3147423D01*
G01X15982861Y-3176125D01*
G01X15982861Y-3193143D01*
G01X15988703Y-3221845D01*
G01X16000133Y-3238863D01*
G01X16017151Y-3244705D01*
G01X16028581Y-3244705D01*
G01X16045853Y-3238863D01*
G01X16057283Y-3221845D01*
G01X16062871Y-3193143D01*
G01X16062871Y-3176125D01*
G01X16057283Y-3147423D01*
G01X16045853Y-3130405D01*
G01X16028581Y-3124563D01*
G01X16017151Y-3124563D01*
G01X16110623Y-3164695D02*
G01X16173615Y-3244705D01*
G01X16173615Y-3164695D02*
G01X16110623Y-3244705D01*
G01X16221367Y-3147423D02*
G01X16232797Y-3141835D01*
G01X16250069Y-3124563D01*
G01X16250069Y-3244705D01*
G01X16303663Y-3216003D02*
G01X16297821Y-3221845D01*
G01X16303663Y-3227433D01*
G01X16309251Y-3221845D01*
G01X16303663Y-3216003D01*
G01X16391293Y-3124563D02*
G01X16374275Y-3130405D01*
G01X16362845Y-3147423D01*
G01X16357003Y-3176125D01*
G01X16357003Y-3193143D01*
G01X16362845Y-3221845D01*
G01X16374275Y-3238863D01*
G01X16391293Y-3244705D01*
G01X16402723Y-3244705D01*
G01X16419995Y-3238863D01*
G01X16431425Y-3221845D01*
G01X16437013Y-3193143D01*
G01X16437013Y-3176125D01*
G01X16431425Y-3147423D01*
G01X16419995Y-3130405D01*
G01X16402723Y-3124563D01*
G01X16391293Y-3124563D01*
G01X16490607Y-3153265D02*
G01X16490607Y-3147423D01*
G01X16496195Y-3135993D01*
G01X16502037Y-3130405D01*
G01X16513467Y-3124563D01*
G01X16536327Y-3124563D01*
G01X16547757Y-3130405D01*
G01X16553345Y-3135993D01*
G01X16559187Y-3147423D01*
G01X16559187Y-3158853D01*
G01X16553345Y-3170283D01*
G01X16541915Y-3187555D01*
G01X16484765Y-3244705D01*
G01X16564775Y-3244705D01*
G01X16646817Y-3124563D02*
G01X16629799Y-3130405D01*
G01X16618369Y-3147423D01*
G01X16612527Y-3176125D01*
G01X16612527Y-3193143D01*
G01X16618369Y-3221845D01*
G01X16629799Y-3238863D01*
G01X16646817Y-3244705D01*
G01X16658247Y-3244705D01*
G01X16675519Y-3238863D01*
G01X16686949Y-3221845D01*
G01X16692537Y-3193143D01*
G01X16692537Y-3176125D01*
G01X16686949Y-3147423D01*
G01X16675519Y-3130405D01*
G01X16658247Y-3124563D01*
G01X16646817Y-3124563D01*
G01X16740289Y-3164695D02*
G01X16740289Y-3244705D01*
G01X16740289Y-3187555D02*
G01X16757561Y-3170283D01*
G01X16768991Y-3164695D01*
G01X16786009Y-3164695D01*
G01X16797439Y-3170283D01*
G01X16803281Y-3187555D01*
G01X16803281Y-3244705D01*
G01X16803281Y-3187555D02*
G01X16820299Y-3170283D01*
G01X16831729Y-3164695D01*
G01X16849001Y-3164695D01*
G01X16860431Y-3170283D01*
G01X16866019Y-3187555D01*
G01X16866019Y-3244705D01*
G01X16913771Y-3164695D02*
G01X16913771Y-3244705D01*
G01X16913771Y-3187555D02*
G01X16931043Y-3170283D01*
G01X16942473Y-3164695D01*
G01X16959491Y-3164695D01*
G01X16970921Y-3170283D01*
G01X16976763Y-3187555D01*
G01X16976763Y-3244705D01*
G01X16976763Y-3187555D02*
G01X16993781Y-3170283D01*
G01X17005211Y-3164695D01*
G01X17022483Y-3164695D01*
G01X17033913Y-3170283D01*
G01X17039501Y-3187555D01*
G01X17039501Y-3244705D01*
G01X17087253Y-3101703D02*
G01X17098683Y-3113133D01*
G01X17110113Y-3130405D01*
G01X17121543Y-3153265D01*
G01X17127385Y-3181713D01*
G01X17127385Y-3204573D01*
G01X17121543Y-3233275D01*
G01X17110113Y-3256135D01*
G01X17098683Y-3273153D01*
G01X17087253Y-3284583D01*
G01X18180614Y-3124563D02*
G01X18180614Y-3244705D01*
G01X18180614Y-3124563D02*
G01X18232176Y-3124563D01*
G01X18249194Y-3130405D01*
G01X18255036Y-3135993D01*
G01X18260624Y-3147423D01*
G01X18260624Y-3164695D01*
G01X18255036Y-3176125D01*
G01X18249194Y-3181713D01*
G01X18232176Y-3187555D01*
G01X18180614Y-3187555D01*
G01X18348508Y-3124563D02*
G01X18348508Y-3244705D01*
G01X18308376Y-3124563D02*
G01X18388386Y-3124563D01*
G01X18436138Y-3124563D02*
G01X18436138Y-3244705D01*
G01X18516148Y-3124563D02*
G01X18516148Y-3244705D01*
G01X18436138Y-3181713D02*
G01X18516148Y-3181713D01*
G01X19642022Y-3124563D02*
G01X19642022Y-3244705D01*
G01X19642022Y-3124563D02*
G01X19693584Y-3124563D01*
G01X19710602Y-3130405D01*
G01X19716444Y-3135993D01*
G01X19722032Y-3147423D01*
G01X19722032Y-3158853D01*
G01X19716444Y-3170283D01*
G01X19710602Y-3176125D01*
G01X19693584Y-3181713D01*
G01X19642022Y-3181713D01*
G01X19682154Y-3181713D02*
G01X19722032Y-3244705D01*
G01X19798486Y-3164695D02*
G01X19787056Y-3170283D01*
G01X19775626Y-3181713D01*
G01X19769784Y-3198985D01*
G01X19769784Y-3210415D01*
G01X19775626Y-3227433D01*
G01X19787056Y-3238863D01*
G01X19798486Y-3244705D01*
G01X19815504Y-3244705D01*
G01X19826934Y-3238863D01*
G01X19838364Y-3227433D01*
G01X19844206Y-3210415D01*
G01X19844206Y-3198985D01*
G01X19838364Y-3181713D01*
G01X19826934Y-3170283D01*
G01X19815504Y-3164695D01*
G01X19798486Y-3164695D01*
G01X19891958Y-3164695D02*
G01X19891958Y-3221845D01*
G01X19897800Y-3238863D01*
G01X19909230Y-3244705D01*
G01X19926248Y-3244705D01*
G01X19937678Y-3238863D01*
G01X19954950Y-3221845D01*
G01X19954950Y-3164695D02*
G01X19954950Y-3244705D01*
G01X20002702Y-3164695D02*
G01X20002702Y-3244705D01*
G01X20002702Y-3187555D02*
G01X20019974Y-3170283D01*
G01X20031404Y-3164695D01*
G01X20048422Y-3164695D01*
G01X20059852Y-3170283D01*
G01X20065694Y-3187555D01*
G01X20065694Y-3244705D01*
G01X20182026Y-3124563D02*
G01X20182026Y-3244705D01*
G01X20182026Y-3181713D02*
G01X20170596Y-3170283D01*
G01X20159166Y-3164695D01*
G01X20142148Y-3164695D01*
G01X20130718Y-3170283D01*
G01X20119288Y-3181713D01*
G01X20113446Y-3198985D01*
G01X20113446Y-3210415D01*
G01X20119288Y-3227433D01*
G01X20130718Y-3238863D01*
G01X20142148Y-3244705D01*
G01X20159166Y-3244705D01*
G01X20170596Y-3238863D01*
G01X20182026Y-3227433D01*
G01X21073203Y-3124563D02*
G01X21073203Y-3244705D01*
G01X21073203Y-3124563D02*
G01X21124765Y-3124563D01*
G01X21141783Y-3130405D01*
G01X21147625Y-3135993D01*
G01X21153213Y-3147423D01*
G01X21153213Y-3164695D01*
G01X21147625Y-3176125D01*
G01X21141783Y-3181713D01*
G01X21124765Y-3187555D01*
G01X21073203Y-3187555D01*
G01X21269545Y-3164695D02*
G01X21269545Y-3244705D01*
G01X21269545Y-3181713D02*
G01X21258115Y-3170283D01*
G01X21246685Y-3164695D01*
G01X21229667Y-3164695D01*
G01X21218237Y-3170283D01*
G01X21206807Y-3181713D01*
G01X21200965Y-3198985D01*
G01X21200965Y-3210415D01*
G01X21206807Y-3227433D01*
G01X21218237Y-3238863D01*
G01X21229667Y-3244705D01*
G01X21246685Y-3244705D01*
G01X21258115Y-3238863D01*
G01X21269545Y-3227433D01*
G01X21385877Y-3124563D02*
G01X21385877Y-3244705D01*
G01X21385877Y-3181713D02*
G01X21374447Y-3170283D01*
G01X21363017Y-3164695D01*
G01X21345999Y-3164695D01*
G01X21334569Y-3170283D01*
G01X21323139Y-3181713D01*
G01X21317297Y-3198985D01*
G01X21317297Y-3210415D01*
G01X21323139Y-3227433D01*
G01X21334569Y-3238863D01*
G01X21345999Y-3244705D01*
G01X21363017Y-3244705D01*
G01X21374447Y-3238863D01*
G01X21385877Y-3227433D01*
G01X22782514Y-3101703D02*
G01X22771084Y-3113133D01*
G01X22759654Y-3130405D01*
G01X22748224Y-3153265D01*
G01X22742382Y-3181713D01*
G01X22742382Y-3204573D01*
G01X22748224Y-3233275D01*
G01X22759654Y-3256135D01*
G01X22771084Y-3273153D01*
G01X22782514Y-3284583D01*
G01X22830266Y-3124563D02*
G01X22830266Y-3244705D01*
G01X22830266Y-3124563D02*
G01X22875986Y-3244705D01*
G01X22921706Y-3124563D02*
G01X22875986Y-3244705D01*
G01X22921706Y-3124563D02*
G01X22921706Y-3244705D01*
G01X22969458Y-3124563D02*
G01X22975300Y-3130405D01*
G01X22980888Y-3124563D01*
G01X22975300Y-3118975D01*
G01X22969458Y-3124563D01*
G01X22975300Y-3164695D02*
G01X22975300Y-3244705D01*
G01X23028640Y-3164695D02*
G01X23091632Y-3244705D01*
G01X23091632Y-3164695D02*
G01X23028640Y-3244705D01*
G01X23139384Y-3198985D02*
G01X23207964Y-3198985D01*
G01X23207964Y-3187555D01*
G01X23202376Y-3176125D01*
G01X23196534Y-3170283D01*
G01X23185104Y-3164695D01*
G01X23168086Y-3164695D01*
G01X23156656Y-3170283D01*
G01X23145226Y-3181713D01*
G01X23139384Y-3198985D01*
G01X23139384Y-3210415D01*
G01X23145226Y-3227433D01*
G01X23156656Y-3238863D01*
G01X23168086Y-3244705D01*
G01X23185104Y-3244705D01*
G01X23196534Y-3238863D01*
G01X23207964Y-3227433D01*
G01X23324296Y-3124563D02*
G01X23324296Y-3244705D01*
G01X23324296Y-3181713D02*
G01X23312866Y-3170283D01*
G01X23301436Y-3164695D01*
G01X23284418Y-3164695D01*
G01X23272988Y-3170283D01*
G01X23261558Y-3181713D01*
G01X23255716Y-3198985D01*
G01X23255716Y-3210415D01*
G01X23261558Y-3227433D01*
G01X23272988Y-3238863D01*
G01X23284418Y-3244705D01*
G01X23301436Y-3244705D01*
G01X23312866Y-3238863D01*
G01X23324296Y-3227433D01*
G01X23372048Y-3101703D02*
G01X23383478Y-3113133D01*
G01X23394908Y-3130405D01*
G01X23406338Y-3153265D01*
G01X23412180Y-3181713D01*
G01X23412180Y-3204573D01*
G01X23406338Y-3233275D01*
G01X23394908Y-3256135D01*
G01X23383478Y-3273153D01*
G01X23372048Y-3284583D01*
G01X24701883Y-3124563D02*
G01X24701883Y-3244705D01*
G01X24661751Y-3124563D02*
G01X24741761Y-3124563D01*
G01X24818215Y-3164695D02*
G01X24806785Y-3170283D01*
G01X24795355Y-3181713D01*
G01X24789513Y-3198985D01*
G01X24789513Y-3210415D01*
G01X24795355Y-3227433D01*
G01X24806785Y-3238863D01*
G01X24818215Y-3244705D01*
G01X24835233Y-3244705D01*
G01X24846663Y-3238863D01*
G01X24858093Y-3227433D01*
G01X24863935Y-3210415D01*
G01X24863935Y-3198985D01*
G01X24858093Y-3181713D01*
G01X24846663Y-3170283D01*
G01X24835233Y-3164695D01*
G01X24818215Y-3164695D01*
G01X24911687Y-3164695D02*
G01X24911687Y-3284583D01*
G01X24911687Y-3181713D02*
G01X24923117Y-3170283D01*
G01X24934547Y-3164695D01*
G01X24951819Y-3164695D01*
G01X24963249Y-3170283D01*
G01X24974679Y-3181713D01*
G01X24980267Y-3198985D01*
G01X24980267Y-3210415D01*
G01X24974679Y-3227433D01*
G01X24963249Y-3238863D01*
G01X24951819Y-3244705D01*
G01X24934547Y-3244705D01*
G01X24923117Y-3238863D01*
G01X24911687Y-3227433D01*
G01X25156035Y-3124563D02*
G01X25156035Y-3244705D01*
G01X25156035Y-3244705D02*
G01X25224615Y-3244705D01*
G01X25340947Y-3164695D02*
G01X25340947Y-3244705D01*
G01X25340947Y-3181713D02*
G01X25329517Y-3170283D01*
G01X25318087Y-3164695D01*
G01X25301069Y-3164695D01*
G01X25289639Y-3170283D01*
G01X25278209Y-3181713D01*
G01X25272367Y-3198985D01*
G01X25272367Y-3210415D01*
G01X25278209Y-3227433D01*
G01X25289639Y-3238863D01*
G01X25301069Y-3244705D01*
G01X25318087Y-3244705D01*
G01X25329517Y-3238863D01*
G01X25340947Y-3227433D01*
G01X25394541Y-3164695D02*
G01X25428831Y-3244705D01*
G01X25463121Y-3164695D02*
G01X25428831Y-3244705D01*
G01X25417401Y-3267565D01*
G01X25405971Y-3278995D01*
G01X25394541Y-3284583D01*
G01X25388699Y-3284583D01*
G01X25510873Y-3198985D02*
G01X25579453Y-3198985D01*
G01X25579453Y-3187555D01*
G01X25573865Y-3176125D01*
G01X25568023Y-3170283D01*
G01X25556593Y-3164695D01*
G01X25539575Y-3164695D01*
G01X25528145Y-3170283D01*
G01X25516715Y-3181713D01*
G01X25510873Y-3198985D01*
G01X25510873Y-3210415D01*
G01X25516715Y-3227433D01*
G01X25528145Y-3238863D01*
G01X25539575Y-3244705D01*
G01X25556593Y-3244705D01*
G01X25568023Y-3238863D01*
G01X25579453Y-3227433D01*
G01X25627205Y-3164695D02*
G01X25627205Y-3244705D01*
G01X25627205Y-3198985D02*
G01X25633047Y-3181713D01*
G01X25644477Y-3170283D01*
G01X25655907Y-3164695D01*
G01X25672925Y-3164695D01*
G01X25720677Y-3193143D02*
G01X25823547Y-3193143D01*
G01X25871299Y-3124563D02*
G01X25871299Y-3244705D01*
G01X25871299Y-3124563D02*
G01X25922861Y-3124563D01*
G01X25939879Y-3130405D01*
G01X25945721Y-3135993D01*
G01X25951309Y-3147423D01*
G01X25951309Y-3158853D01*
G01X25945721Y-3170283D01*
G01X25939879Y-3176125D01*
G01X25922861Y-3181713D01*
G01X25871299Y-3181713D02*
G01X25922861Y-3181713D01*
G01X25939879Y-3187555D01*
G01X25945721Y-3193143D01*
G01X25951309Y-3204573D01*
G01X25951309Y-3221845D01*
G01X25945721Y-3233275D01*
G01X25939879Y-3238863D01*
G01X25922861Y-3244705D01*
G01X25871299Y-3244705D01*
G01X26027763Y-3164695D02*
G01X26016333Y-3170283D01*
G01X26004903Y-3181713D01*
G01X25999061Y-3198985D01*
G01X25999061Y-3210415D01*
G01X26004903Y-3227433D01*
G01X26016333Y-3238863D01*
G01X26027763Y-3244705D01*
G01X26044781Y-3244705D01*
G01X26056211Y-3238863D01*
G01X26067641Y-3227433D01*
G01X26073483Y-3210415D01*
G01X26073483Y-3198985D01*
G01X26067641Y-3181713D01*
G01X26056211Y-3170283D01*
G01X26044781Y-3164695D01*
G01X26027763Y-3164695D01*
G01X26138507Y-3124563D02*
G01X26138507Y-3221845D01*
G01X26144095Y-3238863D01*
G01X26155525Y-3244705D01*
G01X26166955Y-3244705D01*
G01X26121235Y-3164695D02*
G01X26161367Y-3164695D01*
G01X26231979Y-3124563D02*
G01X26231979Y-3221845D01*
G01X26237567Y-3238863D01*
G01X26248997Y-3244705D01*
G01X26260427Y-3244705D01*
G01X26214707Y-3164695D02*
G01X26254839Y-3164695D01*
G01X26336881Y-3164695D02*
G01X26325451Y-3170283D01*
G01X26314021Y-3181713D01*
G01X26308179Y-3198985D01*
G01X26308179Y-3210415D01*
G01X26314021Y-3227433D01*
G01X26325451Y-3238863D01*
G01X26336881Y-3244705D01*
G01X26353899Y-3244705D01*
G01X26365329Y-3238863D01*
G01X26376759Y-3227433D01*
G01X26382601Y-3210415D01*
G01X26382601Y-3198985D01*
G01X26376759Y-3181713D01*
G01X26365329Y-3170283D01*
G01X26353899Y-3164695D01*
G01X26336881Y-3164695D01*
G01X26430353Y-3164695D02*
G01X26430353Y-3244705D01*
G01X26430353Y-3187555D02*
G01X26447625Y-3170283D01*
G01X26459055Y-3164695D01*
G01X26476073Y-3164695D01*
G01X26487503Y-3170283D01*
G01X26493345Y-3187555D01*
G01X26493345Y-3244705D01*
G01X26493345Y-3187555D02*
G01X26510363Y-3170283D01*
G01X26521793Y-3164695D01*
G01X26539065Y-3164695D01*
G01X26550495Y-3170283D01*
G01X26556083Y-3187555D01*
G01X26556083Y-3244705D01*
G01X26731851Y-3124563D02*
G01X26731851Y-3244705D01*
G01X26731851Y-3244705D02*
G01X26800431Y-3244705D01*
G01X26916763Y-3164695D02*
G01X26916763Y-3244705D01*
G01X26916763Y-3181713D02*
G01X26905333Y-3170283D01*
G01X26893903Y-3164695D01*
G01X26876885Y-3164695D01*
G01X26865455Y-3170283D01*
G01X26854025Y-3181713D01*
G01X26848183Y-3198985D01*
G01X26848183Y-3210415D01*
G01X26854025Y-3227433D01*
G01X26865455Y-3238863D01*
G01X26876885Y-3244705D01*
G01X26893903Y-3244705D01*
G01X26905333Y-3238863D01*
G01X26916763Y-3227433D01*
G01X26970357Y-3164695D02*
G01X27004647Y-3244705D01*
G01X27038937Y-3164695D02*
G01X27004647Y-3244705D01*
G01X26993217Y-3267565D01*
G01X26981787Y-3278995D01*
G01X26970357Y-3284583D01*
G01X26964515Y-3284583D01*
G01X27086689Y-3198985D02*
G01X27155269Y-3198985D01*
G01X27155269Y-3187555D01*
G01X27149681Y-3176125D01*
G01X27143839Y-3170283D01*
G01X27132409Y-3164695D01*
G01X27115391Y-3164695D01*
G01X27103961Y-3170283D01*
G01X27092531Y-3181713D01*
G01X27086689Y-3198985D01*
G01X27086689Y-3210415D01*
G01X27092531Y-3227433D01*
G01X27103961Y-3238863D01*
G01X27115391Y-3244705D01*
G01X27132409Y-3244705D01*
G01X27143839Y-3238863D01*
G01X27155269Y-3227433D01*
G01X27203021Y-3164695D02*
G01X27203021Y-3244705D01*
G01X27203021Y-3198985D02*
G01X27208863Y-3181713D01*
G01X27220293Y-3170283D01*
G01X27231723Y-3164695D01*
G01X27248741Y-3164695D01*
G01X12813304Y-3705134D02*
G01X12876296Y-3705134D01*
G01X12842006Y-3750854D01*
G01X12859024Y-3750854D01*
G01X12870454Y-3756696D01*
G01X12876296Y-3762284D01*
G01X12881884Y-3779556D01*
G01X12881884Y-3790986D01*
G01X12876296Y-3808004D01*
G01X12864866Y-3819434D01*
G01X12847594Y-3825276D01*
G01X12830576Y-3825276D01*
G01X12813304Y-3819434D01*
G01X12807716Y-3813846D01*
G01X12801874Y-3802416D01*
G01X14227467Y-3705134D02*
G01X14290459Y-3705134D01*
G01X14256169Y-3750854D01*
G01X14273187Y-3750854D01*
G01X14284617Y-3756696D01*
G01X14290459Y-3762284D01*
G01X14296047Y-3779556D01*
G01X14296047Y-3790986D01*
G01X14290459Y-3808004D01*
G01X14279029Y-3819434D01*
G01X14261757Y-3825276D01*
G01X14244739Y-3825276D01*
G01X14227467Y-3819434D01*
G01X14221879Y-3813846D01*
G01X14216037Y-3802416D01*
G01X14378089Y-3705134D02*
G01X14361071Y-3710976D01*
G01X14349641Y-3727994D01*
G01X14343799Y-3756696D01*
G01X14343799Y-3773714D01*
G01X14349641Y-3802416D01*
G01X14361071Y-3819434D01*
G01X14378089Y-3825276D01*
G01X14389519Y-3825276D01*
G01X14406791Y-3819434D01*
G01X14418221Y-3802416D01*
G01X14423809Y-3773714D01*
G01X14423809Y-3756696D01*
G01X14418221Y-3727994D01*
G01X14406791Y-3710976D01*
G01X14389519Y-3705134D01*
G01X14378089Y-3705134D01*
G01X14477403Y-3796574D02*
G01X14471561Y-3802416D01*
G01X14477403Y-3808004D01*
G01X14482991Y-3802416D01*
G01X14477403Y-3796574D01*
G01X14565033Y-3705134D02*
G01X14548015Y-3710976D01*
G01X14536585Y-3727994D01*
G01X14530743Y-3756696D01*
G01X14530743Y-3773714D01*
G01X14536585Y-3802416D01*
G01X14548015Y-3819434D01*
G01X14565033Y-3825276D01*
G01X14576463Y-3825276D01*
G01X14593735Y-3819434D01*
G01X14605165Y-3802416D01*
G01X14610753Y-3773714D01*
G01X14610753Y-3756696D01*
G01X14605165Y-3727994D01*
G01X14593735Y-3710976D01*
G01X14576463Y-3705134D01*
G01X14565033Y-3705134D01*
G01X14658505Y-3745266D02*
G01X14721497Y-3825276D01*
G01X14721497Y-3745266D02*
G01X14658505Y-3825276D01*
G01X14780679Y-3705134D02*
G01X14843671Y-3705134D01*
G01X14809381Y-3750854D01*
G01X14826399Y-3750854D01*
G01X14837829Y-3756696D01*
G01X14843671Y-3762284D01*
G01X14849259Y-3779556D01*
G01X14849259Y-3790986D01*
G01X14843671Y-3808004D01*
G01X14832241Y-3819434D01*
G01X14814969Y-3825276D01*
G01X14797951Y-3825276D01*
G01X14780679Y-3819434D01*
G01X14775091Y-3813846D01*
G01X14769249Y-3802416D01*
G01X14931301Y-3705134D02*
G01X14914283Y-3710976D01*
G01X14902853Y-3727994D01*
G01X14897011Y-3756696D01*
G01X14897011Y-3773714D01*
G01X14902853Y-3802416D01*
G01X14914283Y-3819434D01*
G01X14931301Y-3825276D01*
G01X14942731Y-3825276D01*
G01X14960003Y-3819434D01*
G01X14971433Y-3802416D01*
G01X14977021Y-3773714D01*
G01X14977021Y-3756696D01*
G01X14971433Y-3727994D01*
G01X14960003Y-3710976D01*
G01X14942731Y-3705134D01*
G01X14931301Y-3705134D01*
G01X15030615Y-3796574D02*
G01X15024773Y-3802416D01*
G01X15030615Y-3808004D01*
G01X15036203Y-3802416D01*
G01X15030615Y-3796574D01*
G01X15118245Y-3705134D02*
G01X15101227Y-3710976D01*
G01X15089797Y-3727994D01*
G01X15083955Y-3756696D01*
G01X15083955Y-3773714D01*
G01X15089797Y-3802416D01*
G01X15101227Y-3819434D01*
G01X15118245Y-3825276D01*
G01X15129675Y-3825276D01*
G01X15146947Y-3819434D01*
G01X15158377Y-3802416D01*
G01X15163965Y-3773714D01*
G01X15163965Y-3756696D01*
G01X15158377Y-3727994D01*
G01X15146947Y-3710976D01*
G01X15129675Y-3705134D01*
G01X15118245Y-3705134D01*
G01X15211717Y-3745266D02*
G01X15211717Y-3825276D01*
G01X15211717Y-3768126D02*
G01X15228989Y-3750854D01*
G01X15240419Y-3745266D01*
G01X15257437Y-3745266D01*
G01X15268867Y-3750854D01*
G01X15274709Y-3768126D01*
G01X15274709Y-3825276D01*
G01X15274709Y-3768126D02*
G01X15291727Y-3750854D01*
G01X15303157Y-3745266D01*
G01X15320429Y-3745266D01*
G01X15331859Y-3750854D01*
G01X15337447Y-3768126D01*
G01X15337447Y-3825276D01*
G01X15385199Y-3705134D02*
G01X15391041Y-3710976D01*
G01X15396629Y-3705134D01*
G01X15391041Y-3699546D01*
G01X15385199Y-3705134D01*
G01X15391041Y-3745266D02*
G01X15391041Y-3825276D01*
G01X15444381Y-3705134D02*
G01X15444381Y-3825276D01*
G01X15532265Y-3682274D02*
G01X15520835Y-3693704D01*
G01X15509405Y-3710976D01*
G01X15497975Y-3733836D01*
G01X15492133Y-3762284D01*
G01X15492133Y-3785144D01*
G01X15497975Y-3813846D01*
G01X15509405Y-3836706D01*
G01X15520835Y-3853724D01*
G01X15532265Y-3865154D01*
G01X15614307Y-3705134D02*
G01X15597289Y-3710976D01*
G01X15585859Y-3727994D01*
G01X15580017Y-3756696D01*
G01X15580017Y-3773714D01*
G01X15585859Y-3802416D01*
G01X15597289Y-3819434D01*
G01X15614307Y-3825276D01*
G01X15625737Y-3825276D01*
G01X15643009Y-3819434D01*
G01X15654439Y-3802416D01*
G01X15660027Y-3773714D01*
G01X15660027Y-3756696D01*
G01X15654439Y-3727994D01*
G01X15643009Y-3710976D01*
G01X15625737Y-3705134D01*
G01X15614307Y-3705134D01*
G01X15713621Y-3796574D02*
G01X15707779Y-3802416D01*
G01X15713621Y-3808004D01*
G01X15719209Y-3802416D01*
G01X15713621Y-3796574D01*
G01X15846971Y-3705134D02*
G01X15789821Y-3825276D01*
G01X15766961Y-3705134D02*
G01X15846971Y-3705134D01*
G01X15963303Y-3722406D02*
G01X15957715Y-3710976D01*
G01X15940443Y-3705134D01*
G01X15929013Y-3705134D01*
G01X15911995Y-3710976D01*
G01X15900565Y-3727994D01*
G01X15894723Y-3756696D01*
G01X15894723Y-3785144D01*
G01X15900565Y-3808004D01*
G01X15911995Y-3819434D01*
G01X15929013Y-3825276D01*
G01X15934855Y-3825276D01*
G01X15951873Y-3819434D01*
G01X15963303Y-3808004D01*
G01X15969145Y-3790986D01*
G01X15969145Y-3785144D01*
G01X15963303Y-3768126D01*
G01X15951873Y-3756696D01*
G01X15934855Y-3750854D01*
G01X15929013Y-3750854D01*
G01X15911995Y-3756696D01*
G01X15900565Y-3768126D01*
G01X15894723Y-3785144D01*
G01X16022739Y-3733836D02*
G01X16022739Y-3727994D01*
G01X16028327Y-3716564D01*
G01X16034169Y-3710976D01*
G01X16045599Y-3705134D01*
G01X16068459Y-3705134D01*
G01X16079889Y-3710976D01*
G01X16085477Y-3716564D01*
G01X16091319Y-3727994D01*
G01X16091319Y-3739424D01*
G01X16085477Y-3750854D01*
G01X16074047Y-3768126D01*
G01X16016897Y-3825276D01*
G01X16096907Y-3825276D01*
G01X16144659Y-3745266D02*
G01X16207651Y-3825276D01*
G01X16207651Y-3745266D02*
G01X16144659Y-3825276D01*
G01X16289693Y-3705134D02*
G01X16272675Y-3710976D01*
G01X16261245Y-3727994D01*
G01X16255403Y-3756696D01*
G01X16255403Y-3773714D01*
G01X16261245Y-3802416D01*
G01X16272675Y-3819434D01*
G01X16289693Y-3825276D01*
G01X16301123Y-3825276D01*
G01X16318395Y-3819434D01*
G01X16329825Y-3802416D01*
G01X16335413Y-3773714D01*
G01X16335413Y-3756696D01*
G01X16329825Y-3727994D01*
G01X16318395Y-3710976D01*
G01X16301123Y-3705134D01*
G01X16289693Y-3705134D01*
G01X16389007Y-3796574D02*
G01X16383165Y-3802416D01*
G01X16389007Y-3808004D01*
G01X16394595Y-3802416D01*
G01X16389007Y-3796574D01*
G01X16522357Y-3705134D02*
G01X16465207Y-3825276D01*
G01X16442347Y-3705134D02*
G01X16522357Y-3705134D01*
G01X16638689Y-3722406D02*
G01X16633101Y-3710976D01*
G01X16615829Y-3705134D01*
G01X16604399Y-3705134D01*
G01X16587381Y-3710976D01*
G01X16575951Y-3727994D01*
G01X16570109Y-3756696D01*
G01X16570109Y-3785144D01*
G01X16575951Y-3808004D01*
G01X16587381Y-3819434D01*
G01X16604399Y-3825276D01*
G01X16610241Y-3825276D01*
G01X16627259Y-3819434D01*
G01X16638689Y-3808004D01*
G01X16644531Y-3790986D01*
G01X16644531Y-3785144D01*
G01X16638689Y-3768126D01*
G01X16627259Y-3756696D01*
G01X16610241Y-3750854D01*
G01X16604399Y-3750854D01*
G01X16587381Y-3756696D01*
G01X16575951Y-3768126D01*
G01X16570109Y-3785144D01*
G01X16698125Y-3733836D02*
G01X16698125Y-3727994D01*
G01X16703713Y-3716564D01*
G01X16709555Y-3710976D01*
G01X16720985Y-3705134D01*
G01X16743845Y-3705134D01*
G01X16755275Y-3710976D01*
G01X16760863Y-3716564D01*
G01X16766705Y-3727994D01*
G01X16766705Y-3739424D01*
G01X16760863Y-3750854D01*
G01X16749433Y-3768126D01*
G01X16692283Y-3825276D01*
G01X16772293Y-3825276D01*
G01X16820045Y-3745266D02*
G01X16820045Y-3825276D01*
G01X16820045Y-3768126D02*
G01X16837317Y-3750854D01*
G01X16848747Y-3745266D01*
G01X16865765Y-3745266D01*
G01X16877195Y-3750854D01*
G01X16883037Y-3768126D01*
G01X16883037Y-3825276D01*
G01X16883037Y-3768126D02*
G01X16900055Y-3750854D01*
G01X16911485Y-3745266D01*
G01X16928757Y-3745266D01*
G01X16940187Y-3750854D01*
G01X16945775Y-3768126D01*
G01X16945775Y-3825276D01*
G01X16993527Y-3745266D02*
G01X16993527Y-3825276D01*
G01X16993527Y-3768126D02*
G01X17010799Y-3750854D01*
G01X17022229Y-3745266D01*
G01X17039247Y-3745266D01*
G01X17050677Y-3750854D01*
G01X17056519Y-3768126D01*
G01X17056519Y-3825276D01*
G01X17056519Y-3768126D02*
G01X17073537Y-3750854D01*
G01X17084967Y-3745266D01*
G01X17102239Y-3745266D01*
G01X17113669Y-3750854D01*
G01X17119257Y-3768126D01*
G01X17119257Y-3825276D01*
G01X17167009Y-3682274D02*
G01X17178439Y-3693704D01*
G01X17189869Y-3710976D01*
G01X17201299Y-3733836D01*
G01X17207141Y-3762284D01*
G01X17207141Y-3785144D01*
G01X17201299Y-3813846D01*
G01X17189869Y-3836706D01*
G01X17178439Y-3853724D01*
G01X17167009Y-3865154D01*
G01X18180614Y-3705134D02*
G01X18180614Y-3825276D01*
G01X18180614Y-3705134D02*
G01X18232176Y-3705134D01*
G01X18249194Y-3710976D01*
G01X18255036Y-3716564D01*
G01X18260624Y-3727994D01*
G01X18260624Y-3745266D01*
G01X18255036Y-3756696D01*
G01X18249194Y-3762284D01*
G01X18232176Y-3768126D01*
G01X18180614Y-3768126D01*
G01X18348508Y-3705134D02*
G01X18348508Y-3825276D01*
G01X18308376Y-3705134D02*
G01X18388386Y-3705134D01*
G01X18436138Y-3705134D02*
G01X18436138Y-3825276D01*
G01X18516148Y-3705134D02*
G01X18516148Y-3825276D01*
G01X18436138Y-3762284D02*
G01X18516148Y-3762284D01*
G01X19642022Y-3705134D02*
G01X19642022Y-3825276D01*
G01X19642022Y-3705134D02*
G01X19693584Y-3705134D01*
G01X19710602Y-3710976D01*
G01X19716444Y-3716564D01*
G01X19722032Y-3727994D01*
G01X19722032Y-3739424D01*
G01X19716444Y-3750854D01*
G01X19710602Y-3756696D01*
G01X19693584Y-3762284D01*
G01X19642022Y-3762284D01*
G01X19682154Y-3762284D02*
G01X19722032Y-3825276D01*
G01X19798486Y-3745266D02*
G01X19787056Y-3750854D01*
G01X19775626Y-3762284D01*
G01X19769784Y-3779556D01*
G01X19769784Y-3790986D01*
G01X19775626Y-3808004D01*
G01X19787056Y-3819434D01*
G01X19798486Y-3825276D01*
G01X19815504Y-3825276D01*
G01X19826934Y-3819434D01*
G01X19838364Y-3808004D01*
G01X19844206Y-3790986D01*
G01X19844206Y-3779556D01*
G01X19838364Y-3762284D01*
G01X19826934Y-3750854D01*
G01X19815504Y-3745266D01*
G01X19798486Y-3745266D01*
G01X19891958Y-3745266D02*
G01X19891958Y-3802416D01*
G01X19897800Y-3819434D01*
G01X19909230Y-3825276D01*
G01X19926248Y-3825276D01*
G01X19937678Y-3819434D01*
G01X19954950Y-3802416D01*
G01X19954950Y-3745266D02*
G01X19954950Y-3825276D01*
G01X20002702Y-3745266D02*
G01X20002702Y-3825276D01*
G01X20002702Y-3768126D02*
G01X20019974Y-3750854D01*
G01X20031404Y-3745266D01*
G01X20048422Y-3745266D01*
G01X20059852Y-3750854D01*
G01X20065694Y-3768126D01*
G01X20065694Y-3825276D01*
G01X20182026Y-3705134D02*
G01X20182026Y-3825276D01*
G01X20182026Y-3762284D02*
G01X20170596Y-3750854D01*
G01X20159166Y-3745266D01*
G01X20142148Y-3745266D01*
G01X20130718Y-3750854D01*
G01X20119288Y-3762284D01*
G01X20113446Y-3779556D01*
G01X20113446Y-3790986D01*
G01X20119288Y-3808004D01*
G01X20130718Y-3819434D01*
G01X20142148Y-3825276D01*
G01X20159166Y-3825276D01*
G01X20170596Y-3819434D01*
G01X20182026Y-3808004D01*
G01X21073203Y-3705134D02*
G01X21073203Y-3825276D01*
G01X21073203Y-3705134D02*
G01X21124765Y-3705134D01*
G01X21141783Y-3710976D01*
G01X21147625Y-3716564D01*
G01X21153213Y-3727994D01*
G01X21153213Y-3745266D01*
G01X21147625Y-3756696D01*
G01X21141783Y-3762284D01*
G01X21124765Y-3768126D01*
G01X21073203Y-3768126D01*
G01X21269545Y-3745266D02*
G01X21269545Y-3825276D01*
G01X21269545Y-3762284D02*
G01X21258115Y-3750854D01*
G01X21246685Y-3745266D01*
G01X21229667Y-3745266D01*
G01X21218237Y-3750854D01*
G01X21206807Y-3762284D01*
G01X21200965Y-3779556D01*
G01X21200965Y-3790986D01*
G01X21206807Y-3808004D01*
G01X21218237Y-3819434D01*
G01X21229667Y-3825276D01*
G01X21246685Y-3825276D01*
G01X21258115Y-3819434D01*
G01X21269545Y-3808004D01*
G01X21385877Y-3705134D02*
G01X21385877Y-3825276D01*
G01X21385877Y-3762284D02*
G01X21374447Y-3750854D01*
G01X21363017Y-3745266D01*
G01X21345999Y-3745266D01*
G01X21334569Y-3750854D01*
G01X21323139Y-3762284D01*
G01X21317297Y-3779556D01*
G01X21317297Y-3790986D01*
G01X21323139Y-3808004D01*
G01X21334569Y-3819434D01*
G01X21345999Y-3825276D01*
G01X21363017Y-3825276D01*
G01X21374447Y-3819434D01*
G01X21385877Y-3808004D01*
G01X22742382Y-3705134D02*
G01X22742382Y-3825276D01*
G01X22742382Y-3705134D02*
G01X22793944Y-3705134D01*
G01X22810962Y-3710976D01*
G01X22816804Y-3716564D01*
G01X22822392Y-3727994D01*
G01X22822392Y-3739424D01*
G01X22816804Y-3750854D01*
G01X22810962Y-3756696D01*
G01X22793944Y-3762284D01*
G01X22742382Y-3762284D01*
G01X22782514Y-3762284D02*
G01X22822392Y-3825276D01*
G01X22898846Y-3745266D02*
G01X22887416Y-3750854D01*
G01X22875986Y-3762284D01*
G01X22870144Y-3779556D01*
G01X22870144Y-3790986D01*
G01X22875986Y-3808004D01*
G01X22887416Y-3819434D01*
G01X22898846Y-3825276D01*
G01X22915864Y-3825276D01*
G01X22927294Y-3819434D01*
G01X22938724Y-3808004D01*
G01X22944566Y-3790986D01*
G01X22944566Y-3779556D01*
G01X22938724Y-3762284D01*
G01X22927294Y-3750854D01*
G01X22915864Y-3745266D01*
G01X22898846Y-3745266D01*
G01X22992318Y-3745266D02*
G01X22992318Y-3802416D01*
G01X22998160Y-3819434D01*
G01X23009590Y-3825276D01*
G01X23026608Y-3825276D01*
G01X23038038Y-3819434D01*
G01X23055310Y-3802416D01*
G01X23055310Y-3745266D02*
G01X23055310Y-3825276D01*
G01X23103062Y-3745266D02*
G01X23103062Y-3825276D01*
G01X23103062Y-3768126D02*
G01X23120334Y-3750854D01*
G01X23131764Y-3745266D01*
G01X23148782Y-3745266D01*
G01X23160212Y-3750854D01*
G01X23166054Y-3768126D01*
G01X23166054Y-3825276D01*
G01X23282386Y-3705134D02*
G01X23282386Y-3825276D01*
G01X23282386Y-3762284D02*
G01X23270956Y-3750854D01*
G01X23259526Y-3745266D01*
G01X23242508Y-3745266D01*
G01X23231078Y-3750854D01*
G01X23219648Y-3762284D01*
G01X23213806Y-3779556D01*
G01X23213806Y-3790986D01*
G01X23219648Y-3808004D01*
G01X23231078Y-3819434D01*
G01X23242508Y-3825276D01*
G01X23259526Y-3825276D01*
G01X23270956Y-3819434D01*
G01X23282386Y-3808004D01*
G01X24701883Y-3705134D02*
G01X24701883Y-3825276D01*
G01X24661751Y-3705134D02*
G01X24741761Y-3705134D01*
G01X24818215Y-3745266D02*
G01X24806785Y-3750854D01*
G01X24795355Y-3762284D01*
G01X24789513Y-3779556D01*
G01X24789513Y-3790986D01*
G01X24795355Y-3808004D01*
G01X24806785Y-3819434D01*
G01X24818215Y-3825276D01*
G01X24835233Y-3825276D01*
G01X24846663Y-3819434D01*
G01X24858093Y-3808004D01*
G01X24863935Y-3790986D01*
G01X24863935Y-3779556D01*
G01X24858093Y-3762284D01*
G01X24846663Y-3750854D01*
G01X24835233Y-3745266D01*
G01X24818215Y-3745266D01*
G01X24911687Y-3745266D02*
G01X24911687Y-3865154D01*
G01X24911687Y-3762284D02*
G01X24923117Y-3750854D01*
G01X24934547Y-3745266D01*
G01X24951819Y-3745266D01*
G01X24963249Y-3750854D01*
G01X24974679Y-3762284D01*
G01X24980267Y-3779556D01*
G01X24980267Y-3790986D01*
G01X24974679Y-3808004D01*
G01X24963249Y-3819434D01*
G01X24951819Y-3825276D01*
G01X24934547Y-3825276D01*
G01X24923117Y-3819434D01*
G01X24911687Y-3808004D01*
G01X25156035Y-3705134D02*
G01X25156035Y-3825276D01*
G01X25156035Y-3825276D02*
G01X25224615Y-3825276D01*
G01X25340947Y-3745266D02*
G01X25340947Y-3825276D01*
G01X25340947Y-3762284D02*
G01X25329517Y-3750854D01*
G01X25318087Y-3745266D01*
G01X25301069Y-3745266D01*
G01X25289639Y-3750854D01*
G01X25278209Y-3762284D01*
G01X25272367Y-3779556D01*
G01X25272367Y-3790986D01*
G01X25278209Y-3808004D01*
G01X25289639Y-3819434D01*
G01X25301069Y-3825276D01*
G01X25318087Y-3825276D01*
G01X25329517Y-3819434D01*
G01X25340947Y-3808004D01*
G01X25394541Y-3745266D02*
G01X25428831Y-3825276D01*
G01X25463121Y-3745266D02*
G01X25428831Y-3825276D01*
G01X25417401Y-3848136D01*
G01X25405971Y-3859566D01*
G01X25394541Y-3865154D01*
G01X25388699Y-3865154D01*
G01X25510873Y-3779556D02*
G01X25579453Y-3779556D01*
G01X25579453Y-3768126D01*
G01X25573865Y-3756696D01*
G01X25568023Y-3750854D01*
G01X25556593Y-3745266D01*
G01X25539575Y-3745266D01*
G01X25528145Y-3750854D01*
G01X25516715Y-3762284D01*
G01X25510873Y-3779556D01*
G01X25510873Y-3790986D01*
G01X25516715Y-3808004D01*
G01X25528145Y-3819434D01*
G01X25539575Y-3825276D01*
G01X25556593Y-3825276D01*
G01X25568023Y-3819434D01*
G01X25579453Y-3808004D01*
G01X25627205Y-3745266D02*
G01X25627205Y-3825276D01*
G01X25627205Y-3779556D02*
G01X25633047Y-3762284D01*
G01X25644477Y-3750854D01*
G01X25655907Y-3745266D01*
G01X25672925Y-3745266D01*
G01X25720677Y-3773714D02*
G01X25823547Y-3773714D01*
G01X25871299Y-3705134D02*
G01X25871299Y-3825276D01*
G01X25871299Y-3705134D02*
G01X25922861Y-3705134D01*
G01X25939879Y-3710976D01*
G01X25945721Y-3716564D01*
G01X25951309Y-3727994D01*
G01X25951309Y-3739424D01*
G01X25945721Y-3750854D01*
G01X25939879Y-3756696D01*
G01X25922861Y-3762284D01*
G01X25871299Y-3762284D02*
G01X25922861Y-3762284D01*
G01X25939879Y-3768126D01*
G01X25945721Y-3773714D01*
G01X25951309Y-3785144D01*
G01X25951309Y-3802416D01*
G01X25945721Y-3813846D01*
G01X25939879Y-3819434D01*
G01X25922861Y-3825276D01*
G01X25871299Y-3825276D01*
G01X26027763Y-3745266D02*
G01X26016333Y-3750854D01*
G01X26004903Y-3762284D01*
G01X25999061Y-3779556D01*
G01X25999061Y-3790986D01*
G01X26004903Y-3808004D01*
G01X26016333Y-3819434D01*
G01X26027763Y-3825276D01*
G01X26044781Y-3825276D01*
G01X26056211Y-3819434D01*
G01X26067641Y-3808004D01*
G01X26073483Y-3790986D01*
G01X26073483Y-3779556D01*
G01X26067641Y-3762284D01*
G01X26056211Y-3750854D01*
G01X26044781Y-3745266D01*
G01X26027763Y-3745266D01*
G01X26138507Y-3705134D02*
G01X26138507Y-3802416D01*
G01X26144095Y-3819434D01*
G01X26155525Y-3825276D01*
G01X26166955Y-3825276D01*
G01X26121235Y-3745266D02*
G01X26161367Y-3745266D01*
G01X26231979Y-3705134D02*
G01X26231979Y-3802416D01*
G01X26237567Y-3819434D01*
G01X26248997Y-3825276D01*
G01X26260427Y-3825276D01*
G01X26214707Y-3745266D02*
G01X26254839Y-3745266D01*
G01X26336881Y-3745266D02*
G01X26325451Y-3750854D01*
G01X26314021Y-3762284D01*
G01X26308179Y-3779556D01*
G01X26308179Y-3790986D01*
G01X26314021Y-3808004D01*
G01X26325451Y-3819434D01*
G01X26336881Y-3825276D01*
G01X26353899Y-3825276D01*
G01X26365329Y-3819434D01*
G01X26376759Y-3808004D01*
G01X26382601Y-3790986D01*
G01X26382601Y-3779556D01*
G01X26376759Y-3762284D01*
G01X26365329Y-3750854D01*
G01X26353899Y-3745266D01*
G01X26336881Y-3745266D01*
G01X26430353Y-3745266D02*
G01X26430353Y-3825276D01*
G01X26430353Y-3768126D02*
G01X26447625Y-3750854D01*
G01X26459055Y-3745266D01*
G01X26476073Y-3745266D01*
G01X26487503Y-3750854D01*
G01X26493345Y-3768126D01*
G01X26493345Y-3825276D01*
G01X26493345Y-3768126D02*
G01X26510363Y-3750854D01*
G01X26521793Y-3745266D01*
G01X26539065Y-3745266D01*
G01X26550495Y-3750854D01*
G01X26556083Y-3768126D01*
G01X26556083Y-3825276D01*
G01X26731851Y-3705134D02*
G01X26731851Y-3825276D01*
G01X26731851Y-3825276D02*
G01X26800431Y-3825276D01*
G01X26916763Y-3745266D02*
G01X26916763Y-3825276D01*
G01X26916763Y-3762284D02*
G01X26905333Y-3750854D01*
G01X26893903Y-3745266D01*
G01X26876885Y-3745266D01*
G01X26865455Y-3750854D01*
G01X26854025Y-3762284D01*
G01X26848183Y-3779556D01*
G01X26848183Y-3790986D01*
G01X26854025Y-3808004D01*
G01X26865455Y-3819434D01*
G01X26876885Y-3825276D01*
G01X26893903Y-3825276D01*
G01X26905333Y-3819434D01*
G01X26916763Y-3808004D01*
G01X26970357Y-3745266D02*
G01X27004647Y-3825276D01*
G01X27038937Y-3745266D02*
G01X27004647Y-3825276D01*
G01X26993217Y-3848136D01*
G01X26981787Y-3859566D01*
G01X26970357Y-3865154D01*
G01X26964515Y-3865154D01*
G01X27086689Y-3779556D02*
G01X27155269Y-3779556D01*
G01X27155269Y-3768126D01*
G01X27149681Y-3756696D01*
G01X27143839Y-3750854D01*
G01X27132409Y-3745266D01*
G01X27115391Y-3745266D01*
G01X27103961Y-3750854D01*
G01X27092531Y-3762284D01*
G01X27086689Y-3779556D01*
G01X27086689Y-3790986D01*
G01X27092531Y-3808004D01*
G01X27103961Y-3819434D01*
G01X27115391Y-3825276D01*
G01X27132409Y-3825276D01*
G01X27143839Y-3819434D01*
G01X27155269Y-3808004D01*
G01X27203021Y-3745266D02*
G01X27203021Y-3825276D01*
G01X27203021Y-3779556D02*
G01X27208863Y-3762284D01*
G01X27220293Y-3750854D01*
G01X27231723Y-3745266D01*
G01X27248741Y-3745266D01*
G01X12859024Y-4285706D02*
G01X12801874Y-4365716D01*
G01X12887726Y-4365716D01*
G01X12859024Y-4285706D02*
G01X12859024Y-4405848D01*
G01X14290459Y-4325838D02*
G01X14284617Y-4342856D01*
G01X14273187Y-4354286D01*
G01X14256169Y-4360128D01*
G01X14250327Y-4360128D01*
G01X14233309Y-4354286D01*
G01X14221879Y-4342856D01*
G01X14216037Y-4325838D01*
G01X14216037Y-4319996D01*
G01X14221879Y-4302978D01*
G01X14233309Y-4291548D01*
G01X14250327Y-4285706D01*
G01X14256169Y-4285706D01*
G01X14273187Y-4291548D01*
G01X14284617Y-4302978D01*
G01X14290459Y-4325838D01*
G01X14290459Y-4354286D01*
G01X14284617Y-4382988D01*
G01X14273187Y-4400006D01*
G01X14256169Y-4405848D01*
G01X14244739Y-4405848D01*
G01X14227467Y-4400006D01*
G01X14221879Y-4388576D01*
G01X14366913Y-4285706D02*
G01X14349641Y-4291548D01*
G01X14344053Y-4302978D01*
G01X14344053Y-4314408D01*
G01X14349641Y-4325838D01*
G01X14361071Y-4331426D01*
G01X14383931Y-4337268D01*
G01X14401203Y-4342856D01*
G01X14412633Y-4354286D01*
G01X14418221Y-4365716D01*
G01X14418221Y-4382988D01*
G01X14412633Y-4394418D01*
G01X14406791Y-4400006D01*
G01X14389773Y-4405848D01*
G01X14366913Y-4405848D01*
G01X14349641Y-4400006D01*
G01X14344053Y-4394418D01*
G01X14338211Y-4382988D01*
G01X14338211Y-4365716D01*
G01X14344053Y-4354286D01*
G01X14355483Y-4342856D01*
G01X14372501Y-4337268D01*
G01X14395361Y-4331426D01*
G01X14406791Y-4325838D01*
G01X14412633Y-4314408D01*
G01X14412633Y-4302978D01*
G01X14406791Y-4291548D01*
G01X14389773Y-4285706D01*
G01X14366913Y-4285706D01*
G01X14471815Y-4377146D02*
G01X14465973Y-4382988D01*
G01X14471815Y-4388576D01*
G01X14477403Y-4382988D01*
G01X14471815Y-4377146D01*
G01X14582305Y-4285706D02*
G01X14525155Y-4365716D01*
G01X14611007Y-4365716D01*
G01X14582305Y-4285706D02*
G01X14582305Y-4405848D01*
G01X14658759Y-4325838D02*
G01X14721751Y-4405848D01*
G01X14721751Y-4325838D02*
G01X14658759Y-4405848D01*
G01X14769503Y-4308566D02*
G01X14780933Y-4302978D01*
G01X14798205Y-4285706D01*
G01X14798205Y-4405848D01*
G01X14880247Y-4285706D02*
G01X14863229Y-4291548D01*
G01X14851799Y-4308566D01*
G01X14845957Y-4337268D01*
G01X14845957Y-4354286D01*
G01X14851799Y-4382988D01*
G01X14863229Y-4400006D01*
G01X14880247Y-4405848D01*
G01X14891677Y-4405848D01*
G01X14908949Y-4400006D01*
G01X14920379Y-4382988D01*
G01X14925967Y-4354286D01*
G01X14925967Y-4337268D01*
G01X14920379Y-4308566D01*
G01X14908949Y-4291548D01*
G01X14891677Y-4285706D01*
G01X14880247Y-4285706D01*
G01X14985149Y-4285706D02*
G01X15048141Y-4285706D01*
G01X15013851Y-4331426D01*
G01X15030869Y-4331426D01*
G01X15042299Y-4337268D01*
G01X15048141Y-4342856D01*
G01X15053729Y-4360128D01*
G01X15053729Y-4371558D01*
G01X15048141Y-4388576D01*
G01X15036711Y-4400006D01*
G01X15019439Y-4405848D01*
G01X15002421Y-4405848D01*
G01X14985149Y-4400006D01*
G01X14979561Y-4394418D01*
G01X14973719Y-4382988D01*
G01X15107323Y-4377146D02*
G01X15101481Y-4382988D01*
G01X15107323Y-4388576D01*
G01X15112911Y-4382988D01*
G01X15107323Y-4377146D01*
G01X15172093Y-4285706D02*
G01X15235085Y-4285706D01*
G01X15200795Y-4331426D01*
G01X15217813Y-4331426D01*
G01X15229243Y-4337268D01*
G01X15235085Y-4342856D01*
G01X15240673Y-4360128D01*
G01X15240673Y-4371558D01*
G01X15235085Y-4388576D01*
G01X15223655Y-4400006D01*
G01X15206383Y-4405848D01*
G01X15189365Y-4405848D01*
G01X15172093Y-4400006D01*
G01X15166505Y-4394418D01*
G01X15160663Y-4382988D01*
G01X15288425Y-4325838D02*
G01X15288425Y-4405848D01*
G01X15288425Y-4348698D02*
G01X15305697Y-4331426D01*
G01X15317127Y-4325838D01*
G01X15334145Y-4325838D01*
G01X15345575Y-4331426D01*
G01X15351417Y-4348698D01*
G01X15351417Y-4405848D01*
G01X15351417Y-4348698D02*
G01X15368435Y-4331426D01*
G01X15379865Y-4325838D01*
G01X15397137Y-4325838D01*
G01X15408567Y-4331426D01*
G01X15414155Y-4348698D01*
G01X15414155Y-4405848D01*
G01X15461907Y-4285706D02*
G01X15467749Y-4291548D01*
G01X15473337Y-4285706D01*
G01X15467749Y-4280118D01*
G01X15461907Y-4285706D01*
G01X15467749Y-4325838D02*
G01X15467749Y-4405848D01*
G01X15521089Y-4285706D02*
G01X15521089Y-4405848D01*
G01X15608973Y-4262846D02*
G01X15597543Y-4274276D01*
G01X15586113Y-4291548D01*
G01X15574683Y-4314408D01*
G01X15568841Y-4342856D01*
G01X15568841Y-4365716D01*
G01X15574683Y-4394418D01*
G01X15586113Y-4417278D01*
G01X15597543Y-4434296D01*
G01X15608973Y-4445726D01*
G01X15662567Y-4314408D02*
G01X15662567Y-4308566D01*
G01X15668155Y-4297136D01*
G01X15673997Y-4291548D01*
G01X15685427Y-4285706D01*
G01X15708287Y-4285706D01*
G01X15719717Y-4291548D01*
G01X15725305Y-4297136D01*
G01X15731147Y-4308566D01*
G01X15731147Y-4319996D01*
G01X15725305Y-4331426D01*
G01X15713875Y-4348698D01*
G01X15656725Y-4405848D01*
G01X15736735Y-4405848D01*
G01X15790329Y-4377146D02*
G01X15784487Y-4382988D01*
G01X15790329Y-4388576D01*
G01X15795917Y-4382988D01*
G01X15790329Y-4377146D01*
G01X15912249Y-4285706D02*
G01X15855099Y-4285706D01*
G01X15849511Y-4337268D01*
G01X15855099Y-4331426D01*
G01X15872371Y-4325838D01*
G01X15889389Y-4325838D01*
G01X15906661Y-4331426D01*
G01X15918091Y-4342856D01*
G01X15923679Y-4360128D01*
G01X15923679Y-4371558D01*
G01X15918091Y-4388576D01*
G01X15906661Y-4400006D01*
G01X15889389Y-4405848D01*
G01X15872371Y-4405848D01*
G01X15855099Y-4400006D01*
G01X15849511Y-4394418D01*
G01X15843669Y-4382988D01*
G01X16005721Y-4285706D02*
G01X15988703Y-4291548D01*
G01X15977273Y-4308566D01*
G01X15971431Y-4337268D01*
G01X15971431Y-4354286D01*
G01X15977273Y-4382988D01*
G01X15988703Y-4400006D01*
G01X16005721Y-4405848D01*
G01X16017151Y-4405848D01*
G01X16034423Y-4400006D01*
G01X16045853Y-4382988D01*
G01X16051441Y-4354286D01*
G01X16051441Y-4337268D01*
G01X16045853Y-4308566D01*
G01X16034423Y-4291548D01*
G01X16017151Y-4285706D01*
G01X16005721Y-4285706D01*
G01X16133483Y-4285706D02*
G01X16116465Y-4291548D01*
G01X16105035Y-4308566D01*
G01X16099193Y-4337268D01*
G01X16099193Y-4354286D01*
G01X16105035Y-4382988D01*
G01X16116465Y-4400006D01*
G01X16133483Y-4405848D01*
G01X16144913Y-4405848D01*
G01X16162185Y-4400006D01*
G01X16173615Y-4382988D01*
G01X16179203Y-4354286D01*
G01X16179203Y-4337268D01*
G01X16173615Y-4308566D01*
G01X16162185Y-4291548D01*
G01X16144913Y-4285706D01*
G01X16133483Y-4285706D01*
G01X16226955Y-4325838D02*
G01X16289947Y-4405848D01*
G01X16289947Y-4325838D02*
G01X16226955Y-4405848D01*
G01X16343541Y-4314408D02*
G01X16343541Y-4308566D01*
G01X16349129Y-4297136D01*
G01X16354971Y-4291548D01*
G01X16366401Y-4285706D01*
G01X16389261Y-4285706D01*
G01X16400691Y-4291548D01*
G01X16406279Y-4297136D01*
G01X16412121Y-4308566D01*
G01X16412121Y-4319996D01*
G01X16406279Y-4331426D01*
G01X16394849Y-4348698D01*
G01X16337699Y-4405848D01*
G01X16417709Y-4405848D01*
G01X16471303Y-4377146D02*
G01X16465461Y-4382988D01*
G01X16471303Y-4388576D01*
G01X16476891Y-4382988D01*
G01X16471303Y-4377146D01*
G01X16593223Y-4302978D02*
G01X16587635Y-4291548D01*
G01X16570363Y-4285706D01*
G01X16558933Y-4285706D01*
G01X16541915Y-4291548D01*
G01X16530485Y-4308566D01*
G01X16524643Y-4337268D01*
G01X16524643Y-4365716D01*
G01X16530485Y-4388576D01*
G01X16541915Y-4400006D01*
G01X16558933Y-4405848D01*
G01X16564775Y-4405848D01*
G01X16581793Y-4400006D01*
G01X16593223Y-4388576D01*
G01X16599065Y-4371558D01*
G01X16599065Y-4365716D01*
G01X16593223Y-4348698D01*
G01X16581793Y-4337268D01*
G01X16564775Y-4331426D01*
G01X16558933Y-4331426D01*
G01X16541915Y-4337268D01*
G01X16530485Y-4348698D01*
G01X16524643Y-4365716D01*
G01X16652659Y-4314408D02*
G01X16652659Y-4308566D01*
G01X16658247Y-4297136D01*
G01X16664089Y-4291548D01*
G01X16675519Y-4285706D01*
G01X16698379Y-4285706D01*
G01X16709809Y-4291548D01*
G01X16715397Y-4297136D01*
G01X16721239Y-4308566D01*
G01X16721239Y-4319996D01*
G01X16715397Y-4331426D01*
G01X16703967Y-4348698D01*
G01X16646817Y-4405848D01*
G01X16726827Y-4405848D01*
G01X16843159Y-4285706D02*
G01X16786009Y-4285706D01*
G01X16780421Y-4337268D01*
G01X16786009Y-4331426D01*
G01X16803281Y-4325838D01*
G01X16820299Y-4325838D01*
G01X16837571Y-4331426D01*
G01X16849001Y-4342856D01*
G01X16854589Y-4360128D01*
G01X16854589Y-4371558D01*
G01X16849001Y-4388576D01*
G01X16837571Y-4400006D01*
G01X16820299Y-4405848D01*
G01X16803281Y-4405848D01*
G01X16786009Y-4400006D01*
G01X16780421Y-4394418D01*
G01X16774579Y-4382988D01*
G01X16902341Y-4325838D02*
G01X16902341Y-4405848D01*
G01X16902341Y-4348698D02*
G01X16919613Y-4331426D01*
G01X16931043Y-4325838D01*
G01X16948061Y-4325838D01*
G01X16959491Y-4331426D01*
G01X16965333Y-4348698D01*
G01X16965333Y-4405848D01*
G01X16965333Y-4348698D02*
G01X16982351Y-4331426D01*
G01X16993781Y-4325838D01*
G01X17011053Y-4325838D01*
G01X17022483Y-4331426D01*
G01X17028071Y-4348698D01*
G01X17028071Y-4405848D01*
G01X17075823Y-4325838D02*
G01X17075823Y-4405848D01*
G01X17075823Y-4348698D02*
G01X17093095Y-4331426D01*
G01X17104525Y-4325838D01*
G01X17121543Y-4325838D01*
G01X17132973Y-4331426D01*
G01X17138815Y-4348698D01*
G01X17138815Y-4405848D01*
G01X17138815Y-4348698D02*
G01X17155833Y-4331426D01*
G01X17167263Y-4325838D01*
G01X17184535Y-4325838D01*
G01X17195965Y-4331426D01*
G01X17201553Y-4348698D01*
G01X17201553Y-4405848D01*
G01X17249305Y-4262846D02*
G01X17260735Y-4274276D01*
G01X17272165Y-4291548D01*
G01X17283595Y-4314408D01*
G01X17289437Y-4342856D01*
G01X17289437Y-4365716D01*
G01X17283595Y-4394418D01*
G01X17272165Y-4417278D01*
G01X17260735Y-4434296D01*
G01X17249305Y-4445726D01*
G01X18180614Y-4285706D02*
G01X18180614Y-4405848D01*
G01X18180614Y-4285706D02*
G01X18232176Y-4285706D01*
G01X18249194Y-4291548D01*
G01X18255036Y-4297136D01*
G01X18260624Y-4308566D01*
G01X18260624Y-4325838D01*
G01X18255036Y-4337268D01*
G01X18249194Y-4342856D01*
G01X18232176Y-4348698D01*
G01X18180614Y-4348698D01*
G01X18348508Y-4285706D02*
G01X18348508Y-4405848D01*
G01X18308376Y-4285706D02*
G01X18388386Y-4285706D01*
G01X18436138Y-4285706D02*
G01X18436138Y-4405848D01*
G01X18516148Y-4285706D02*
G01X18516148Y-4405848D01*
G01X18436138Y-4342856D02*
G01X18516148Y-4342856D01*
G01X19722032Y-4302978D02*
G01X19710602Y-4291548D01*
G01X19693584Y-4285706D01*
G01X19670724Y-4285706D01*
G01X19653452Y-4291548D01*
G01X19642022Y-4302978D01*
G01X19642022Y-4314408D01*
G01X19647864Y-4325838D01*
G01X19653452Y-4331426D01*
G01X19664882Y-4337268D01*
G01X19699172Y-4348698D01*
G01X19710602Y-4354286D01*
G01X19716444Y-4360128D01*
G01X19722032Y-4371558D01*
G01X19722032Y-4388576D01*
G01X19710602Y-4400006D01*
G01X19693584Y-4405848D01*
G01X19670724Y-4405848D01*
G01X19653452Y-4400006D01*
G01X19642022Y-4388576D01*
G01X19769784Y-4285706D02*
G01X19769784Y-4405848D01*
G01X19846238Y-4325838D02*
G01X19834808Y-4331426D01*
G01X19823378Y-4342856D01*
G01X19817536Y-4360128D01*
G01X19817536Y-4371558D01*
G01X19823378Y-4388576D01*
G01X19834808Y-4400006D01*
G01X19846238Y-4405848D01*
G01X19863256Y-4405848D01*
G01X19874686Y-4400006D01*
G01X19886116Y-4388576D01*
G01X19891958Y-4371558D01*
G01X19891958Y-4360128D01*
G01X19886116Y-4342856D01*
G01X19874686Y-4331426D01*
G01X19863256Y-4325838D01*
G01X19846238Y-4325838D01*
G01X19956982Y-4285706D02*
G01X19956982Y-4382988D01*
G01X19962570Y-4400006D01*
G01X19974000Y-4405848D01*
G01X19985430Y-4405848D01*
G01X19939710Y-4325838D02*
G01X19979842Y-4325838D01*
G01X21073203Y-4285706D02*
G01X21073203Y-4405848D01*
G01X21073203Y-4285706D02*
G01X21124765Y-4285706D01*
G01X21141783Y-4291548D01*
G01X21147625Y-4297136D01*
G01X21153213Y-4308566D01*
G01X21153213Y-4325838D01*
G01X21147625Y-4337268D01*
G01X21141783Y-4342856D01*
G01X21124765Y-4348698D01*
G01X21073203Y-4348698D01*
G01X21269545Y-4325838D02*
G01X21269545Y-4405848D01*
G01X21269545Y-4342856D02*
G01X21258115Y-4331426D01*
G01X21246685Y-4325838D01*
G01X21229667Y-4325838D01*
G01X21218237Y-4331426D01*
G01X21206807Y-4342856D01*
G01X21200965Y-4360128D01*
G01X21200965Y-4371558D01*
G01X21206807Y-4388576D01*
G01X21218237Y-4400006D01*
G01X21229667Y-4405848D01*
G01X21246685Y-4405848D01*
G01X21258115Y-4400006D01*
G01X21269545Y-4388576D01*
G01X21385877Y-4285706D02*
G01X21385877Y-4405848D01*
G01X21385877Y-4342856D02*
G01X21374447Y-4331426D01*
G01X21363017Y-4325838D01*
G01X21345999Y-4325838D01*
G01X21334569Y-4331426D01*
G01X21323139Y-4342856D01*
G01X21317297Y-4360128D01*
G01X21317297Y-4371558D01*
G01X21323139Y-4388576D01*
G01X21334569Y-4400006D01*
G01X21345999Y-4405848D01*
G01X21363017Y-4405848D01*
G01X21374447Y-4400006D01*
G01X21385877Y-4388576D01*
G01X22742382Y-4285706D02*
G01X22742382Y-4405848D01*
G01X22742382Y-4285706D02*
G01X22793944Y-4285706D01*
G01X22810962Y-4291548D01*
G01X22816804Y-4297136D01*
G01X22822392Y-4308566D01*
G01X22822392Y-4319996D01*
G01X22816804Y-4331426D01*
G01X22810962Y-4337268D01*
G01X22793944Y-4342856D01*
G01X22742382Y-4342856D01*
G01X22782514Y-4342856D02*
G01X22822392Y-4405848D01*
G01X22898846Y-4325838D02*
G01X22887416Y-4331426D01*
G01X22875986Y-4342856D01*
G01X22870144Y-4360128D01*
G01X22870144Y-4371558D01*
G01X22875986Y-4388576D01*
G01X22887416Y-4400006D01*
G01X22898846Y-4405848D01*
G01X22915864Y-4405848D01*
G01X22927294Y-4400006D01*
G01X22938724Y-4388576D01*
G01X22944566Y-4371558D01*
G01X22944566Y-4360128D01*
G01X22938724Y-4342856D01*
G01X22927294Y-4331426D01*
G01X22915864Y-4325838D01*
G01X22898846Y-4325838D01*
G01X22992318Y-4325838D02*
G01X22992318Y-4382988D01*
G01X22998160Y-4400006D01*
G01X23009590Y-4405848D01*
G01X23026608Y-4405848D01*
G01X23038038Y-4400006D01*
G01X23055310Y-4382988D01*
G01X23055310Y-4325838D02*
G01X23055310Y-4405848D01*
G01X23103062Y-4325838D02*
G01X23103062Y-4405848D01*
G01X23103062Y-4348698D02*
G01X23120334Y-4331426D01*
G01X23131764Y-4325838D01*
G01X23148782Y-4325838D01*
G01X23160212Y-4331426D01*
G01X23166054Y-4348698D01*
G01X23166054Y-4405848D01*
G01X23282386Y-4285706D02*
G01X23282386Y-4405848D01*
G01X23282386Y-4342856D02*
G01X23270956Y-4331426D01*
G01X23259526Y-4325838D01*
G01X23242508Y-4325838D01*
G01X23231078Y-4331426D01*
G01X23219648Y-4342856D01*
G01X23213806Y-4360128D01*
G01X23213806Y-4371558D01*
G01X23219648Y-4388576D01*
G01X23231078Y-4400006D01*
G01X23242508Y-4405848D01*
G01X23259526Y-4405848D01*
G01X23270956Y-4400006D01*
G01X23282386Y-4388576D01*
G01X24701883Y-4285706D02*
G01X24701883Y-4405848D01*
G01X24661751Y-4285706D02*
G01X24741761Y-4285706D01*
G01X24818215Y-4325838D02*
G01X24806785Y-4331426D01*
G01X24795355Y-4342856D01*
G01X24789513Y-4360128D01*
G01X24789513Y-4371558D01*
G01X24795355Y-4388576D01*
G01X24806785Y-4400006D01*
G01X24818215Y-4405848D01*
G01X24835233Y-4405848D01*
G01X24846663Y-4400006D01*
G01X24858093Y-4388576D01*
G01X24863935Y-4371558D01*
G01X24863935Y-4360128D01*
G01X24858093Y-4342856D01*
G01X24846663Y-4331426D01*
G01X24835233Y-4325838D01*
G01X24818215Y-4325838D01*
G01X24911687Y-4325838D02*
G01X24911687Y-4445726D01*
G01X24911687Y-4342856D02*
G01X24923117Y-4331426D01*
G01X24934547Y-4325838D01*
G01X24951819Y-4325838D01*
G01X24963249Y-4331426D01*
G01X24974679Y-4342856D01*
G01X24980267Y-4360128D01*
G01X24980267Y-4371558D01*
G01X24974679Y-4388576D01*
G01X24963249Y-4400006D01*
G01X24951819Y-4405848D01*
G01X24934547Y-4405848D01*
G01X24923117Y-4400006D01*
G01X24911687Y-4388576D01*
G01X25156035Y-4285706D02*
G01X25156035Y-4405848D01*
G01X25156035Y-4405848D02*
G01X25224615Y-4405848D01*
G01X25340947Y-4325838D02*
G01X25340947Y-4405848D01*
G01X25340947Y-4342856D02*
G01X25329517Y-4331426D01*
G01X25318087Y-4325838D01*
G01X25301069Y-4325838D01*
G01X25289639Y-4331426D01*
G01X25278209Y-4342856D01*
G01X25272367Y-4360128D01*
G01X25272367Y-4371558D01*
G01X25278209Y-4388576D01*
G01X25289639Y-4400006D01*
G01X25301069Y-4405848D01*
G01X25318087Y-4405848D01*
G01X25329517Y-4400006D01*
G01X25340947Y-4388576D01*
G01X25394541Y-4325838D02*
G01X25428831Y-4405848D01*
G01X25463121Y-4325838D02*
G01X25428831Y-4405848D01*
G01X25417401Y-4428708D01*
G01X25405971Y-4440138D01*
G01X25394541Y-4445726D01*
G01X25388699Y-4445726D01*
G01X25510873Y-4360128D02*
G01X25579453Y-4360128D01*
G01X25579453Y-4348698D01*
G01X25573865Y-4337268D01*
G01X25568023Y-4331426D01*
G01X25556593Y-4325838D01*
G01X25539575Y-4325838D01*
G01X25528145Y-4331426D01*
G01X25516715Y-4342856D01*
G01X25510873Y-4360128D01*
G01X25510873Y-4371558D01*
G01X25516715Y-4388576D01*
G01X25528145Y-4400006D01*
G01X25539575Y-4405848D01*
G01X25556593Y-4405848D01*
G01X25568023Y-4400006D01*
G01X25579453Y-4388576D01*
G01X25627205Y-4325838D02*
G01X25627205Y-4405848D01*
G01X25627205Y-4360128D02*
G01X25633047Y-4342856D01*
G01X25644477Y-4331426D01*
G01X25655907Y-4325838D01*
G01X25672925Y-4325838D01*
G01X25720677Y-4354286D02*
G01X25823547Y-4354286D01*
G01X25871299Y-4285706D02*
G01X25871299Y-4405848D01*
G01X25871299Y-4285706D02*
G01X25922861Y-4285706D01*
G01X25939879Y-4291548D01*
G01X25945721Y-4297136D01*
G01X25951309Y-4308566D01*
G01X25951309Y-4319996D01*
G01X25945721Y-4331426D01*
G01X25939879Y-4337268D01*
G01X25922861Y-4342856D01*
G01X25871299Y-4342856D02*
G01X25922861Y-4342856D01*
G01X25939879Y-4348698D01*
G01X25945721Y-4354286D01*
G01X25951309Y-4365716D01*
G01X25951309Y-4382988D01*
G01X25945721Y-4394418D01*
G01X25939879Y-4400006D01*
G01X25922861Y-4405848D01*
G01X25871299Y-4405848D01*
G01X26027763Y-4325838D02*
G01X26016333Y-4331426D01*
G01X26004903Y-4342856D01*
G01X25999061Y-4360128D01*
G01X25999061Y-4371558D01*
G01X26004903Y-4388576D01*
G01X26016333Y-4400006D01*
G01X26027763Y-4405848D01*
G01X26044781Y-4405848D01*
G01X26056211Y-4400006D01*
G01X26067641Y-4388576D01*
G01X26073483Y-4371558D01*
G01X26073483Y-4360128D01*
G01X26067641Y-4342856D01*
G01X26056211Y-4331426D01*
G01X26044781Y-4325838D01*
G01X26027763Y-4325838D01*
G01X26138507Y-4285706D02*
G01X26138507Y-4382988D01*
G01X26144095Y-4400006D01*
G01X26155525Y-4405848D01*
G01X26166955Y-4405848D01*
G01X26121235Y-4325838D02*
G01X26161367Y-4325838D01*
G01X26231979Y-4285706D02*
G01X26231979Y-4382988D01*
G01X26237567Y-4400006D01*
G01X26248997Y-4405848D01*
G01X26260427Y-4405848D01*
G01X26214707Y-4325838D02*
G01X26254839Y-4325838D01*
G01X26336881Y-4325838D02*
G01X26325451Y-4331426D01*
G01X26314021Y-4342856D01*
G01X26308179Y-4360128D01*
G01X26308179Y-4371558D01*
G01X26314021Y-4388576D01*
G01X26325451Y-4400006D01*
G01X26336881Y-4405848D01*
G01X26353899Y-4405848D01*
G01X26365329Y-4400006D01*
G01X26376759Y-4388576D01*
G01X26382601Y-4371558D01*
G01X26382601Y-4360128D01*
G01X26376759Y-4342856D01*
G01X26365329Y-4331426D01*
G01X26353899Y-4325838D01*
G01X26336881Y-4325838D01*
G01X26430353Y-4325838D02*
G01X26430353Y-4405848D01*
G01X26430353Y-4348698D02*
G01X26447625Y-4331426D01*
G01X26459055Y-4325838D01*
G01X26476073Y-4325838D01*
G01X26487503Y-4331426D01*
G01X26493345Y-4348698D01*
G01X26493345Y-4405848D01*
G01X26493345Y-4348698D02*
G01X26510363Y-4331426D01*
G01X26521793Y-4325838D01*
G01X26539065Y-4325838D01*
G01X26550495Y-4331426D01*
G01X26556083Y-4348698D01*
G01X26556083Y-4405848D01*
G01X26731851Y-4285706D02*
G01X26731851Y-4405848D01*
G01X26731851Y-4405848D02*
G01X26800431Y-4405848D01*
G01X26916763Y-4325838D02*
G01X26916763Y-4405848D01*
G01X26916763Y-4342856D02*
G01X26905333Y-4331426D01*
G01X26893903Y-4325838D01*
G01X26876885Y-4325838D01*
G01X26865455Y-4331426D01*
G01X26854025Y-4342856D01*
G01X26848183Y-4360128D01*
G01X26848183Y-4371558D01*
G01X26854025Y-4388576D01*
G01X26865455Y-4400006D01*
G01X26876885Y-4405848D01*
G01X26893903Y-4405848D01*
G01X26905333Y-4400006D01*
G01X26916763Y-4388576D01*
G01X26970357Y-4325838D02*
G01X27004647Y-4405848D01*
G01X27038937Y-4325838D02*
G01X27004647Y-4405848D01*
G01X26993217Y-4428708D01*
G01X26981787Y-4440138D01*
G01X26970357Y-4445726D01*
G01X26964515Y-4445726D01*
G01X27086689Y-4360128D02*
G01X27155269Y-4360128D01*
G01X27155269Y-4348698D01*
G01X27149681Y-4337268D01*
G01X27143839Y-4331426D01*
G01X27132409Y-4325838D01*
G01X27115391Y-4325838D01*
G01X27103961Y-4331426D01*
G01X27092531Y-4342856D01*
G01X27086689Y-4360128D01*
G01X27086689Y-4371558D01*
G01X27092531Y-4388576D01*
G01X27103961Y-4400006D01*
G01X27115391Y-4405848D01*
G01X27132409Y-4405848D01*
G01X27143839Y-4400006D01*
G01X27155269Y-4388576D01*
G01X27203021Y-4325838D02*
G01X27203021Y-4405848D01*
G01X27203021Y-4360128D02*
G01X27208863Y-4342856D01*
G01X27220293Y-4331426D01*
G01X27231723Y-4325838D01*
G01X27248741Y-4325838D01*
G01X12801874Y-4889137D02*
G01X12813304Y-4883549D01*
G01X12830576Y-4866277D01*
G01X12830576Y-4986419D01*
G01X12946908Y-4883549D02*
G01X12941320Y-4872119D01*
G01X12924048Y-4866277D01*
G01X12912618Y-4866277D01*
G01X12895600Y-4872119D01*
G01X12884170Y-4889137D01*
G01X12878328Y-4917839D01*
G01X12878328Y-4946287D01*
G01X12884170Y-4969147D01*
G01X12895600Y-4980577D01*
G01X12912618Y-4986419D01*
G01X12918460Y-4986419D01*
G01X12935478Y-4980577D01*
G01X12946908Y-4969147D01*
G01X12952750Y-4952129D01*
G01X12952750Y-4946287D01*
G01X12946908Y-4929269D01*
G01X12935478Y-4917839D01*
G01X12918460Y-4911997D01*
G01X12912618Y-4911997D01*
G01X12895600Y-4917839D01*
G01X12884170Y-4929269D01*
G01X12878328Y-4946287D01*
G01X14227467Y-4866277D02*
G01X14290459Y-4866277D01*
G01X14256169Y-4911997D01*
G01X14273187Y-4911997D01*
G01X14284617Y-4917839D01*
G01X14290459Y-4923427D01*
G01X14296047Y-4940699D01*
G01X14296047Y-4952129D01*
G01X14290459Y-4969147D01*
G01X14279029Y-4980577D01*
G01X14261757Y-4986419D01*
G01X14244739Y-4986419D01*
G01X14227467Y-4980577D01*
G01X14221879Y-4974989D01*
G01X14216037Y-4963559D01*
G01X14418221Y-4906409D02*
G01X14412379Y-4923427D01*
G01X14400949Y-4934857D01*
G01X14383931Y-4940699D01*
G01X14378089Y-4940699D01*
G01X14361071Y-4934857D01*
G01X14349641Y-4923427D01*
G01X14343799Y-4906409D01*
G01X14343799Y-4900567D01*
G01X14349641Y-4883549D01*
G01X14361071Y-4872119D01*
G01X14378089Y-4866277D01*
G01X14383931Y-4866277D01*
G01X14400949Y-4872119D01*
G01X14412379Y-4883549D01*
G01X14418221Y-4906409D01*
G01X14418221Y-4934857D01*
G01X14412379Y-4963559D01*
G01X14400949Y-4980577D01*
G01X14383931Y-4986419D01*
G01X14372501Y-4986419D01*
G01X14355229Y-4980577D01*
G01X14349641Y-4969147D01*
G01X14471815Y-4957717D02*
G01X14465973Y-4963559D01*
G01X14471815Y-4969147D01*
G01X14477403Y-4963559D01*
G01X14471815Y-4957717D01*
G01X14582305Y-4866277D02*
G01X14525155Y-4946287D01*
G01X14611007Y-4946287D01*
G01X14582305Y-4866277D02*
G01X14582305Y-4986419D01*
G01X14658759Y-4906409D02*
G01X14721751Y-4986419D01*
G01X14721751Y-4906409D02*
G01X14658759Y-4986419D01*
G01X14780933Y-4866277D02*
G01X14843925Y-4866277D01*
G01X14809635Y-4911997D01*
G01X14826653Y-4911997D01*
G01X14838083Y-4917839D01*
G01X14843925Y-4923427D01*
G01X14849513Y-4940699D01*
G01X14849513Y-4952129D01*
G01X14843925Y-4969147D01*
G01X14832495Y-4980577D01*
G01X14815223Y-4986419D01*
G01X14798205Y-4986419D01*
G01X14780933Y-4980577D01*
G01X14775345Y-4974989D01*
G01X14769503Y-4963559D01*
G01X14971687Y-4906409D02*
G01X14965845Y-4923427D01*
G01X14954415Y-4934857D01*
G01X14937397Y-4940699D01*
G01X14931555Y-4940699D01*
G01X14914537Y-4934857D01*
G01X14903107Y-4923427D01*
G01X14897265Y-4906409D01*
G01X14897265Y-4900567D01*
G01X14903107Y-4883549D01*
G01X14914537Y-4872119D01*
G01X14931555Y-4866277D01*
G01X14937397Y-4866277D01*
G01X14954415Y-4872119D01*
G01X14965845Y-4883549D01*
G01X14971687Y-4906409D01*
G01X14971687Y-4934857D01*
G01X14965845Y-4963559D01*
G01X14954415Y-4980577D01*
G01X14937397Y-4986419D01*
G01X14925967Y-4986419D01*
G01X14908695Y-4980577D01*
G01X14903107Y-4969147D01*
G01X15025281Y-4957717D02*
G01X15019439Y-4963559D01*
G01X15025281Y-4969147D01*
G01X15030869Y-4963559D01*
G01X15025281Y-4957717D01*
G01X15135771Y-4866277D02*
G01X15078621Y-4946287D01*
G01X15164473Y-4946287D01*
G01X15135771Y-4866277D02*
G01X15135771Y-4986419D01*
G01X15212225Y-4906409D02*
G01X15212225Y-4986419D01*
G01X15212225Y-4929269D02*
G01X15229497Y-4911997D01*
G01X15240927Y-4906409D01*
G01X15257945Y-4906409D01*
G01X15269375Y-4911997D01*
G01X15275217Y-4929269D01*
G01X15275217Y-4986419D01*
G01X15275217Y-4929269D02*
G01X15292235Y-4911997D01*
G01X15303665Y-4906409D01*
G01X15320937Y-4906409D01*
G01X15332367Y-4911997D01*
G01X15337955Y-4929269D01*
G01X15337955Y-4986419D01*
G01X15385707Y-4866277D02*
G01X15391549Y-4872119D01*
G01X15397137Y-4866277D01*
G01X15391549Y-4860689D01*
G01X15385707Y-4866277D01*
G01X15391549Y-4906409D02*
G01X15391549Y-4986419D01*
G01X15444889Y-4866277D02*
G01X15444889Y-4986419D01*
G01X15532773Y-4843417D02*
G01X15521343Y-4854847D01*
G01X15509913Y-4872119D01*
G01X15498483Y-4894979D01*
G01X15492641Y-4923427D01*
G01X15492641Y-4946287D01*
G01X15498483Y-4974989D01*
G01X15509913Y-4997849D01*
G01X15521343Y-5014867D01*
G01X15532773Y-5026297D01*
G01X15580525Y-4889137D02*
G01X15591955Y-4883549D01*
G01X15609227Y-4866277D01*
G01X15609227Y-4986419D01*
G01X15662821Y-4957717D02*
G01X15656979Y-4963559D01*
G01X15662821Y-4969147D01*
G01X15668409Y-4963559D01*
G01X15662821Y-4957717D01*
G01X15750451Y-4866277D02*
G01X15733433Y-4872119D01*
G01X15722003Y-4889137D01*
G01X15716161Y-4917839D01*
G01X15716161Y-4934857D01*
G01X15722003Y-4963559D01*
G01X15733433Y-4980577D01*
G01X15750451Y-4986419D01*
G01X15761881Y-4986419D01*
G01X15779153Y-4980577D01*
G01X15790583Y-4963559D01*
G01X15796171Y-4934857D01*
G01X15796171Y-4917839D01*
G01X15790583Y-4889137D01*
G01X15779153Y-4872119D01*
G01X15761881Y-4866277D01*
G01X15750451Y-4866277D01*
G01X15878213Y-4866277D02*
G01X15861195Y-4872119D01*
G01X15849765Y-4889137D01*
G01X15843923Y-4917839D01*
G01X15843923Y-4934857D01*
G01X15849765Y-4963559D01*
G01X15861195Y-4980577D01*
G01X15878213Y-4986419D01*
G01X15889643Y-4986419D01*
G01X15906915Y-4980577D01*
G01X15918345Y-4963559D01*
G01X15923933Y-4934857D01*
G01X15923933Y-4917839D01*
G01X15918345Y-4889137D01*
G01X15906915Y-4872119D01*
G01X15889643Y-4866277D01*
G01X15878213Y-4866277D01*
G01X16005975Y-4866277D02*
G01X15988957Y-4872119D01*
G01X15977527Y-4889137D01*
G01X15971685Y-4917839D01*
G01X15971685Y-4934857D01*
G01X15977527Y-4963559D01*
G01X15988957Y-4980577D01*
G01X16005975Y-4986419D01*
G01X16017405Y-4986419D01*
G01X16034677Y-4980577D01*
G01X16046107Y-4963559D01*
G01X16051695Y-4934857D01*
G01X16051695Y-4917839D01*
G01X16046107Y-4889137D01*
G01X16034677Y-4872119D01*
G01X16017405Y-4866277D01*
G01X16005975Y-4866277D01*
G01X16099447Y-4906409D02*
G01X16162439Y-4986419D01*
G01X16162439Y-4906409D02*
G01X16099447Y-4986419D01*
G01X16210191Y-4889137D02*
G01X16221621Y-4883549D01*
G01X16238893Y-4866277D01*
G01X16238893Y-4986419D01*
G01X16292487Y-4957717D02*
G01X16286645Y-4963559D01*
G01X16292487Y-4969147D01*
G01X16298075Y-4963559D01*
G01X16292487Y-4957717D01*
G01X16380117Y-4866277D02*
G01X16363099Y-4872119D01*
G01X16351669Y-4889137D01*
G01X16345827Y-4917839D01*
G01X16345827Y-4934857D01*
G01X16351669Y-4963559D01*
G01X16363099Y-4980577D01*
G01X16380117Y-4986419D01*
G01X16391547Y-4986419D01*
G01X16408819Y-4980577D01*
G01X16420249Y-4963559D01*
G01X16425837Y-4934857D01*
G01X16425837Y-4917839D01*
G01X16420249Y-4889137D01*
G01X16408819Y-4872119D01*
G01X16391547Y-4866277D01*
G01X16380117Y-4866277D01*
G01X16507879Y-4866277D02*
G01X16490861Y-4872119D01*
G01X16479431Y-4889137D01*
G01X16473589Y-4917839D01*
G01X16473589Y-4934857D01*
G01X16479431Y-4963559D01*
G01X16490861Y-4980577D01*
G01X16507879Y-4986419D01*
G01X16519309Y-4986419D01*
G01X16536581Y-4980577D01*
G01X16548011Y-4963559D01*
G01X16553599Y-4934857D01*
G01X16553599Y-4917839D01*
G01X16548011Y-4889137D01*
G01X16536581Y-4872119D01*
G01X16519309Y-4866277D01*
G01X16507879Y-4866277D01*
G01X16635641Y-4866277D02*
G01X16618623Y-4872119D01*
G01X16607193Y-4889137D01*
G01X16601351Y-4917839D01*
G01X16601351Y-4934857D01*
G01X16607193Y-4963559D01*
G01X16618623Y-4980577D01*
G01X16635641Y-4986419D01*
G01X16647071Y-4986419D01*
G01X16664343Y-4980577D01*
G01X16675773Y-4963559D01*
G01X16681361Y-4934857D01*
G01X16681361Y-4917839D01*
G01X16675773Y-4889137D01*
G01X16664343Y-4872119D01*
G01X16647071Y-4866277D01*
G01X16635641Y-4866277D01*
G01X16729113Y-4906409D02*
G01X16729113Y-4986419D01*
G01X16729113Y-4929269D02*
G01X16746385Y-4911997D01*
G01X16757815Y-4906409D01*
G01X16774833Y-4906409D01*
G01X16786263Y-4911997D01*
G01X16792105Y-4929269D01*
G01X16792105Y-4986419D01*
G01X16792105Y-4929269D02*
G01X16809123Y-4911997D01*
G01X16820553Y-4906409D01*
G01X16837825Y-4906409D01*
G01X16849255Y-4911997D01*
G01X16854843Y-4929269D01*
G01X16854843Y-4986419D01*
G01X16902595Y-4906409D02*
G01X16902595Y-4986419D01*
G01X16902595Y-4929269D02*
G01X16919867Y-4911997D01*
G01X16931297Y-4906409D01*
G01X16948315Y-4906409D01*
G01X16959745Y-4911997D01*
G01X16965587Y-4929269D01*
G01X16965587Y-4986419D01*
G01X16965587Y-4929269D02*
G01X16982605Y-4911997D01*
G01X16994035Y-4906409D01*
G01X17011307Y-4906409D01*
G01X17022737Y-4911997D01*
G01X17028325Y-4929269D01*
G01X17028325Y-4986419D01*
G01X17076077Y-4843417D02*
G01X17087507Y-4854847D01*
G01X17098937Y-4872119D01*
G01X17110367Y-4894979D01*
G01X17116209Y-4923427D01*
G01X17116209Y-4946287D01*
G01X17110367Y-4974989D01*
G01X17098937Y-4997849D01*
G01X17087507Y-5014867D01*
G01X17076077Y-5026297D01*
G01X18180614Y-4866277D02*
G01X18180614Y-4986419D01*
G01X18180614Y-4866277D02*
G01X18232176Y-4866277D01*
G01X18249194Y-4872119D01*
G01X18255036Y-4877707D01*
G01X18260624Y-4889137D01*
G01X18260624Y-4906409D01*
G01X18255036Y-4917839D01*
G01X18249194Y-4923427D01*
G01X18232176Y-4929269D01*
G01X18180614Y-4929269D01*
G01X18348508Y-4866277D02*
G01X18348508Y-4986419D01*
G01X18308376Y-4866277D02*
G01X18388386Y-4866277D01*
G01X18436138Y-4866277D02*
G01X18436138Y-4986419D01*
G01X18516148Y-4866277D02*
G01X18516148Y-4986419D01*
G01X18436138Y-4923427D02*
G01X18516148Y-4923427D01*
G01X19642022Y-4866277D02*
G01X19642022Y-4986419D01*
G01X19642022Y-4866277D02*
G01X19693584Y-4866277D01*
G01X19710602Y-4872119D01*
G01X19716444Y-4877707D01*
G01X19722032Y-4889137D01*
G01X19722032Y-4900567D01*
G01X19716444Y-4911997D01*
G01X19710602Y-4917839D01*
G01X19693584Y-4923427D01*
G01X19642022Y-4923427D01*
G01X19682154Y-4923427D02*
G01X19722032Y-4986419D01*
G01X19798486Y-4906409D02*
G01X19787056Y-4911997D01*
G01X19775626Y-4923427D01*
G01X19769784Y-4940699D01*
G01X19769784Y-4952129D01*
G01X19775626Y-4969147D01*
G01X19787056Y-4980577D01*
G01X19798486Y-4986419D01*
G01X19815504Y-4986419D01*
G01X19826934Y-4980577D01*
G01X19838364Y-4969147D01*
G01X19844206Y-4952129D01*
G01X19844206Y-4940699D01*
G01X19838364Y-4923427D01*
G01X19826934Y-4911997D01*
G01X19815504Y-4906409D01*
G01X19798486Y-4906409D01*
G01X19891958Y-4906409D02*
G01X19891958Y-4963559D01*
G01X19897800Y-4980577D01*
G01X19909230Y-4986419D01*
G01X19926248Y-4986419D01*
G01X19937678Y-4980577D01*
G01X19954950Y-4963559D01*
G01X19954950Y-4906409D02*
G01X19954950Y-4986419D01*
G01X20002702Y-4906409D02*
G01X20002702Y-4986419D01*
G01X20002702Y-4929269D02*
G01X20019974Y-4911997D01*
G01X20031404Y-4906409D01*
G01X20048422Y-4906409D01*
G01X20059852Y-4911997D01*
G01X20065694Y-4929269D01*
G01X20065694Y-4986419D01*
G01X20182026Y-4866277D02*
G01X20182026Y-4986419D01*
G01X20182026Y-4923427D02*
G01X20170596Y-4911997D01*
G01X20159166Y-4906409D01*
G01X20142148Y-4906409D01*
G01X20130718Y-4911997D01*
G01X20119288Y-4923427D01*
G01X20113446Y-4940699D01*
G01X20113446Y-4952129D01*
G01X20119288Y-4969147D01*
G01X20130718Y-4980577D01*
G01X20142148Y-4986419D01*
G01X20159166Y-4986419D01*
G01X20170596Y-4980577D01*
G01X20182026Y-4969147D01*
G01X21073203Y-4866277D02*
G01X21073203Y-4986419D01*
G01X21073203Y-4866277D02*
G01X21124765Y-4866277D01*
G01X21141783Y-4872119D01*
G01X21147625Y-4877707D01*
G01X21153213Y-4889137D01*
G01X21153213Y-4906409D01*
G01X21147625Y-4917839D01*
G01X21141783Y-4923427D01*
G01X21124765Y-4929269D01*
G01X21073203Y-4929269D01*
G01X21269545Y-4906409D02*
G01X21269545Y-4986419D01*
G01X21269545Y-4923427D02*
G01X21258115Y-4911997D01*
G01X21246685Y-4906409D01*
G01X21229667Y-4906409D01*
G01X21218237Y-4911997D01*
G01X21206807Y-4923427D01*
G01X21200965Y-4940699D01*
G01X21200965Y-4952129D01*
G01X21206807Y-4969147D01*
G01X21218237Y-4980577D01*
G01X21229667Y-4986419D01*
G01X21246685Y-4986419D01*
G01X21258115Y-4980577D01*
G01X21269545Y-4969147D01*
G01X21385877Y-4866277D02*
G01X21385877Y-4986419D01*
G01X21385877Y-4923427D02*
G01X21374447Y-4911997D01*
G01X21363017Y-4906409D01*
G01X21345999Y-4906409D01*
G01X21334569Y-4911997D01*
G01X21323139Y-4923427D01*
G01X21317297Y-4940699D01*
G01X21317297Y-4952129D01*
G01X21323139Y-4969147D01*
G01X21334569Y-4980577D01*
G01X21345999Y-4986419D01*
G01X21363017Y-4986419D01*
G01X21374447Y-4980577D01*
G01X21385877Y-4969147D01*
G01X22782514Y-4843417D02*
G01X22771084Y-4854847D01*
G01X22759654Y-4872119D01*
G01X22748224Y-4894979D01*
G01X22742382Y-4923427D01*
G01X22742382Y-4946287D01*
G01X22748224Y-4974989D01*
G01X22759654Y-4997849D01*
G01X22771084Y-5014867D01*
G01X22782514Y-5026297D01*
G01X22830266Y-4866277D02*
G01X22830266Y-4986419D01*
G01X22830266Y-4866277D02*
G01X22875986Y-4986419D01*
G01X22921706Y-4866277D02*
G01X22875986Y-4986419D01*
G01X22921706Y-4866277D02*
G01X22921706Y-4986419D01*
G01X22969458Y-4866277D02*
G01X22975300Y-4872119D01*
G01X22980888Y-4866277D01*
G01X22975300Y-4860689D01*
G01X22969458Y-4866277D01*
G01X22975300Y-4906409D02*
G01X22975300Y-4986419D01*
G01X23028640Y-4906409D02*
G01X23091632Y-4986419D01*
G01X23091632Y-4906409D02*
G01X23028640Y-4986419D01*
G01X23139384Y-4940699D02*
G01X23207964Y-4940699D01*
G01X23207964Y-4929269D01*
G01X23202376Y-4917839D01*
G01X23196534Y-4911997D01*
G01X23185104Y-4906409D01*
G01X23168086Y-4906409D01*
G01X23156656Y-4911997D01*
G01X23145226Y-4923427D01*
G01X23139384Y-4940699D01*
G01X23139384Y-4952129D01*
G01X23145226Y-4969147D01*
G01X23156656Y-4980577D01*
G01X23168086Y-4986419D01*
G01X23185104Y-4986419D01*
G01X23196534Y-4980577D01*
G01X23207964Y-4969147D01*
G01X23324296Y-4866277D02*
G01X23324296Y-4986419D01*
G01X23324296Y-4923427D02*
G01X23312866Y-4911997D01*
G01X23301436Y-4906409D01*
G01X23284418Y-4906409D01*
G01X23272988Y-4911997D01*
G01X23261558Y-4923427D01*
G01X23255716Y-4940699D01*
G01X23255716Y-4952129D01*
G01X23261558Y-4969147D01*
G01X23272988Y-4980577D01*
G01X23284418Y-4986419D01*
G01X23301436Y-4986419D01*
G01X23312866Y-4980577D01*
G01X23324296Y-4969147D01*
G01X23372048Y-4843417D02*
G01X23383478Y-4854847D01*
G01X23394908Y-4872119D01*
G01X23406338Y-4894979D01*
G01X23412180Y-4923427D01*
G01X23412180Y-4946287D01*
G01X23406338Y-4974989D01*
G01X23394908Y-4997849D01*
G01X23383478Y-5014867D01*
G01X23372048Y-5026297D01*
G01X24701883Y-4866277D02*
G01X24701883Y-4986419D01*
G01X24661751Y-4866277D02*
G01X24741761Y-4866277D01*
G01X24818215Y-4906409D02*
G01X24806785Y-4911997D01*
G01X24795355Y-4923427D01*
G01X24789513Y-4940699D01*
G01X24789513Y-4952129D01*
G01X24795355Y-4969147D01*
G01X24806785Y-4980577D01*
G01X24818215Y-4986419D01*
G01X24835233Y-4986419D01*
G01X24846663Y-4980577D01*
G01X24858093Y-4969147D01*
G01X24863935Y-4952129D01*
G01X24863935Y-4940699D01*
G01X24858093Y-4923427D01*
G01X24846663Y-4911997D01*
G01X24835233Y-4906409D01*
G01X24818215Y-4906409D01*
G01X24911687Y-4906409D02*
G01X24911687Y-5026297D01*
G01X24911687Y-4923427D02*
G01X24923117Y-4911997D01*
G01X24934547Y-4906409D01*
G01X24951819Y-4906409D01*
G01X24963249Y-4911997D01*
G01X24974679Y-4923427D01*
G01X24980267Y-4940699D01*
G01X24980267Y-4952129D01*
G01X24974679Y-4969147D01*
G01X24963249Y-4980577D01*
G01X24951819Y-4986419D01*
G01X24934547Y-4986419D01*
G01X24923117Y-4980577D01*
G01X24911687Y-4969147D01*
G01X25156035Y-4866277D02*
G01X25156035Y-4986419D01*
G01X25156035Y-4986419D02*
G01X25224615Y-4986419D01*
G01X25340947Y-4906409D02*
G01X25340947Y-4986419D01*
G01X25340947Y-4923427D02*
G01X25329517Y-4911997D01*
G01X25318087Y-4906409D01*
G01X25301069Y-4906409D01*
G01X25289639Y-4911997D01*
G01X25278209Y-4923427D01*
G01X25272367Y-4940699D01*
G01X25272367Y-4952129D01*
G01X25278209Y-4969147D01*
G01X25289639Y-4980577D01*
G01X25301069Y-4986419D01*
G01X25318087Y-4986419D01*
G01X25329517Y-4980577D01*
G01X25340947Y-4969147D01*
G01X25394541Y-4906409D02*
G01X25428831Y-4986419D01*
G01X25463121Y-4906409D02*
G01X25428831Y-4986419D01*
G01X25417401Y-5009279D01*
G01X25405971Y-5020709D01*
G01X25394541Y-5026297D01*
G01X25388699Y-5026297D01*
G01X25510873Y-4940699D02*
G01X25579453Y-4940699D01*
G01X25579453Y-4929269D01*
G01X25573865Y-4917839D01*
G01X25568023Y-4911997D01*
G01X25556593Y-4906409D01*
G01X25539575Y-4906409D01*
G01X25528145Y-4911997D01*
G01X25516715Y-4923427D01*
G01X25510873Y-4940699D01*
G01X25510873Y-4952129D01*
G01X25516715Y-4969147D01*
G01X25528145Y-4980577D01*
G01X25539575Y-4986419D01*
G01X25556593Y-4986419D01*
G01X25568023Y-4980577D01*
G01X25579453Y-4969147D01*
G01X25627205Y-4906409D02*
G01X25627205Y-4986419D01*
G01X25627205Y-4940699D02*
G01X25633047Y-4923427D01*
G01X25644477Y-4911997D01*
G01X25655907Y-4906409D01*
G01X25672925Y-4906409D01*
G01X25720677Y-4934857D02*
G01X25823547Y-4934857D01*
G01X25871299Y-4866277D02*
G01X25871299Y-4986419D01*
G01X25871299Y-4866277D02*
G01X25922861Y-4866277D01*
G01X25939879Y-4872119D01*
G01X25945721Y-4877707D01*
G01X25951309Y-4889137D01*
G01X25951309Y-4900567D01*
G01X25945721Y-4911997D01*
G01X25939879Y-4917839D01*
G01X25922861Y-4923427D01*
G01X25871299Y-4923427D02*
G01X25922861Y-4923427D01*
G01X25939879Y-4929269D01*
G01X25945721Y-4934857D01*
G01X25951309Y-4946287D01*
G01X25951309Y-4963559D01*
G01X25945721Y-4974989D01*
G01X25939879Y-4980577D01*
G01X25922861Y-4986419D01*
G01X25871299Y-4986419D01*
G01X26027763Y-4906409D02*
G01X26016333Y-4911997D01*
G01X26004903Y-4923427D01*
G01X25999061Y-4940699D01*
G01X25999061Y-4952129D01*
G01X26004903Y-4969147D01*
G01X26016333Y-4980577D01*
G01X26027763Y-4986419D01*
G01X26044781Y-4986419D01*
G01X26056211Y-4980577D01*
G01X26067641Y-4969147D01*
G01X26073483Y-4952129D01*
G01X26073483Y-4940699D01*
G01X26067641Y-4923427D01*
G01X26056211Y-4911997D01*
G01X26044781Y-4906409D01*
G01X26027763Y-4906409D01*
G01X26138507Y-4866277D02*
G01X26138507Y-4963559D01*
G01X26144095Y-4980577D01*
G01X26155525Y-4986419D01*
G01X26166955Y-4986419D01*
G01X26121235Y-4906409D02*
G01X26161367Y-4906409D01*
G01X26231979Y-4866277D02*
G01X26231979Y-4963559D01*
G01X26237567Y-4980577D01*
G01X26248997Y-4986419D01*
G01X26260427Y-4986419D01*
G01X26214707Y-4906409D02*
G01X26254839Y-4906409D01*
G01X26336881Y-4906409D02*
G01X26325451Y-4911997D01*
G01X26314021Y-4923427D01*
G01X26308179Y-4940699D01*
G01X26308179Y-4952129D01*
G01X26314021Y-4969147D01*
G01X26325451Y-4980577D01*
G01X26336881Y-4986419D01*
G01X26353899Y-4986419D01*
G01X26365329Y-4980577D01*
G01X26376759Y-4969147D01*
G01X26382601Y-4952129D01*
G01X26382601Y-4940699D01*
G01X26376759Y-4923427D01*
G01X26365329Y-4911997D01*
G01X26353899Y-4906409D01*
G01X26336881Y-4906409D01*
G01X26430353Y-4906409D02*
G01X26430353Y-4986419D01*
G01X26430353Y-4929269D02*
G01X26447625Y-4911997D01*
G01X26459055Y-4906409D01*
G01X26476073Y-4906409D01*
G01X26487503Y-4911997D01*
G01X26493345Y-4929269D01*
G01X26493345Y-4986419D01*
G01X26493345Y-4929269D02*
G01X26510363Y-4911997D01*
G01X26521793Y-4906409D01*
G01X26539065Y-4906409D01*
G01X26550495Y-4911997D01*
G01X26556083Y-4929269D01*
G01X26556083Y-4986419D01*
G01X26731851Y-4866277D02*
G01X26731851Y-4986419D01*
G01X26731851Y-4986419D02*
G01X26800431Y-4986419D01*
G01X26916763Y-4906409D02*
G01X26916763Y-4986419D01*
G01X26916763Y-4923427D02*
G01X26905333Y-4911997D01*
G01X26893903Y-4906409D01*
G01X26876885Y-4906409D01*
G01X26865455Y-4911997D01*
G01X26854025Y-4923427D01*
G01X26848183Y-4940699D01*
G01X26848183Y-4952129D01*
G01X26854025Y-4969147D01*
G01X26865455Y-4980577D01*
G01X26876885Y-4986419D01*
G01X26893903Y-4986419D01*
G01X26905333Y-4980577D01*
G01X26916763Y-4969147D01*
G01X26970357Y-4906409D02*
G01X27004647Y-4986419D01*
G01X27038937Y-4906409D02*
G01X27004647Y-4986419D01*
G01X26993217Y-5009279D01*
G01X26981787Y-5020709D01*
G01X26970357Y-5026297D01*
G01X26964515Y-5026297D01*
G01X27086689Y-4940699D02*
G01X27155269Y-4940699D01*
G01X27155269Y-4929269D01*
G01X27149681Y-4917839D01*
G01X27143839Y-4911997D01*
G01X27132409Y-4906409D01*
G01X27115391Y-4906409D01*
G01X27103961Y-4911997D01*
G01X27092531Y-4923427D01*
G01X27086689Y-4940699D01*
G01X27086689Y-4952129D01*
G01X27092531Y-4969147D01*
G01X27103961Y-4980577D01*
G01X27115391Y-4986419D01*
G01X27132409Y-4986419D01*
G01X27143839Y-4980577D01*
G01X27155269Y-4969147D01*
G01X27203021Y-4906409D02*
G01X27203021Y-4986419D01*
G01X27203021Y-4940699D02*
G01X27208863Y-4923427D01*
G01X27220293Y-4911997D01*
G01X27231723Y-4906409D01*
G01X27248741Y-4906409D01*
G01X12859024Y-5446849D02*
G01X12801874Y-5526859D01*
G01X12887726Y-5526859D01*
G01X12859024Y-5446849D02*
G01X12859024Y-5566991D01*
G01X12969768Y-5446849D02*
G01X12952750Y-5452691D01*
G01X12941320Y-5469709D01*
G01X12935478Y-5498411D01*
G01X12935478Y-5515429D01*
G01X12941320Y-5544131D01*
G01X12952750Y-5561149D01*
G01X12969768Y-5566991D01*
G01X12981198Y-5566991D01*
G01X12998470Y-5561149D01*
G01X13009900Y-5544131D01*
G01X13015488Y-5515429D01*
G01X13015488Y-5498411D01*
G01X13009900Y-5469709D01*
G01X12998470Y-5452691D01*
G01X12981198Y-5446849D01*
G01X12969768Y-5446849D01*
G01X14216037Y-5469709D02*
G01X14227467Y-5464121D01*
G01X14244739Y-5446849D01*
G01X14244739Y-5566991D01*
G01X14298333Y-5475551D02*
G01X14298333Y-5469709D01*
G01X14303921Y-5458279D01*
G01X14309763Y-5452691D01*
G01X14321193Y-5446849D01*
G01X14344053Y-5446849D01*
G01X14355483Y-5452691D01*
G01X14361071Y-5458279D01*
G01X14366913Y-5469709D01*
G01X14366913Y-5481139D01*
G01X14361071Y-5492569D01*
G01X14349641Y-5509841D01*
G01X14292491Y-5566991D01*
G01X14372501Y-5566991D01*
G01X14426095Y-5538289D02*
G01X14420253Y-5544131D01*
G01X14426095Y-5549719D01*
G01X14431683Y-5544131D01*
G01X14426095Y-5538289D01*
G01X14513725Y-5446849D02*
G01X14496707Y-5452691D01*
G01X14485277Y-5469709D01*
G01X14479435Y-5498411D01*
G01X14479435Y-5515429D01*
G01X14485277Y-5544131D01*
G01X14496707Y-5561149D01*
G01X14513725Y-5566991D01*
G01X14525155Y-5566991D01*
G01X14542427Y-5561149D01*
G01X14553857Y-5544131D01*
G01X14559445Y-5515429D01*
G01X14559445Y-5498411D01*
G01X14553857Y-5469709D01*
G01X14542427Y-5452691D01*
G01X14525155Y-5446849D01*
G01X14513725Y-5446849D01*
G01X14607197Y-5486981D02*
G01X14607197Y-5566991D01*
G01X14607197Y-5509841D02*
G01X14624469Y-5492569D01*
G01X14635899Y-5486981D01*
G01X14652917Y-5486981D01*
G01X14664347Y-5492569D01*
G01X14670189Y-5509841D01*
G01X14670189Y-5566991D01*
G01X14670189Y-5509841D02*
G01X14687207Y-5492569D01*
G01X14698637Y-5486981D01*
G01X14715909Y-5486981D01*
G01X14727339Y-5492569D01*
G01X14732927Y-5509841D01*
G01X14732927Y-5566991D01*
G01X14780679Y-5446849D02*
G01X14786521Y-5452691D01*
G01X14792109Y-5446849D01*
G01X14786521Y-5441261D01*
G01X14780679Y-5446849D01*
G01X14786521Y-5486981D02*
G01X14786521Y-5566991D01*
G01X14839861Y-5446849D02*
G01X14839861Y-5566991D01*
G01X14927745Y-5423989D02*
G01X14916315Y-5435419D01*
G01X14904885Y-5452691D01*
G01X14893455Y-5475551D01*
G01X14887613Y-5503999D01*
G01X14887613Y-5526859D01*
G01X14893455Y-5555561D01*
G01X14904885Y-5578421D01*
G01X14916315Y-5595439D01*
G01X14927745Y-5606869D01*
G01X15009787Y-5446849D02*
G01X14992769Y-5452691D01*
G01X14981339Y-5469709D01*
G01X14975497Y-5498411D01*
G01X14975497Y-5515429D01*
G01X14981339Y-5544131D01*
G01X14992769Y-5561149D01*
G01X15009787Y-5566991D01*
G01X15021217Y-5566991D01*
G01X15038489Y-5561149D01*
G01X15049919Y-5544131D01*
G01X15055507Y-5515429D01*
G01X15055507Y-5498411D01*
G01X15049919Y-5469709D01*
G01X15038489Y-5452691D01*
G01X15021217Y-5446849D01*
G01X15009787Y-5446849D01*
G01X15109101Y-5538289D02*
G01X15103259Y-5544131D01*
G01X15109101Y-5549719D01*
G01X15114689Y-5544131D01*
G01X15109101Y-5538289D01*
G01X15173871Y-5446849D02*
G01X15236863Y-5446849D01*
G01X15202573Y-5492569D01*
G01X15219591Y-5492569D01*
G01X15231021Y-5498411D01*
G01X15236863Y-5503999D01*
G01X15242451Y-5521271D01*
G01X15242451Y-5532701D01*
G01X15236863Y-5549719D01*
G01X15225433Y-5561149D01*
G01X15208161Y-5566991D01*
G01X15191143Y-5566991D01*
G01X15173871Y-5561149D01*
G01X15168283Y-5555561D01*
G01X15162441Y-5544131D01*
G01X15324493Y-5446849D02*
G01X15307475Y-5452691D01*
G01X15296045Y-5469709D01*
G01X15290203Y-5498411D01*
G01X15290203Y-5515429D01*
G01X15296045Y-5544131D01*
G01X15307475Y-5561149D01*
G01X15324493Y-5566991D01*
G01X15335923Y-5566991D01*
G01X15353195Y-5561149D01*
G01X15364625Y-5544131D01*
G01X15370213Y-5515429D01*
G01X15370213Y-5498411D01*
G01X15364625Y-5469709D01*
G01X15353195Y-5452691D01*
G01X15335923Y-5446849D01*
G01X15324493Y-5446849D01*
G01X15486545Y-5446849D02*
G01X15429395Y-5446849D01*
G01X15423807Y-5498411D01*
G01X15429395Y-5492569D01*
G01X15446667Y-5486981D01*
G01X15463685Y-5486981D01*
G01X15480957Y-5492569D01*
G01X15492387Y-5503999D01*
G01X15497975Y-5521271D01*
G01X15497975Y-5532701D01*
G01X15492387Y-5549719D01*
G01X15480957Y-5561149D01*
G01X15463685Y-5566991D01*
G01X15446667Y-5566991D01*
G01X15429395Y-5561149D01*
G01X15423807Y-5555561D01*
G01X15417965Y-5544131D01*
G01X15545727Y-5486981D02*
G01X15545727Y-5566991D01*
G01X15545727Y-5509841D02*
G01X15562999Y-5492569D01*
G01X15574429Y-5486981D01*
G01X15591447Y-5486981D01*
G01X15602877Y-5492569D01*
G01X15608719Y-5509841D01*
G01X15608719Y-5566991D01*
G01X15608719Y-5509841D02*
G01X15625737Y-5492569D01*
G01X15637167Y-5486981D01*
G01X15654439Y-5486981D01*
G01X15665869Y-5492569D01*
G01X15671457Y-5509841D01*
G01X15671457Y-5566991D01*
G01X15719209Y-5486981D02*
G01X15719209Y-5566991D01*
G01X15719209Y-5509841D02*
G01X15736481Y-5492569D01*
G01X15747911Y-5486981D01*
G01X15764929Y-5486981D01*
G01X15776359Y-5492569D01*
G01X15782201Y-5509841D01*
G01X15782201Y-5566991D01*
G01X15782201Y-5509841D02*
G01X15799219Y-5492569D01*
G01X15810649Y-5486981D01*
G01X15827921Y-5486981D01*
G01X15839351Y-5492569D01*
G01X15844939Y-5509841D01*
G01X15844939Y-5566991D01*
G01X15892691Y-5423989D02*
G01X15904121Y-5435419D01*
G01X15915551Y-5452691D01*
G01X15926981Y-5475551D01*
G01X15932823Y-5503999D01*
G01X15932823Y-5526859D01*
G01X15926981Y-5555561D01*
G01X15915551Y-5578421D01*
G01X15904121Y-5595439D01*
G01X15892691Y-5606869D01*
G01X18180614Y-5446849D02*
G01X18180614Y-5566991D01*
G01X18180614Y-5446849D02*
G01X18232176Y-5446849D01*
G01X18249194Y-5452691D01*
G01X18255036Y-5458279D01*
G01X18260624Y-5469709D01*
G01X18260624Y-5486981D01*
G01X18255036Y-5498411D01*
G01X18249194Y-5503999D01*
G01X18232176Y-5509841D01*
G01X18180614Y-5509841D01*
G01X18348508Y-5446849D02*
G01X18348508Y-5566991D01*
G01X18308376Y-5446849D02*
G01X18388386Y-5446849D01*
G01X18436138Y-5446849D02*
G01X18436138Y-5566991D01*
G01X18516148Y-5446849D02*
G01X18516148Y-5566991D01*
G01X18436138Y-5503999D02*
G01X18516148Y-5503999D01*
G01X19642022Y-5446849D02*
G01X19642022Y-5566991D01*
G01X19642022Y-5446849D02*
G01X19693584Y-5446849D01*
G01X19710602Y-5452691D01*
G01X19716444Y-5458279D01*
G01X19722032Y-5469709D01*
G01X19722032Y-5481139D01*
G01X19716444Y-5492569D01*
G01X19710602Y-5498411D01*
G01X19693584Y-5503999D01*
G01X19642022Y-5503999D01*
G01X19682154Y-5503999D02*
G01X19722032Y-5566991D01*
G01X19798486Y-5486981D02*
G01X19787056Y-5492569D01*
G01X19775626Y-5503999D01*
G01X19769784Y-5521271D01*
G01X19769784Y-5532701D01*
G01X19775626Y-5549719D01*
G01X19787056Y-5561149D01*
G01X19798486Y-5566991D01*
G01X19815504Y-5566991D01*
G01X19826934Y-5561149D01*
G01X19838364Y-5549719D01*
G01X19844206Y-5532701D01*
G01X19844206Y-5521271D01*
G01X19838364Y-5503999D01*
G01X19826934Y-5492569D01*
G01X19815504Y-5486981D01*
G01X19798486Y-5486981D01*
G01X19891958Y-5486981D02*
G01X19891958Y-5544131D01*
G01X19897800Y-5561149D01*
G01X19909230Y-5566991D01*
G01X19926248Y-5566991D01*
G01X19937678Y-5561149D01*
G01X19954950Y-5544131D01*
G01X19954950Y-5486981D02*
G01X19954950Y-5566991D01*
G01X20002702Y-5486981D02*
G01X20002702Y-5566991D01*
G01X20002702Y-5509841D02*
G01X20019974Y-5492569D01*
G01X20031404Y-5486981D01*
G01X20048422Y-5486981D01*
G01X20059852Y-5492569D01*
G01X20065694Y-5509841D01*
G01X20065694Y-5566991D01*
G01X20182026Y-5446849D02*
G01X20182026Y-5566991D01*
G01X20182026Y-5503999D02*
G01X20170596Y-5492569D01*
G01X20159166Y-5486981D01*
G01X20142148Y-5486981D01*
G01X20130718Y-5492569D01*
G01X20119288Y-5503999D01*
G01X20113446Y-5521271D01*
G01X20113446Y-5532701D01*
G01X20119288Y-5549719D01*
G01X20130718Y-5561149D01*
G01X20142148Y-5566991D01*
G01X20159166Y-5566991D01*
G01X20170596Y-5561149D01*
G01X20182026Y-5549719D01*
G01X21073203Y-5446849D02*
G01X21118923Y-5566991D01*
G01X21164643Y-5446849D02*
G01X21118923Y-5566991D01*
G01X21212395Y-5446849D02*
G01X21218237Y-5452691D01*
G01X21223825Y-5446849D01*
G01X21218237Y-5441261D01*
G01X21212395Y-5446849D01*
G01X21218237Y-5486981D02*
G01X21218237Y-5566991D01*
G01X21340157Y-5486981D02*
G01X21340157Y-5566991D01*
G01X21340157Y-5503999D02*
G01X21328727Y-5492569D01*
G01X21317297Y-5486981D01*
G01X21300279Y-5486981D01*
G01X21288849Y-5492569D01*
G01X21277419Y-5503999D01*
G01X21271577Y-5521271D01*
G01X21271577Y-5532701D01*
G01X21277419Y-5549719D01*
G01X21288849Y-5561149D01*
G01X21300279Y-5566991D01*
G01X21317297Y-5566991D01*
G01X21328727Y-5561149D01*
G01X21340157Y-5549719D01*
G01X24701883Y-5446849D02*
G01X24701883Y-5566991D01*
G01X24661751Y-5446849D02*
G01X24741761Y-5446849D01*
G01X24818215Y-5486981D02*
G01X24806785Y-5492569D01*
G01X24795355Y-5503999D01*
G01X24789513Y-5521271D01*
G01X24789513Y-5532701D01*
G01X24795355Y-5549719D01*
G01X24806785Y-5561149D01*
G01X24818215Y-5566991D01*
G01X24835233Y-5566991D01*
G01X24846663Y-5561149D01*
G01X24858093Y-5549719D01*
G01X24863935Y-5532701D01*
G01X24863935Y-5521271D01*
G01X24858093Y-5503999D01*
G01X24846663Y-5492569D01*
G01X24835233Y-5486981D01*
G01X24818215Y-5486981D01*
G01X24911687Y-5486981D02*
G01X24911687Y-5606869D01*
G01X24911687Y-5503999D02*
G01X24923117Y-5492569D01*
G01X24934547Y-5486981D01*
G01X24951819Y-5486981D01*
G01X24963249Y-5492569D01*
G01X24974679Y-5503999D01*
G01X24980267Y-5521271D01*
G01X24980267Y-5532701D01*
G01X24974679Y-5549719D01*
G01X24963249Y-5561149D01*
G01X24951819Y-5566991D01*
G01X24934547Y-5566991D01*
G01X24923117Y-5561149D01*
G01X24911687Y-5549719D01*
G01X25156035Y-5446849D02*
G01X25156035Y-5566991D01*
G01X25156035Y-5566991D02*
G01X25224615Y-5566991D01*
G01X25340947Y-5486981D02*
G01X25340947Y-5566991D01*
G01X25340947Y-5503999D02*
G01X25329517Y-5492569D01*
G01X25318087Y-5486981D01*
G01X25301069Y-5486981D01*
G01X25289639Y-5492569D01*
G01X25278209Y-5503999D01*
G01X25272367Y-5521271D01*
G01X25272367Y-5532701D01*
G01X25278209Y-5549719D01*
G01X25289639Y-5561149D01*
G01X25301069Y-5566991D01*
G01X25318087Y-5566991D01*
G01X25329517Y-5561149D01*
G01X25340947Y-5549719D01*
G01X25394541Y-5486981D02*
G01X25428831Y-5566991D01*
G01X25463121Y-5486981D02*
G01X25428831Y-5566991D01*
G01X25417401Y-5589851D01*
G01X25405971Y-5601281D01*
G01X25394541Y-5606869D01*
G01X25388699Y-5606869D01*
G01X25510873Y-5521271D02*
G01X25579453Y-5521271D01*
G01X25579453Y-5509841D01*
G01X25573865Y-5498411D01*
G01X25568023Y-5492569D01*
G01X25556593Y-5486981D01*
G01X25539575Y-5486981D01*
G01X25528145Y-5492569D01*
G01X25516715Y-5503999D01*
G01X25510873Y-5521271D01*
G01X25510873Y-5532701D01*
G01X25516715Y-5549719D01*
G01X25528145Y-5561149D01*
G01X25539575Y-5566991D01*
G01X25556593Y-5566991D01*
G01X25568023Y-5561149D01*
G01X25579453Y-5549719D01*
G01X25627205Y-5486981D02*
G01X25627205Y-5566991D01*
G01X25627205Y-5521271D02*
G01X25633047Y-5503999D01*
G01X25644477Y-5492569D01*
G01X25655907Y-5486981D01*
G01X25672925Y-5486981D01*
G01X25720677Y-5515429D02*
G01X25823547Y-5515429D01*
G01X25871299Y-5446849D02*
G01X25871299Y-5566991D01*
G01X25871299Y-5446849D02*
G01X25922861Y-5446849D01*
G01X25939879Y-5452691D01*
G01X25945721Y-5458279D01*
G01X25951309Y-5469709D01*
G01X25951309Y-5481139D01*
G01X25945721Y-5492569D01*
G01X25939879Y-5498411D01*
G01X25922861Y-5503999D01*
G01X25871299Y-5503999D02*
G01X25922861Y-5503999D01*
G01X25939879Y-5509841D01*
G01X25945721Y-5515429D01*
G01X25951309Y-5526859D01*
G01X25951309Y-5544131D01*
G01X25945721Y-5555561D01*
G01X25939879Y-5561149D01*
G01X25922861Y-5566991D01*
G01X25871299Y-5566991D01*
G01X26027763Y-5486981D02*
G01X26016333Y-5492569D01*
G01X26004903Y-5503999D01*
G01X25999061Y-5521271D01*
G01X25999061Y-5532701D01*
G01X26004903Y-5549719D01*
G01X26016333Y-5561149D01*
G01X26027763Y-5566991D01*
G01X26044781Y-5566991D01*
G01X26056211Y-5561149D01*
G01X26067641Y-5549719D01*
G01X26073483Y-5532701D01*
G01X26073483Y-5521271D01*
G01X26067641Y-5503999D01*
G01X26056211Y-5492569D01*
G01X26044781Y-5486981D01*
G01X26027763Y-5486981D01*
G01X26138507Y-5446849D02*
G01X26138507Y-5544131D01*
G01X26144095Y-5561149D01*
G01X26155525Y-5566991D01*
G01X26166955Y-5566991D01*
G01X26121235Y-5486981D02*
G01X26161367Y-5486981D01*
G01X26231979Y-5446849D02*
G01X26231979Y-5544131D01*
G01X26237567Y-5561149D01*
G01X26248997Y-5566991D01*
G01X26260427Y-5566991D01*
G01X26214707Y-5486981D02*
G01X26254839Y-5486981D01*
G01X26336881Y-5486981D02*
G01X26325451Y-5492569D01*
G01X26314021Y-5503999D01*
G01X26308179Y-5521271D01*
G01X26308179Y-5532701D01*
G01X26314021Y-5549719D01*
G01X26325451Y-5561149D01*
G01X26336881Y-5566991D01*
G01X26353899Y-5566991D01*
G01X26365329Y-5561149D01*
G01X26376759Y-5549719D01*
G01X26382601Y-5532701D01*
G01X26382601Y-5521271D01*
G01X26376759Y-5503999D01*
G01X26365329Y-5492569D01*
G01X26353899Y-5486981D01*
G01X26336881Y-5486981D01*
G01X26430353Y-5486981D02*
G01X26430353Y-5566991D01*
G01X26430353Y-5509841D02*
G01X26447625Y-5492569D01*
G01X26459055Y-5486981D01*
G01X26476073Y-5486981D01*
G01X26487503Y-5492569D01*
G01X26493345Y-5509841D01*
G01X26493345Y-5566991D01*
G01X26493345Y-5509841D02*
G01X26510363Y-5492569D01*
G01X26521793Y-5486981D01*
G01X26539065Y-5486981D01*
G01X26550495Y-5492569D01*
G01X26556083Y-5509841D01*
G01X26556083Y-5566991D01*
G01X26731851Y-5446849D02*
G01X26731851Y-5566991D01*
G01X26731851Y-5566991D02*
G01X26800431Y-5566991D01*
G01X26916763Y-5486981D02*
G01X26916763Y-5566991D01*
G01X26916763Y-5503999D02*
G01X26905333Y-5492569D01*
G01X26893903Y-5486981D01*
G01X26876885Y-5486981D01*
G01X26865455Y-5492569D01*
G01X26854025Y-5503999D01*
G01X26848183Y-5521271D01*
G01X26848183Y-5532701D01*
G01X26854025Y-5549719D01*
G01X26865455Y-5561149D01*
G01X26876885Y-5566991D01*
G01X26893903Y-5566991D01*
G01X26905333Y-5561149D01*
G01X26916763Y-5549719D01*
G01X26970357Y-5486981D02*
G01X27004647Y-5566991D01*
G01X27038937Y-5486981D02*
G01X27004647Y-5566991D01*
G01X26993217Y-5589851D01*
G01X26981787Y-5601281D01*
G01X26970357Y-5606869D01*
G01X26964515Y-5606869D01*
G01X27086689Y-5521271D02*
G01X27155269Y-5521271D01*
G01X27155269Y-5509841D01*
G01X27149681Y-5498411D01*
G01X27143839Y-5492569D01*
G01X27132409Y-5486981D01*
G01X27115391Y-5486981D01*
G01X27103961Y-5492569D01*
G01X27092531Y-5503999D01*
G01X27086689Y-5521271D01*
G01X27086689Y-5532701D01*
G01X27092531Y-5549719D01*
G01X27103961Y-5561149D01*
G01X27115391Y-5566991D01*
G01X27132409Y-5566991D01*
G01X27143839Y-5561149D01*
G01X27155269Y-5549719D01*
G01X27203021Y-5486981D02*
G01X27203021Y-5566991D01*
G01X27203021Y-5521271D02*
G01X27208863Y-5503999D01*
G01X27220293Y-5492569D01*
G01X27231723Y-5486981D01*
G01X27248741Y-5486981D01*

G04 Image Start*
G36*
G01X11505386Y-4789714D02*
G01X11670486Y-4954814D01*
G01X11505386Y-5119914D01*
G01X11340286Y-4954814D01*
G01X11376201Y-4954814D01*
G01X11505386Y-5083999D01*
G01X11634570Y-4954814D01*
G01X11505386Y-4825630D01*
G01X11505386Y-4825630D01*
G01X11376201Y-4954814D01*
G01X11340286Y-4954814D01*
G01X11505386Y-4789714D01*
G37*
G36*
G01X11637262Y-2724604D02*
G01X11531649Y-2713123D01*
G01X11488774Y-2810329D01*
G01X11445899Y-2713123D01*
G01X11340286Y-2724604D01*
G01X11403049Y-2638879D01*
G01X11363327Y-2584624D01*
G01X11394819Y-2584624D01*
G01X11434520Y-2638879D01*
G01X11394819Y-2693133D01*
G01X11461647Y-2685869D01*
G01X11461647Y-2685869D01*
G01X11488774Y-2747362D01*
G01X11515901Y-2685869D01*
G01X11582729Y-2693133D01*
G01X11543028Y-2638879D01*
G01X11582703Y-2584650D01*
G01X11515876Y-2591914D01*
G01X11488774Y-2530395D01*
G01X11461647Y-2591889D01*
G01X11394819Y-2584624D01*
G01X11363327Y-2584624D01*
G01X11340286Y-2553154D01*
G01X11445924Y-2564634D01*
G01X11488774Y-2467429D01*
G01X11531649Y-2564634D01*
G01X11637262Y-2553154D01*
G01X11574499Y-2638879D01*
G01X11637262Y-2724604D01*
G37*
G36*
G01X11508269Y-1610299D02*
G01X11500529Y-1610887D01*
G01X11492686Y-1611086D01*
G01X11484843Y-1610887D01*
G01X11477102Y-1610299D01*
G01X11469475Y-1609330D01*
G01X11461970Y-1607990D01*
G01X11447364Y-1604235D01*
G01X11433362Y-1599110D01*
G01X11420039Y-1592693D01*
G01X11407474Y-1585060D01*
G01X11395742Y-1576287D01*
G01X11384920Y-1566452D01*
G01X11375084Y-1555629D01*
G01X11366311Y-1543897D01*
G01X11358678Y-1531332D01*
G01X11352261Y-1518010D01*
G01X11347137Y-1504008D01*
G01X11343382Y-1489402D01*
G01X11342041Y-1481896D01*
G01X11341072Y-1474269D01*
G01X11340484Y-1466529D01*
G01X11340286Y-1458686D01*
G01X11365686Y-1458686D01*
G01X11366343Y-1471652D01*
G01X11368270Y-1484248D01*
G01X11371405Y-1496410D01*
G01X11375682Y-1508072D01*
G01X11381036Y-1519172D01*
G01X11387405Y-1529643D01*
G01X11394723Y-1539423D01*
G01X11402925Y-1548446D01*
G01X11411949Y-1556649D01*
G01X11421728Y-1563966D01*
G01X11432200Y-1570335D01*
G01X11443299Y-1575690D01*
G01X11454961Y-1579966D01*
G01X11467123Y-1583101D01*
G01X11467123Y-1583101D01*
G01X11479719Y-1585029D01*
G01X11492686Y-1585686D01*
G01X11505652Y-1585029D01*
G01X11518248Y-1583101D01*
G01X11530410Y-1579966D01*
G01X11542072Y-1575690D01*
G01X11553172Y-1570335D01*
G01X11563643Y-1563966D01*
G01X11573423Y-1556649D01*
G01X11582446Y-1548446D01*
G01X11590649Y-1539423D01*
G01X11597966Y-1529643D01*
G01X11604335Y-1519172D01*
G01X11609690Y-1508072D01*
G01X11613966Y-1496410D01*
G01X11617101Y-1484248D01*
G01X11619029Y-1471652D01*
G01X11619686Y-1458686D01*
G01X11619029Y-1445719D01*
G01X11617101Y-1433123D01*
G01X11613966Y-1420962D01*
G01X11609690Y-1409299D01*
G01X11604335Y-1398200D01*
G01X11597966Y-1387728D01*
G01X11590649Y-1377949D01*
G01X11582446Y-1368925D01*
G01X11573423Y-1360723D01*
G01X11563643Y-1353405D01*
G01X11553172Y-1347037D01*
G01X11542072Y-1341682D01*
G01X11530410Y-1337405D01*
G01X11518248Y-1334271D01*
G01X11505652Y-1332343D01*
G01X11492686Y-1331686D01*
G01X11479719Y-1332343D01*
G01X11467123Y-1334271D01*
G01X11454961Y-1337405D01*
G01X11443299Y-1341682D01*
G01X11432200Y-1347037D01*
G01X11421728Y-1353405D01*
G01X11411949Y-1360723D01*
G01X11402925Y-1368925D01*
G01X11394723Y-1377949D01*
G01X11387405Y-1387728D01*
G01X11381036Y-1398200D01*
G01X11375682Y-1409299D01*
G01X11371405Y-1420962D01*
G01X11368270Y-1433123D01*
G01X11366343Y-1445719D01*
G01X11365686Y-1458686D01*
G01X11340286Y-1458686D01*
G01X11340484Y-1450843D01*
G01X11341072Y-1443102D01*
G01X11342041Y-1435475D01*
G01X11343382Y-1427970D01*
G01X11347137Y-1413364D01*
G01X11352261Y-1399362D01*
G01X11358678Y-1386040D01*
G01X11366311Y-1373474D01*
G01X11375084Y-1361742D01*
G01X11384920Y-1350920D01*
G01X11395742Y-1341084D01*
G01X11407474Y-1332311D01*
G01X11420039Y-1324678D01*
G01X11433362Y-1318261D01*
G01X11447364Y-1313137D01*
G01X11461970Y-1309382D01*
G01X11469475Y-1308042D01*
G01X11477102Y-1307072D01*
G01X11484843Y-1306484D01*
G01X11492686Y-1306286D01*
G01X11500529Y-1306484D01*
G01X11508269Y-1307072D01*
G01X11515896Y-1308042D01*
G01X11523402Y-1309382D01*
G01X11538007Y-1313137D01*
G01X11552010Y-1318261D01*
G01X11565332Y-1324678D01*
G01X11577897Y-1332311D01*
G01X11589629Y-1341084D01*
G01X11600451Y-1350920D01*
G01X11610287Y-1361742D01*
G01X11619060Y-1373474D01*
G01X11626693Y-1386040D01*
G01X11633110Y-1399362D01*
G01X11638235Y-1413364D01*
G01X11641990Y-1427970D01*
G01X11643330Y-1435475D01*
G01X11644299Y-1443102D01*
G01X11644887Y-1450843D01*
G01X11645086Y-1458686D01*
G01X11644887Y-1466529D01*
G01X11644299Y-1474269D01*
G01X11643330Y-1481896D01*
G01X11641990Y-1489402D01*
G01X11638235Y-1504008D01*
G01X11633110Y-1518010D01*
G01X11626693Y-1531332D01*
G01X11619060Y-1543897D01*
G01X11610287Y-1555629D01*
G01X11600451Y-1566452D01*
G01X11589629Y-1576287D01*
G01X11577897Y-1585060D01*
G01X11565332Y-1592693D01*
G01X11552010Y-1599110D01*
G01X11538007Y-1604235D01*
G01X11523402Y-1607990D01*
G01X11515896Y-1609330D01*
G01X11508269Y-1610299D01*
G37*
G36*
G01X11645086Y-3850237D02*
G01X11561977Y-3850237D01*
G01X11561977Y-3933371D01*
G01X11423420Y-3933371D01*
G01X11423420Y-3850263D01*
G01X11340286Y-3850263D01*
G01X11340286Y-3737106D01*
G01X11365686Y-3737106D01*
G01X11365686Y-3824837D01*
G01X11448820Y-3824837D01*
G01X11448820Y-3907971D01*
G01X11448820Y-3907971D01*
G01X11536551Y-3907971D01*
G01X11536551Y-3824863D01*
G01X11619686Y-3824863D01*
G01X11619686Y-3737106D01*
G01X11536551Y-3737106D01*
G01X11536551Y-3653971D01*
G01X11448820Y-3653971D01*
G01X11448820Y-3737106D01*
G01X11365686Y-3737106D01*
G01X11340286Y-3737106D01*
G01X11340286Y-3711706D01*
G01X11423420Y-3711706D01*
G01X11423420Y-3628571D01*
G01X11561951Y-3628571D01*
G01X11561951Y-3711706D01*
G01X11645086Y-3711706D01*
G01X11645086Y-3850237D01*
G37*
G36*
G01X11645086Y-3048000D02*
G01X11575058Y-3200400D01*
G01X11645086Y-3352800D01*
G01X11492686Y-3282772D01*
G01X11340286Y-3352800D01*
G01X11364048Y-3301086D01*
G01X11392000Y-3301086D01*
G01X11482068Y-3259684D01*
G01X11492686Y-3254807D01*
G01X11503303Y-3259684D01*
G01X11593371Y-3301086D01*
G01X11551969Y-3211017D01*
G01X11547092Y-3200400D01*
G01X11551969Y-3189783D01*
G01X11593371Y-3099714D01*
G01X11503303Y-3141116D01*
G01X11492686Y-3145993D01*
G01X11482068Y-3141116D01*
G01X11392000Y-3099714D01*
G01X11433402Y-3189783D01*
G01X11438279Y-3200400D01*
G01X11438279Y-3200400D01*
G01X11433402Y-3211017D01*
G01X11392000Y-3301086D01*
G01X11364048Y-3301086D01*
G01X11410313Y-3200400D01*
G01X11340286Y-3048000D01*
G01X11492686Y-3118028D01*
G01X11645086Y-3048000D01*
G37*
G36*
G01X11340286Y-1886857D02*
G01X11645086Y-1886857D01*
G01X11492686Y-2150814D01*
G01X11354951Y-1912257D01*
G01X11384278Y-1912257D01*
G01X11492686Y-2100014D01*
G01X11601093Y-1912257D01*
G01X11601093Y-1912257D01*
G01X11384278Y-1912257D01*
G01X11354951Y-1912257D01*
G01X11340286Y-1886857D01*
G37*
G36*
G01X11619686Y-4488543D02*
G01X11518086Y-4488543D01*
G01X11479986Y-4412343D01*
G01X11441886Y-4488543D01*
G01X11340286Y-4488543D01*
G01X11340286Y-4463143D01*
G01X11365686Y-4463143D01*
G01X11426188Y-4463143D01*
G01X11457253Y-4400989D01*
G01X11479986Y-4355548D01*
G01X11502719Y-4400989D01*
G01X11533783Y-4463143D01*
G01X11594286Y-4463143D01*
G01X11594286Y-4402640D01*
G01X11532132Y-4371550D01*
G01X11486691Y-4348843D01*
G01X11532132Y-4326135D01*
G01X11594286Y-4295046D01*
G01X11594286Y-4234543D01*
G01X11533783Y-4234543D01*
G01X11502719Y-4296697D01*
G01X11479986Y-4342137D01*
G01X11457253Y-4296697D01*
G01X11426188Y-4234543D01*
G01X11365686Y-4234543D01*
G01X11365686Y-4295046D01*
G01X11427839Y-4326135D01*
G01X11473280Y-4348843D01*
G01X11427839Y-4371550D01*
G01X11365686Y-4402640D01*
G01X11365686Y-4463143D01*
G01X11365686Y-4463143D01*
G01X11340286Y-4463143D01*
G01X11340286Y-4386943D01*
G01X11416486Y-4348843D01*
G01X11340286Y-4310743D01*
G01X11340286Y-4209143D01*
G01X11441886Y-4209143D01*
G01X11479986Y-4285343D01*
G01X11518086Y-4209143D01*
G01X11619686Y-4209143D01*
G01X11619686Y-4310743D01*
G01X11543486Y-4348843D01*
G01X11619686Y-4386943D01*
G01X11619686Y-4488543D01*
G37*
G36*
G01X11340286Y-725714D02*
G01X11619686Y-725714D01*
G01X11619686Y-1005114D01*
G01X11340286Y-1005114D01*
G01X11340286Y-751114D01*
G01X11365686Y-751114D01*
G01X11365686Y-979714D01*
G01X11594286Y-979714D01*
G01X11594286Y-751114D01*
G01X11594286Y-751114D01*
G01X11365686Y-751114D01*
G01X11340286Y-751114D01*
G01X11340286Y-725714D01*
G37*
G36*
G01X11340286Y-5370286D02*
G01X11619686Y-5370286D01*
G01X11619686Y-5649686D01*
G01X11340286Y-5649686D01*
G01X11340286Y-5395686D01*
G01X11365686Y-5395686D01*
G01X11365686Y-5624286D01*
G01X11594286Y-5624286D01*
G01X11594286Y-5395686D01*
G01X11594286Y-5395686D01*
G01X11365686Y-5395686D01*
G01X11340286Y-5395686D01*
G01X11340286Y-5370286D01*
G37*
G36*
G01X11391086Y-5421086D02*
G01X11568886Y-5421086D01*
G01X11568886Y-5598886D01*
G01X11391086Y-5598886D01*
G01X11391086Y-5573486D01*
G01X11416486Y-5573486D01*
G01X11543486Y-5573486D01*
G01X11543486Y-5446486D01*
G01X11416486Y-5446486D01*
G01X11416486Y-5573486D01*
G01X11416486Y-5573486D01*
G01X11391086Y-5573486D01*
G01X11391086Y-5421086D01*
G37*

G04 PolygonModel Start*
G54D20*
G01X11050000Y-5805714D02*
G01X27839472Y-5805714D01*
G01X11050000Y-5225143D02*
G01X27839472Y-5225143D01*
G01X11050000Y-4644571D02*
G01X27839472Y-4644571D01*
G01X11050000Y-4064000D02*
G01X27839472Y-4064000D01*
G01X11050000Y-3483429D02*
G01X27839472Y-3483429D01*
G01X11050000Y-2902857D02*
G01X27839472Y-2902857D01*
G01X11050000Y-2322286D02*
G01X27839472Y-2322286D01*
G01X11050000Y-1741714D02*
G01X27839472Y-1741714D01*
G01X11050000Y-1161143D02*
G01X27839472Y-1161143D01*
G01X11050000Y-580571D02*
G01X27839472Y-580571D01*
G01X11050000Y0D02*
G01X27839472Y0D01*
G01X11050000Y0D02*
G01X11050000Y-5780314D01*
G01X12501428Y0D02*
G01X12501428Y-5780314D01*
G01X13915592Y0D02*
G01X13915592Y-5780314D01*
G01X17880169Y0D02*
G01X17880169Y-5780314D01*
G01X19341576Y0D02*
G01X19341576Y-5780314D01*
G01X20772757Y0D02*
G01X20772757Y-5780314D01*
G01X22441936Y0D02*
G01X22441936Y-5780314D01*
G01X24361305Y0D02*
G01X24361305Y-5780314D01*
G01X27839472Y0D02*
G01X27839472Y-5780314D01*

M02*

