G04 Layer: TopSilkscreenLayer*
G04 EasyEDA Pro v3.2.148, 2026-07-20 15:09:28*
G04 Gerber Generator version 0.3*
G04 Scale: 100 percent, Rotated: No, Reflected: No*
G04 Dimensions in millimeters*
G04 Leading zeros omitted, absolute positions, 4 integers and 5 decimals*
G04 Generated by one-click*
G04 Object Configs: Pad,Via,Track,Text,Image,Dimension,BoardOutline,BoardCutout,CopperFilled,SolidRegion,FPCStiffener,Line,PlaneZone,ComponentProperty,ComponentSilkscreen,TearDrop*
G04 Layer Configs: 1,2,3,4,5,6,7,8,9,10,11,13,14,56*
G04 Copper Areas: 0*
%FSLAX45Y45*%
%MOMM*%
%ADD10C,0.1524*%
%ADD11C,0.254*%
%ADD12C,0.127*%
%ADD13C,0.1999*%
%ADD14C,0.5*%
%ADD15C,0.3014*%
%ADD16C,0.3*%
G75*


G04 Text Start*
G36*
G01X8669320Y-4659905D02*
G01X8668941Y-4676951D01*
G01X8668184Y-4680359D01*
G01X8667426Y-4684905D01*
G01X8666668Y-4688693D01*
G01X8665911Y-4692102D01*
G01X8664775Y-4696647D01*
G01X8663260Y-4701193D01*
G01X8661744Y-4704981D01*
G01X8660229Y-4708390D01*
G01X8658714Y-4711420D01*
G01X8657199Y-4714072D01*
G01X8653411Y-4720132D01*
G01X8651517Y-4722405D01*
G01X8646972Y-4727708D01*
G01X8643184Y-4731496D01*
G01X8639396Y-4734526D01*
G01X8636744Y-4736420D01*
G01X8633335Y-4738693D01*
G01X8630305Y-4740587D01*
G01X8625002Y-4743617D01*
G01X8619699Y-4745890D01*
G01X8616669Y-4747026D01*
G01X8613259Y-4748162D01*
G01X8605684Y-4750435D01*
G01X8601138Y-4751572D01*
G01X8596972Y-4752329D01*
G01X8590911Y-4753087D01*
G01X8579547Y-4753465D01*
G01X8566669Y-4753087D01*
G01X8560608Y-4752329D01*
G01X8556062Y-4751572D01*
G01X8551896Y-4750814D01*
G01X8547350Y-4749678D01*
G01X8539775Y-4747405D01*
G01X8535987Y-4745890D01*
G01X8532578Y-4744375D01*
G01X8525759Y-4740966D01*
G01X8521972Y-4738693D01*
G01X8518184Y-4736041D01*
G01X8514396Y-4733011D01*
G01X8511366Y-4730738D01*
G01X8507578Y-4726950D01*
G01X8504547Y-4723163D01*
G01X8502653Y-4721269D01*
G01X8500759Y-4718617D01*
G01X8498487Y-4715208D01*
G01X8496214Y-4711420D01*
G01X8494320Y-4708390D01*
G01X8492805Y-4704981D01*
G01X8491290Y-4701193D01*
G01X8490153Y-4698163D01*
G01X8489017Y-4694375D01*
G01X8487881Y-4690965D01*
G01X8486366Y-4682632D01*
G01X8485608Y-4676572D01*
G01X8484850Y-4665966D01*
G01X8484471Y-4658011D01*
G01X8484850Y-4650056D01*
G01X8485608Y-4637178D01*
G01X8486366Y-4631117D01*
G01X8487123Y-4625814D01*
G01X8487881Y-4622026D01*
G01X8489017Y-4617102D01*
G01X8490532Y-4612556D01*
G01X8492047Y-4609147D01*
G01X8495078Y-4603087D01*
G01X8496972Y-4600056D01*
G01X8498865Y-4597405D01*
G01X8503411Y-4591723D01*
G01X8506062Y-4589072D01*
G01X8509093Y-4586799D01*
G01X8510987Y-4585284D01*
G01X8513260Y-4583769D01*
G01X8516669Y-4581875D01*
G01X8519699Y-4579981D01*
G01X8526517Y-4576950D01*
G01X8529547Y-4575814D01*
G01X8532957Y-4574678D01*
G01X8534282Y-4574488D01*
G01X8535229Y-4575435D01*
G01X8536365Y-4579602D01*
G01X8537123Y-4584147D01*
G01X8537881Y-4587935D01*
G01X8538638Y-4592481D01*
G01X8539396Y-4596269D01*
G01X8540911Y-4605360D01*
G01X8543941Y-4622026D01*
G01X8544320Y-4625435D01*
G01X8543752Y-4627329D01*
G01X8542047Y-4628465D01*
G01X8536744Y-4631117D01*
G01X8534472Y-4632632D01*
G01X8530684Y-4636420D01*
G01X8529169Y-4638314D01*
G01X8527654Y-4640966D01*
G01X8526138Y-4644375D01*
G01X8525002Y-4648162D01*
G01X8524244Y-4651572D01*
G01X8523866Y-4657632D01*
G01X8524244Y-4663693D01*
G01X8525002Y-4667860D01*
G01X8526138Y-4672405D01*
G01X8527654Y-4675814D01*
G01X8529169Y-4678844D01*
G01X8531062Y-4681875D01*
G01X8533335Y-4684526D01*
G01X8537123Y-4688314D01*
G01X8539017Y-4689829D01*
G01X8541668Y-4691344D01*
G01X8544699Y-4692860D01*
G01X8547350Y-4693996D01*
G01X8550381Y-4695132D01*
G01X8554169Y-4696268D01*
G01X8557578Y-4697026D01*
G01X8563638Y-4697784D01*
G01X8575760Y-4698163D01*
G01X8587881Y-4697784D01*
G01X8593941Y-4697026D01*
G01X8601517Y-4695511D01*
G01X8604547Y-4694753D01*
G01X8607578Y-4693617D01*
G01X8613638Y-4690587D01*
G01X8616669Y-4688693D01*
G01X8619320Y-4686420D01*
G01X8621214Y-4684526D01*
G01X8623487Y-4681875D01*
G01X8625381Y-4679223D01*
G01X8626896Y-4676572D01*
G01X8628411Y-4672405D01*
G01X8629547Y-4668996D01*
G01X8630305Y-4663693D01*
G01X8630684Y-4658769D01*
G01X8630305Y-4653844D01*
G01X8629926Y-4651193D01*
G01X8629547Y-4647026D01*
G01X8628411Y-4641723D01*
G01X8626896Y-4636799D01*
G01X8625381Y-4632632D01*
G01X8619699Y-4621269D01*
G01X8617237Y-4620416D01*
G01X8610608Y-4620132D01*
G01X8601896Y-4620132D01*
G01X8601896Y-4657253D01*
G01X8585229Y-4657253D01*
G01X8566669Y-4656875D01*
G01X8564775Y-4656496D01*
G01X8564775Y-4571647D01*
G01X8602653Y-4571647D01*
G01X8631346Y-4572026D01*
G01X8641669Y-4573163D01*
G01X8646214Y-4579981D01*
G01X8648108Y-4583011D01*
G01X8649623Y-4585284D01*
G01X8654169Y-4593238D01*
G01X8658714Y-4602329D01*
G01X8659850Y-4604981D01*
G01X8660987Y-4608011D01*
G01X8662502Y-4611799D01*
G01X8664017Y-4616723D01*
G01X8665532Y-4622026D01*
G01X8666668Y-4626572D01*
G01X8667426Y-4631117D01*
G01X8668184Y-4634905D01*
G01X8668941Y-4643238D01*
G01X8669320Y-4659905D01*
G37*
G36*
G01X8666290Y-4164072D02*
G01X8578790Y-4164072D01*
G01X8489396Y-4163693D01*
G01X8487502Y-4163314D01*
G01X8487502Y-4117102D01*
G01X8487650Y-4098541D01*
G01X8523866Y-4098541D01*
G01X8523866Y-4108769D01*
G01X8543563Y-4108769D01*
G01X8543563Y-4108769D01*
G01X8563638Y-4108390D01*
G01X8564017Y-4098920D01*
G01X8563638Y-4087935D01*
G01X8562881Y-4083390D01*
G01X8561744Y-4078466D01*
G01X8559850Y-4074299D01*
G01X8557199Y-4070890D01*
G01X8554547Y-4068617D01*
G01X8551896Y-4067102D01*
G01X8547729Y-4065965D01*
G01X8543941Y-4065965D01*
G01X8541290Y-4066344D01*
G01X8537502Y-4067102D01*
G01X8534093Y-4068617D01*
G01X8531820Y-4070132D01*
G01X8529547Y-4072026D01*
G01X8527654Y-4074299D01*
G01X8526138Y-4077708D01*
G01X8525002Y-4081117D01*
G01X8524244Y-4087178D01*
G01X8523866Y-4098541D01*
G01X8487650Y-4098541D01*
G01X8487881Y-4069753D01*
G01X8488259Y-4065587D01*
G01X8488638Y-4059905D01*
G01X8489396Y-4055359D01*
G01X8490153Y-4051572D01*
G01X8491669Y-4045511D01*
G01X8492805Y-4042481D01*
G01X8495078Y-4037178D01*
G01X8496972Y-4034147D01*
G01X8498865Y-4031496D01*
G01X8500381Y-4029223D01*
G01X8502275Y-4026950D01*
G01X8504169Y-4025056D01*
G01X8506820Y-4022784D01*
G01X8510229Y-4020511D01*
G01X8513260Y-4018617D01*
G01X8516290Y-4017102D01*
G01X8522350Y-4014829D01*
G01X8526517Y-4013693D01*
G01X8530305Y-4012935D01*
G01X8533714Y-4012556D01*
G01X8539396Y-4012178D01*
G01X8543941Y-4012178D01*
G01X8552275Y-4012935D01*
G01X8556820Y-4013693D01*
G01X8561744Y-4014829D01*
G01X8565153Y-4015966D01*
G01X8568184Y-4017102D01*
G01X8575002Y-4020511D01*
G01X8577653Y-4022405D01*
G01X8579547Y-4023541D01*
G01X8581441Y-4025056D01*
G01X8585229Y-4028844D01*
G01X8588259Y-4032632D01*
G01X8590154Y-4035284D01*
G01X8592047Y-4038693D01*
G01X8593562Y-4041723D01*
G01X8595078Y-4045132D01*
G01X8596593Y-4050056D01*
G01X8597729Y-4053844D01*
G01X8599244Y-4062178D01*
G01X8600002Y-4070511D01*
G01X8600381Y-4090208D01*
G01X8600381Y-4108769D01*
G01X8666290Y-4108769D01*
G01X8666290Y-4164072D01*
G37*
G36*
G01X8669320Y-4473163D02*
G01X8668941Y-4489072D01*
G01X8668184Y-4493238D01*
G01X8667426Y-4497026D01*
G01X8666668Y-4501193D01*
G01X8665532Y-4505738D01*
G01X8664396Y-4509147D01*
G01X8663260Y-4512178D01*
G01X8660229Y-4518238D01*
G01X8658335Y-4521269D01*
G01X8655684Y-4525056D01*
G01X8653411Y-4528087D01*
G01X8647729Y-4533769D01*
G01X8645835Y-4535284D01*
G01X8640532Y-4539072D01*
G01X8637881Y-4540587D01*
G01X8631820Y-4543617D01*
G01X8628411Y-4545132D01*
G01X8621593Y-4547405D01*
G01X8620362Y-4547689D01*
G01X8619699Y-4547026D01*
G01X8618941Y-4544753D01*
G01X8618184Y-4539450D01*
G01X8617426Y-4533390D01*
G01X8616669Y-4528087D01*
G01X8615911Y-4522026D01*
G01X8615153Y-4516723D01*
G01X8614396Y-4510663D01*
G01X8613638Y-4505360D01*
G01X8613259Y-4501193D01*
G01X8613259Y-4498162D01*
G01X8615911Y-4497784D01*
G01X8620078Y-4496647D01*
G01X8623487Y-4495511D01*
G01X8626517Y-4494375D01*
G01X8629169Y-4492859D01*
G01X8631441Y-4491344D01*
G01X8633335Y-4489829D01*
G01X8635608Y-4487178D01*
G01X8637502Y-4484147D01*
G01X8638638Y-4480738D01*
G01X8639396Y-4476572D01*
G01X8639396Y-4473541D01*
G01X8639017Y-4470511D01*
G01X8638260Y-4466344D01*
G01X8636744Y-4462935D01*
G01X8634850Y-4459905D01*
G01X8631820Y-4456496D01*
G01X8628032Y-4453844D01*
G01X8623865Y-4451950D01*
G01X8620456Y-4450814D01*
G01X8614017Y-4450435D01*
G01X8607578Y-4450814D01*
G01X8604168Y-4451571D01*
G01X8600002Y-4452708D01*
G01X8596972Y-4454223D01*
G01X8593941Y-4456496D01*
G01X8590532Y-4459905D01*
G01X8588259Y-4463693D01*
G01X8587123Y-4466723D01*
G01X8586744Y-4472784D01*
G01X8587123Y-4480360D01*
G01X8587881Y-4484147D01*
G01X8588638Y-4487556D01*
G01X8589017Y-4489829D01*
G01X8585229Y-4489829D01*
G01X8580305Y-4489451D01*
G01X8559093Y-4487935D01*
G01X8556062Y-4487556D01*
G01X8554169Y-4487556D01*
G01X8554169Y-4483390D01*
G01X8553790Y-4476572D01*
G01X8552653Y-4472026D01*
G01X8551138Y-4468996D01*
G01X8549623Y-4466344D01*
G01X8546971Y-4463314D01*
G01X8543563Y-4461041D01*
G01X8540532Y-4459526D01*
G01X8534093Y-4458769D01*
G01X8526896Y-4459526D01*
G01X8522729Y-4461420D01*
G01X8519320Y-4464450D01*
G01X8517047Y-4468238D01*
G01X8515911Y-4471269D01*
G01X8515532Y-4475435D01*
G01X8515911Y-4480360D01*
G01X8516669Y-4483390D01*
G01X8517805Y-4486420D01*
G01X8519320Y-4489072D01*
G01X8520835Y-4490966D01*
G01X8522729Y-4492859D01*
G01X8525002Y-4494375D01*
G01X8527654Y-4495511D01*
G01X8530684Y-4496647D01*
G01X8534850Y-4497784D01*
G01X8538260Y-4498541D01*
G01X8538638Y-4501950D01*
G01X8537881Y-4506117D01*
G01X8537123Y-4509905D01*
G01X8536365Y-4514450D01*
G01X8535608Y-4518238D01*
G01X8534093Y-4527329D01*
G01X8533335Y-4531117D01*
G01X8532578Y-4535663D01*
G01X8531820Y-4539450D01*
G01X8531441Y-4542860D01*
G01X8531062Y-4544469D01*
G01X8529926Y-4544753D01*
G01X8526138Y-4543617D01*
G01X8521972Y-4542102D01*
G01X8512123Y-4537178D01*
G01X8508335Y-4534526D01*
G01X8505305Y-4532253D01*
G01X8499623Y-4526572D01*
G01X8497350Y-4523541D01*
G01X8494699Y-4519753D01*
G01X8492805Y-4516723D01*
G01X8491290Y-4513693D01*
G01X8489775Y-4509526D01*
G01X8488259Y-4504981D01*
G01X8487123Y-4500814D01*
G01X8486366Y-4497784D01*
G01X8485608Y-4492481D01*
G01X8484850Y-4482632D01*
G01X8484471Y-4476950D01*
G01X8484850Y-4471269D01*
G01X8485229Y-4466723D01*
G01X8485608Y-4460662D01*
G01X8486366Y-4455359D01*
G01X8487881Y-4447784D01*
G01X8489017Y-4442860D01*
G01X8490532Y-4438693D01*
G01X8492047Y-4434905D01*
G01X8493562Y-4431875D01*
G01X8495456Y-4428844D01*
G01X8497350Y-4426193D01*
G01X8498865Y-4424299D01*
G01X8504547Y-4418617D01*
G01X8506441Y-4417102D01*
G01X8508714Y-4415587D01*
G01X8511366Y-4414072D01*
G01X8514017Y-4412935D01*
G01X8517047Y-4411799D01*
G01X8520835Y-4410663D01*
G01X8524244Y-4409905D01*
G01X8529169Y-4409526D01*
G01X8534093Y-4409905D01*
G01X8538260Y-4410663D01*
G01X8542805Y-4411799D01*
G01X8546214Y-4413314D01*
G01X8549244Y-4414829D01*
G01X8551896Y-4416344D01*
G01X8554169Y-4418238D01*
G01X8561744Y-4425814D01*
G01X8563259Y-4427708D01*
G01X8564775Y-4429981D01*
G01X8566669Y-4433011D01*
G01X8567710Y-4433769D01*
G01X8568562Y-4433011D01*
G01X8570078Y-4429223D01*
G01X8571593Y-4425056D01*
G01X8573108Y-4421647D01*
G01X8574623Y-4418996D01*
G01X8576517Y-4415966D01*
G01X8578790Y-4413314D01*
G01X8583335Y-4408769D01*
G01X8586744Y-4406496D01*
G01X8589396Y-4404981D01*
G01X8592426Y-4403465D01*
G01X8595457Y-4402329D01*
G01X8602275Y-4400814D01*
G01X8608714Y-4400435D01*
G01X8615153Y-4400814D01*
G01X8619699Y-4401572D01*
G01X8625381Y-4402708D01*
G01X8629926Y-4404223D01*
G01X8633335Y-4405738D01*
G01X8639396Y-4408769D01*
G01X8642426Y-4410663D01*
G01X8647729Y-4414450D01*
G01X8650381Y-4416723D01*
G01X8652275Y-4418617D01*
G01X8655305Y-4422405D01*
G01X8657578Y-4425056D01*
G01X8659472Y-4428087D01*
G01X8662502Y-4433390D01*
G01X8664017Y-4436799D01*
G01X8666668Y-4444753D01*
G01X8668184Y-4452329D01*
G01X8668941Y-4457632D01*
G01X8669320Y-4473163D01*
G37*
G36*
G01X8669320Y-4283011D02*
G01X8668941Y-4300056D01*
G01X8668184Y-4305359D01*
G01X8667426Y-4311420D01*
G01X8666668Y-4316723D01*
G01X8665532Y-4322026D01*
G01X8664017Y-4326950D01*
G01X8662502Y-4331117D01*
G01X8660987Y-4334526D01*
G01X8659472Y-4337556D01*
G01X8657578Y-4340587D01*
G01X8656062Y-4343238D01*
G01X8654547Y-4345132D01*
G01X8652654Y-4347026D01*
G01X8649623Y-4350814D01*
G01X8647729Y-4352708D01*
G01X8645835Y-4354223D01*
G01X8643184Y-4356496D01*
G01X8640153Y-4358769D01*
G01X8638260Y-4360284D01*
G01X8635608Y-4361799D01*
G01X8629547Y-4364829D01*
G01X8625381Y-4366344D01*
G01X8620456Y-4367859D01*
G01X8616669Y-4368996D01*
G01X8609093Y-4370511D01*
G01X8603032Y-4371269D01*
G01X8544699Y-4371647D01*
G01X8487502Y-4371647D01*
G01X8487502Y-4345890D01*
G01X8487881Y-4318238D01*
G01X8488259Y-4316344D01*
G01X8544699Y-4316344D01*
G01X8603790Y-4315965D01*
G01X8608714Y-4314829D01*
G01X8612881Y-4313314D01*
G01X8615532Y-4311799D01*
G01X8617805Y-4310284D01*
G01X8620835Y-4307632D01*
G01X8623108Y-4304602D01*
G01X8624623Y-4302329D01*
G01X8626138Y-4298920D01*
G01X8627275Y-4295511D01*
G01X8627653Y-4286799D01*
G01X8626896Y-4276572D01*
G01X8625381Y-4272026D01*
G01X8622729Y-4266723D01*
G01X8621214Y-4264829D01*
G01X8619320Y-4262935D01*
G01X8616669Y-4260663D01*
G01X8613638Y-4258768D01*
G01X8610229Y-4257253D01*
G01X8606820Y-4256117D01*
G01X8548487Y-4255738D01*
G01X8489396Y-4255360D01*
G01X8487502Y-4254981D01*
G01X8487502Y-4200435D01*
G01X8544320Y-4200435D01*
G01X8602275Y-4200814D01*
G01X8608335Y-4201571D01*
G01X8612502Y-4202329D01*
G01X8617805Y-4203466D01*
G01X8622350Y-4204981D01*
G01X8626517Y-4206496D01*
G01X8630305Y-4208011D01*
G01X8635608Y-4211041D01*
G01X8639396Y-4213314D01*
G01X8643184Y-4215965D01*
G01X8645835Y-4218238D01*
G01X8653411Y-4225814D01*
G01X8654926Y-4227708D01*
G01X8656820Y-4230360D01*
G01X8659093Y-4233769D01*
G01X8660987Y-4237178D01*
G01X8662502Y-4240208D01*
G01X8664017Y-4243996D01*
G01X8665532Y-4248920D01*
G01X8666668Y-4252329D01*
G01X8668184Y-4259905D01*
G01X8668941Y-4266723D01*
G01X8669320Y-4283011D01*
G37*
G36*
G01X8946212Y-3013636D02*
G01X8908712Y-3013636D01*
G01X8880114Y-3013921D01*
G01X8869318Y-3014773D01*
G01X8777273Y-3076136D01*
G01X8771970Y-3079924D01*
G01X8768940Y-3081818D01*
G01X8767424Y-3082576D01*
G01X8767424Y-3069318D01*
G01X8767803Y-3054924D01*
G01X8769697Y-3052652D01*
G01X8779924Y-3045833D01*
G01X8785985Y-3042045D01*
G01X8799621Y-3032955D01*
G01X8805682Y-3029167D01*
G01X8819318Y-3020076D01*
G01X8834470Y-3010606D01*
G01X8837121Y-3009091D01*
G01X8839394Y-3007576D01*
G01X8842046Y-3006061D01*
G01X8845454Y-3004167D01*
G01X8848485Y-3002652D01*
G01X8850379Y-3001136D01*
G01X8850000Y-2999242D01*
G01X8847349Y-2997349D01*
G01X8843561Y-2995076D01*
G01X8840530Y-2993182D01*
G01X8837879Y-2991667D01*
G01X8828788Y-2985985D01*
G01X8825379Y-2983712D01*
G01X8821591Y-2981440D01*
G01X8794318Y-2963258D01*
G01X8788258Y-2959470D01*
G01X8771212Y-2948106D01*
G01X8768561Y-2946591D01*
G01X8767708Y-2942898D01*
G01X8767424Y-2932576D01*
G01X8767708Y-2922538D01*
G01X8768561Y-2919697D01*
G01X8770833Y-2921212D01*
G01X8773485Y-2923106D01*
G01X8776894Y-2925379D01*
G01X8784470Y-2930682D01*
G01X8787879Y-2932955D01*
G01X8793182Y-2936742D01*
G01X8796591Y-2939015D01*
G01X8804167Y-2944318D01*
G01X8807576Y-2946591D01*
G01X8812879Y-2950379D01*
G01X8816288Y-2952652D01*
G01X8823864Y-2957955D01*
G01X8827273Y-2960227D01*
G01X8832576Y-2964015D01*
G01X8835985Y-2966288D01*
G01X8843561Y-2971591D01*
G01X8846970Y-2973864D01*
G01X8852273Y-2977652D01*
G01X8855682Y-2979924D01*
G01X8860985Y-2983712D01*
G01X8864394Y-2985985D01*
G01X8867046Y-2987500D01*
G01X8868939Y-2989015D01*
G01X8879072Y-2989868D01*
G01X8907954Y-2990151D01*
G01X8946212Y-2990151D01*
G01X8946212Y-3013636D01*
G37*
G36*
G01X8946212Y-2730303D02*
G01X8767424Y-2730303D01*
G01X8767424Y-2688636D01*
G01X8767538Y-2675758D01*
G01X8787121Y-2675758D01*
G01X8787121Y-2706818D01*
G01X8816667Y-2706818D01*
G01X8816667Y-2706818D01*
G01X8846591Y-2706440D01*
G01X8846970Y-2680682D01*
G01X8846591Y-2654167D01*
G01X8846212Y-2648485D01*
G01X8845833Y-2642046D01*
G01X8845076Y-2637500D01*
G01X8843939Y-2632576D01*
G01X8842424Y-2628409D01*
G01X8839773Y-2623106D01*
G01X8838258Y-2621212D01*
G01X8834470Y-2617424D01*
G01X8831818Y-2615530D01*
G01X8828788Y-2614015D01*
G01X8825758Y-2612879D01*
G01X8821591Y-2611743D01*
G01X8815530Y-2611743D01*
G01X8810227Y-2612500D01*
G01X8806061Y-2613636D01*
G01X8800758Y-2616288D01*
G01X8798485Y-2617803D01*
G01X8794697Y-2621591D01*
G01X8792803Y-2624242D01*
G01X8791288Y-2627273D01*
G01X8790152Y-2630303D01*
G01X8789015Y-2633712D01*
G01X8788258Y-2636743D01*
G01X8787500Y-2643561D01*
G01X8787121Y-2675758D01*
G01X8767538Y-2675758D01*
G01X8767803Y-2645833D01*
G01X8768182Y-2641288D01*
G01X8768561Y-2634470D01*
G01X8769318Y-2628409D01*
G01X8770076Y-2624621D01*
G01X8770833Y-2621212D01*
G01X8771970Y-2616667D01*
G01X8773485Y-2613258D01*
G01X8775000Y-2610227D01*
G01X8776515Y-2607576D01*
G01X8778409Y-2604924D01*
G01X8780682Y-2602273D01*
G01X8784470Y-2598485D01*
G01X8787500Y-2596212D01*
G01X8790909Y-2593939D01*
G01X8793561Y-2592424D01*
G01X8796212Y-2591288D01*
G01X8799242Y-2590152D01*
G01X8802651Y-2589015D01*
G01X8805682Y-2588258D01*
G01X8811742Y-2587500D01*
G01X8815909Y-2587121D01*
G01X8820076Y-2587500D01*
G01X8823106Y-2587879D01*
G01X8827652Y-2588636D01*
G01X8832576Y-2590152D01*
G01X8836364Y-2591667D01*
G01X8839394Y-2593182D01*
G01X8842424Y-2595076D01*
G01X8845833Y-2597727D01*
G01X8848864Y-2600000D01*
G01X8850758Y-2601894D01*
G01X8852273Y-2603788D01*
G01X8856061Y-2609091D01*
G01X8857576Y-2611743D01*
G01X8859091Y-2615151D01*
G01X8860606Y-2618939D01*
G01X8863258Y-2626894D01*
G01X8864773Y-2635227D01*
G01X8865246Y-2635890D01*
G01X8865909Y-2635606D01*
G01X8867803Y-2632955D01*
G01X8869697Y-2629924D01*
G01X8870833Y-2627652D01*
G01X8872349Y-2625758D01*
G01X8876136Y-2621212D01*
G01X8878030Y-2619318D01*
G01X8881818Y-2616288D01*
G01X8884470Y-2613636D01*
G01X8888258Y-2610606D01*
G01X8891288Y-2608333D01*
G01X8893940Y-2606440D01*
G01X8900758Y-2601894D01*
G01X8906818Y-2598106D01*
G01X8910227Y-2595834D01*
G01X8916288Y-2592046D01*
G01X8919697Y-2589773D01*
G01X8925758Y-2585985D01*
G01X8929167Y-2583712D01*
G01X8932955Y-2581440D01*
G01X8936364Y-2579167D01*
G01X8942424Y-2575379D01*
G01X8945076Y-2573864D01*
G01X8945928Y-2577178D01*
G01X8946212Y-2587879D01*
G01X8945928Y-2598864D01*
G01X8945076Y-2603030D01*
G01X8942424Y-2604924D01*
G01X8939015Y-2607197D01*
G01X8935227Y-2609470D01*
G01X8931818Y-2611743D01*
G01X8925758Y-2615530D01*
G01X8922348Y-2617803D01*
G01X8918561Y-2620076D01*
G01X8915152Y-2622349D01*
G01X8909091Y-2626136D01*
G01X8895455Y-2635227D01*
G01X8887500Y-2640909D01*
G01X8879924Y-2646970D01*
G01X8876136Y-2650758D01*
G01X8873864Y-2653409D01*
G01X8871970Y-2656061D01*
G01X8870455Y-2658712D01*
G01X8868939Y-2662500D01*
G01X8867803Y-2665530D01*
G01X8867424Y-2686742D01*
G01X8867424Y-2706818D01*
G01X8946212Y-2706818D01*
G01X8946212Y-2730303D01*
G37*
G36*
G01X8946212Y-2896970D02*
G01X8767424Y-2896970D01*
G01X8767424Y-2767424D01*
G01X8788636Y-2767424D01*
G01X8788636Y-2873485D01*
G01X8843939Y-2873485D01*
G01X8843939Y-2774243D01*
G01X8864394Y-2774243D01*
G01X8864394Y-2873485D01*
G01X8925758Y-2873485D01*
G01X8925758Y-2763636D01*
G01X8946212Y-2763636D01*
G01X8946212Y-2896970D01*
G37*
G36*
G01X8946212Y-3230303D02*
G01X8767424Y-3230303D01*
G01X8767424Y-3100758D01*
G01X8788636Y-3100758D01*
G01X8788636Y-3206818D01*
G01X8843939Y-3206818D01*
G01X8843939Y-3107576D01*
G01X8864394Y-3107576D01*
G01X8864394Y-3206818D01*
G01X8925758Y-3206818D01*
G01X8925758Y-3096970D01*
G01X8946212Y-3096970D01*
G01X8946212Y-3230303D01*
G37*
G36*
G01X8946212Y-3633333D02*
G01X8767424Y-3633333D01*
G01X8767424Y-3503788D01*
G01X8788636Y-3503788D01*
G01X8788636Y-3609849D01*
G01X8843939Y-3609849D01*
G01X8843939Y-3510606D01*
G01X8864394Y-3510606D01*
G01X8864394Y-3609849D01*
G01X8925758Y-3609849D01*
G01X8925758Y-3500000D01*
G01X8946212Y-3500000D01*
G01X8946212Y-3633333D01*
G37*
G36*
G01X8946212Y-3398485D02*
G01X8767424Y-3398485D01*
G01X8767424Y-3375000D01*
G01X8810227Y-3375000D01*
G01X8854167Y-3374621D01*
G01X8854830Y-3374148D01*
G01X8854545Y-3373485D01*
G01X8853030Y-3371591D01*
G01X8825758Y-3344318D01*
G01X8823485Y-3341288D01*
G01X8768561Y-3286364D01*
G01X8767708Y-3281913D01*
G01X8767424Y-3270076D01*
G01X8767803Y-3254924D01*
G01X8769318Y-3256061D01*
G01X8779546Y-3266288D01*
G01X8781818Y-3269318D01*
G01X8801515Y-3289015D01*
G01X8803788Y-3292045D01*
G01X8822727Y-3310985D01*
G01X8825758Y-3314773D01*
G01X8839015Y-3328030D01*
G01X8840341Y-3328314D01*
G01X8842046Y-3327652D01*
G01X8845833Y-3325000D01*
G01X8854924Y-3318182D01*
G01X8860227Y-3314394D01*
G01X8866288Y-3309849D01*
G01X8871591Y-3306061D01*
G01X8877652Y-3301515D01*
G01X8879545Y-3300000D01*
G01X8882197Y-3298106D01*
G01X8885985Y-3295455D01*
G01X8895076Y-3288637D01*
G01X8900379Y-3284849D01*
G01X8906439Y-3280303D01*
G01X8908333Y-3278788D01*
G01X8910985Y-3276894D01*
G01X8914773Y-3274243D01*
G01X8923864Y-3267424D01*
G01X8929167Y-3263636D01*
G01X8935227Y-3259091D01*
G01X8940530Y-3255303D01*
G01X8942424Y-3253788D01*
G01X8944697Y-3252273D01*
G01X8946212Y-3251515D01*
G01X8946212Y-3266667D01*
G01X8945833Y-3278314D01*
G01X8944697Y-3282955D01*
G01X8942424Y-3284849D01*
G01X8939773Y-3286742D01*
G01X8924621Y-3297348D01*
G01X8919318Y-3301136D01*
G01X8904167Y-3311742D01*
G01X8898864Y-3315530D01*
G01X8883712Y-3326136D01*
G01X8878409Y-3329924D01*
G01X8863258Y-3340531D01*
G01X8860606Y-3342424D01*
G01X8858712Y-3343561D01*
G01X8857197Y-3345455D01*
G01X8857197Y-3346780D01*
G01X8857955Y-3347727D01*
G01X8861743Y-3351515D01*
G01X8866288Y-3356818D01*
G01X8883333Y-3373864D01*
G01X8891667Y-3374716D01*
G01X8915152Y-3375000D01*
G01X8946212Y-3375000D01*
G01X8946212Y-3398485D01*
G37*
G36*
G01X8949242Y-4141288D02*
G01X8948864Y-4155303D01*
G01X8948106Y-4157955D01*
G01X8947349Y-4161743D01*
G01X8946212Y-4167046D01*
G01X8944697Y-4171970D01*
G01X8943182Y-4176136D01*
G01X8938258Y-4185985D01*
G01X8936364Y-4188637D01*
G01X8935227Y-4190530D01*
G01X8930682Y-4196212D01*
G01X8928788Y-4198106D01*
G01X8925000Y-4201136D01*
G01X8923106Y-4203030D01*
G01X8920076Y-4205303D01*
G01X8916288Y-4207955D01*
G01X8913258Y-4209849D01*
G01X8907197Y-4212879D01*
G01X8903788Y-4214394D01*
G01X8900000Y-4215909D01*
G01X8896591Y-4217046D01*
G01X8893561Y-4218182D01*
G01X8890152Y-4219318D01*
G01X8885227Y-4220455D01*
G01X8880682Y-4221591D01*
G01X8875379Y-4222349D01*
G01X8870833Y-4223106D01*
G01X8857197Y-4223485D01*
G01X8843561Y-4223106D01*
G01X8840909Y-4222727D01*
G01X8837500Y-4222349D01*
G01X8829924Y-4220834D01*
G01X8826894Y-4220076D01*
G01X8823485Y-4219318D01*
G01X8819697Y-4218182D01*
G01X8812121Y-4215152D01*
G01X8808712Y-4213636D01*
G01X8804924Y-4211743D01*
G01X8798864Y-4207955D01*
G01X8793561Y-4204167D01*
G01X8790909Y-4201894D01*
G01X8783333Y-4194318D01*
G01X8778788Y-4188258D01*
G01X8775000Y-4182197D01*
G01X8770455Y-4171970D01*
G01X8768940Y-4167424D01*
G01X8767424Y-4162500D01*
G01X8766288Y-4157197D01*
G01X8765530Y-4153409D01*
G01X8764773Y-4142803D01*
G01X8764394Y-4139773D01*
G01X8764773Y-4136743D01*
G01X8765152Y-4132576D01*
G01X8765530Y-4127652D01*
G01X8767045Y-4120076D01*
G01X8768561Y-4114015D01*
G01X8769697Y-4110606D01*
G01X8771212Y-4107197D01*
G01X8774243Y-4101137D01*
G01X8775758Y-4098485D01*
G01X8779546Y-4093182D01*
G01X8781818Y-4090531D01*
G01X8784091Y-4087500D01*
G01X8785985Y-4085606D01*
G01X8791667Y-4081061D01*
G01X8796970Y-4077273D01*
G01X8799621Y-4075758D01*
G01X8805682Y-4072727D01*
G01X8809470Y-4071212D01*
G01X8813636Y-4069697D01*
G01X8815530Y-4069413D01*
G01X8816667Y-4070076D01*
G01X8817803Y-4073485D01*
G01X8818939Y-4078409D01*
G01X8820833Y-4085985D01*
G01X8821591Y-4089394D01*
G01X8821496Y-4091288D01*
G01X8820455Y-4092424D01*
G01X8817424Y-4093939D01*
G01X8814394Y-4095076D01*
G01X8811742Y-4096212D01*
G01X8809091Y-4097727D01*
G01X8805682Y-4099621D01*
G01X8800379Y-4103409D01*
G01X8797727Y-4105682D01*
G01X8795833Y-4107576D01*
G01X8793561Y-4110227D01*
G01X8791667Y-4112879D01*
G01X8790152Y-4115531D01*
G01X8788636Y-4118939D01*
G01X8787121Y-4123106D01*
G01X8785985Y-4126894D01*
G01X8785227Y-4132197D01*
G01X8784849Y-4139015D01*
G01X8785227Y-4146591D01*
G01X8785985Y-4151894D01*
G01X8787121Y-4157955D01*
G01X8788636Y-4162500D01*
G01X8790152Y-4166288D01*
G01X8791667Y-4169318D01*
G01X8793182Y-4171970D01*
G01X8795455Y-4175379D01*
G01X8797727Y-4178409D01*
G01X8804167Y-4184849D01*
G01X8807955Y-4187500D01*
G01X8810606Y-4189394D01*
G01X8813258Y-4190909D01*
G01X8817045Y-4192424D01*
G01X8821212Y-4193940D01*
G01X8829167Y-4196591D01*
G01X8836743Y-4198106D01*
G01X8842803Y-4198864D01*
G01X8855303Y-4199243D01*
G01X8867803Y-4198864D01*
G01X8870455Y-4198485D01*
G01X8874621Y-4198106D01*
G01X8878409Y-4197349D01*
G01X8882576Y-4196591D01*
G01X8887879Y-4195455D01*
G01X8892424Y-4193940D01*
G01X8896591Y-4192424D01*
G01X8902651Y-4189394D01*
G01X8906439Y-4187121D01*
G01X8909849Y-4184849D01*
G01X8912121Y-4182955D01*
G01X8916667Y-4178409D01*
G01X8918939Y-4175379D01*
G01X8920833Y-4172727D01*
G01X8922727Y-4169318D01*
G01X8924243Y-4166288D01*
G01X8925758Y-4162879D01*
G01X8927273Y-4157955D01*
G01X8928409Y-4154167D01*
G01X8929167Y-4147349D01*
G01X8929546Y-4142046D01*
G01X8929167Y-4136743D01*
G01X8928409Y-4131440D01*
G01X8927651Y-4127652D01*
G01X8926515Y-4123485D01*
G01X8925000Y-4119697D01*
G01X8923485Y-4116288D01*
G01X8921970Y-4113636D01*
G01X8920455Y-4111364D01*
G01X8918561Y-4108712D01*
G01X8916288Y-4106061D01*
G01X8911742Y-4101515D01*
G01X8908712Y-4099242D01*
G01X8902651Y-4095455D01*
G01X8897348Y-4093182D01*
G01X8894318Y-4092046D01*
G01X8890909Y-4090909D01*
G01X8886742Y-4089773D01*
G01X8884849Y-4089299D01*
G01X8884470Y-4088636D01*
G01X8885227Y-4085606D01*
G01X8886364Y-4080682D01*
G01X8887500Y-4076894D01*
G01X8888258Y-4073485D01*
G01X8889394Y-4068561D01*
G01X8890152Y-4065909D01*
G01X8895833Y-4067803D01*
G01X8898485Y-4068561D01*
G01X8901515Y-4069697D01*
G01X8904924Y-4071212D01*
G01X8908712Y-4072727D01*
G01X8914015Y-4075758D01*
G01X8917424Y-4077652D01*
G01X8920076Y-4079167D01*
G01X8921970Y-4080682D01*
G01X8927273Y-4085227D01*
G01X8931818Y-4089773D01*
G01X8934849Y-4093561D01*
G01X8937121Y-4096591D01*
G01X8938636Y-4098864D01*
G01X8941667Y-4104167D01*
G01X8943182Y-4107197D01*
G01X8944697Y-4111364D01*
G01X8947349Y-4119318D01*
G01X8948864Y-4127652D01*
G01X8949242Y-4141288D01*
G37*
G36*
G01X8949242Y-3738636D02*
G01X8948864Y-3752273D01*
G01X8948106Y-3754924D01*
G01X8947349Y-3759091D01*
G01X8946212Y-3764394D01*
G01X8945076Y-3767803D01*
G01X8944318Y-3770455D01*
G01X8943182Y-3773485D01*
G01X8941667Y-3776894D01*
G01X8939773Y-3780682D01*
G01X8937879Y-3783712D01*
G01X8936364Y-3785985D01*
G01X8934849Y-3787879D01*
G01X8933712Y-3789773D01*
G01X8932197Y-3791667D01*
G01X8924621Y-3799243D01*
G01X8921591Y-3801515D01*
G01X8917803Y-3804167D01*
G01X8915152Y-3806061D01*
G01X8912500Y-3807576D01*
G01X8906439Y-3810606D01*
G01X8903030Y-3812121D01*
G01X8899621Y-3813258D01*
G01X8893561Y-3815530D01*
G01X8889015Y-3816667D01*
G01X8885227Y-3817803D01*
G01X8877652Y-3819318D01*
G01X8872349Y-3820076D01*
G01X8863258Y-3820833D01*
G01X8856061Y-3821212D01*
G01X8848864Y-3820833D01*
G01X8846212Y-3820455D01*
G01X8841288Y-3820076D01*
G01X8835985Y-3819318D01*
G01X8832197Y-3818561D01*
G01X8829167Y-3817803D01*
G01X8825758Y-3817045D01*
G01X8821212Y-3815909D01*
G01X8817045Y-3814394D01*
G01X8809470Y-3811364D01*
G01X8805682Y-3809470D01*
G01X8801894Y-3807197D01*
G01X8798485Y-3804924D01*
G01X8795455Y-3803030D01*
G01X8788636Y-3797349D01*
G01X8784849Y-3793561D01*
G01X8781818Y-3789773D01*
G01X8779924Y-3787121D01*
G01X8777651Y-3783712D01*
G01X8775758Y-3780682D01*
G01X8772727Y-3774621D01*
G01X8771212Y-3771212D01*
G01X8767045Y-3758712D01*
G01X8765530Y-3750379D01*
G01X8764773Y-3739773D01*
G01X8764394Y-3736743D01*
G01X8764773Y-3733712D01*
G01X8765152Y-3729924D01*
G01X8765530Y-3725379D01*
G01X8766288Y-3720834D01*
G01X8767424Y-3715531D01*
G01X8768561Y-3711743D01*
G01X8769318Y-3709091D01*
G01X8770455Y-3706061D01*
G01X8771970Y-3702652D01*
G01X8773864Y-3698864D01*
G01X8775758Y-3695833D01*
G01X8776894Y-3693561D01*
G01X8781439Y-3687879D01*
G01X8789015Y-3680303D01*
G01X8792045Y-3678030D01*
G01X8797727Y-3674243D01*
G01X8800379Y-3672727D01*
G01X8803409Y-3671212D01*
G01X8806818Y-3669697D01*
G01X8810606Y-3668182D01*
G01X8814394Y-3667045D01*
G01X8816193Y-3667045D01*
G01X8817045Y-3667803D01*
G01X8817803Y-3670076D01*
G01X8818561Y-3673864D01*
G01X8819697Y-3679167D01*
G01X8820833Y-3682955D01*
G01X8821591Y-3686742D01*
G01X8821591Y-3688826D01*
G01X8820833Y-3689773D01*
G01X8818182Y-3690909D01*
G01X8814394Y-3692424D01*
G01X8810985Y-3693940D01*
G01X8805682Y-3696970D01*
G01X8803409Y-3698485D01*
G01X8801515Y-3700000D01*
G01X8799621Y-3701136D01*
G01X8797727Y-3702652D01*
G01X8796212Y-3704546D01*
G01X8793939Y-3707197D01*
G01X8791667Y-3710606D01*
G01X8789773Y-3714015D01*
G01X8788258Y-3717424D01*
G01X8787121Y-3720455D01*
G01X8785985Y-3725000D01*
G01X8785227Y-3729167D01*
G01X8784849Y-3735606D01*
G01X8785227Y-3743561D01*
G01X8785985Y-3749621D01*
G01X8787121Y-3755682D01*
G01X8788636Y-3759849D01*
G01X8789773Y-3762879D01*
G01X8791288Y-3766288D01*
G01X8793561Y-3770076D01*
G01X8795455Y-3772727D01*
G01X8797727Y-3775379D01*
G01X8800000Y-3778409D01*
G01X8803788Y-3781439D01*
G01X8805682Y-3783334D01*
G01X8807955Y-3784849D01*
G01X8810985Y-3786742D01*
G01X8814394Y-3788637D01*
G01X8817424Y-3789773D01*
G01X8820076Y-3790909D01*
G01X8823485Y-3792046D01*
G01X8827273Y-3793182D01*
G01X8831440Y-3794318D01*
G01X8835227Y-3795076D01*
G01X8840530Y-3795833D01*
G01X8848864Y-3796591D01*
G01X8854924Y-3796970D01*
G01X8860985Y-3796591D01*
G01X8870833Y-3795833D01*
G01X8876894Y-3795076D01*
G01X8887121Y-3792803D01*
G01X8890909Y-3791667D01*
G01X8894318Y-3790530D01*
G01X8897348Y-3789394D01*
G01X8904167Y-3785985D01*
G01X8907576Y-3783712D01*
G01X8910227Y-3781818D01*
G01X8914015Y-3778031D01*
G01X8915909Y-3776515D01*
G01X8917803Y-3774243D01*
G01X8919697Y-3771591D01*
G01X8921212Y-3769697D01*
G01X8922727Y-3767046D01*
G01X8924243Y-3764015D01*
G01X8925379Y-3760985D01*
G01X8927651Y-3754167D01*
G01X8928409Y-3751137D01*
G01X8929167Y-3744318D01*
G01X8929546Y-3740530D01*
G01X8929167Y-3734470D01*
G01X8928409Y-3729167D01*
G01X8927651Y-3725379D01*
G01X8926894Y-3722349D01*
G01X8925758Y-3718939D01*
G01X8924243Y-3715531D01*
G01X8922727Y-3712500D01*
G01X8920833Y-3709091D01*
G01X8918182Y-3705682D01*
G01X8915909Y-3702652D01*
G01X8914015Y-3700758D01*
G01X8910227Y-3697727D01*
G01X8907576Y-3695833D01*
G01X8904546Y-3693940D01*
G01X8901894Y-3692424D01*
G01X8898485Y-3690909D01*
G01X8894697Y-3689394D01*
G01X8891288Y-3688258D01*
G01X8886742Y-3687121D01*
G01X8884091Y-3686364D01*
G01X8884849Y-3683712D01*
G01X8885985Y-3679924D01*
G01X8886742Y-3676515D01*
G01X8887879Y-3671591D01*
G01X8889015Y-3667803D01*
G01X8889394Y-3665152D01*
G01X8889773Y-3664015D01*
G01X8890909Y-3663637D01*
G01X8893940Y-3664394D01*
G01X8900758Y-3666667D01*
G01X8904167Y-3668182D01*
G01X8907954Y-3669697D01*
G01X8911742Y-3671591D01*
G01X8917803Y-3675379D01*
G01X8923106Y-3679167D01*
G01X8925758Y-3681439D01*
G01X8928030Y-3683334D01*
G01X8930303Y-3685606D01*
G01X8932197Y-3687879D01*
G01X8934091Y-3689773D01*
G01X8936364Y-3692803D01*
G01X8938636Y-3696212D01*
G01X8940152Y-3698864D01*
G01X8943939Y-3706440D01*
G01X8945455Y-3710606D01*
G01X8946591Y-3714015D01*
G01X8948106Y-3720076D01*
G01X8948864Y-3725379D01*
G01X8949242Y-3738636D01*
G37*
G36*
G01X8946212Y-3990909D02*
G01X8788636Y-3990909D01*
G01X8788636Y-4050000D01*
G01X8767424Y-4050000D01*
G01X8767424Y-3908334D01*
G01X8788636Y-3908334D01*
G01X8788636Y-3967424D01*
G01X8946212Y-3967424D01*
G01X8946212Y-3990909D01*
G37*
G36*
G01X8946212Y-3879545D02*
G01X8767424Y-3879545D01*
G01X8767424Y-3856061D01*
G01X8946212Y-3856061D01*
G01X8946212Y-3879545D01*
G37*
G36*
G01X8946023Y-4399811D02*
G01X8945455Y-4402652D01*
G01X8942424Y-4401515D01*
G01X8934849Y-4398485D01*
G01X8930682Y-4396970D01*
G01X8926894Y-4395455D01*
G01X8922727Y-4393940D01*
G01X8915152Y-4390909D01*
G01X8910985Y-4389394D01*
G01X8907197Y-4387879D01*
G01X8903030Y-4386364D01*
G01X8899243Y-4384849D01*
G01X8893182Y-4382576D01*
G01X8889394Y-4381061D01*
G01X8885227Y-4379545D01*
G01X8881439Y-4378030D01*
G01X8877273Y-4376515D01*
G01X8869697Y-4373485D01*
G01X8865530Y-4371970D01*
G01X8861743Y-4370455D01*
G01X8857576Y-4368939D01*
G01X8850000Y-4365909D01*
G01X8845833Y-4364394D01*
G01X8842046Y-4362879D01*
G01X8837879Y-4361364D01*
G01X8830303Y-4358333D01*
G01X8826136Y-4356818D01*
G01X8822349Y-4355303D01*
G01X8818182Y-4353788D01*
G01X8810606Y-4350758D01*
G01X8806439Y-4349243D01*
G01X8802651Y-4347727D01*
G01X8798485Y-4346212D01*
G01X8790909Y-4343182D01*
G01X8782576Y-4340152D01*
G01X8778788Y-4338636D01*
G01X8772727Y-4336364D01*
G01X8769318Y-4335227D01*
G01X8767424Y-4334849D01*
G01X8767424Y-4322349D01*
G01X8767435Y-4321970D01*
G01X8789394Y-4321970D01*
G01X8789394Y-4323106D01*
G01X8792803Y-4324243D01*
G01X8796591Y-4325379D01*
G01X8800379Y-4326136D01*
G01X8804546Y-4327273D01*
G01X8811364Y-4329546D01*
G01X8818939Y-4331818D01*
G01X8867424Y-4350000D01*
G01X8870833Y-4351137D01*
G01X8870833Y-4351137D01*
G01X8873106Y-4351137D01*
G01X8873485Y-4321591D01*
G01X8872727Y-4292046D01*
G01X8869697Y-4292424D01*
G01X8865909Y-4293940D01*
G01X8829545Y-4307576D01*
G01X8825758Y-4309091D01*
G01X8817424Y-4312121D01*
G01X8813636Y-4313637D01*
G01X8806818Y-4315909D01*
G01X8803030Y-4317424D01*
G01X8795076Y-4320076D01*
G01X8792045Y-4320833D01*
G01X8789394Y-4321970D01*
G01X8767435Y-4321970D01*
G01X8767708Y-4312784D01*
G01X8768561Y-4309091D01*
G01X8771591Y-4307576D01*
G01X8786742Y-4301515D01*
G01X8790152Y-4300000D01*
G01X8797727Y-4296970D01*
G01X8800758Y-4295833D01*
G01X8803409Y-4294697D01*
G01X8806818Y-4293182D01*
G01X8818182Y-4288637D01*
G01X8821591Y-4287121D01*
G01X8836743Y-4281061D01*
G01X8840151Y-4279546D01*
G01X8847727Y-4276515D01*
G01X8851136Y-4275000D01*
G01X8866288Y-4268940D01*
G01X8869697Y-4267424D01*
G01X8877273Y-4264394D01*
G01X8880303Y-4263258D01*
G01X8882955Y-4262121D01*
G01X8886364Y-4260606D01*
G01X8897727Y-4256061D01*
G01X8901136Y-4254545D01*
G01X8916288Y-4248485D01*
G01X8919697Y-4246970D01*
G01X8927273Y-4243939D01*
G01X8930303Y-4242803D01*
G01X8932955Y-4241667D01*
G01X8936364Y-4240152D01*
G01X8943939Y-4237121D01*
G01X8946212Y-4236364D01*
G01X8946212Y-4249621D01*
G01X8945833Y-4259754D01*
G01X8944697Y-4263636D01*
G01X8933333Y-4268182D01*
G01X8929167Y-4269697D01*
G01X8925379Y-4271212D01*
G01X8921212Y-4272727D01*
G01X8917424Y-4274243D01*
G01X8911364Y-4276515D01*
G01X8903788Y-4279546D01*
G01X8897727Y-4281818D01*
G01X8894318Y-4282955D01*
G01X8892424Y-4283334D01*
G01X8892424Y-4359091D01*
G01X8899243Y-4361364D01*
G01X8903030Y-4362879D01*
G01X8906439Y-4364015D01*
G01X8912500Y-4366288D01*
G01X8915909Y-4367424D01*
G01X8919697Y-4368939D01*
G01X8924243Y-4370455D01*
G01X8928030Y-4371970D01*
G01X8931439Y-4373106D01*
G01X8937500Y-4375379D01*
G01X8944318Y-4377652D01*
G01X8946212Y-4378030D01*
G01X8946212Y-4390530D01*
G01X8946023Y-4399811D01*
G37*
G36*
G01X8946212Y-4563637D02*
G01X8767424Y-4563637D01*
G01X8767424Y-4521970D01*
G01X8767535Y-4509470D01*
G01X8787121Y-4509470D01*
G01X8787121Y-4540152D01*
G01X8816667Y-4540152D01*
G01X8816667Y-4540152D01*
G01X8846591Y-4539773D01*
G01X8846970Y-4514015D01*
G01X8846591Y-4487500D01*
G01X8845833Y-4476137D01*
G01X8845454Y-4473485D01*
G01X8844697Y-4469318D01*
G01X8843561Y-4465531D01*
G01X8842424Y-4462121D01*
G01X8840530Y-4458333D01*
G01X8838636Y-4455682D01*
G01X8836364Y-4453030D01*
G01X8833712Y-4450758D01*
G01X8831061Y-4448864D01*
G01X8827273Y-4446970D01*
G01X8823864Y-4445833D01*
G01X8818182Y-4445455D01*
G01X8811742Y-4445833D01*
G01X8807197Y-4446970D01*
G01X8803788Y-4448485D01*
G01X8801136Y-4450000D01*
G01X8798485Y-4451894D01*
G01X8793939Y-4456440D01*
G01X8791667Y-4460227D01*
G01X8790152Y-4463636D01*
G01X8789015Y-4467424D01*
G01X8788258Y-4470834D01*
G01X8787500Y-4477652D01*
G01X8787121Y-4509470D01*
G01X8767535Y-4509470D01*
G01X8767803Y-4479167D01*
G01X8768182Y-4474243D01*
G01X8768561Y-4467803D01*
G01X8769318Y-4462500D01*
G01X8770833Y-4454924D01*
G01X8771970Y-4450758D01*
G01X8773485Y-4446970D01*
G01X8775379Y-4442803D01*
G01X8777273Y-4440152D01*
G01X8778788Y-4437879D01*
G01X8780682Y-4435606D01*
G01X8782576Y-4433712D01*
G01X8785227Y-4431439D01*
G01X8788636Y-4429167D01*
G01X8791667Y-4427273D01*
G01X8794318Y-4425758D01*
G01X8797348Y-4424621D01*
G01X8800758Y-4423485D01*
G01X8804546Y-4422349D01*
G01X8807955Y-4421591D01*
G01X8814394Y-4421212D01*
G01X8823106Y-4421591D01*
G01X8829167Y-4422728D01*
G01X8833712Y-4424243D01*
G01X8839773Y-4427273D01*
G01X8842424Y-4428788D01*
G01X8845076Y-4430682D01*
G01X8847727Y-4432955D01*
G01X8852273Y-4437500D01*
G01X8854924Y-4441288D01*
G01X8856818Y-4444318D01*
G01X8858333Y-4447349D01*
G01X8859848Y-4450758D01*
G01X8861364Y-4454924D01*
G01X8862879Y-4460227D01*
G01X8864015Y-4464015D01*
G01X8864394Y-4467046D01*
G01X8864773Y-4468277D01*
G01X8865909Y-4468182D01*
G01X8868182Y-4466288D01*
G01X8869697Y-4463636D01*
G01X8871212Y-4461364D01*
G01X8872349Y-4459470D01*
G01X8873864Y-4457576D01*
G01X8882197Y-4449243D01*
G01X8889773Y-4443182D01*
G01X8893561Y-4440530D01*
G01X8896212Y-4438637D01*
G01X8898485Y-4437121D01*
G01X8901515Y-4435227D01*
G01X8904924Y-4432955D01*
G01X8908712Y-4430682D01*
G01X8915530Y-4426136D01*
G01X8919318Y-4423864D01*
G01X8922727Y-4421591D01*
G01X8928788Y-4417803D01*
G01X8932197Y-4415530D01*
G01X8938258Y-4411743D01*
G01X8941667Y-4409470D01*
G01X8944697Y-4407576D01*
G01X8946212Y-4406818D01*
G01X8946212Y-4421212D01*
G01X8945928Y-4432292D01*
G01X8945076Y-4436742D01*
G01X8942045Y-4439015D01*
G01X8938258Y-4441288D01*
G01X8934849Y-4443561D01*
G01X8928788Y-4447349D01*
G01X8925379Y-4449621D01*
G01X8921591Y-4451894D01*
G01X8918182Y-4454167D01*
G01X8912121Y-4457955D01*
G01X8895076Y-4469318D01*
G01X8891288Y-4471970D01*
G01X8888258Y-4474243D01*
G01X8886364Y-4475758D01*
G01X8883712Y-4477652D01*
G01X8881061Y-4479924D01*
G01X8878788Y-4481818D01*
G01X8876136Y-4484470D01*
G01X8873864Y-4487121D01*
G01X8871970Y-4489773D01*
G01X8870455Y-4492803D01*
G01X8868939Y-4496212D01*
G01X8867803Y-4499621D01*
G01X8867424Y-4520455D01*
G01X8867424Y-4540152D01*
G01X8946212Y-4540152D01*
G01X8946212Y-4563637D01*
G37*
G36*
G01X8946212Y-4731061D02*
G01X8767424Y-4731061D01*
G01X8767424Y-4694318D01*
G01X8767580Y-4678788D01*
G01X8788636Y-4678788D01*
G01X8788636Y-4707576D01*
G01X8820455Y-4707576D01*
G01X8820455Y-4707576D01*
G01X8852652Y-4707197D01*
G01X8853030Y-4682576D01*
G01X8852652Y-4657197D01*
G01X8852273Y-4653788D01*
G01X8851894Y-4648864D01*
G01X8851136Y-4645076D01*
G01X8850758Y-4642424D01*
G01X8850000Y-4639394D01*
G01X8848864Y-4636364D01*
G01X8847349Y-4632955D01*
G01X8845454Y-4630303D01*
G01X8843939Y-4628409D01*
G01X8840151Y-4624621D01*
G01X8837500Y-4622727D01*
G01X8834470Y-4621212D01*
G01X8831061Y-4620076D01*
G01X8827652Y-4619318D01*
G01X8821970Y-4618939D01*
G01X8815530Y-4619318D01*
G01X8811742Y-4620076D01*
G01X8807576Y-4621212D01*
G01X8803409Y-4623106D01*
G01X8800758Y-4625000D01*
G01X8798864Y-4626137D01*
G01X8796970Y-4627652D01*
G01X8795455Y-4629545D01*
G01X8793561Y-4632197D01*
G01X8791667Y-4635606D01*
G01X8790530Y-4638636D01*
G01X8789773Y-4641288D01*
G01X8789015Y-4648864D01*
G01X8788636Y-4678788D01*
G01X8767580Y-4678788D01*
G01X8767803Y-4656440D01*
G01X8768561Y-4644318D01*
G01X8768940Y-4641667D01*
G01X8769318Y-4638258D01*
G01X8770076Y-4634470D01*
G01X8771591Y-4628409D01*
G01X8772727Y-4625000D01*
G01X8774243Y-4621212D01*
G01X8776894Y-4615909D01*
G01X8778409Y-4613636D01*
G01X8781439Y-4609849D01*
G01X8783333Y-4607955D01*
G01X8785985Y-4605682D01*
G01X8789773Y-4603030D01*
G01X8793561Y-4600758D01*
G01X8796591Y-4599243D01*
G01X8799621Y-4598106D01*
G01X8803030Y-4596970D01*
G01X8807197Y-4595834D01*
G01X8810985Y-4595076D01*
G01X8818182Y-4594697D01*
G01X8826136Y-4595076D01*
G01X8830682Y-4595834D01*
G01X8835985Y-4596970D01*
G01X8840530Y-4598485D01*
G01X8843939Y-4600000D01*
G01X8846970Y-4601515D01*
G01X8850000Y-4603409D01*
G01X8852652Y-4604924D01*
G01X8854545Y-4606440D01*
G01X8859091Y-4610228D01*
G01X8863636Y-4615909D01*
G01X8865151Y-4618561D01*
G01X8866667Y-4621591D01*
G01X8868182Y-4625000D01*
G01X8870833Y-4632955D01*
G01X8872349Y-4640530D01*
G01X8873106Y-4647349D01*
G01X8873485Y-4678031D01*
G01X8873485Y-4707576D01*
G01X8946212Y-4707576D01*
G01X8946212Y-4731061D01*
G37*
G04 Text End*

G04 PolygonModel Start*
G54D10*
G01X5019000Y-4769100D02*
G01X5784236Y-4769100D01*
G01X5019000Y-3930900D02*
G01X5784236Y-3930900D01*
G36*
G01X5679387Y-4438902D02*
G01X5679387Y-4261102D01*
G01X5768287Y-4350002D01*
G01X5679387Y-4438902D01*
G37*
G36*
G01X5145987Y-4070602D02*
G01X5323787Y-4070602D01*
G01X5323787Y-4121402D01*
G01X5145987Y-4121402D01*
G01X5145987Y-4070602D01*
G37*
G36*
G01X5209487Y-4184902D02*
G01X5209490Y-4007102D01*
G01X5260287Y-4007102D01*
G01X5260287Y-4184902D01*
G01X5209487Y-4184902D01*
G37*
G54D11*
G01X7220958Y-4578019D02*
G01X7220958Y-4658016D01*
G01X7221004Y-4521974D02*
G01X7221004Y-4441977D01*
G01X7078990Y-4578019D02*
G01X7078990Y-4658016D01*
G01X7079038Y-4521974D02*
G01X7079038Y-4441977D01*
G01X7189975Y-4688992D02*
G01X7109970Y-4688992D01*
G01X7110024Y-4410999D02*
G01X7190026Y-4410999D01*
G01X7079038Y-4441982D02*
G02X7110024Y-4410999I30983J0D01*
G01X7190021Y-4410999D02*
G02X7221004Y-4441982I0J-30983D01*
G01X7220958Y-4658011D02*
G02X7189975Y-4688992I-30983J3D01*
G01X7109978Y-4688992D02*
G02X7078990Y-4658011I-5J30983D01*
G01X6120958Y-4228019D02*
G01X6120958Y-4308017D01*
G01X6121004Y-4171974D02*
G01X6121004Y-4091977D01*
G01X5978990Y-4228019D02*
G01X5978990Y-4308017D01*
G01X5979038Y-4171974D02*
G01X5979038Y-4091977D01*
G01X6089975Y-4338992D02*
G01X6009970Y-4338992D01*
G01X6010024Y-4060999D02*
G01X6090026Y-4060999D01*
G01X5979038Y-4091982D02*
G02X6010024Y-4060999I30983J0D01*
G01X6090021Y-4060999D02*
G02X6121004Y-4091982I0J-30983D01*
G01X6120958Y-4308011D02*
G02X6089975Y-4338992I-30983J3D01*
G01X6009978Y-4338992D02*
G02X5978990Y-4308011I-5J30983D01*
G01X7220958Y-4228019D02*
G01X7220958Y-4308017D01*
G01X7221004Y-4171974D02*
G01X7221004Y-4091977D01*
G01X7078990Y-4228019D02*
G01X7078990Y-4308017D01*
G01X7079038Y-4171974D02*
G01X7079038Y-4091977D01*
G01X7189975Y-4338992D02*
G01X7109970Y-4338992D01*
G01X7110024Y-4060999D02*
G01X7190026Y-4060999D01*
G01X7079038Y-4091982D02*
G02X7110024Y-4060999I30983J0D01*
G01X7190021Y-4060999D02*
G02X7221004Y-4091982I0J-30983D01*
G01X7220958Y-4308011D02*
G02X7189975Y-4338992I-30983J3D01*
G01X7109978Y-4338992D02*
G02X7078990Y-4308011I-5J30983D01*
G01X6120958Y-4578019D02*
G01X6120958Y-4658016D01*
G01X6121004Y-4521974D02*
G01X6121004Y-4441976D01*
G01X5978990Y-4578019D02*
G01X5978990Y-4658016D01*
G01X5979038Y-4521974D02*
G01X5979038Y-4441976D01*
G01X6089975Y-4688991D02*
G01X6009970Y-4688991D01*
G01X6010023Y-4410999D02*
G01X6090026Y-4410999D01*
G01X5979038Y-4441981D02*
G02X6010023Y-4410999I30983J0D01*
G01X6090021Y-4410999D02*
G02X6121004Y-4441981I0J-30983D01*
G01X6120958Y-4658011D02*
G02X6089975Y-4688991I-30983J3D01*
G01X6009978Y-4688991D02*
G02X5978990Y-4658011I-5J30983D01*
G01X1288019Y-4779043D02*
G01X1368016Y-4779043D01*
G01X1231973Y-4778997D02*
G01X1151976Y-4778997D01*
G01X1288019Y-4921011D02*
G01X1368016Y-4921011D01*
G01X1231973Y-4920962D02*
G01X1151976Y-4920962D01*
G01X1398991Y-4810025D02*
G01X1398991Y-4890030D01*
G01X1120998Y-4889977D02*
G01X1120998Y-4809975D01*
G01X1151981Y-4920962D02*
G02X1120998Y-4889977I0J30983D01*
G01X1120998Y-4809980D02*
G02X1151981Y-4778997I30983J0D01*
G01X1368011Y-4779043D02*
G02X1398991Y-4810025I-3J-30983D01*
G01X1398991Y-4890023D02*
G02X1368011Y-4921011I-30983J-5D01*
G01X175001Y-4731000D02*
G01X425001Y-4731000D01*
G01X425001Y-4731000D02*
G01X425001Y-3969000D01*
G01X175001Y-3969000D02*
G01X425001Y-3969000D01*
G01X160300Y-4731000D02*
G01X160300Y-3969000D01*
G54D10*
G01X3553619Y-4187607D02*
G01X3553619Y-4012368D01*
G01X3553619Y-4012368D02*
G01X3449459Y-4012368D01*
G01X3246381Y-4187607D02*
G01X3246381Y-4012368D01*
G01X3246381Y-4012368D02*
G01X3350541Y-4012368D01*
G01X3445540Y-4187607D02*
G01X3354460Y-4187607D01*
G54D12*
G01X2420000Y-3991974D02*
G01X2420000Y-3983739D01*
G01X2420000Y-4203739D02*
G01X2420000Y-4195504D01*
G01X2280000Y-3991974D02*
G01X2280000Y-3983739D01*
G01X2280000Y-4203739D02*
G01X2280000Y-4195504D01*
G01X2420000Y-4203739D02*
G01X2280000Y-4203739D01*
G01X2420000Y-3983739D02*
G01X2280000Y-3983739D01*
G01X2420000Y-4491974D02*
G01X2420000Y-4483739D01*
G01X2420000Y-4703739D02*
G01X2420000Y-4695504D01*
G01X2280001Y-4491974D02*
G01X2280001Y-4483739D01*
G01X2280001Y-4703739D02*
G01X2280001Y-4695504D01*
G01X2420000Y-4703739D02*
G01X2280001Y-4703739D01*
G01X2420000Y-4483739D02*
G01X2280001Y-4483739D01*
G01X4020000Y-4491974D02*
G01X4020000Y-4483739D01*
G01X4020000Y-4703739D02*
G01X4020000Y-4695504D01*
G01X3880000Y-4491974D02*
G01X3880000Y-4483739D01*
G01X3880000Y-4703739D02*
G01X3880000Y-4695504D01*
G01X4020000Y-4703739D02*
G01X3880000Y-4703739D01*
G01X4020000Y-4483739D02*
G01X3880000Y-4483739D01*
G54D10*
G01X8492621Y-2266060D02*
G01X8588509Y-2266060D01*
G01X8588509Y-2266060D02*
G01X8588509Y-2133940D01*
G01X8588509Y-2133940D02*
G01X8492621Y-2133940D01*
G01X8407379Y-2266060D02*
G01X8311491Y-2266060D01*
G01X8311491Y-2266060D02*
G01X8311491Y-2133940D01*
G01X8311491Y-2133940D02*
G01X8407379Y-2133940D01*
G01X8842621Y-2266060D02*
G01X8938509Y-2266060D01*
G01X8938509Y-2266060D02*
G01X8938509Y-2133940D01*
G01X8938509Y-2133940D02*
G01X8842621Y-2133940D01*
G01X8757379Y-2266060D02*
G01X8661491Y-2266060D01*
G01X8661491Y-2266060D02*
G01X8661491Y-2133940D01*
G01X8661491Y-2133940D02*
G01X8757379Y-2133940D01*
G01X8667621Y-2466060D02*
G01X8763509Y-2466060D01*
G01X8763509Y-2466060D02*
G01X8763509Y-2333940D01*
G01X8763509Y-2333940D02*
G01X8667621Y-2333940D01*
G01X8582379Y-2466060D02*
G01X8486491Y-2466060D01*
G01X8486491Y-2466060D02*
G01X8486491Y-2333940D01*
G01X8486491Y-2333940D02*
G01X8582379Y-2333940D01*
G01X3892621Y-4166061D02*
G01X3988509Y-4166061D01*
G01X3988509Y-4166061D02*
G01X3988509Y-4033940D01*
G01X3988509Y-4033940D02*
G01X3892621Y-4033940D01*
G01X3807379Y-4166061D02*
G01X3711491Y-4166061D01*
G01X3711491Y-4166061D02*
G01X3711491Y-4033940D01*
G01X3711491Y-4033940D02*
G01X3807379Y-4033940D01*
G01X2933940Y-4136360D02*
G01X2933940Y-4232248D01*
G01X2933940Y-4232248D02*
G01X3066061Y-4232248D01*
G01X3066061Y-4232248D02*
G01X3066061Y-4136360D01*
G01X2933940Y-4051118D02*
G01X2933940Y-3955230D01*
G01X2933940Y-3955230D02*
G01X3066061Y-3955230D01*
G01X3066061Y-3955230D02*
G01X3066061Y-4051118D01*
G01X1633940Y-4136360D02*
G01X1633940Y-4232248D01*
G01X1633940Y-4232248D02*
G01X1766060Y-4232248D01*
G01X1766060Y-4232248D02*
G01X1766060Y-4136360D01*
G01X1633940Y-4051118D02*
G01X1633940Y-3955230D01*
G01X1633940Y-3955230D02*
G01X1766060Y-3955230D01*
G01X1766060Y-3955230D02*
G01X1766060Y-4051118D01*
G01X2633940Y-4136360D02*
G01X2633940Y-4232248D01*
G01X2633940Y-4232248D02*
G01X2766061Y-4232248D01*
G01X2766061Y-4232248D02*
G01X2766061Y-4136360D01*
G01X2633940Y-4051118D02*
G01X2633940Y-3955230D01*
G01X2633940Y-3955230D02*
G01X2766061Y-3955230D01*
G01X2766061Y-3955230D02*
G01X2766061Y-4051118D01*
G01X2066060Y-4051118D02*
G01X2066060Y-3955230D01*
G01X2066060Y-3955230D02*
G01X1933940Y-3955230D01*
G01X1933940Y-3955230D02*
G01X1933940Y-4051118D01*
G01X2066060Y-4136360D02*
G01X2066060Y-4232248D01*
G01X2066060Y-4232248D02*
G01X1933940Y-4232248D01*
G01X1933940Y-4232248D02*
G01X1933940Y-4136360D01*
G01X2933940Y-4636360D02*
G01X2933940Y-4732248D01*
G01X2933940Y-4732248D02*
G01X3066061Y-4732248D01*
G01X3066061Y-4732248D02*
G01X3066061Y-4636360D01*
G01X2933940Y-4551118D02*
G01X2933940Y-4455230D01*
G01X2933940Y-4455230D02*
G01X3066061Y-4455230D01*
G01X3066061Y-4455230D02*
G01X3066061Y-4551118D01*
G01X1633940Y-4636360D02*
G01X1633940Y-4732248D01*
G01X1633940Y-4732248D02*
G01X1766060Y-4732248D01*
G01X1766060Y-4732248D02*
G01X1766060Y-4636360D01*
G01X1633940Y-4551118D02*
G01X1633940Y-4455230D01*
G01X1633940Y-4455230D02*
G01X1766060Y-4455230D01*
G01X1766060Y-4455230D02*
G01X1766060Y-4551118D01*
G01X2633940Y-4636360D02*
G01X2633940Y-4732248D01*
G01X2633940Y-4732248D02*
G01X2766061Y-4732248D01*
G01X2766061Y-4732248D02*
G01X2766061Y-4636360D01*
G01X2633940Y-4551118D02*
G01X2633940Y-4455230D01*
G01X2633940Y-4455230D02*
G01X2766061Y-4455230D01*
G01X2766061Y-4455230D02*
G01X2766061Y-4551118D01*
G01X2066060Y-4551118D02*
G01X2066060Y-4455230D01*
G01X2066060Y-4455230D02*
G01X1933940Y-4455230D01*
G01X1933940Y-4455230D02*
G01X1933940Y-4551118D01*
G01X2066060Y-4636360D02*
G01X2066060Y-4732248D01*
G01X2066060Y-4732248D02*
G01X1933940Y-4732248D01*
G01X1933940Y-4732248D02*
G01X1933940Y-4636360D01*
G01X4533940Y-4636360D02*
G01X4533940Y-4732248D01*
G01X4533940Y-4732248D02*
G01X4666061Y-4732248D01*
G01X4666061Y-4732248D02*
G01X4666061Y-4636360D01*
G01X4533940Y-4551118D02*
G01X4533940Y-4455230D01*
G01X4533940Y-4455230D02*
G01X4666061Y-4455230D01*
G01X4666061Y-4455230D02*
G01X4666061Y-4551118D01*
G01X3233940Y-4636360D02*
G01X3233940Y-4732248D01*
G01X3233940Y-4732248D02*
G01X3366061Y-4732248D01*
G01X3366061Y-4732248D02*
G01X3366061Y-4636360D01*
G01X3233940Y-4551118D02*
G01X3233940Y-4455230D01*
G01X3233940Y-4455230D02*
G01X3366061Y-4455230D01*
G01X3366061Y-4455230D02*
G01X3366061Y-4551118D01*
G01X4233940Y-4636360D02*
G01X4233940Y-4732248D01*
G01X4233940Y-4732248D02*
G01X4366061Y-4732248D01*
G01X4366061Y-4732248D02*
G01X4366061Y-4636360D01*
G01X4233940Y-4551118D02*
G01X4233940Y-4455230D01*
G01X4233940Y-4455230D02*
G01X4366061Y-4455230D01*
G01X4366061Y-4455230D02*
G01X4366061Y-4551118D01*
G01X3666060Y-4551118D02*
G01X3666060Y-4455230D01*
G01X3666060Y-4455230D02*
G01X3533940Y-4455230D01*
G01X3533940Y-4455230D02*
G01X3533940Y-4551118D01*
G01X3666060Y-4636360D02*
G01X3666060Y-4732248D01*
G01X3666060Y-4732248D02*
G01X3533940Y-4732248D01*
G01X3533940Y-4732248D02*
G01X3533940Y-4636360D01*
G01X533942Y-4642621D02*
G01X533942Y-4738509D01*
G01X533942Y-4738509D02*
G01X666063Y-4738509D01*
G01X666063Y-4738509D02*
G01X666063Y-4642621D01*
G01X533942Y-4557379D02*
G01X533942Y-4461491D01*
G01X533942Y-4461491D02*
G01X666063Y-4461491D01*
G01X666063Y-4461491D02*
G01X666063Y-4557379D01*
G01X666063Y-4057379D02*
G01X666063Y-3961491D01*
G01X666063Y-3961491D02*
G01X533942Y-3961491D01*
G01X533942Y-3961491D02*
G01X533942Y-4057379D01*
G01X666063Y-4142621D02*
G01X666063Y-4238509D01*
G01X666063Y-4238509D02*
G01X533942Y-4238509D01*
G01X533942Y-4238509D02*
G01X533942Y-4142621D01*
G01X767380Y-4519235D02*
G01X767380Y-4164956D01*
G01X767380Y-4164956D02*
G01X1432621Y-4164956D01*
G01X1432621Y-4164956D02*
G01X1432621Y-4519235D01*
G01X1432621Y-4519235D02*
G01X767380Y-4519235D01*
G01X6267380Y-4242858D02*
G01X6932621Y-4242858D01*
G01X6932621Y-4242858D02*
G01X6932621Y-4537137D01*
G01X6932621Y-4537137D02*
G01X6267380Y-4537137D01*
G01X6267380Y-4537137D02*
G01X6267380Y-4242858D01*
G54D11*
G01X4221405Y-3909500D02*
G01X4681409Y-3909497D01*
G01X4361105Y-3920000D02*
G01X4359703Y-4277800D01*
G01X4221405Y-4223114D02*
G01X4221405Y-4277800D01*
G01X4221405Y-3909500D02*
G01X4221405Y-3976886D01*
G01X4681409Y-4223114D02*
G01X4681409Y-4277802D01*
G01X4681409Y-3909497D02*
G01X4681409Y-3976886D01*
G01X4221405Y-4277800D02*
G01X4681409Y-4277802D01*
G54D12*
G01X4411905Y-4100000D02*
G01X4411905Y-4138100D01*
G01X4488105Y-4138100D02*
G01X4411905Y-4100000D01*
G01X4488105Y-4100000D02*
G01X4488105Y-4138100D01*
G01X4411905Y-4100000D02*
G01X4411905Y-4061900D01*
G01X4488105Y-4061900D02*
G01X4411905Y-4100000D01*
G01X4488105Y-4100000D02*
G01X4488105Y-4061900D01*
G01X4513505Y-4100000D02*
G01X4386505Y-4100000D01*
G54D11*
G01X7550002Y-4060085D02*
G01X7550002Y-3859933D01*
G01X7600022Y-4960007D02*
G01X7600022Y-5238200D01*
G01X7600022Y-5238200D02*
G01X8104001Y-5238200D01*
G01X8104001Y-5238200D02*
G01X8104001Y-4960007D01*
G01X7550027Y-3859933D02*
G01X7550027Y-3830004D01*
G01X8150000Y-3860009D02*
G01X8150000Y-3830001D01*
G01X7550002Y-3830004D02*
G01X8150000Y-3830001D01*
G01X8150000Y-4960007D02*
G01X7550002Y-4960007D01*
G01X8150000Y-4960007D02*
G01X8150000Y-4848120D01*
G01X8150000Y-4651892D02*
G01X8150000Y-4148121D01*
G01X8150000Y-3951893D02*
G01X8150000Y-3860009D01*
G01X7550002Y-4960007D02*
G01X7550002Y-4648120D01*
G01X7550002Y-4451892D02*
G01X7550002Y-4060085D01*
G54D13*
G01X1051200Y-934000D02*
G01X7274200Y-934000D01*
G01X7274200Y-934000D02*
G01X7274200Y-984800D01*
G01X7274200Y-984800D02*
G01X1051200Y-984800D01*
G01X1051200Y-984800D02*
G01X1051200Y-934000D01*
G01X8163200Y-146600D02*
G01X8163200Y-3753400D01*
G01X8163200Y-3753400D02*
G01X136800Y-3753400D01*
G01X136800Y-3753400D02*
G01X136800Y-146600D01*
G01X136800Y-146600D02*
G01X8163200Y-146600D01*
G01X7553600Y-705400D02*
G01X7553600Y-3194600D01*
G01X7553600Y-3194600D02*
G01X746400Y-3194600D01*
G01X746400Y-3194600D02*
G01X746400Y-705400D01*
G01X746400Y-705400D02*
G01X7553600Y-705400D01*
G01X7274200Y-1340400D02*
G01X7274200Y-2737400D01*
G01X7274200Y-2737400D02*
G01X1051200Y-2737400D01*
G01X1051200Y-2737400D02*
G01X1051200Y-1340400D01*
G01X1051200Y-1340400D02*
G01X7274200Y-1340400D01*
G54D11*
G01X8739697Y-1042793D02*
G01X8540301Y-1042793D01*
G01X9082599Y-1042793D02*
G01X8935302Y-1042793D01*
G01X8739384Y-1949992D02*
G01X8540611Y-1949992D01*
G01X9097499Y-1949992D02*
G01X8935614Y-1949992D01*
G01X9097499Y-1049994D02*
G01X9097499Y-1949992D01*
G01X8600000Y-628600D02*
G01X8600000Y-425400D01*
G01X8701600Y-527000D02*
G01X8498400Y-527000D01*
G01X8955600Y-425400D02*
G01X8955600Y-831800D01*
G01X8955600Y-831800D02*
G01X8955600Y-882600D01*
G01X8955600Y-882600D02*
G01X8904800Y-882600D01*
G01X8904800Y-882600D02*
G01X8904800Y-831800D01*
G01X8904800Y-831800D02*
G01X8803200Y-831800D01*
G01X8803200Y-831800D02*
G01X8803200Y-882600D01*
G01X8803200Y-882600D02*
G01X8650800Y-882600D01*
G01X8650800Y-882600D02*
G01X8650800Y-831800D01*
G01X8650800Y-831800D02*
G01X8549200Y-831800D01*
G01X8549200Y-831800D02*
G01X8549200Y-882600D01*
G01X8549200Y-882600D02*
G01X8396800Y-882600D01*
G01X8396800Y-882600D02*
G01X8396800Y-831800D01*
G01X8396800Y-831800D02*
G01X8295200Y-831800D01*
G01X8295200Y-831800D02*
G01X8295200Y-882600D01*
G01X8295200Y-882600D02*
G01X8244400Y-882600D01*
G01X8244400Y-882600D02*
G01X8244400Y-831800D01*
G01X8244400Y-831800D02*
G01X8244400Y-476200D01*
G01X8244400Y-476200D02*
G01X8244400Y-171400D01*
G01X8244400Y-171400D02*
G01X8955600Y-171400D01*
G01X8955600Y-171400D02*
G01X8955600Y-476200D01*
G01X8346000Y-234900D02*
G03X8346127Y-250139I127J-7619D01*
G03X8346254Y-234900I0J7620D01*
G01X8600000Y-413462D02*
G03X8601016Y-640642I1016J-113588D01*
G03X8602032Y-413462I0J113592D01*

G04 Circle Start*
G54D14*
G01X4879686Y-4007102D02*
G03X4929689Y-4007102I25001J0D01*
G03X4879686Y-4007102I-25001J0D01*
G54D11*
G01X2438890Y-4220729D02*
G03X2464290Y-4220729I12700J0D01*
G03X2438890Y-4220729I-12700J0D01*
G01X2438890Y-4720729D02*
G03X2464290Y-4720729I12700J0D01*
G03X2438890Y-4720729I-12700J0D01*
G01X4038890Y-4720729D02*
G03X4064290Y-4720729I12700J0D01*
G03X4038890Y-4720729I-12700J0D01*
G54D16*
G01X792483Y-4444000D02*
G03X822505Y-4444000I15011J0D01*
G03X792483Y-4444000I-15011J0D01*
G01X729059Y-4629192D02*
G03X759082Y-4629192I15011J0D01*
G03X729059Y-4629192I-15011J0D01*
G04 Circle End*

M02*

