G04 Layer: TopLayer*
G04 EasyEDA Pro v3.2.148, 2026-07-20 15:09:28*
G04 Gerber Generator version 0.3*
G04 Scale: 100 percent, Rotated: No, Reflected: No*
G04 Dimensions in millimeters*
G04 Leading zeros omitted, absolute positions, 4 integers and 5 decimals*
G04 Generated by one-click*
G04 Object Configs: Pad,Via,Track,Text,Image,Dimension,BoardOutline,BoardCutout,CopperFilled,SolidRegion,FPCStiffener,Line,PlaneZone,ComponentProperty,ComponentSilkscreen,TearDrop*
G04 Layer Configs: 1,2,3,4,5,6,7,8,9,10,11,13,14,56*
G04 Copper Areas: 46*
%FSLAX45Y45*%
%MOMM*%
%ADD10C,0.2032*%
%ADD11C,0.254*%
%ADD12R,1.681X1.68001*%
%ADD13R,0.9X0.8*%
%ADD14R,0.8X0.9*%
%ADD15R,1.7X1.7*%
%ADD16C,1.7*%
%ADD17R,0.6040X1.07*%
%ADD18R,0.6X1.07*%
%ADD19R,0.9X0.4*%
%ADD20R,0.80648X0.86401*%
%ADD21R,0.86401X0.80648*%
%ADD22O,0.36401X1.74201*%
%ADD23R,1.1X2.49999*%
%ADD24R,3.59999X2.34*%
%ADD25R,2.0X2.0*%
%ADD26R,2.99999X1.5*%
%ADD27C,1.6*%
%ADD28R,1.6X1.6*%
%ADD29C,3.19999*%
%ADD30R,1.1X0.55001*%
%ADD31R,1.1X0.3*%
%ADD32O,2.0X1.1*%
%ADD33O,1.8X1.2*%
%ADD34C,1.524*%
%ADD35C,0.61*%
G75*


G04 Copper Start*
G36*
G01X779686Y-4744398D02*
G01X999474Y-4964186D01*
G01X200000Y-4964186D01*
G01X174316Y-4962165D01*
G01X149264Y-4956150D01*
G01X125461Y-4946291D01*
G01X103494Y-4932829D01*
G01X83903Y-4916097D01*
G01X67171Y-4896506D01*
G01X53709Y-4874539D01*
G01X43850Y-4850736D01*
G01X37835Y-4825684D01*
G01X35814Y-4800000D01*
G01X35814Y-3500010D01*
G01X204181Y-3500010D01*
G01X206174Y-3527877D01*
G01X212113Y-3555177D01*
G01X221876Y-3581354D01*
G01X235266Y-3605874D01*
G01X252009Y-3628240D01*
G01X271764Y-3647996D01*
G01X294130Y-3664739D01*
G01X318651Y-3678128D01*
G01X344828Y-3687891D01*
G01X372128Y-3693830D01*
G01X399995Y-3695823D01*
G01X427862Y-3693830D01*
G01X455162Y-3687891D01*
G01X481339Y-3678128D01*
G01X505860Y-3664739D01*
G01X528225Y-3647996D01*
G01X547981Y-3628240D01*
G01X564724Y-3605874D01*
G01X578113Y-3581354D01*
G01X587877Y-3555177D01*
G01X593815Y-3527877D01*
G01X595808Y-3500010D01*
G01X593815Y-3472142D01*
G01X587877Y-3444843D01*
G01X578113Y-3418666D01*
G01X564724Y-3394145D01*
G01X547981Y-3371779D01*
G01X528225Y-3352023D01*
G01X505860Y-3335281D01*
G01X481339Y-3321891D01*
G01X455162Y-3312128D01*
G01X427862Y-3306189D01*
G01X399995Y-3304196D01*
G01X372128Y-3306189D01*
G01X344828Y-3312128D01*
G01X318651Y-3321891D01*
G01X294130Y-3335281D01*
G01X271764Y-3352023D01*
G01X252009Y-3371779D01*
G01X235266Y-3394145D01*
G01X221876Y-3418666D01*
G01X212113Y-3444843D01*
G01X206174Y-3472142D01*
G01X204181Y-3500010D01*
G01X204181Y-3500010D01*
G01X35814Y-3500010D01*
G01X35814Y-399990D01*
G01X204181Y-399990D01*
G01X206174Y-427858D01*
G01X212113Y-455157D01*
G01X221876Y-481334D01*
G01X235266Y-505855D01*
G01X252009Y-528221D01*
G01X271764Y-547977D01*
G01X294130Y-564719D01*
G01X318651Y-578109D01*
G01X344828Y-587872D01*
G01X372128Y-593811D01*
G01X399995Y-595804D01*
G01X427862Y-593811D01*
G01X455162Y-587872D01*
G01X481339Y-578109D01*
G01X505860Y-564719D01*
G01X528225Y-547977D01*
G01X547981Y-528221D01*
G01X564724Y-505855D01*
G01X578113Y-481334D01*
G01X587877Y-455157D01*
G01X593815Y-427858D01*
G01X595808Y-399990D01*
G01X593815Y-372123D01*
G01X587877Y-344823D01*
G01X578113Y-318646D01*
G01X564724Y-294126D01*
G01X547981Y-271760D01*
G01X528225Y-252004D01*
G01X505860Y-235261D01*
G01X481339Y-221872D01*
G01X455162Y-212109D01*
G01X427862Y-206170D01*
G01X399995Y-204177D01*
G01X372128Y-206170D01*
G01X344828Y-212109D01*
G01X318651Y-221872D01*
G01X294130Y-235261D01*
G01X271764Y-252004D01*
G01X252009Y-271760D01*
G01X235266Y-294126D01*
G01X221876Y-318646D01*
G01X212113Y-344823D01*
G01X206174Y-372123D01*
G01X204181Y-399990D01*
G01X204181Y-399990D01*
G01X35814Y-399990D01*
G01X35814Y-200000D01*
G01X37835Y-174316D01*
G01X43850Y-149264D01*
G01X53709Y-125461D01*
G01X67171Y-103494D01*
G01X83903Y-83903D01*
G01X103494Y-67171D01*
G01X125461Y-53709D01*
G01X149264Y-43850D01*
G01X174316Y-37835D01*
G01X200000Y-35814D01*
G01X8850000Y-35814D01*
G01X8875684Y-37835D01*
G01X8900736Y-43850D01*
G01X8924539Y-53709D01*
G01X8946506Y-67171D01*
G01X8966097Y-83903D01*
G01X8982829Y-103494D01*
G01X8996291Y-125461D01*
G01X9006150Y-149264D01*
G01X9012165Y-174316D01*
G01X9014186Y-200000D01*
G01X9014186Y-4800000D01*
G01X9012165Y-4825684D01*
G01X9006150Y-4850736D01*
G01X8996291Y-4874539D01*
G01X8982829Y-4896506D01*
G01X8966097Y-4916097D01*
G01X8946506Y-4932829D01*
G01X8924539Y-4946291D01*
G01X8900736Y-4956150D01*
G01X8875684Y-4962165D01*
G01X8850000Y-4964186D01*
G01X7016290Y-4964186D01*
G01X7190697Y-4789779D01*
G01X7198549Y-4800513D01*
G01X7208385Y-4809464D01*
G01X7219809Y-4816272D01*
G01X7232362Y-4820664D01*
G01X7245539Y-4822463D01*
G01X7315171Y-4892095D01*
G01X7325218Y-4899805D01*
G01X7336919Y-4904651D01*
G01X7349475Y-4906304D01*
G01X8142214Y-4906304D01*
G01X8154770Y-4904651D01*
G01X8166471Y-4899805D01*
G01X8176518Y-4892095D01*
G01X8207800Y-4860813D01*
G01X8400000Y-4860813D01*
G01X8411067Y-4859060D01*
G01X8421051Y-4853973D01*
G01X8428974Y-4846050D01*
G01X8434061Y-4836066D01*
G01X8435814Y-4824999D01*
G01X8435814Y-4674999D01*
G01X8434061Y-4663932D01*
G01X8428974Y-4653949D01*
G01X8421051Y-4646025D01*
G01X8411067Y-4640938D01*
G01X8400000Y-4639185D01*
G01X8100001Y-4639185D01*
G01X8088933Y-4640938D01*
G01X8078950Y-4646025D01*
G01X8071026Y-4653949D01*
G01X8065939Y-4663932D01*
G01X8064187Y-4674999D01*
G01X8064187Y-4809276D01*
G01X7925277Y-4809276D01*
G01X7935701Y-4792845D01*
G01X7942590Y-4774647D01*
G01X7945661Y-4755432D01*
G01X7944786Y-4735992D01*
G01X7940001Y-4717131D01*
G01X7931504Y-4699625D01*
G01X7919646Y-4684197D01*
G01X7904915Y-4671483D01*
G01X7887919Y-4662008D01*
G01X7869359Y-4656161D01*
G01X7850001Y-4654185D01*
G01X7830643Y-4656161D01*
G01X7812083Y-4662008D01*
G01X7795087Y-4671483D01*
G01X7780356Y-4684197D01*
G01X7768498Y-4699625D01*
G01X7760001Y-4717131D01*
G01X7755216Y-4735992D01*
G01X7754341Y-4755432D01*
G01X7757412Y-4774647D01*
G01X7764301Y-4792845D01*
G01X7774725Y-4809276D01*
G01X7369570Y-4809276D01*
G01X7314148Y-4753854D01*
G01X7312349Y-4740677D01*
G01X7307957Y-4728124D01*
G01X7301149Y-4716700D01*
G01X7292198Y-4706864D01*
G01X7281464Y-4699012D01*
G01X7319662Y-4660814D01*
G01X7351566Y-4660814D01*
G01X7348503Y-4675063D01*
G01X7348627Y-4689638D01*
G01X7351932Y-4703833D01*
G01X7358258Y-4716964D01*
G01X7367300Y-4728395D01*
G01X7378621Y-4737575D01*
G01X7391673Y-4744061D01*
G01X7405828Y-4747538D01*
G01X7420400Y-4747839D01*
G01X7434685Y-4744949D01*
G01X7447995Y-4739009D01*
G01X7459685Y-4730304D01*
G01X7618215Y-4730304D01*
G01X7630772Y-4728651D01*
G01X7642472Y-4723804D01*
G01X7652520Y-4716095D01*
G01X8207800Y-4160815D01*
G01X8400000Y-4160815D01*
G01X8411067Y-4159062D01*
G01X8421051Y-4153975D01*
G01X8428974Y-4146051D01*
G01X8434061Y-4136068D01*
G01X8435814Y-4125001D01*
G01X8435814Y-3975001D01*
G01X8434061Y-3963934D01*
G01X8428974Y-3953950D01*
G01X8421051Y-3946027D01*
G01X8411067Y-3940940D01*
G01X8400000Y-3939187D01*
G01X8100001Y-3939187D01*
G01X8088933Y-3940940D01*
G01X8078950Y-3946027D01*
G01X8071026Y-3953950D01*
G01X8065939Y-3963934D01*
G01X8064187Y-3975001D01*
G01X8064187Y-4125001D01*
G01X8065829Y-4135721D01*
G01X8070605Y-4145459D01*
G01X8078076Y-4153320D01*
G01X7635816Y-4595581D01*
G01X7635816Y-4475000D01*
G01X7634063Y-4463933D01*
G01X7628976Y-4453949D01*
G01X7621052Y-4446026D01*
G01X7611069Y-4440939D01*
G01X7600002Y-4439186D01*
G01X7300002Y-4439186D01*
G01X7290747Y-4440402D01*
G01X7282121Y-4443969D01*
G01X7274710Y-4449644D01*
G01X7274710Y-4346201D01*
G01X7273056Y-4333645D01*
G01X7268210Y-4321944D01*
G01X7260500Y-4311897D01*
G01X7230815Y-4282211D01*
G01X7230815Y-4257792D01*
G01X7328598Y-4160008D01*
G01X7754187Y-4160008D01*
G01X7756028Y-4178700D01*
G01X7761481Y-4196674D01*
G01X7770335Y-4213239D01*
G01X7782250Y-4227759D01*
G01X7796770Y-4239674D01*
G01X7813335Y-4248529D01*
G01X7831309Y-4253981D01*
G01X7850001Y-4255822D01*
G01X7868693Y-4253981D01*
G01X7886667Y-4248529D01*
G01X7903232Y-4239674D01*
G01X7917752Y-4227759D01*
G01X7929667Y-4213239D01*
G01X7938521Y-4196674D01*
G01X7943974Y-4178700D01*
G01X7945815Y-4160008D01*
G01X7943974Y-4141316D01*
G01X7938521Y-4123342D01*
G01X7929667Y-4106777D01*
G01X7917752Y-4092257D01*
G01X7903232Y-4080342D01*
G01X7886667Y-4071488D01*
G01X7868693Y-4066035D01*
G01X7850001Y-4064194D01*
G01X7831309Y-4066035D01*
G01X7813335Y-4071488D01*
G01X7796770Y-4080342D01*
G01X7782250Y-4092257D01*
G01X7770335Y-4106777D01*
G01X7761481Y-4123342D01*
G01X7756028Y-4141316D01*
G01X7754187Y-4160008D01*
G01X7754187Y-4160008D01*
G01X7328598Y-4160008D01*
G01X7717699Y-3770907D01*
G01X7725409Y-3760860D01*
G01X7730256Y-3749159D01*
G01X7731909Y-3736603D01*
G01X7731909Y-3600441D01*
G01X7747200Y-3622458D01*
G01X7765355Y-3642180D01*
G01X7786034Y-3659237D01*
G01X7808848Y-3673311D01*
G01X7833370Y-3684137D01*
G01X7859142Y-3691512D01*
G01X7885679Y-3695298D01*
G01X7912484Y-3695425D01*
G01X7939056Y-3691890D01*
G01X7964896Y-3684759D01*
G01X7989520Y-3674165D01*
G01X8012466Y-3660308D01*
G01X8033305Y-3643447D01*
G01X8051646Y-3623897D01*
G01X8067145Y-3602026D01*
G01X8079511Y-3578243D01*
G01X8088514Y-3552995D01*
G01X8093984Y-3526753D01*
G01X8095819Y-3500010D01*
G01X8093984Y-3473267D01*
G01X8088514Y-3447025D01*
G01X8079511Y-3421776D01*
G01X8067145Y-3397993D01*
G01X8051646Y-3376122D01*
G01X8033305Y-3356573D01*
G01X8012466Y-3339711D01*
G01X7989520Y-3325854D01*
G01X7964896Y-3315261D01*
G01X7939056Y-3308129D01*
G01X7912484Y-3304594D01*
G01X7885679Y-3304721D01*
G01X7859142Y-3308507D01*
G01X7833370Y-3315882D01*
G01X7808848Y-3326708D01*
G01X7786034Y-3340782D01*
G01X7765355Y-3357839D01*
G01X7747200Y-3377561D01*
G01X7731909Y-3399578D01*
G01X7731909Y-3286359D01*
G01X8539253Y-2479014D01*
G01X8589987Y-2479014D01*
G01X8599601Y-2477700D01*
G01X8608509Y-2473853D01*
G01X8616058Y-2467756D01*
G01X8621693Y-2459856D01*
G01X8625000Y-2450734D01*
G01X8628307Y-2459856D01*
G01X8633942Y-2467756D01*
G01X8641491Y-2473853D01*
G01X8650399Y-2477700D01*
G01X8660013Y-2479014D01*
G01X8740660Y-2479014D01*
G01X8751727Y-2477261D01*
G01X8761711Y-2472174D01*
G01X8769634Y-2464251D01*
G01X8774721Y-2454267D01*
G01X8776474Y-2443200D01*
G01X8776474Y-2356800D01*
G01X8774721Y-2345733D01*
G01X8769634Y-2335749D01*
G01X8761711Y-2327826D01*
G01X8751727Y-2322739D01*
G01X8740660Y-2320986D01*
G01X8689942Y-2320986D01*
G01X8633047Y-2264091D01*
G01X8623602Y-2256735D01*
G01X8612643Y-2251915D01*
G01X8600837Y-2249927D01*
G01X8601474Y-2243200D01*
G01X8601474Y-2184754D01*
G01X8611751Y-2192425D01*
G01X8623312Y-2197974D01*
G01X8635725Y-2201194D01*
G01X8648526Y-2201965D01*
G01X8648526Y-2243200D01*
G01X8650279Y-2254267D01*
G01X8655366Y-2264251D01*
G01X8663289Y-2272174D01*
G01X8673273Y-2277261D01*
G01X8684340Y-2279014D01*
G01X8764987Y-2279014D01*
G01X8774601Y-2277700D01*
G01X8783509Y-2273853D01*
G01X8791058Y-2267756D01*
G01X8796692Y-2259856D01*
G01X8800000Y-2250734D01*
G01X8803307Y-2259856D01*
G01X8808942Y-2267756D01*
G01X8816491Y-2273853D01*
G01X8825399Y-2277700D01*
G01X8835013Y-2279014D01*
G01X8915660Y-2279014D01*
G01X8926727Y-2277261D01*
G01X8936711Y-2272174D01*
G01X8944634Y-2264251D01*
G01X8949721Y-2254267D01*
G01X8951474Y-2243200D01*
G01X8951474Y-2156800D01*
G01X8949721Y-2145733D01*
G01X8944634Y-2135749D01*
G01X8936711Y-2127826D01*
G01X8926727Y-2122739D01*
G01X8915660Y-2120986D01*
G01X8864941Y-2120986D01*
G01X8759204Y-2015248D01*
G01X8774449Y-2022431D01*
G01X8790717Y-2026831D01*
G01X8807504Y-2028313D01*
G01X8867504Y-2028313D01*
G01X8886209Y-2026470D01*
G01X8904193Y-2021011D01*
G01X8920766Y-2012145D01*
G01X8935290Y-2000215D01*
G01X8947205Y-1985680D01*
G01X8956053Y-1969098D01*
G01X8961494Y-1951108D01*
G01X8963318Y-1932401D01*
G01X8961456Y-1913699D01*
G01X8955978Y-1895720D01*
G01X8947096Y-1879156D01*
G01X8935151Y-1864645D01*
G01X8920603Y-1852745D01*
G01X8904012Y-1843913D01*
G01X8886016Y-1838491D01*
G01X8886016Y-1459397D01*
G01X8884363Y-1446841D01*
G01X8879517Y-1435140D01*
G01X8871807Y-1425093D01*
G01X8562726Y-1116012D01*
G01X8724878Y-1116012D01*
G01X8734481Y-1129534D01*
G01X8746273Y-1141198D01*
G01X8759900Y-1150653D01*
G01X8774953Y-1157617D01*
G01X8790981Y-1161881D01*
G01X8807504Y-1163316D01*
G01X8867504Y-1163316D01*
G01X8886197Y-1161475D01*
G01X8904171Y-1156023D01*
G01X8920736Y-1147169D01*
G01X8935255Y-1135253D01*
G01X8947171Y-1120734D01*
G01X8956025Y-1104169D01*
G01X8961477Y-1086195D01*
G01X8963318Y-1067502D01*
G01X8961477Y-1048810D01*
G01X8956025Y-1030836D01*
G01X8947171Y-1014271D01*
G01X8935255Y-999752D01*
G01X8920736Y-987836D01*
G01X8904171Y-978982D01*
G01X8886197Y-973530D01*
G01X8867504Y-971689D01*
G01X8807504Y-971689D01*
G01X8790983Y-973124D01*
G01X8774956Y-977386D01*
G01X8759904Y-984349D01*
G01X8746279Y-993802D01*
G01X8734487Y-1005464D01*
G01X8724883Y-1018984D01*
G01X8539256Y-1018984D01*
G01X8527997Y-1004606D01*
G01X8514089Y-992771D01*
G01X8498094Y-983959D01*
G01X8480659Y-978525D01*
G01X8462490Y-976689D01*
G01X8396722Y-976689D01*
G01X8771090Y-602320D01*
G01X8786395Y-616312D01*
G01X8804017Y-627244D01*
G01X8823352Y-634740D01*
G01X8843737Y-638543D01*
G01X8864474Y-638523D01*
G01X8884852Y-634681D01*
G01X8904173Y-627149D01*
G01X8921774Y-616184D01*
G01X8937052Y-602163D01*
G01X8949484Y-585566D01*
G01X8958643Y-566961D01*
G01X8964216Y-546987D01*
G01X8966012Y-526328D01*
G01X8963969Y-505692D01*
G01X8958156Y-485786D01*
G01X8948774Y-467293D01*
G01X8936144Y-450846D01*
G01X8920699Y-437009D01*
G01X8902967Y-426256D01*
G01X8883558Y-418956D01*
G01X8863135Y-415359D01*
G01X8842399Y-415588D01*
G01X8822061Y-419636D01*
G01X8802818Y-427363D01*
G01X8785328Y-438505D01*
G01X8770193Y-452680D01*
G01X8757929Y-469402D01*
G01X8748958Y-488098D01*
G01X8743098Y-493094D01*
G01X8235099Y-1001093D01*
G01X8227389Y-1011141D01*
G01X8222543Y-1022842D01*
G01X8220889Y-1035398D01*
G01X8220889Y-1209178D01*
G01X8222543Y-1221734D01*
G01X8227389Y-1233435D01*
G01X8235099Y-1243482D01*
G01X8250299Y-1258682D01*
G01X8184299Y-1324683D01*
G01X8176589Y-1334730D01*
G01X8171743Y-1346431D01*
G01X8170090Y-1358987D01*
G01X8170090Y-1663787D01*
G01X8171743Y-1676343D01*
G01X8176589Y-1688044D01*
G01X8184299Y-1698091D01*
G01X8234644Y-1748437D01*
G01X8226599Y-1756482D01*
G01X8218889Y-1766529D01*
G01X8214043Y-1778230D01*
G01X8212390Y-1790786D01*
G01X8212390Y-2187436D01*
G01X8214329Y-2201016D01*
G01X8219993Y-2213511D01*
G01X8221445Y-2226655D01*
G01X8225477Y-2239249D01*
G01X8231927Y-2250793D01*
G01X8240540Y-2260828D01*
G01X8250972Y-2268954D01*
G01X8262810Y-2274848D01*
G01X8275581Y-2278277D01*
G01X8288779Y-2279103D01*
G01X8301879Y-2277294D01*
G01X8314359Y-2272922D01*
G01X8320021Y-2276028D01*
G01X8326149Y-2278065D01*
G01X8326149Y-2331730D01*
G01X6766501Y-3891378D01*
G01X6405597Y-3891378D01*
G01X6393041Y-3893031D01*
G01X6381340Y-3897878D01*
G01X6371293Y-3905588D01*
G01X6130814Y-4146066D01*
G01X6130814Y-4089998D01*
G01X6129062Y-4078931D01*
G01X6123975Y-4068947D01*
G01X6116051Y-4061024D01*
G01X6106068Y-4055937D01*
G01X6095000Y-4054184D01*
G01X6005001Y-4054184D01*
G01X5993303Y-4056148D01*
G01X5982889Y-4061825D01*
G01X5974900Y-4070592D01*
G01X5970212Y-4081488D01*
G01X5960708Y-4081488D01*
G01X5948152Y-4083141D01*
G01X5936451Y-4087987D01*
G01X5926403Y-4095697D01*
G01X5915213Y-4106888D01*
G01X5869609Y-4106888D01*
G01X5869609Y-3951002D01*
G01X5867856Y-3939934D01*
G01X5862769Y-3929951D01*
G01X5854846Y-3922027D01*
G01X5844862Y-3916940D01*
G01X5833795Y-3915188D01*
G01X5665695Y-3915188D01*
G01X5654628Y-3916940D01*
G01X5644644Y-3922027D01*
G01X5636721Y-3929951D01*
G01X5631634Y-3939934D01*
G01X5629881Y-3951002D01*
G01X5629881Y-4060765D01*
G01X5436214Y-3867098D01*
G01X5426166Y-3859388D01*
G01X5414465Y-3854541D01*
G01X5401909Y-3852888D01*
G01X4970110Y-3852888D01*
G01X4957554Y-3854541D01*
G01X4945853Y-3859388D01*
G01X4935805Y-3867098D01*
G01X4899215Y-3903688D01*
G01X4815424Y-3903688D01*
G01X4815424Y-501685D01*
G01X4832801Y-490067D01*
G01X4847807Y-475515D01*
G01X4859952Y-458503D01*
G01X4868842Y-439585D01*
G01X4874186Y-419377D01*
G01X4875698Y-399990D01*
G01X7704192Y-399990D01*
G01X7706185Y-427858D01*
G01X7712123Y-455157D01*
G01X7721887Y-481334D01*
G01X7735276Y-505855D01*
G01X7752019Y-528221D01*
G01X7771775Y-547977D01*
G01X7794140Y-564719D01*
G01X7818661Y-578109D01*
G01X7844838Y-587872D01*
G01X7872138Y-593811D01*
G01X7900005Y-595804D01*
G01X7927872Y-593811D01*
G01X7955172Y-587872D01*
G01X7981349Y-578109D01*
G01X8005870Y-564719D01*
G01X8028236Y-547977D01*
G01X8047991Y-528221D01*
G01X8048905Y-527000D01*
G01X8233986Y-527000D01*
G01X8235893Y-547583D01*
G01X8241550Y-567464D01*
G01X8250764Y-585968D01*
G01X8263221Y-602463D01*
G01X8278497Y-616389D01*
G01X8296071Y-627271D01*
G01X8315346Y-634738D01*
G01X8335665Y-638536D01*
G01X8356335Y-638536D01*
G01X8376654Y-634738D01*
G01X8395929Y-627271D01*
G01X8413504Y-616389D01*
G01X8428779Y-602463D01*
G01X8441236Y-585968D01*
G01X8450450Y-567464D01*
G01X8456107Y-547583D01*
G01X8458014Y-527000D01*
G01X8456107Y-506417D01*
G01X8450450Y-486536D01*
G01X8441236Y-468032D01*
G01X8428779Y-451537D01*
G01X8413504Y-437611D01*
G01X8395929Y-426729D01*
G01X8376654Y-419262D01*
G01X8356335Y-415464D01*
G01X8335665Y-415464D01*
G01X8315346Y-419262D01*
G01X8296071Y-426729D01*
G01X8278497Y-437611D01*
G01X8263221Y-451537D01*
G01X8250764Y-468032D01*
G01X8241550Y-486536D01*
G01X8235893Y-506417D01*
G01X8233986Y-527000D01*
G01X8233986Y-527000D01*
G01X8048905Y-527000D01*
G01X8064734Y-505855D01*
G01X8078124Y-481334D01*
G01X8087887Y-455157D01*
G01X8093826Y-427858D01*
G01X8095819Y-399990D01*
G01X8093826Y-372123D01*
G01X8087887Y-344823D01*
G01X8078124Y-318646D01*
G01X8064734Y-294126D01*
G01X8048920Y-273000D01*
G01X8487986Y-273000D01*
G01X8489893Y-293583D01*
G01X8495550Y-313464D01*
G01X8504764Y-331968D01*
G01X8517221Y-348463D01*
G01X8532497Y-362389D01*
G01X8550071Y-373271D01*
G01X8569346Y-380738D01*
G01X8589665Y-384536D01*
G01X8610335Y-384536D01*
G01X8630654Y-380738D01*
G01X8649929Y-373271D01*
G01X8667504Y-362389D01*
G01X8682779Y-348463D01*
G01X8695236Y-331968D01*
G01X8704450Y-313464D01*
G01X8710107Y-293583D01*
G01X8712014Y-273000D01*
G01X8710107Y-252417D01*
G01X8704450Y-232536D01*
G01X8695236Y-214032D01*
G01X8682779Y-197537D01*
G01X8667504Y-183611D01*
G01X8649929Y-172729D01*
G01X8630654Y-165262D01*
G01X8610335Y-161464D01*
G01X8589665Y-161464D01*
G01X8569346Y-165262D01*
G01X8550071Y-172729D01*
G01X8532497Y-183611D01*
G01X8517221Y-197537D01*
G01X8504764Y-214032D01*
G01X8495550Y-232536D01*
G01X8489893Y-252417D01*
G01X8487986Y-273000D01*
G01X8487986Y-273000D01*
G01X8048920Y-273000D01*
G01X8047991Y-271760D01*
G01X8028236Y-252004D01*
G01X8005870Y-235261D01*
G01X7981349Y-221872D01*
G01X7955172Y-212109D01*
G01X7927872Y-206170D01*
G01X7900005Y-204177D01*
G01X7872138Y-206170D01*
G01X7844838Y-212109D01*
G01X7818661Y-221872D01*
G01X7794140Y-235261D01*
G01X7771775Y-252004D01*
G01X7752019Y-271760D01*
G01X7735276Y-294126D01*
G01X7721887Y-318646D01*
G01X7712123Y-344823D01*
G01X7706185Y-372123D01*
G01X7704192Y-399990D01*
G01X7704192Y-399990D01*
G01X4875698Y-399990D01*
G01X4875811Y-398537D01*
G01X4873664Y-377745D01*
G01X4867814Y-357677D01*
G01X4858452Y-338988D01*
G01X4845884Y-322286D01*
G01X4830518Y-308115D01*
G01X4812855Y-296937D01*
G01X4793470Y-289117D01*
G01X4772996Y-284907D01*
G01X4752098Y-284447D01*
G01X4731458Y-287750D01*
G01X4711748Y-294710D01*
G01X4693610Y-305099D01*
G01X4623415Y-234905D01*
G01X4613368Y-227195D01*
G01X4601667Y-222349D01*
G01X4589111Y-220695D01*
G01X2096786Y-220695D01*
G01X2084229Y-222349D01*
G01X2072529Y-227195D01*
G01X2062481Y-234905D01*
G01X2006062Y-291324D01*
G01X1986350Y-285977D01*
G01X1966006Y-284177D01*
G01X1945662Y-285977D01*
G01X1925950Y-291324D01*
G01X1873311Y-238685D01*
G01X1863263Y-230975D01*
G01X1851563Y-226129D01*
G01X1839006Y-224475D01*
G01X1077008Y-224475D01*
G01X1064452Y-226129D01*
G01X1052751Y-230975D01*
G01X1042703Y-238685D01*
G01X997212Y-284177D01*
G01X870007Y-284177D01*
G01X858939Y-285929D01*
G01X848956Y-291016D01*
G01X841032Y-298940D01*
G01X835945Y-308923D01*
G01X834193Y-319991D01*
G01X834193Y-479990D01*
G01X835945Y-491057D01*
G01X841032Y-501041D01*
G01X848956Y-508964D01*
G01X858939Y-514051D01*
G01X870007Y-515804D01*
G01X1030006Y-515804D01*
G01X1041073Y-514051D01*
G01X1051057Y-508964D01*
G01X1058980Y-501041D01*
G01X1064067Y-491057D01*
G01X1065820Y-479990D01*
G01X1065820Y-352786D01*
G01X1097103Y-321503D01*
G01X1118844Y-321503D01*
G01X1106286Y-337833D01*
G01X1096819Y-356130D01*
G01X1090744Y-375814D01*
G01X1088253Y-396263D01*
G01X1089423Y-416830D01*
G01X1094219Y-436864D01*
G01X1102489Y-455732D01*
G01X1113971Y-472836D01*
G01X1128301Y-487635D01*
G01X1145027Y-499661D01*
G01X1163618Y-508534D01*
G01X1183488Y-513972D01*
G01X1204006Y-515804D01*
G01X1224525Y-513972D01*
G01X1244395Y-508534D01*
G01X1262986Y-499661D01*
G01X1279712Y-487635D01*
G01X1294042Y-472836D01*
G01X1305524Y-455732D01*
G01X1313793Y-436864D01*
G01X1318589Y-416830D01*
G01X1319760Y-396263D01*
G01X1317269Y-375814D01*
G01X1311194Y-356130D01*
G01X1301727Y-337833D01*
G01X1289169Y-321503D01*
G01X1372844Y-321503D01*
G01X1360286Y-337833D01*
G01X1350819Y-356130D01*
G01X1344744Y-375814D01*
G01X1342253Y-396263D01*
G01X1343423Y-416830D01*
G01X1348219Y-436864D01*
G01X1356489Y-455732D01*
G01X1367971Y-472836D01*
G01X1382301Y-487635D01*
G01X1399027Y-499661D01*
G01X1417618Y-508534D01*
G01X1437488Y-513972D01*
G01X1458006Y-515804D01*
G01X1478525Y-513972D01*
G01X1498395Y-508534D01*
G01X1516986Y-499661D01*
G01X1533712Y-487635D01*
G01X1548042Y-472836D01*
G01X1559524Y-455732D01*
G01X1567793Y-436864D01*
G01X1572589Y-416830D01*
G01X1573760Y-396263D01*
G01X1571269Y-375814D01*
G01X1565194Y-356130D01*
G01X1555727Y-337833D01*
G01X1543169Y-321503D01*
G01X1626844Y-321503D01*
G01X1614286Y-337833D01*
G01X1604819Y-356130D01*
G01X1598744Y-375814D01*
G01X1596253Y-396263D01*
G01X1597423Y-416830D01*
G01X1602219Y-436864D01*
G01X1610489Y-455732D01*
G01X1621971Y-472836D01*
G01X1636301Y-487635D01*
G01X1653027Y-499661D01*
G01X1671618Y-508534D01*
G01X1691488Y-513972D01*
G01X1712006Y-515804D01*
G01X1732525Y-513972D01*
G01X1752395Y-508534D01*
G01X1770986Y-499661D01*
G01X1787712Y-487635D01*
G01X1802042Y-472836D01*
G01X1813524Y-455732D01*
G01X1821793Y-436864D01*
G01X1826589Y-416830D01*
G01X1827760Y-396263D01*
G01X1825269Y-375814D01*
G01X1819194Y-356130D01*
G01X1809727Y-337833D01*
G01X1797169Y-321503D01*
G01X1818911Y-321503D01*
G01X1857341Y-359933D01*
G01X1852028Y-379454D01*
G01X1850193Y-399601D01*
G01X1851892Y-419760D01*
G01X1857074Y-439316D01*
G01X1865579Y-457672D01*
G01X1877149Y-474268D01*
G01X1891430Y-488598D01*
G01X1907987Y-500223D01*
G01X1926315Y-508790D01*
G01X1945853Y-514037D01*
G01X1966007Y-515804D01*
G01X1986160Y-514037D01*
G01X2005699Y-508790D01*
G01X2024026Y-500223D01*
G01X2040583Y-488597D01*
G01X2054864Y-474268D01*
G01X2066434Y-457672D01*
G01X2074939Y-439316D01*
G01X2080120Y-419760D01*
G01X2081820Y-399601D01*
G01X2079985Y-379453D01*
G01X2074672Y-359932D01*
G01X2116881Y-317723D01*
G01X2138490Y-317723D01*
G01X2125772Y-332665D01*
G01X2115759Y-349539D01*
G01X2108739Y-367861D01*
G01X2104912Y-387105D01*
G01X2104388Y-406719D01*
G01X2107183Y-426140D01*
G01X2113217Y-444810D01*
G01X2122315Y-462194D01*
G01X2134218Y-477792D01*
G01X2148583Y-491158D01*
G01X2164998Y-501906D01*
G01X2182991Y-509730D01*
G01X2202048Y-514403D01*
G01X2221619Y-515793D01*
G01X2241145Y-513859D01*
G01X2260064Y-508656D01*
G01X2391461Y-640054D01*
G01X2391461Y-3973090D01*
G01X2381269Y-3975646D01*
G01X2372257Y-3981050D01*
G01X2365202Y-3988837D01*
G01X2360710Y-3998336D01*
G01X2359168Y-4008730D01*
G01X2359168Y-4048730D01*
G01X2359736Y-4055080D01*
G01X2361420Y-4061229D01*
G01X2359736Y-4067378D01*
G01X2359168Y-4073729D01*
G01X2359168Y-4113729D01*
G01X2359736Y-4120079D01*
G01X2361420Y-4126228D01*
G01X2359736Y-4132377D01*
G01X2359168Y-4138727D01*
G01X2359168Y-4173095D01*
G01X2352367Y-4186560D01*
G01X2348785Y-4201214D01*
G01X2348607Y-4216299D01*
G01X2351844Y-4231033D01*
G01X2358327Y-4244655D01*
G01X2367720Y-4256459D01*
G01X2379539Y-4265834D01*
G01X2393170Y-4272296D01*
G01X2407910Y-4275510D01*
G01X2422994Y-4275309D01*
G01X2437642Y-4271704D01*
G01X2451097Y-4264882D01*
G01X2462662Y-4255195D01*
G01X2471738Y-4243146D01*
G01X2477856Y-4229357D01*
G01X2480700Y-4214541D01*
G01X2484982Y-4214541D01*
G01X2493950Y-4213400D01*
G01X2502347Y-4210050D01*
G01X2563901Y-4271604D01*
G01X2573948Y-4279314D01*
G01X2585649Y-4284160D01*
G01X2598205Y-4285813D01*
G01X2754757Y-4285813D01*
G01X2767314Y-4284160D01*
G01X2779014Y-4279314D01*
G01X2789062Y-4271604D01*
G01X2853424Y-4207241D01*
G01X2920986Y-4207241D01*
G01X2920986Y-4209399D01*
G01X2922739Y-4220466D01*
G01X2927826Y-4230450D01*
G01X2935749Y-4238373D01*
G01X2945733Y-4243460D01*
G01X2956800Y-4245213D01*
G01X3043201Y-4245213D01*
G01X3054268Y-4243460D01*
G01X3064252Y-4238373D01*
G01X3072175Y-4230450D01*
G01X3077262Y-4220466D01*
G01X3079015Y-4209399D01*
G01X3079015Y-4128752D01*
G01X3077700Y-4119138D01*
G01X3073853Y-4110230D01*
G01X3067756Y-4102681D01*
G01X3059857Y-4097046D01*
G01X3050734Y-4093739D01*
G01X3059857Y-4090431D01*
G01X3067756Y-4084797D01*
G01X3073853Y-4077248D01*
G01X3077700Y-4068340D01*
G01X3079015Y-4058726D01*
G01X3079015Y-4032112D01*
G01X3181209Y-4134306D01*
G01X3191257Y-4142016D01*
G01X3202957Y-4146863D01*
G01X3215514Y-4148516D01*
G01X3246355Y-4148516D01*
G01X3241029Y-4158680D01*
G01X3239190Y-4170008D01*
G01X3239190Y-4277008D01*
G01X3240943Y-4288075D01*
G01X3246030Y-4298059D01*
G01X3253953Y-4305982D01*
G01X3263937Y-4311069D01*
G01X3275004Y-4312822D01*
G01X3325704Y-4312822D01*
G01X3362299Y-4349416D01*
G01X3372346Y-4357126D01*
G01X3384047Y-4361972D01*
G01X3396603Y-4363625D01*
G01X3762202Y-4363625D01*
G01X3774759Y-4361972D01*
G01X3786459Y-4357126D01*
G01X3796507Y-4349416D01*
G01X3958463Y-4187460D01*
G01X3965660Y-4179014D01*
G01X3976727Y-4177262D01*
G01X3986711Y-4172175D01*
G01X3994634Y-4164251D01*
G01X3999721Y-4154268D01*
G01X4001474Y-4143200D01*
G01X4001474Y-4056800D01*
G01X3999721Y-4045733D01*
G01X3994634Y-4035749D01*
G01X3986711Y-4027826D01*
G01X3976727Y-4022739D01*
G01X3965660Y-4020986D01*
G01X3928537Y-4020986D01*
G01X3948807Y-4000716D01*
G01X4084189Y-4000716D01*
G01X4084189Y-4200000D01*
G01X4085942Y-4211067D01*
G01X4091029Y-4221051D01*
G01X4098952Y-4228974D01*
G01X4108936Y-4234061D01*
G01X4120003Y-4235814D01*
G01X4196388Y-4235814D01*
G01X4189801Y-4247095D01*
G01X4185553Y-4259448D01*
G01X4183809Y-4272395D01*
G01X4005677Y-4450526D01*
G01X3997788Y-4460888D01*
G01X3992939Y-4472975D01*
G01X3982372Y-4475210D01*
G01X3972952Y-4480494D01*
G01X3965535Y-4488346D01*
G01X3960797Y-4498053D01*
G01X3959168Y-4508730D01*
G01X3959168Y-4548730D01*
G01X3959736Y-4555080D01*
G01X3961420Y-4561229D01*
G01X3959736Y-4567378D01*
G01X3959168Y-4573729D01*
G01X3959168Y-4594392D01*
G01X3950058Y-4592783D01*
G01X3940812Y-4592456D01*
G01X3940812Y-4573729D01*
G01X3940244Y-4567378D01*
G01X3938560Y-4561229D01*
G01X3940244Y-4555080D01*
G01X3940812Y-4548730D01*
G01X3940812Y-4508730D01*
G01X3939059Y-4497663D01*
G01X3933972Y-4487679D01*
G01X3926049Y-4479756D01*
G01X3916065Y-4474669D01*
G01X3904998Y-4472916D01*
G01X3814998Y-4472916D01*
G01X3804914Y-4474365D01*
G01X3795645Y-4478595D01*
G01X3787943Y-4485263D01*
G01X3782430Y-4493831D01*
G01X3779553Y-4503604D01*
G01X3769137Y-4511524D01*
G01X3752793Y-4527868D01*
G01X3745083Y-4537915D01*
G01X3740237Y-4549616D01*
G01X3738584Y-4562172D01*
G01X3738584Y-4581535D01*
G01X3699558Y-4620561D01*
G01X3678065Y-4620561D01*
G01X3674409Y-4611182D01*
G01X3668286Y-4603190D01*
G01X3660181Y-4597219D01*
G01X3650734Y-4593739D01*
G01X3659857Y-4590431D01*
G01X3667756Y-4584797D01*
G01X3673853Y-4577248D01*
G01X3677700Y-4568340D01*
G01X3679015Y-4558726D01*
G01X3679015Y-4478079D01*
G01X3677262Y-4467012D01*
G01X3672175Y-4457028D01*
G01X3664251Y-4449105D01*
G01X3654268Y-4444018D01*
G01X3643201Y-4442265D01*
G01X3556800Y-4442265D01*
G01X3545733Y-4444018D01*
G01X3535749Y-4449105D01*
G01X3527826Y-4457028D01*
G01X3522739Y-4467012D01*
G01X3520986Y-4478079D01*
G01X3520986Y-4552027D01*
G01X3508180Y-4553833D01*
G01X3495968Y-4558092D01*
G01X3484815Y-4564639D01*
G01X3475144Y-4573227D01*
G01X3467325Y-4583528D01*
G01X3461653Y-4595151D01*
G01X3458346Y-4607654D01*
G01X3457528Y-4620561D01*
G01X3378065Y-4620561D01*
G01X3374409Y-4611182D01*
G01X3368286Y-4603190D01*
G01X3360181Y-4597219D01*
G01X3350734Y-4593739D01*
G01X3359857Y-4590431D01*
G01X3367756Y-4584797D01*
G01X3373853Y-4577248D01*
G01X3377700Y-4568340D01*
G01X3379015Y-4558726D01*
G01X3379015Y-4478079D01*
G01X3377262Y-4467012D01*
G01X3372175Y-4457028D01*
G01X3364251Y-4449105D01*
G01X3354268Y-4444018D01*
G01X3343201Y-4442265D01*
G01X3256800Y-4442265D01*
G01X3245733Y-4444018D01*
G01X3235749Y-4449105D01*
G01X3227826Y-4457028D01*
G01X3222739Y-4467012D01*
G01X3220986Y-4478079D01*
G01X3220986Y-4528809D01*
G01X3189499Y-4560296D01*
G01X3181789Y-4570344D01*
G01X3176943Y-4582044D01*
G01X3175290Y-4594601D01*
G01X3175290Y-4604477D01*
G01X3131108Y-4560296D01*
G01X3121061Y-4552586D01*
G01X3109360Y-4547740D01*
G01X3096804Y-4546087D01*
G01X3079015Y-4546087D01*
G01X3079015Y-4478079D01*
G01X3077262Y-4467011D01*
G01X3072175Y-4457028D01*
G01X3064252Y-4449104D01*
G01X3054268Y-4444017D01*
G01X3043201Y-4442265D01*
G01X2956800Y-4442265D01*
G01X2945291Y-4444164D01*
G01X2935003Y-4449662D01*
G01X2927027Y-4458174D01*
G01X2922210Y-4468797D01*
G01X2886709Y-4433297D01*
G01X2876661Y-4425587D01*
G01X2864961Y-4420740D01*
G01X2852404Y-4419087D01*
G01X2838360Y-4419087D01*
G01X2831483Y-4405570D01*
G01X2821715Y-4393969D01*
G01X2809567Y-4384891D01*
G01X2795674Y-4378810D01*
G01X2780763Y-4376044D01*
G01X2765614Y-4376738D01*
G01X2751018Y-4380856D01*
G01X2737739Y-4388183D01*
G01X2726473Y-4398334D01*
G01X2717807Y-4410780D01*
G01X2712196Y-4424869D01*
G01X2709932Y-4439865D01*
G01X2707532Y-4442265D01*
G01X2656800Y-4442265D01*
G01X2645733Y-4444017D01*
G01X2635749Y-4449104D01*
G01X2627826Y-4457028D01*
G01X2622739Y-4467011D01*
G01X2620986Y-4478079D01*
G01X2620986Y-4526627D01*
G01X2605530Y-4529135D01*
G01X2591093Y-4535197D01*
G01X2578480Y-4544474D01*
G01X2568393Y-4556451D01*
G01X2561396Y-4570459D01*
G01X2561396Y-4562172D01*
G01X2559743Y-4549616D01*
G01X2554897Y-4537915D01*
G01X2547187Y-4527868D01*
G01X2530843Y-4511524D01*
G01X2520427Y-4503604D01*
G01X2517550Y-4493831D01*
G01X2512037Y-4485263D01*
G01X2504335Y-4478595D01*
G01X2495066Y-4474365D01*
G01X2484982Y-4472916D01*
G01X2394982Y-4472916D01*
G01X2383915Y-4474669D01*
G01X2373931Y-4479756D01*
G01X2366008Y-4487679D01*
G01X2360921Y-4497663D01*
G01X2359168Y-4508730D01*
G01X2359168Y-4548730D01*
G01X2359736Y-4555080D01*
G01X2361420Y-4561229D01*
G01X2359736Y-4567378D01*
G01X2359168Y-4573729D01*
G01X2359168Y-4594392D01*
G01X2350058Y-4592782D01*
G01X2340812Y-4592456D01*
G01X2340812Y-4573729D01*
G01X2340244Y-4567378D01*
G01X2338560Y-4561229D01*
G01X2340244Y-4555080D01*
G01X2340812Y-4548730D01*
G01X2340812Y-4508730D01*
G01X2339059Y-4497663D01*
G01X2333972Y-4487679D01*
G01X2326049Y-4479756D01*
G01X2316065Y-4474669D01*
G01X2304998Y-4472916D01*
G01X2214998Y-4472916D01*
G01X2204914Y-4474365D01*
G01X2195646Y-4478595D01*
G01X2187943Y-4485263D01*
G01X2182430Y-4493831D01*
G01X2179553Y-4503604D01*
G01X2169137Y-4511524D01*
G01X2152793Y-4527868D01*
G01X2145084Y-4537915D01*
G01X2140237Y-4549616D01*
G01X2138584Y-4562172D01*
G01X2138584Y-4570403D01*
G01X2131581Y-4556411D01*
G01X2121495Y-4544450D01*
G01X2108887Y-4535185D01*
G01X2094459Y-4529131D01*
G01X2079014Y-4526627D01*
G01X2079014Y-4478079D01*
G01X2077262Y-4467011D01*
G01X2072175Y-4457028D01*
G01X2064251Y-4449104D01*
G01X2054268Y-4444017D01*
G01X2043200Y-4442265D01*
G01X1956800Y-4442265D01*
G01X1945733Y-4444017D01*
G01X1935749Y-4449104D01*
G01X1927826Y-4457028D01*
G01X1922739Y-4467011D01*
G01X1920986Y-4478079D01*
G01X1920986Y-4558726D01*
G01X1922300Y-4568340D01*
G01X1926147Y-4577248D01*
G01X1932244Y-4584797D01*
G01X1940144Y-4590431D01*
G01X1949266Y-4593739D01*
G01X1940144Y-4597046D01*
G01X1932244Y-4602681D01*
G01X1926147Y-4610229D01*
G01X1922300Y-4619138D01*
G01X1920986Y-4628751D01*
G01X1920986Y-4644433D01*
G01X1911324Y-4634771D01*
G01X1901276Y-4627061D01*
G01X1889576Y-4622214D01*
G01X1877019Y-4620561D01*
G01X1778065Y-4620561D01*
G01X1774409Y-4611182D01*
G01X1768286Y-4603190D01*
G01X1760181Y-4597219D01*
G01X1750734Y-4593739D01*
G01X1759857Y-4590431D01*
G01X1767756Y-4584797D01*
G01X1773853Y-4577248D01*
G01X1777700Y-4568340D01*
G01X1779015Y-4558726D01*
G01X1779015Y-4478079D01*
G01X1777262Y-4467011D01*
G01X1772175Y-4457028D01*
G01X1764251Y-4449104D01*
G01X1754268Y-4444017D01*
G01X1743201Y-4442265D01*
G01X1692469Y-4442265D01*
G01X1672311Y-4422106D01*
G01X1672311Y-4245213D01*
G01X1743200Y-4245213D01*
G01X1754268Y-4243460D01*
G01X1764251Y-4238373D01*
G01X1772175Y-4230450D01*
G01X1777262Y-4220466D01*
G01X1779014Y-4209399D01*
G01X1779014Y-4207241D01*
G01X1846576Y-4207241D01*
G01X1910938Y-4271604D01*
G01X1920986Y-4279314D01*
G01X1932687Y-4284160D01*
G01X1945243Y-4285813D01*
G01X2101775Y-4285813D01*
G01X2114331Y-4284160D01*
G01X2126032Y-4279314D01*
G01X2136079Y-4271604D01*
G01X2197633Y-4210050D01*
G01X2206030Y-4213400D01*
G01X2214998Y-4214541D01*
G01X2304998Y-4214541D01*
G01X2316065Y-4212788D01*
G01X2326049Y-4207701D01*
G01X2333972Y-4199778D01*
G01X2339059Y-4189794D01*
G01X2340812Y-4178727D01*
G01X2340812Y-4138727D01*
G01X2340244Y-4132377D01*
G01X2338560Y-4126228D01*
G01X2340244Y-4120079D01*
G01X2340812Y-4113729D01*
G01X2340812Y-4073729D01*
G01X2340244Y-4067378D01*
G01X2338560Y-4061229D01*
G01X2340244Y-4055080D01*
G01X2340812Y-4048730D01*
G01X2340812Y-4008730D01*
G01X2339059Y-3997663D01*
G01X2333972Y-3987679D01*
G01X2326049Y-3979756D01*
G01X2316065Y-3974669D01*
G01X2304998Y-3972916D01*
G01X2214998Y-3972916D01*
G01X2204914Y-3974365D01*
G01X2195645Y-3978595D01*
G01X2187943Y-3985263D01*
G01X2182430Y-3993831D01*
G01X2179553Y-4003604D01*
G01X2169137Y-4011524D01*
G01X2152793Y-4027868D01*
G01X2145083Y-4037915D01*
G01X2140237Y-4049616D01*
G01X2138584Y-4062172D01*
G01X2138584Y-4081535D01*
G01X2099558Y-4120561D01*
G01X2078065Y-4120561D01*
G01X2074408Y-4111182D01*
G01X2068286Y-4103190D01*
G01X2060181Y-4097219D01*
G01X2050734Y-4093739D01*
G01X2059856Y-4090431D01*
G01X2067756Y-4084797D01*
G01X2073853Y-4077248D01*
G01X2077700Y-4068340D01*
G01X2079014Y-4058726D01*
G01X2079014Y-3978079D01*
G01X2077261Y-3967012D01*
G01X2072174Y-3957028D01*
G01X2064251Y-3949105D01*
G01X2054267Y-3944018D01*
G01X2043200Y-3942265D01*
G01X1956800Y-3942265D01*
G01X1945733Y-3944018D01*
G01X1935749Y-3949105D01*
G01X1927826Y-3957028D01*
G01X1922739Y-3967012D01*
G01X1920986Y-3978079D01*
G01X1920986Y-4021462D01*
G01X1896110Y-3996587D01*
G01X1896110Y-3724793D01*
G01X1894457Y-3712236D01*
G01X1889611Y-3700536D01*
G01X1881901Y-3690488D01*
G01X1805701Y-3614288D01*
G01X1795653Y-3606578D01*
G01X1783953Y-3601732D01*
G01X1771396Y-3600079D01*
G01X1390397Y-3600079D01*
G01X1377841Y-3601732D01*
G01X1366140Y-3606578D01*
G01X1356093Y-3614288D01*
G01X1033203Y-3937177D01*
G01X1030611Y-3939983D01*
G01X1018913Y-3934642D01*
G01X1006284Y-3932218D01*
G01X993441Y-3932848D01*
G01X981110Y-3936496D01*
G01X969991Y-3942956D01*
G01X965298Y-3939793D01*
G01X920993Y-3895487D01*
G01X910945Y-3887777D01*
G01X899245Y-3882931D01*
G01X886688Y-3881278D01*
G01X466210Y-3881278D01*
G01X453653Y-3882931D01*
G01X441953Y-3887777D01*
G01X431905Y-3895487D01*
G01X343934Y-3983458D01*
G01X322852Y-3977367D01*
G01X301015Y-3975190D01*
G01X279145Y-3977000D01*
G01X257963Y-3982735D01*
G01X238168Y-3992208D01*
G01X220413Y-4005105D01*
G01X205284Y-4021001D01*
G01X193280Y-4039371D01*
G01X184797Y-4059610D01*
G01X180115Y-4081049D01*
G01X179388Y-4102982D01*
G01X182641Y-4124684D01*
G01X189766Y-4145440D01*
G01X200527Y-4164565D01*
G01X214571Y-4181428D01*
G01X231433Y-4195472D01*
G01X250558Y-4206234D01*
G01X271314Y-4213359D01*
G01X293016Y-4216612D01*
G01X314949Y-4215885D01*
G01X336388Y-4211204D01*
G01X356627Y-4202721D01*
G01X374998Y-4190717D01*
G01X390894Y-4175588D01*
G01X403791Y-4157833D01*
G01X413264Y-4138038D01*
G01X419000Y-4116857D01*
G01X420810Y-4094987D01*
G01X418633Y-4073150D01*
G01X412543Y-4052067D01*
G01X486305Y-3978306D01*
G01X521500Y-3978306D01*
G01X520988Y-3984340D01*
G01X520988Y-4055524D01*
G01X340378Y-4236133D01*
G01X320826Y-4230995D01*
G01X300692Y-4229188D01*
G01X280538Y-4230764D01*
G01X260928Y-4235679D01*
G01X242413Y-4243794D01*
G01X225510Y-4254883D01*
G01X210693Y-4268635D01*
G01X198376Y-4284665D01*
G01X188905Y-4302525D01*
G01X182544Y-4321714D01*
G01X179472Y-4341695D01*
G01X179774Y-4361908D01*
G01X183443Y-4381788D01*
G01X190375Y-4400778D01*
G01X200377Y-4418346D01*
G01X213168Y-4434001D01*
G01X228390Y-4447303D01*
G01X245617Y-4457882D01*
G01X264366Y-4465439D01*
G01X284114Y-4469765D01*
G01X304306Y-4470737D01*
G01X324378Y-4468329D01*
G01X339235Y-4483186D01*
G01X215000Y-4483186D01*
G01X203933Y-4484939D01*
G01X193949Y-4490026D01*
G01X186026Y-4497949D01*
G01X180939Y-4507933D01*
G01X179186Y-4519000D01*
G01X179186Y-4689000D01*
G01X180939Y-4700067D01*
G01X186026Y-4710051D01*
G01X193949Y-4717974D01*
G01X203933Y-4723061D01*
G01X215000Y-4724814D01*
G01X385000Y-4724814D01*
G01X396067Y-4723061D01*
G01X406051Y-4717974D01*
G01X413974Y-4710051D01*
G01X419061Y-4700067D01*
G01X420814Y-4689000D01*
G01X420814Y-4564765D01*
G01X520988Y-4664939D01*
G01X520988Y-4715660D01*
G01X522741Y-4726727D01*
G01X527828Y-4736711D01*
G01X535751Y-4744634D01*
G01X545735Y-4749721D01*
G01X556802Y-4751474D01*
G01X643203Y-4751474D01*
G01X654270Y-4749721D01*
G01X664254Y-4744634D01*
G01X672177Y-4736711D01*
G01X677264Y-4726727D01*
G01X679017Y-4715660D01*
G01X679017Y-4670455D01*
G01X691268Y-4675857D01*
G01X704529Y-4677705D01*
G01X753480Y-4677705D01*
G01X753480Y-4698092D01*
G01X755260Y-4711847D01*
G01X760486Y-4724696D01*
G01X768811Y-4735790D01*
G01X779686Y-4744398D01*
G37*
G36*
G01X1162181Y-4258075D02*
G01X1159993Y-4243365D01*
G01X1154583Y-4229512D01*
G01X1164014Y-4216662D01*
G01X1167693Y-4220786D01*
G01X1243893Y-4296986D01*
G01X1253940Y-4304696D01*
G01X1265641Y-4309542D01*
G01X1278197Y-4311195D01*
G01X1421387Y-4311195D01*
G01X1434483Y-4320701D01*
G01X1449491Y-4326751D01*
G01X1465517Y-4328987D01*
G01X1481608Y-4327274D01*
G01X1496805Y-4321716D01*
G01X1510203Y-4312642D01*
G01X1521005Y-4300594D01*
G01X1528567Y-4286288D01*
G01X1532439Y-4270576D01*
G01X1532391Y-4254395D01*
G01X1528425Y-4238707D01*
G01X1520778Y-4224446D01*
G01X1528075Y-4210865D01*
G01X1532039Y-4195967D01*
G01X1532456Y-4180556D01*
G01X1529302Y-4165464D01*
G01X1522750Y-4151509D01*
G01X1534470Y-4159118D01*
G01X1547524Y-4164102D01*
G01X1561333Y-4166239D01*
G01X1575283Y-4165436D01*
G01X1575283Y-4442201D01*
G01X1576936Y-4454757D01*
G01X1581782Y-4466458D01*
G01X1589492Y-4476506D01*
G01X1620986Y-4507999D01*
G01X1620986Y-4558726D01*
G01X1622300Y-4568340D01*
G01X1626147Y-4577248D01*
G01X1632244Y-4584797D01*
G01X1640144Y-4590431D01*
G01X1649266Y-4593739D01*
G01X1640144Y-4597046D01*
G01X1632244Y-4602681D01*
G01X1626147Y-4610229D01*
G01X1622300Y-4619138D01*
G01X1620986Y-4628751D01*
G01X1620986Y-4669451D01*
G01X1542080Y-4590544D01*
G01X1540155Y-4576854D01*
G01X1535434Y-4563860D01*
G01X1528121Y-4552128D01*
G01X1518534Y-4542167D01*
G01X1507090Y-4534410D01*
G01X1494287Y-4529194D01*
G01X1480680Y-4526746D01*
G01X1466862Y-4527173D01*
G01X1453432Y-4530456D01*
G01X1440975Y-4536451D01*
G01X1433524Y-4525147D01*
G01X1423495Y-4516051D01*
G01X1411519Y-4509734D01*
G01X1398349Y-4506594D01*
G01X1384812Y-4506828D01*
G01X1371758Y-4510422D01*
G01X1360008Y-4517148D01*
G01X1347912Y-4510279D01*
G01X1334463Y-4506727D01*
G01X1320553Y-4506727D01*
G01X1307104Y-4510279D01*
G01X1295009Y-4517148D01*
G01X1283874Y-4510682D01*
G01X1271525Y-4507035D01*
G01X1258664Y-4506414D01*
G01X1246022Y-4508855D01*
G01X1246022Y-4362011D01*
G01X1244369Y-4349455D01*
G01X1239522Y-4337754D01*
G01X1231812Y-4327707D01*
G01X1162181Y-4258075D01*
G37*
G36*
G01X1405816Y-4805000D02*
G01X1404063Y-4793933D01*
G01X1398976Y-4783949D01*
G01X1391053Y-4776026D01*
G01X1381069Y-4770939D01*
G01X1370002Y-4769186D01*
G01X1290002Y-4769186D01*
G01X1278362Y-4771131D01*
G01X1267985Y-4776753D01*
G01X1260000Y-4785443D01*
G01X1253841Y-4778277D01*
G01X1246022Y-4772971D01*
G01X1246022Y-4749528D01*
G01X1258664Y-4751969D01*
G01X1271525Y-4751348D01*
G01X1283874Y-4747701D01*
G01X1295009Y-4741235D01*
G01X1307104Y-4748104D01*
G01X1320553Y-4751656D01*
G01X1334463Y-4751656D01*
G01X1347912Y-4748104D01*
G01X1360008Y-4741235D01*
G01X1371506Y-4747856D01*
G01X1384271Y-4751475D01*
G01X1397534Y-4751872D01*
G01X1410493Y-4749024D01*
G01X1422366Y-4743102D01*
G01X1432438Y-4734465D01*
G01X1440101Y-4723633D01*
G01X1444892Y-4711260D01*
G01X1446521Y-4698092D01*
G01X1446521Y-4652378D01*
G01X1459637Y-4657193D01*
G01X1473471Y-4659154D01*
G01X1697994Y-4883677D01*
G01X1405816Y-4883677D01*
G01X1405816Y-4805000D01*
G37*
G36*
G01X2779015Y-3996116D02*
G01X2920986Y-3996116D01*
G01X2920986Y-4058726D01*
G01X2922300Y-4068340D01*
G01X2926147Y-4077248D01*
G01X2932244Y-4084797D01*
G01X2940144Y-4090431D01*
G01X2949266Y-4093739D01*
G01X2940150Y-4097043D01*
G01X2932254Y-4102672D01*
G01X2926157Y-4110213D01*
G01X2840655Y-4110213D01*
G01X2842509Y-4095722D01*
G01X2841145Y-4081176D01*
G01X2836629Y-4067282D01*
G01X2829181Y-4054714D01*
G01X2819161Y-4044082D01*
G01X2807056Y-4035902D01*
G01X2793454Y-4030571D01*
G01X2779015Y-4028347D01*
G01X2779015Y-3996116D01*
G37*
G36*
G01X4396296Y-4546087D02*
G01X4379015Y-4528805D01*
G01X4379015Y-4478079D01*
G01X4377262Y-4467012D01*
G01X4372175Y-4457028D01*
G01X4364251Y-4449105D01*
G01X4354268Y-4444018D01*
G01X4343201Y-4442265D01*
G01X4256800Y-4442265D01*
G01X4245733Y-4444018D01*
G01X4235749Y-4449105D01*
G01X4227826Y-4457028D01*
G01X4222739Y-4467012D01*
G01X4220986Y-4478079D01*
G01X4220986Y-4558726D01*
G01X4222300Y-4568340D01*
G01X4226147Y-4577248D01*
G01X4232244Y-4584797D01*
G01X4240144Y-4590431D01*
G01X4249266Y-4593739D01*
G01X4239819Y-4597219D01*
G01X4231715Y-4603190D01*
G01X4225592Y-4611182D01*
G01X4221935Y-4620561D01*
G01X4200423Y-4620561D01*
G01X4161396Y-4581535D01*
G01X4161396Y-4562172D01*
G01X4159743Y-4549616D01*
G01X4154897Y-4537915D01*
G01X4147187Y-4527868D01*
G01X4130843Y-4511524D01*
G01X4120427Y-4503604D01*
G01X4116955Y-4492594D01*
G01X4110161Y-4483261D01*
G01X4252418Y-4341004D01*
G01X4268124Y-4338544D01*
G01X4282792Y-4332416D01*
G01X4295581Y-4322974D01*
G01X4305756Y-4310758D01*
G01X4312730Y-4296473D01*
G01X4316104Y-4280938D01*
G01X4315684Y-4265046D01*
G01X4311494Y-4249711D01*
G01X4303775Y-4235814D01*
G01X4320003Y-4235814D01*
G01X4331070Y-4234061D01*
G01X4341054Y-4228974D01*
G01X4348977Y-4221051D01*
G01X4354064Y-4211067D01*
G01X4355817Y-4200000D01*
G01X4355817Y-4041517D01*
G01X4377006Y-4062707D01*
G01X4387054Y-4070416D01*
G01X4398755Y-4075263D01*
G01X4411311Y-4076916D01*
G01X4436711Y-4076916D01*
G01X4449267Y-4075263D01*
G01X4460968Y-4070416D01*
G01X4471016Y-4062707D01*
G01X4481537Y-4052185D01*
G01X4489245Y-4066123D01*
G01X4500055Y-4077821D01*
G01X4513342Y-4086604D01*
G01X4528340Y-4091965D01*
G01X4544183Y-4093595D01*
G01X4544183Y-4200000D01*
G01X4545936Y-4211067D01*
G01X4551023Y-4221051D01*
G01X4558946Y-4228974D01*
G01X4568930Y-4234061D01*
G01X4579997Y-4235814D01*
G01X4779997Y-4235814D01*
G01X4791064Y-4234061D01*
G01X4801048Y-4228974D01*
G01X4808971Y-4221051D01*
G01X4814058Y-4211067D01*
G01X4815811Y-4200000D01*
G01X4815811Y-4000716D01*
G01X4919310Y-4000716D01*
G01X4930391Y-3999434D01*
G01X4930391Y-4119002D01*
G01X4932144Y-4130069D01*
G01X4937231Y-4140053D01*
G01X4945154Y-4147976D01*
G01X4955138Y-4153063D01*
G01X4966205Y-4154816D01*
G01X5134305Y-4154816D01*
G01X5145372Y-4153063D01*
G01X5155356Y-4147976D01*
G01X5163279Y-4140053D01*
G01X5168366Y-4130069D01*
G01X5170119Y-4119002D01*
G01X5170119Y-3951002D01*
G01X5170102Y-3949916D01*
G01X5381814Y-3949916D01*
G01X5621604Y-4189706D01*
G01X5631652Y-4197416D01*
G01X5643352Y-4202263D01*
G01X5655909Y-4203916D01*
G01X5935308Y-4203916D01*
G01X5947864Y-4202263D01*
G01X5959565Y-4197416D01*
G01X5969613Y-4189706D01*
G01X5973080Y-4186238D01*
G01X5978358Y-4193931D01*
G01X5985443Y-4200000D01*
G01X5976753Y-4207986D01*
G01X5971131Y-4218363D01*
G01X5969187Y-4230003D01*
G01X5969187Y-4310003D01*
G01X5970939Y-4321070D01*
G01X5976026Y-4331054D01*
G01X5983950Y-4338977D01*
G01X5993933Y-4344064D01*
G01X6005001Y-4345817D01*
G01X6077684Y-4345817D01*
G01X6077684Y-4383706D01*
G01X6057206Y-4404184D01*
G01X6005000Y-4404184D01*
G01X5993933Y-4405937D01*
G01X5983950Y-4411024D01*
G01X5976026Y-4418947D01*
G01X5970939Y-4428931D01*
G01X5969186Y-4439998D01*
G01X5969186Y-4492203D01*
G01X5939493Y-4521896D01*
G01X5931784Y-4531944D01*
G01X5926937Y-4543645D01*
G01X5925284Y-4556201D01*
G01X5925284Y-4683201D01*
G01X5926937Y-4695757D01*
G01X5931784Y-4707458D01*
G01X5939493Y-4717505D01*
G01X5953293Y-4731305D01*
G01X5963341Y-4739015D01*
G01X5975042Y-4743862D01*
G01X5987598Y-4745515D01*
G01X6279190Y-4745515D01*
G01X6279190Y-4811586D01*
G01X5046695Y-4811586D01*
G01X5019921Y-4784812D01*
G01X5134305Y-4784812D01*
G01X5145372Y-4783060D01*
G01X5155356Y-4777973D01*
G01X5163279Y-4770049D01*
G01X5168366Y-4760066D01*
G01X5170119Y-4748998D01*
G01X5170119Y-4580998D01*
G01X5629881Y-4580998D01*
G01X5629881Y-4748998D01*
G01X5631634Y-4760066D01*
G01X5636721Y-4770049D01*
G01X5644644Y-4777973D01*
G01X5654628Y-4783060D01*
G01X5665695Y-4784812D01*
G01X5833795Y-4784812D01*
G01X5844862Y-4783060D01*
G01X5854846Y-4777973D01*
G01X5862769Y-4770049D01*
G01X5867856Y-4760066D01*
G01X5869609Y-4748998D01*
G01X5869609Y-4580998D01*
G01X5869609Y-4580998D01*
G01X5867856Y-4569931D01*
G01X5862769Y-4559947D01*
G01X5854846Y-4552024D01*
G01X5844862Y-4546937D01*
G01X5833795Y-4545184D01*
G01X5665695Y-4545184D01*
G01X5654628Y-4546937D01*
G01X5644644Y-4552024D01*
G01X5636721Y-4559947D01*
G01X5631634Y-4569931D01*
G01X5629881Y-4580998D01*
G01X5170119Y-4580998D01*
G01X5168366Y-4569931D01*
G01X5163279Y-4559947D01*
G01X5155356Y-4552024D01*
G01X5145372Y-4546937D01*
G01X5134305Y-4545184D01*
G01X4999042Y-4545184D01*
G01X4896314Y-4442456D01*
G01X4896314Y-4377301D01*
G01X4905413Y-4364930D01*
G01X4911421Y-4350798D01*
G01X4914018Y-4335662D01*
G01X4913064Y-4320335D01*
G01X4908610Y-4305639D01*
G01X4900895Y-4292361D01*
G01X4890332Y-4281213D01*
G01X4877489Y-4272794D01*
G01X4863054Y-4267556D01*
G01X4847800Y-4265777D01*
G01X4832547Y-4267556D01*
G01X4818112Y-4272794D01*
G01X4805268Y-4281213D01*
G01X4794706Y-4292361D01*
G01X4786991Y-4305639D01*
G01X4782537Y-4320335D01*
G01X4781583Y-4335662D01*
G01X4784179Y-4350798D01*
G01X4790188Y-4364930D01*
G01X4799286Y-4377301D01*
G01X4799286Y-4462551D01*
G01X4800939Y-4475107D01*
G01X4805786Y-4486808D01*
G01X4813496Y-4496856D01*
G01X4930391Y-4613751D01*
G01X4930391Y-4695282D01*
G01X4761948Y-4526839D01*
G01X4751900Y-4519129D01*
G01X4740200Y-4514283D01*
G01X4727643Y-4512630D01*
G01X4692958Y-4512630D01*
G01X4685911Y-4513144D01*
G01X4679015Y-4514677D01*
G01X4679015Y-4478079D01*
G01X4677262Y-4467012D01*
G01X4672175Y-4457028D01*
G01X4664251Y-4449105D01*
G01X4654268Y-4444018D01*
G01X4643201Y-4442265D01*
G01X4556800Y-4442265D01*
G01X4545733Y-4444018D01*
G01X4535749Y-4449105D01*
G01X4527826Y-4457028D01*
G01X4522739Y-4467012D01*
G01X4520986Y-4478079D01*
G01X4520986Y-4546087D01*
G01X4396296Y-4546087D01*
G37*
G36*
G01X6690814Y-4767573D02*
G01X6690814Y-4571995D01*
G01X6689062Y-4560928D01*
G01X6683975Y-4550944D01*
G01X6676051Y-4543021D01*
G01X6666068Y-4537934D01*
G01X6655000Y-4536181D01*
G01X6545001Y-4536181D01*
G01X6533933Y-4537934D01*
G01X6523950Y-4543021D01*
G01X6516026Y-4550944D01*
G01X6510939Y-4560928D01*
G01X6509187Y-4571995D01*
G01X6509187Y-4811586D01*
G01X6460817Y-4811586D01*
G01X6460817Y-4571995D01*
G01X6459065Y-4560928D01*
G01X6453978Y-4550944D01*
G01X6446054Y-4543021D01*
G01X6436071Y-4537934D01*
G01X6425003Y-4536181D01*
G01X6315004Y-4536181D01*
G01X6303936Y-4537934D01*
G01X6293953Y-4543021D01*
G01X6286029Y-4550944D01*
G01X6280942Y-4560928D01*
G01X6279190Y-4571995D01*
G01X6279190Y-4648487D01*
G01X6130814Y-4648487D01*
G01X6130814Y-4580002D01*
G01X6128870Y-4568362D01*
G01X6123247Y-4557986D01*
G01X6114558Y-4550000D01*
G01X6123247Y-4542014D01*
G01X6128870Y-4531638D01*
G01X6130814Y-4519998D01*
G01X6130814Y-4467794D01*
G01X6160502Y-4438106D01*
G01X6168212Y-4428058D01*
G01X6173059Y-4416358D01*
G01X6174712Y-4403801D01*
G01X6174712Y-4239387D01*
G01X6384187Y-4029912D01*
G01X6384187Y-4220003D01*
G01X6385940Y-4231070D01*
G01X6391027Y-4241054D01*
G01X6398950Y-4248977D01*
G01X6408934Y-4254064D01*
G01X6420001Y-4255817D01*
G01X6780000Y-4255817D01*
G01X6791067Y-4254064D01*
G01X6801051Y-4248977D01*
G01X6808974Y-4241054D01*
G01X6814061Y-4231070D01*
G01X6815814Y-4220003D01*
G01X6815814Y-4037719D01*
G01X7017482Y-4239387D01*
G01X7017482Y-4396001D01*
G01X7019135Y-4408558D01*
G01X7023982Y-4420258D01*
G01X7031691Y-4430306D01*
G01X7069187Y-4467801D01*
G01X7069187Y-4519998D01*
G01X7071131Y-4531638D01*
G01X7076754Y-4542015D01*
G01X7085443Y-4550000D01*
G01X7076754Y-4557986D01*
G01X7071131Y-4568362D01*
G01X7069187Y-4580003D01*
G01X7069187Y-4632201D01*
G01X7052901Y-4648487D01*
G01X6920811Y-4648487D01*
G01X6920811Y-4571995D01*
G01X6919059Y-4560928D01*
G01X6913972Y-4550944D01*
G01X6906048Y-4543021D01*
G01X6896065Y-4537934D01*
G01X6884997Y-4536181D01*
G01X6774998Y-4536181D01*
G01X6763930Y-4537934D01*
G01X6753947Y-4543021D01*
G01X6746023Y-4550944D01*
G01X6740936Y-4560928D01*
G01X6739184Y-4571995D01*
G01X6739184Y-4719204D01*
G01X6690814Y-4767573D01*
G37*
G54D10*
G01X779686Y-4744398D02*
G01X999474Y-4964186D01*
G01X200000Y-4964186D01*
G02X35814Y-4800000I0J164186D01*
G01X35814Y-200000D01*
G02X200000Y-35814I164186J0D01*
G01X8850000Y-35814D01*
G02X9014186Y-200000I0J-164186D01*
G01X9014186Y-4800000D01*
G02X8850000Y-4964186I-164186J0D01*
G01X7016290Y-4964186D01*
G01X7190697Y-4789779D01*
G03X7245539Y-4822463I57178J33588D01*
G01X7315171Y-4892095D01*
G03X7349475Y-4906304I34305J34305D01*
G01X8142214Y-4906304D01*
G03X8176518Y-4892095I0J48514D01*
G01X8207800Y-4860813D01*
G01X8400000Y-4860813D01*
G03X8435814Y-4824999I0J35814D01*
G01X8435814Y-4674999D01*
G03X8400000Y-4639185I-35814J0D01*
G01X8100001Y-4639185D01*
G03X8064187Y-4674999I0J-35814D01*
G01X8064187Y-4809276D01*
G01X7925277Y-4809276D01*
G03X7850001Y-4654185I-75276J59277D01*
G03X7774725Y-4809276I0J-95814D01*
G01X7369570Y-4809276D01*
G01X7314148Y-4753854D01*
G03X7281464Y-4699012I-66273J-2336D01*
G01X7319662Y-4660814D01*
G01X7351566Y-4660814D01*
G03X7378621Y-4737575I62909J-20977D01*
G03X7459685Y-4730304I35854J55785D01*
G01X7618215Y-4730304D01*
G03X7652520Y-4716095I0J48514D01*
G01X8207800Y-4160815D01*
G01X8400000Y-4160815D01*
G03X8435814Y-4125001I0J35814D01*
G01X8435814Y-3975001D01*
G03X8400000Y-3939187I-35814J0D01*
G01X8100001Y-3939187D01*
G03X8064187Y-3975001I0J-35814D01*
G01X8064187Y-4125001D01*
G03X8078076Y-4153320I35814J0D01*
G01X7635816Y-4595581D01*
G01X7635816Y-4475000D01*
G03X7600002Y-4439186I-35814J0D01*
G01X7300002Y-4439186D01*
G03X7274710Y-4449644I0J-35814D01*
G01X7274710Y-4346201D01*
G03X7260500Y-4311897I-48514J0D01*
G01X7230815Y-4282211D01*
G01X7230815Y-4257792D01*
G01X7717699Y-3770907D01*
G03X7731909Y-3736603I-34305J34305D01*
G01X7731909Y-3600441D01*
G03X8095819Y-3500010I168097J100432D01*
G03X7731909Y-3399578I-195814J0D01*
G01X7731909Y-3286359D01*
G01X8539253Y-2479014D01*
G01X8589987Y-2479014D01*
G03X8625000Y-2450734I0J35814D01*
G03X8660013Y-2479014I35013J7534D01*
G01X8740660Y-2479014D01*
G03X8776474Y-2443200I0J35814D01*
G01X8776474Y-2356800D01*
G03X8740660Y-2320986I-35814J0D01*
G01X8689942Y-2320986D01*
G01X8633047Y-2264091D01*
G03X8600837Y-2249927I-34305J-34305D01*
G03X8601474Y-2243200I-35177J6726D01*
G01X8601474Y-2184754D01*
G03X8648526Y-2201965I44619J49058D01*
G01X8648526Y-2243200D01*
G03X8684340Y-2279014I35814J0D01*
G01X8764987Y-2279014D01*
G03X8800000Y-2250734I0J35814D01*
G03X8835013Y-2279014I35013J7534D01*
G01X8915660Y-2279014D01*
G03X8951474Y-2243200I0J35814D01*
G01X8951474Y-2156800D01*
G03X8915660Y-2120986I-35814J0D01*
G01X8864941Y-2120986D01*
G01X8759204Y-2015248D01*
G03X8807504Y-2028313I48300J82749D01*
G01X8867504Y-2028313D01*
G03X8886016Y-1838491I0J95814D01*
G01X8886016Y-1459397D01*
G03X8871807Y-1425093I-48514J0D01*
G01X8562726Y-1116012D01*
G01X8724878Y-1116012D01*
G03X8807504Y-1163316I82626J48509D01*
G01X8867504Y-1163316D01*
G03X8867504Y-971689I0J95814D01*
G01X8807504Y-971689D01*
G03X8724883Y-1018984I0J-95814D01*
G01X8539256Y-1018984D01*
G03X8462490Y-976689I-76767J-48519D01*
G01X8396722Y-976689D01*
G01X8771090Y-602320D01*
G03X8963969Y-505692I82910J75320D01*
G03X8748958Y-488098I-109969J-21308D01*
G03X8743098Y-493094I28444J-39301D01*
G01X8235099Y-1001093D01*
G03X8220889Y-1035398I34305J-34305D01*
G01X8220889Y-1209178D01*
G03X8235099Y-1243482I48514J0D01*
G01X8250299Y-1258682D01*
G01X8184299Y-1324683D01*
G03X8170090Y-1358987I34305J-34305D01*
G01X8170090Y-1663787D01*
G03X8184299Y-1698091I48514J0D01*
G01X8234644Y-1748437D01*
G01X8226599Y-1756482D01*
G03X8212390Y-1790786I34305J-34305D01*
G01X8212390Y-2187436D01*
G03X8219993Y-2213511I48514J0D01*
G03X8250972Y-2268954I66310J676D01*
G03X8314359Y-2272922I35331J56118D01*
G03X8326149Y-2278065I19981J29722D01*
G01X8326149Y-2331730D01*
G01X6766501Y-3891378D01*
G01X6405597Y-3891378D01*
G03X6371293Y-3905588I0J-48514D01*
G01X6130814Y-4146066D01*
G01X6130814Y-4089998D01*
G03X6095000Y-4054184I-35814J0D01*
G01X6005001Y-4054184D01*
G03X5970212Y-4081488I0J-35814D01*
G01X5960708Y-4081488D01*
G03X5926403Y-4095697I0J-48514D01*
G01X5915213Y-4106888D01*
G01X5869609Y-4106888D01*
G01X5869609Y-3951002D01*
G03X5833795Y-3915188I-35814J0D01*
G01X5665695Y-3915188D01*
G03X5629881Y-3951002I0J-35814D01*
G01X5629881Y-4060765D01*
G01X5436214Y-3867098D01*
G03X5401909Y-3852888I-34305J-34305D01*
G01X4970110Y-3852888D01*
G03X4935805Y-3867098I0J-48514D01*
G01X4899215Y-3903688D01*
G01X4815424Y-3903688D01*
G01X4815424Y-501685D01*
G03X4858452Y-338988I-55418J101694D01*
G03X4693610Y-305099I-98446J-61002D01*
G01X4623415Y-234905D01*
G03X4589111Y-220695I-34305J-34305D01*
G01X2096786Y-220695D01*
G03X2062481Y-234905I0J-48514D01*
G01X2006062Y-291324D01*
G03X1925950Y-291324I-40056J-108666D01*
G01X1873311Y-238685D01*
G03X1839006Y-224475I-34305J-34305D01*
G01X1077008Y-224475D01*
G03X1042703Y-238685I0J-48514D01*
G01X997212Y-284177D01*
G01X870007Y-284177D01*
G03X834193Y-319991I0J-35814D01*
G01X834193Y-479990D01*
G03X870007Y-515804I35814J0D01*
G01X1030006Y-515804D01*
G03X1065820Y-479990I0J35814D01*
G01X1065820Y-352786D01*
G01X1097103Y-321503D01*
G01X1118844Y-321503D01*
G03X1204006Y-515804I85162J-78487D01*
G03X1289169Y-321503I0J115814D01*
G01X1372844Y-321503D01*
G03X1458006Y-515804I85162J-78487D01*
G03X1543169Y-321503I0J115814D01*
G01X1626844Y-321503D01*
G03X1712006Y-515804I85162J-78487D01*
G03X1797169Y-321503I0J115814D01*
G01X1818911Y-321503D01*
G01X1857341Y-359933D01*
G03X1966007Y-515804I108666J-40057D01*
G03X2074672Y-359932I-0J115814D01*
G01X2116881Y-317723D01*
G01X2138490Y-317723D01*
G03X2122315Y-462194I81517J-82267D01*
G03X2260064Y-508656I97691J62204D01*
G01X2391461Y-640054D01*
G01X2391461Y-3973090D01*
G03X2359168Y-4008730I3521J-35640D01*
G01X2359168Y-4048730D01*
G03X2361420Y-4061229I35814J0D01*
G03X2359168Y-4073729I33562J-12499D01*
G01X2359168Y-4113729D01*
G03X2361420Y-4126228I35814J0D01*
G03X2359168Y-4138727I33562J-12499D01*
G01X2359168Y-4173095D01*
G03X2393170Y-4272296I55407J-36437D01*
G03X2480700Y-4214541I21405J62764D01*
G01X2484982Y-4214541D01*
G03X2502347Y-4210050I0J35814D01*
G01X2563901Y-4271604D01*
G03X2598205Y-4285813I34305J34305D01*
G01X2754757Y-4285813D01*
G03X2789062Y-4271604I0J48514D01*
G01X2853424Y-4207241D01*
G01X2920986Y-4207241D01*
G01X2920986Y-4209399D01*
G03X2956800Y-4245213I35814J0D01*
G01X3043201Y-4245213D01*
G03X3079015Y-4209399I0J35814D01*
G01X3079015Y-4128752D01*
G03X3050734Y-4093739I-35814J0D01*
G03X3079015Y-4058726I-7534J35013D01*
G01X3079015Y-4032112D01*
G01X3181209Y-4134306D01*
G03X3215514Y-4148516I34305J34305D01*
G01X3246355Y-4148516D01*
G03X3239190Y-4170008I28649J-21492D01*
G01X3239190Y-4277008D01*
G03X3275004Y-4312822I35814J0D01*
G01X3325704Y-4312822D01*
G01X3362299Y-4349416D01*
G03X3396603Y-4363625I34305J34305D01*
G01X3762202Y-4363625D01*
G03X3796507Y-4349416I0J48514D01*
G01X3958463Y-4187460D01*
G03X3965660Y-4179014I-33127J35519D01*
G03X4001474Y-4143200I0J35814D01*
G01X4001474Y-4056800D01*
G03X3965660Y-4020986I-35814J0D01*
G01X3928537Y-4020986D01*
G01X3948807Y-4000716D01*
G01X4084189Y-4000716D01*
G01X4084189Y-4200000D01*
G03X4120003Y-4235814I35814J0D01*
G01X4196388Y-4235814D01*
G03X4183809Y-4272395I53693J-38918D01*
G01X4005677Y-4450526D01*
G03X3992939Y-4472975I34305J-34305D01*
G03X3959168Y-4508730I2043J-35756D01*
G01X3959168Y-4548730D01*
G03X3961420Y-4561229I35814J0D01*
G03X3959168Y-4573729I33562J-12499D01*
G01X3959168Y-4594392D01*
G03X3940812Y-4592456I-16066J-64338D01*
G01X3940812Y-4573729D01*
G03X3938560Y-4561229I-35814J0D01*
G03X3940812Y-4548730I-33562J12499D01*
G01X3940812Y-4508730D01*
G03X3904998Y-4472916I-35814J0D01*
G01X3814998Y-4472916D01*
G03X3779553Y-4503604I0J-35814D01*
G03X3769137Y-4511524I23889J-42225D01*
G01X3752793Y-4527868D01*
G03X3738584Y-4562172I34305J-34305D01*
G01X3738584Y-4581535D01*
G01X3699558Y-4620561D01*
G01X3678065Y-4620561D01*
G03X3650734Y-4593739I-34865J-8190D01*
G03X3679015Y-4558726I-7534J35013D01*
G01X3679015Y-4478079D01*
G03X3643201Y-4442265I-35814J0D01*
G01X3556800Y-4442265D01*
G03X3520986Y-4478079I0J-35814D01*
G01X3520986Y-4552027D01*
G03X3475144Y-4573227I2817J-66254D01*
G03X3457528Y-4620561I48659J-45054D01*
G01X3378065Y-4620561D01*
G03X3350734Y-4593739I-34865J-8190D01*
G03X3379015Y-4558726I-7534J35013D01*
G01X3379015Y-4478079D01*
G03X3343201Y-4442265I-35814J0D01*
G01X3256800Y-4442265D01*
G03X3220986Y-4478079I0J-35814D01*
G01X3220986Y-4528809D01*
G01X3189499Y-4560296D01*
G03X3175290Y-4594601I34305J-34305D01*
G01X3175290Y-4604477D01*
G01X3131108Y-4560296D01*
G03X3096804Y-4546087I-34305J-34305D01*
G01X3079015Y-4546087D01*
G01X3079015Y-4478079D01*
G03X3043201Y-4442265I-35814J0D01*
G01X2956800Y-4442265D01*
G03X2922210Y-4468797I0J-35814D01*
G01X2886709Y-4433297D01*
G03X2852404Y-4419087I-34305J-34305D01*
G01X2838360Y-4419087D01*
G03X2765614Y-4376738I-62155J-23114D01*
G03X2709932Y-4439865I10591J-65463D01*
G01X2707532Y-4442265D01*
G01X2656800Y-4442265D01*
G03X2620986Y-4478079I0J-35814D01*
G01X2620986Y-4526627D01*
G03X2561396Y-4570459I2819J-66254D01*
G01X2561396Y-4562172D01*
G03X2547187Y-4527868I-48514J0D01*
G01X2530843Y-4511524D01*
G03X2520427Y-4503604I-34305J-34305D01*
G03X2484982Y-4472916I-35445J-5126D01*
G01X2394982Y-4472916D01*
G03X2359168Y-4508730I0J-35814D01*
G01X2359168Y-4548730D01*
G03X2361420Y-4561229I35814J0D01*
G03X2359168Y-4573729I33562J-12499D01*
G01X2359168Y-4594392D01*
G03X2340812Y-4592456I-16063J-64339D01*
G01X2340812Y-4573729D01*
G03X2338560Y-4561229I-35814J0D01*
G03X2340812Y-4548730I-33562J12499D01*
G01X2340812Y-4508730D01*
G03X2304998Y-4472916I-35814J0D01*
G01X2214998Y-4472916D01*
G03X2179553Y-4503604I0J-35814D01*
G03X2169137Y-4511524I23889J-42225D01*
G01X2152793Y-4527868D01*
G03X2138584Y-4562172I34305J-34305D01*
G01X2138584Y-4570403D01*
G03X2079014Y-4526627I-62388J-22478D01*
G01X2079014Y-4478079D01*
G03X2043200Y-4442265I-35814J0D01*
G01X1956800Y-4442265D01*
G03X1920986Y-4478079I0J-35814D01*
G01X1920986Y-4558726D01*
G03X1949266Y-4593739I35814J0D01*
G03X1920986Y-4628751I7534J-35013D01*
G01X1920986Y-4644433D01*
G01X1911324Y-4634771D01*
G03X1877019Y-4620561I-34305J-34305D01*
G01X1778065Y-4620561D01*
G03X1750734Y-4593739I-34865J-8190D01*
G03X1779015Y-4558726I-7534J35013D01*
G01X1779015Y-4478079D01*
G03X1743201Y-4442265I-35814J0D01*
G01X1692469Y-4442265D01*
G01X1672311Y-4422106D01*
G01X1672311Y-4245213D01*
G01X1743200Y-4245213D01*
G03X1779014Y-4209399I0J35814D01*
G01X1779014Y-4207241D01*
G01X1846576Y-4207241D01*
G01X1910938Y-4271604D01*
G03X1945243Y-4285813I34305J34305D01*
G01X2101775Y-4285813D01*
G03X2136079Y-4271604I0J48514D01*
G01X2197633Y-4210050D01*
G03X2214998Y-4214541I17365J31323D01*
G01X2304998Y-4214541D01*
G03X2340812Y-4178727I0J35814D01*
G01X2340812Y-4138727D01*
G03X2338560Y-4126228I-35814J0D01*
G03X2340812Y-4113729I-33562J12499D01*
G01X2340812Y-4073729D01*
G03X2338560Y-4061229I-35814J0D01*
G03X2340812Y-4048730I-33562J12499D01*
G01X2340812Y-4008730D01*
G03X2304998Y-3972916I-35814J0D01*
G01X2214998Y-3972916D01*
G03X2179553Y-4003604I0J-35814D01*
G03X2169137Y-4011524I23889J-42225D01*
G01X2152793Y-4027868D01*
G03X2138584Y-4062172I34305J-34305D01*
G01X2138584Y-4081535D01*
G01X2099558Y-4120561D01*
G01X2078065Y-4120561D01*
G03X2050734Y-4093739I-34865J-8190D01*
G03X2079014Y-4058726I-7534J35013D01*
G01X2079014Y-3978079D01*
G03X2043200Y-3942265I-35814J0D01*
G01X1956800Y-3942265D01*
G03X1920986Y-3978079I0J-35814D01*
G01X1920986Y-4021462D01*
G01X1896110Y-3996587D01*
G01X1896110Y-3724793D01*
G03X1881901Y-3690488I-48514J0D01*
G01X1805701Y-3614288D01*
G03X1771396Y-3600079I-34305J-34305D01*
G01X1390397Y-3600079D01*
G03X1356093Y-3614288I0J-48514D01*
G01X1033203Y-3937177D01*
G03X1030611Y-3939983I34305J-34305D01*
G03X969991Y-3942956I-28121J-46117D01*
G03X965298Y-3939793I-32499J-43143D01*
G01X920993Y-3895487D01*
G03X886688Y-3881278I-34305J-34305D01*
G01X466210Y-3881278D01*
G03X431905Y-3895487I0J-48514D01*
G01X343934Y-3983458D01*
G03X214571Y-4181428I-43934J-112542D01*
G03X412543Y-4052067I85429J85428D01*
G01X486305Y-3978306D01*
G01X521500Y-3978306D01*
G03X520988Y-3984340I35302J-6034D01*
G01X520988Y-4055524D01*
G01X340378Y-4236133D01*
G03X179472Y-4341695I-40378J-113867D01*
G03X324378Y-4468329I120528J-8305D01*
G01X339235Y-4483186D01*
G01X215000Y-4483186D01*
G03X179186Y-4519000I0J-35814D01*
G01X179186Y-4689000D01*
G03X215000Y-4724814I35814J0D01*
G01X385000Y-4724814D01*
G03X420814Y-4689000I0J35814D01*
G01X420814Y-4564765D01*
G01X520988Y-4664939D01*
G01X520988Y-4715660D01*
G03X556802Y-4751474I35814J0D01*
G01X643203Y-4751474D01*
G03X679017Y-4715660I0J35814D01*
G01X679017Y-4670455D01*
G03X704529Y-4677705I25512J41264D01*
G01X753480Y-4677705D01*
G01X753480Y-4698092D01*
G03X779686Y-4744398I54014J0D01*
G01X204181Y-399990D02*
G03X595808Y-399990I195814J0D01*
G03X204181Y-399990I-195814J0D01*
G01X204181Y-3500010D02*
G03X595808Y-3500010I195814J0D01*
G03X204181Y-3500010I-195814J0D01*
G01X7704192Y-399990D02*
G03X8095819Y-399990I195814J0D01*
G03X7704192Y-399990I-195814J0D01*
G01X7754187Y-4160008D02*
G03X7945815Y-4160008I95814J0D01*
G03X7754187Y-4160008I-95814J0D01*
G01X8233986Y-527000D02*
G03X8458014Y-527000I112014J0D01*
G03X8233986Y-527000I-112014J0D01*
G01X8487986Y-273000D02*
G03X8712014Y-273000I112014J0D01*
G03X8487986Y-273000I-112014J0D01*
G01X1162181Y-4258075D02*
G03X1154583Y-4229512I-66273J-2336D01*
G03X1164014Y-4216662I-48355J45380D01*
G03X1167693Y-4220786I37983J30181D01*
G01X1243893Y-4296986D01*
G03X1278197Y-4311195I34305J34305D01*
G01X1421387Y-4311195D01*
G03X1510203Y-4312642I45210J48514D01*
G03X1520778Y-4224446I-43606J49961D01*
G03X1522750Y-4151509I-54371J37965D01*
G03X1575283Y-4165436I41767J51508D01*
G01X1575283Y-4442201D01*
G03X1589492Y-4476506I48514J0D01*
G01X1620986Y-4507999D01*
G01X1620986Y-4558726D01*
G03X1649266Y-4593739I35814J0D01*
G03X1620986Y-4628751I7534J-35013D01*
G01X1620986Y-4669451D01*
G01X1542080Y-4590544D01*
G03X1507090Y-4534410I-66273J-2336D01*
G03X1440975Y-4536451I-31283J-58471D01*
G03X1360008Y-4517148I-48468J-23840D01*
G03X1295009Y-4517148I-32499J-43143D01*
G03X1246022Y-4508855I-32499J-43143D01*
G01X1246022Y-4362011D01*
G03X1231812Y-4327707I-48514J0D01*
G01X1162181Y-4258075D01*
G01X1405816Y-4805000D02*
G03X1370002Y-4769186I-35814J0D01*
G01X1290002Y-4769186D01*
G03X1260000Y-4785443I0J-35814D01*
G03X1246022Y-4772971I-30002J-19557D01*
G01X1246022Y-4749528D01*
G03X1295009Y-4741235I16488J51436D01*
G03X1360008Y-4741235I32499J43143D01*
G03X1446521Y-4698092I32499J43143D01*
G01X1446521Y-4652378D01*
G03X1473471Y-4659154I29286J59497D01*
G01X1697994Y-4883677D01*
G01X1405816Y-4883677D01*
G01X1405816Y-4805000D01*
G01X2779015Y-3996116D02*
G01X2920986Y-3996116D01*
G01X2920986Y-4058726D01*
G03X2949266Y-4093739I35814J0D01*
G03X2926157Y-4110213I7534J-35013D01*
G01X2840655Y-4110213D01*
G03X2829181Y-4054714I-64450J15612D01*
G03X2779015Y-4028347I-52976J-39888D01*
G01X2779015Y-3996116D01*
G01X4396296Y-4546087D02*
G01X4379015Y-4528805D01*
G01X4379015Y-4478079D01*
G03X4343201Y-4442265I-35814J0D01*
G01X4256800Y-4442265D01*
G03X4220986Y-4478079I0J-35814D01*
G01X4220986Y-4558726D01*
G03X4249266Y-4593739I35814J0D01*
G03X4221935Y-4620561I7534J-35013D01*
G01X4200423Y-4620561D01*
G01X4161396Y-4581535D01*
G01X4161396Y-4562172D01*
G03X4147187Y-4527868I-48514J0D01*
G01X4130843Y-4511524D01*
G03X4120427Y-4503604I-34305J-34305D01*
G03X4110161Y-4483261I-35445J-5126D01*
G01X4252418Y-4341004D01*
G03X4303775Y-4235814I-2336J66273D01*
G01X4320003Y-4235814D01*
G03X4355817Y-4200000I0J35814D01*
G01X4355817Y-4041517D01*
G01X4377006Y-4062707D01*
G03X4411311Y-4076916I34305J34305D01*
G01X4436711Y-4076916D01*
G03X4471016Y-4062707I0J48514D01*
G01X4481537Y-4052185D01*
G03X4544183Y-4093595I61464J24893D01*
G01X4544183Y-4200000D01*
G03X4579997Y-4235814I35814J0D01*
G01X4779997Y-4235814D01*
G03X4815811Y-4200000I0J35814D01*
G01X4815811Y-4000716D01*
G01X4919310Y-4000716D01*
G03X4930391Y-3999434I0J48514D01*
G01X4930391Y-4119002D01*
G03X4966205Y-4154816I35814J0D01*
G01X5134305Y-4154816D01*
G03X5170119Y-4119002I0J35814D01*
G01X5170119Y-3951002D01*
G01X5170102Y-3949916D01*
G01X5381814Y-3949916D01*
G01X5621604Y-4189706D01*
G03X5655909Y-4203916I34305J34305D01*
G01X5935308Y-4203916D01*
G03X5969613Y-4189706I0J48514D01*
G01X5973080Y-4186238D01*
G03X5985443Y-4200000I31920J16240D01*
G03X5969187Y-4230003I19557J-30002D01*
G01X5969187Y-4310003D01*
G03X6005001Y-4345817I35814J0D01*
G01X6077684Y-4345817D01*
G01X6077684Y-4383706D01*
G01X6057206Y-4404184D01*
G01X6005000Y-4404184D01*
G03X5969186Y-4439998I0J-35814D01*
G01X5969186Y-4492203D01*
G01X5939493Y-4521896D01*
G03X5925284Y-4556201I34305J-34305D01*
G01X5925284Y-4683201D01*
G03X5939493Y-4717505I48514J0D01*
G01X5953293Y-4731305D01*
G03X5987598Y-4745515I34305J34305D01*
G01X6279190Y-4745515D01*
G01X6279190Y-4811586D01*
G01X5046695Y-4811586D01*
G01X5019921Y-4784812D01*
G01X5134305Y-4784812D01*
G03X5170119Y-4748998I0J35814D01*
G01X5170119Y-4580998D01*
G03X5134305Y-4545184I-35814J0D01*
G01X4999042Y-4545184D01*
G01X4896314Y-4442456D01*
G01X4896314Y-4377301D01*
G03X4847800Y-4265777I-48514J45210D01*
G03X4799286Y-4377301I0J-66314D01*
G01X4799286Y-4462551D01*
G03X4813496Y-4496856I48514J0D01*
G01X4930391Y-4613751D01*
G01X4930391Y-4695282D01*
G01X4761948Y-4526839D01*
G03X4727643Y-4512630I-34305J-34305D01*
G01X4692958Y-4512630D01*
G03X4679015Y-4514677I0J-48514D01*
G01X4679015Y-4478079D01*
G03X4643201Y-4442265I-35814J0D01*
G01X4556800Y-4442265D01*
G03X4520986Y-4478079I0J-35814D01*
G01X4520986Y-4546087D01*
G01X4396296Y-4546087D01*
G01X5869609Y-4580998D02*
G03X5833795Y-4545184I-35814J0D01*
G01X5665695Y-4545184D01*
G03X5629881Y-4580998I0J-35814D01*
G01X5629881Y-4748998D01*
G03X5665695Y-4784812I35814J0D01*
G01X5833795Y-4784812D01*
G03X5869609Y-4748998I0J35814D01*
G01X5869609Y-4580998D01*
G01X6690814Y-4767573D02*
G01X6690814Y-4571995D01*
G03X6655000Y-4536181I-35814J0D01*
G01X6545001Y-4536181D01*
G03X6509187Y-4571995I0J-35814D01*
G01X6509187Y-4811586D01*
G01X6460817Y-4811586D01*
G01X6460817Y-4571995D01*
G03X6425003Y-4536181I-35814J0D01*
G01X6315004Y-4536181D01*
G03X6279190Y-4571995I0J-35814D01*
G01X6279190Y-4648487D01*
G01X6130814Y-4648487D01*
G01X6130814Y-4580002D01*
G03X6114558Y-4550000I-35814J0D01*
G03X6130814Y-4519998I-19557J30002D01*
G01X6130814Y-4467794D01*
G01X6160502Y-4438106D01*
G03X6174712Y-4403801I-34305J34305D01*
G01X6174712Y-4239387D01*
G01X6384187Y-4029912D01*
G01X6384187Y-4220003D01*
G03X6420001Y-4255817I35814J0D01*
G01X6780000Y-4255817D01*
G03X6815814Y-4220003I0J35814D01*
G01X6815814Y-4037719D01*
G01X7017482Y-4239387D01*
G01X7017482Y-4396001D01*
G03X7031691Y-4430306I48514J0D01*
G01X7069187Y-4467801D01*
G01X7069187Y-4519998D01*
G03X7085443Y-4550000I35814J0D01*
G03X7069187Y-4580003I19557J-30002D01*
G01X7069187Y-4632201D01*
G01X7052901Y-4648487D01*
G01X6920811Y-4648487D01*
G01X6920811Y-4571995D01*
G03X6884997Y-4536181I-35814J0D01*
G01X6774998Y-4536181D01*
G03X6739184Y-4571995I0J-35814D01*
G01X6739184Y-4719204D01*
G01X6690814Y-4767573D01*
G54D11*
G01X1330002Y-4850000D02*
G01X1395656Y-4850000D01*
G01X1330002Y-4850000D02*
G01X1330002Y-4779346D01*
G01X1327508Y-4629192D02*
G01X1327508Y-4516437D01*
G01X1327508Y-4629192D02*
G01X1327508Y-4741946D01*
G01X4600000Y-4518402D02*
G01X4600000Y-4452425D01*
G01X4600000Y-4518402D02*
G01X4531146Y-4518402D01*
G01X3000000Y-4518402D02*
G01X3000000Y-4452425D01*
G01X3000000Y-4518402D02*
G01X3068855Y-4518402D01*
G01X3600000Y-4518402D02*
G01X3600000Y-4452425D01*
G01X3600000Y-4518402D02*
G01X3531146Y-4518402D01*
G01X3600000Y-4518402D02*
G01X3668855Y-4518402D01*
G01X4039982Y-4593729D02*
G01X3969328Y-4593729D01*
G01X2000000Y-4518402D02*
G01X2000000Y-4452425D01*
G01X2000000Y-4518402D02*
G01X1931146Y-4518402D01*
G01X2000000Y-4518402D02*
G01X2068854Y-4518402D01*
G01X2439982Y-4593729D02*
G01X2369328Y-4593729D01*
G01X4220003Y-4100000D02*
G01X4345657Y-4100000D01*
G01X4220003Y-4100000D02*
G01X4094349Y-4100000D01*
G01X3000000Y-4018402D02*
G01X2931146Y-4018402D01*
G01X2439982Y-4093729D02*
G01X2369328Y-4093729D01*
G01X2259998Y-4093729D02*
G01X2330652Y-4093729D01*
G01X2000000Y-4018402D02*
G01X2000000Y-3952425D01*
G01X2000000Y-4018402D02*
G01X1931146Y-4018402D01*
G01X2000000Y-4018402D02*
G01X2068854Y-4018402D01*
G01X5050255Y-4035002D02*
G01X5159959Y-4035002D01*
G01X5050255Y-4035002D02*
G01X4940551Y-4035002D01*
G01X5050255Y-4035002D02*
G01X5050255Y-4144656D01*
G01X6600001Y-4696995D02*
G01X6600001Y-4546341D01*
G01X6600001Y-4696995D02*
G01X6680654Y-4696995D01*
G01X6600001Y-4696995D02*
G01X6519347Y-4696995D01*
G01X6600001Y-4103003D02*
G01X6600001Y-4245657D01*
G01X6600001Y-4103003D02*
G01X6805654Y-4103003D01*
G01X6600001Y-4103003D02*
G01X6394347Y-4103003D01*
G01X6050001Y-4270003D02*
G01X6050001Y-4335657D01*
G01X6050001Y-4270003D02*
G01X5979347Y-4270003D01*
G01X6050000Y-4620002D02*
G01X6120654Y-4620002D01*
G01X300000Y-4604000D02*
G01X300000Y-4714654D01*
G01X300000Y-4604000D02*
G01X300000Y-4493346D01*
G01X300000Y-4604000D02*
G01X189346Y-4604000D01*
G01X300000Y-4604000D02*
G01X410654Y-4604000D01*
G04 Copper End*

G04 Pad Start*
G54D12*
G01X5050255Y-4035002D03*
G01X5050255Y-4664998D03*
G01X5749745Y-4664998D03*
G01X5749745Y-4035002D03*
G54D13*
G01X7150001Y-4479998D03*
G01X7150001Y-4620003D03*
G01X6050001Y-4129998D03*
G01X6050001Y-4270003D03*
G01X7150001Y-4129998D03*
G01X7150001Y-4270003D03*
G01X6050000Y-4479998D03*
G01X6050000Y-4620002D03*
G54D14*
G01X1189997Y-4850000D03*
G01X1330002Y-4850000D03*
G54D15*
G01X300000Y-4604000D03*
G54D16*
G01X300000Y-4350000D03*
G01X300000Y-4096000D03*
G54D18*
G01X3305004Y-4223508D03*
G01X3494996Y-4223508D03*
G01X3400000Y-3976493D03*
G54D19*
G01X2439982Y-4093729D03*
G01X2439982Y-4028730D03*
G01X2259998Y-4028730D03*
G01X2259998Y-4093729D03*
G01X2259998Y-4158727D03*
G01X2439982Y-4158727D03*
G01X2439982Y-4593729D03*
G01X2439982Y-4528730D03*
G01X2259998Y-4528730D03*
G01X2259998Y-4593729D03*
G01X2259998Y-4658727D03*
G01X2439982Y-4658727D03*
G01X4039982Y-4593729D03*
G01X4039982Y-4528730D03*
G01X3859998Y-4528730D03*
G01X3859998Y-4593729D03*
G01X3859998Y-4658727D03*
G01X4039982Y-4658727D03*
G54D20*
G01X8525336Y-2200000D03*
G01X8374663Y-2200000D03*
G01X8875336Y-2200000D03*
G01X8724664Y-2200000D03*
G01X8700336Y-2400000D03*
G01X8549664Y-2400000D03*
G01X3925336Y-4100000D03*
G01X3774664Y-4100000D03*
G54D21*
G01X3000000Y-4169075D03*
G01X3000000Y-4018402D03*
G01X1700000Y-4169075D03*
G01X1700000Y-4018402D03*
G01X2700000Y-4169075D03*
G01X2700000Y-4018402D03*
G01X2000000Y-4018402D03*
G01X2000000Y-4169075D03*
G01X3000000Y-4669075D03*
G01X3000000Y-4518402D03*
G01X1700000Y-4669075D03*
G01X1700000Y-4518402D03*
G01X2700000Y-4669075D03*
G01X2700000Y-4518402D03*
G01X2000000Y-4518402D03*
G01X2000000Y-4669075D03*
G01X4600000Y-4669075D03*
G01X4600000Y-4518402D03*
G01X3300000Y-4669075D03*
G01X3300000Y-4518402D03*
G01X4300000Y-4669075D03*
G01X4300000Y-4518402D03*
G01X3600000Y-4518402D03*
G01X3600000Y-4669075D03*
G01X600002Y-4675336D03*
G01X600002Y-4524664D03*
G01X600002Y-4024664D03*
G01X600002Y-4175336D03*
G54D22*
G01X807494Y-4629192D03*
G01X872493Y-4629192D03*
G01X937491Y-4629192D03*
G01X1002490Y-4629192D03*
G01X1067514Y-4629192D03*
G01X1132512Y-4629192D03*
G01X1197511Y-4629192D03*
G01X1262510Y-4629192D03*
G01X1327508Y-4629192D03*
G01X1392507Y-4629192D03*
G01X807494Y-4054999D03*
G01X872493Y-4054999D03*
G01X937491Y-4054999D03*
G01X1002490Y-4054999D03*
G01X1067514Y-4054999D03*
G01X1132512Y-4054999D03*
G01X1197511Y-4054999D03*
G01X1262510Y-4054999D03*
G01X1327508Y-4054999D03*
G01X1392507Y-4054999D03*
G54D23*
G01X6370004Y-4696995D03*
G01X6600001Y-4696995D03*
G01X6829998Y-4696995D03*
G54D24*
G01X6600001Y-4103003D03*
G54D25*
G01X4679997Y-4100000D03*
G01X4220003Y-4100000D03*
G54D26*
G01X8250000Y-4050001D03*
G01X7450002Y-4550000D03*
G01X8250000Y-4749999D03*
G54D27*
G01X4760006Y-399990D03*
G01X4506006Y-399990D03*
G01X4252006Y-399990D03*
G01X3998006Y-399990D03*
G01X3744006Y-399990D03*
G01X3490006Y-399990D03*
G01X3236006Y-399990D03*
G01X2982006Y-399990D03*
G01X2728006Y-399990D03*
G01X2474006Y-399990D03*
G01X2220006Y-399990D03*
G01X1966006Y-399990D03*
G01X1712006Y-399990D03*
G01X1458006Y-399990D03*
G01X1204006Y-399990D03*
G54D28*
G01X950006Y-399990D03*
G54D29*
G01X399995Y-399990D03*
G01X399995Y-3500010D03*
G01X7900005Y-399990D03*
G01X7900005Y-3500010D03*
G54D30*
G01X8362499Y-1820003D03*
G01X8362499Y-1739993D03*
G54D31*
G01X8362499Y-1674994D03*
G01X8362499Y-1624982D03*
G01X8362499Y-1574994D03*
G01X8362499Y-1525007D03*
G01X8362499Y-1474995D03*
G01X8362499Y-1425007D03*
G01X8362499Y-1374995D03*
G01X8362499Y-1324982D03*
G54D30*
G01X8362499Y-1259984D03*
G01X8362499Y-1179999D03*
G54D32*
G01X8417490Y-1932499D03*
G01X8417490Y-1067502D03*
G54D33*
G01X8837504Y-1932499D03*
G01X8837504Y-1067502D03*
G54D34*
G01X8854000Y-527000D03*
G01X8600000Y-273000D03*
G01X8346000Y-527000D03*
G04 Pad End*

G04 Via Start*
G54D35*
G01X8471743Y-2298395D03*
G01X4441401Y-3925692D03*
G01X4543001Y-4027292D03*
G01X4847800Y-4332091D03*
G01X4250081Y-4274731D03*
G01X1564517Y-4100002D03*
G01X2605915Y-4100002D03*
G01X1762806Y-3725272D03*
G01X2414575Y-4209532D03*
G01X1106228Y-4184132D03*
G01X2623805Y-4592881D03*
G01X3943102Y-4658731D03*
G01X1101088Y-4756190D03*
G01X7247876Y-4756190D03*
G01X2822204Y-4542081D03*
G01X1531297Y-4029592D03*
G01X2076196Y-4592881D03*
G01X1466597Y-4262682D03*
G01X2343105Y-4658731D03*
G01X4523801Y-4669081D03*
G01X4752400Y-4669081D03*
G01X1475807Y-4592881D03*
G01X1287908Y-4176382D03*
G01X3523803Y-4618281D03*
G01X1466407Y-4186482D03*
G01X8448063Y-2374595D03*
G01X8286303Y-2212836D03*
G01X2776205Y-4442201D03*
G01X2776205Y-4094602D03*
G01X1684007Y-3908802D03*
G01X962888Y-4503990D03*
G01X7414475Y-4681790D03*
G01X6049998Y-4384201D03*
G01X6126198Y-4562001D03*
G01X1302107Y-4503990D03*
G01X3393403Y-4172712D03*
G01X3241003Y-4020312D03*
G01X2529805Y-3969512D03*
G01X1095908Y-4260412D03*
G01X8646093Y-2135696D03*
G04 Via End*

G04 Track Start*
G54D11*
G01X3719653Y-4669075D02*
G01X3600000Y-4669075D01*
G01X3859998Y-4528730D02*
G01X3842899Y-4545829D01*
G01X3803441Y-4545829D01*
G01X3787098Y-4562172D01*
G01X3787098Y-4601630D01*
G01X3719653Y-4669075D01*
G01X4180327Y-4669075D02*
G01X4300000Y-4669075D01*
G01X4039982Y-4528730D02*
G01X4057081Y-4545829D01*
G01X4096539Y-4545829D01*
G01X4112882Y-4562172D01*
G01X4112882Y-4601630D01*
G01X4180327Y-4669075D01*
G01X2580327Y-4669075D02*
G01X2700000Y-4669075D01*
G01X2439982Y-4528730D02*
G01X2457081Y-4545829D01*
G01X2496539Y-4545829D01*
G01X2512882Y-4562172D01*
G01X2512882Y-4601630D01*
G01X2580327Y-4669075D01*
G01X2119653Y-4669075D02*
G01X2000000Y-4669075D01*
G01X2259998Y-4528730D02*
G01X2242900Y-4545829D01*
G01X2203441Y-4545829D01*
G01X2187098Y-4562172D01*
G01X2187098Y-4601630D01*
G01X2119653Y-4669075D01*
G01X2580327Y-4169075D02*
G01X2700000Y-4169075D01*
G01X2439982Y-4028730D02*
G01X2457081Y-4045829D01*
G01X2496539Y-4045829D01*
G01X2512882Y-4062172D01*
G01X2512882Y-4101630D01*
G01X2580327Y-4169075D01*
G01X2119653Y-4169075D02*
G01X2000000Y-4169075D01*
G01X2259998Y-4028730D02*
G01X2242899Y-4045829D01*
G01X2203441Y-4045829D01*
G01X2187098Y-4062172D01*
G01X2187098Y-4101630D01*
G01X2119653Y-4169075D01*
G01X1710348Y-4158727D02*
G01X1700000Y-4169075D01*
G01X2259998Y-4158727D02*
G01X2180346Y-4158727D01*
G01X1945243Y-4237299D02*
G01X1866671Y-4158727D01*
G01X1710348Y-4158727D01*
G01X2180346Y-4158727D02*
G01X2101775Y-4237299D01*
G01X1945243Y-4237299D01*
G01X2989652Y-4158727D02*
G01X3000000Y-4169075D01*
G01X2439982Y-4158727D02*
G01X2519634Y-4158727D01*
G01X2754757Y-4237299D02*
G01X2833329Y-4158727D01*
G01X2989652Y-4158727D01*
G01X2519634Y-4158727D02*
G01X2598205Y-4237299D01*
G01X2754757Y-4237299D01*
G01X2249650Y-4669075D02*
G01X2259998Y-4658727D01*
G01X1700000Y-4669075D02*
G01X1877019Y-4669075D01*
G01X1945243Y-4737299D01*
G01X2169999Y-4669075D02*
G01X2249650Y-4669075D01*
G01X1945243Y-4737299D02*
G01X2101775Y-4737299D01*
G01X2169999Y-4669075D01*
G01X2989652Y-4658727D02*
G01X3000000Y-4669075D01*
G01X2439982Y-4658727D02*
G01X2519634Y-4658727D01*
G01X2754757Y-4737299D02*
G01X2833329Y-4658727D01*
G01X2989652Y-4658727D01*
G01X2519634Y-4658727D02*
G01X2598205Y-4737299D01*
G01X2754757Y-4737299D01*
G01X3849650Y-4669075D02*
G01X3859998Y-4658727D01*
G01X3300000Y-4669075D02*
G01X3477019Y-4669075D01*
G01X3545243Y-4737299D01*
G01X3769999Y-4669075D02*
G01X3849650Y-4669075D01*
G01X3545243Y-4737299D02*
G01X3701775Y-4737299D01*
G01X3769999Y-4669075D01*
G01X4589652Y-4658727D02*
G01X4600000Y-4669075D01*
G01X4039982Y-4658727D02*
G01X4119634Y-4658727D01*
G01X4354757Y-4737299D02*
G01X4433329Y-4658727D01*
G01X4589652Y-4658727D01*
G01X4119634Y-4658727D02*
G01X4198205Y-4737299D01*
G01X4354757Y-4737299D01*
G01X8362503Y-1624977D02*
G01X8430203Y-1624977D01*
G01X8550743Y-1745516D01*
G01X8550743Y-2174596D01*
G01X8525343Y-2199996D01*
G01X3305003Y-4223511D02*
G01X3396603Y-4315112D01*
G01X3762203Y-4315112D01*
G01X3925342Y-4151972D01*
G01X3925342Y-4100002D01*
G01X937488Y-4054992D02*
G01X937488Y-3980591D01*
G01X886688Y-3929791D01*
G01X466210Y-3929791D01*
G01X299999Y-4096002D01*
G01X8362503Y-1324977D02*
G01X8430203Y-1324977D01*
G01X8709603Y-1604377D01*
G01X8709603Y-2034256D01*
G01X8875342Y-2199996D01*
G01X8700343Y-2399995D02*
G01X8598743Y-2298395D01*
G01X8471743Y-2298395D01*
G01X8362503Y-1574987D02*
G01X8430203Y-1574987D01*
G01X8455603Y-1549587D01*
G01X8455603Y-1498787D01*
G01X8430203Y-1473387D01*
G01X8364103Y-1473387D01*
G01X8362503Y-1474987D01*
G01X8362503Y-1525007D02*
G01X8294803Y-1525007D01*
G01X8269404Y-1499607D01*
G01X8269404Y-1448807D01*
G01X8293203Y-1425007D01*
G01X8362503Y-1425007D01*
G01X2439975Y-4028732D02*
G01X2439975Y-619959D01*
G01X2220005Y-399989D01*
G01X3400003Y-3976492D02*
G01X3476203Y-3900292D01*
G01X4416001Y-3900292D01*
G01X4441401Y-3925692D01*
G01X4543001Y-4027292D02*
G01X4607291Y-4027292D01*
G01X4680001Y-4100002D01*
G01X4847800Y-4332091D02*
G01X4847800Y-4462551D01*
G01X5050250Y-4665001D01*
G01X4039982Y-4528731D02*
G01X4039982Y-4484831D01*
G01X4250081Y-4274731D01*
G01X1392507Y-4054992D02*
G01X1437517Y-4100002D01*
G01X1564517Y-4100002D01*
G01X2605915Y-4100002D02*
G01X2605915Y-3973002D01*
G01X2631315Y-3947602D01*
G01X3063114Y-3947602D01*
G01X3215514Y-4100002D01*
G01X3774663Y-4100002D01*
G01X1699997Y-4169082D02*
G01X1788206Y-4080872D01*
G01X1788206Y-3750672D01*
G01X1762806Y-3725272D01*
G01X1999996Y-4169082D02*
G01X1847596Y-4016682D01*
G01X1847596Y-3724793D01*
G01X1771397Y-3648593D01*
G01X1390397Y-3648593D01*
G01X1067508Y-3971482D01*
G01X1067508Y-4054992D01*
G01X2439975Y-4158732D02*
G01X2439975Y-4184132D01*
G01X2414575Y-4209532D01*
G01X1106228Y-4184132D02*
G01X1055428Y-4184132D01*
G01X1004628Y-4133332D01*
G01X1004628Y-4057132D01*
G01X1002488Y-4054992D01*
G01X2700005Y-4669081D02*
G01X2623805Y-4592881D01*
G01X3860002Y-4658731D02*
G01X3943102Y-4658731D01*
G01X872488Y-4629191D02*
G01X872488Y-4447831D01*
G01X599999Y-4175342D01*
G01X872488Y-4629191D02*
G01X872488Y-4705391D01*
G01X923288Y-4756190D01*
G01X1101088Y-4756190D01*
G01X7247876Y-4756190D02*
G01X7349475Y-4857790D01*
G01X8142214Y-4857790D01*
G01X8250004Y-4750000D01*
G01X3000004Y-4669081D02*
G01X2949204Y-4669081D01*
G01X2822204Y-4542081D01*
G01X1531297Y-4029592D02*
G01X1437307Y-3935602D01*
G01X1175698Y-3935602D01*
G01X1132508Y-3978792D01*
G01X1132508Y-4054992D01*
G01X1999996Y-4669081D02*
G01X2076196Y-4592881D01*
G01X1466597Y-4262682D02*
G01X1278197Y-4262682D01*
G01X1201998Y-4186482D01*
G01X1201998Y-4059482D01*
G01X1197508Y-4054992D01*
G01X2260005Y-4658731D02*
G01X2343105Y-4658731D01*
G01X4600001Y-4669081D02*
G01X4523801Y-4669081D01*
G01X4752400Y-4669081D02*
G01X4752400Y-4719881D01*
G01X4600001Y-4872280D01*
G01X1755207Y-4872280D01*
G01X1475807Y-4592881D01*
G01X1287908Y-4176382D02*
G01X1262508Y-4150982D01*
G01X1262508Y-4054992D01*
G01X3600003Y-4669081D02*
G01X3574603Y-4669081D01*
G01X3523803Y-4618281D01*
G01X1466407Y-4186482D02*
G01X1382797Y-4186482D01*
G01X1331997Y-4135682D01*
G01X1331997Y-4059482D01*
G01X1327507Y-4054992D01*
G01X807488Y-4629191D02*
G01X704529Y-4629191D01*
G01X599999Y-4524661D01*
G01X807488Y-4629191D02*
G01X807488Y-4703591D01*
G01X1036088Y-4932191D01*
G01X6979676Y-4932191D01*
G01X7360675Y-4551192D01*
G01X7448814Y-4551192D01*
G01X7450005Y-4550001D01*
G01X6829996Y-4697001D02*
G01X7072996Y-4697001D01*
G01X7149996Y-4620001D01*
G01X7226196Y-4543801D01*
G01X7226196Y-4346201D01*
G01X7149996Y-4270001D01*
G01X7683395Y-3736603D01*
G01X7683395Y-3266263D01*
G01X8549663Y-2399995D01*
G01X8473463Y-2399995D01*
G01X8448063Y-2374595D01*
G01X8286303Y-2212836D02*
G01X8260903Y-2187436D01*
G01X8260903Y-1790786D01*
G01X8311703Y-1739987D01*
G01X8362503Y-1739987D01*
G01X8294803Y-1739987D01*
G01X8218604Y-1663787D01*
G01X8218604Y-1358987D01*
G01X8317613Y-1259977D01*
G01X8362503Y-1259977D01*
G01X8320203Y-1259977D01*
G01X8269404Y-1209178D01*
G01X8269404Y-1035398D01*
G01X8777403Y-527399D01*
G01X8853602Y-527399D01*
G01X6829996Y-4697001D02*
G01X6666897Y-4860100D01*
G01X5026600Y-4860100D01*
G01X4727643Y-4561144D01*
G01X4692958Y-4561144D01*
G01X4659501Y-4594601D01*
G01X4376201Y-4594601D01*
G01X4300001Y-4518401D01*
G01X4659501Y-4594601D02*
G01X4684901Y-4620001D01*
G01X4684901Y-4721601D01*
G01X4583301Y-4823200D01*
G01X3325403Y-4823200D01*
G01X3223804Y-4721601D01*
G01X3223804Y-4594601D01*
G01X3300003Y-4518401D01*
G01X3223804Y-4721601D02*
G01X3096804Y-4594601D01*
G01X2946792Y-4594601D01*
G01X2928604Y-4576413D01*
G01X2928604Y-4543801D01*
G01X2852404Y-4467601D01*
G01X2750805Y-4467601D01*
G01X2700005Y-4518401D01*
G01X2801605Y-4467601D02*
G01X2776205Y-4442201D01*
G01X2776205Y-4094602D02*
G01X2700005Y-4018402D01*
G01X1684007Y-3908802D02*
G01X1684007Y-4010402D01*
G01X1699997Y-4026392D01*
G01X1623797Y-4102592D01*
G01X1623797Y-4442201D01*
G01X1699997Y-4518401D01*
G01X937488Y-4629191D02*
G01X937488Y-4529390D01*
G01X962888Y-4503990D01*
G01X7414475Y-4681790D02*
G01X7618215Y-4681790D01*
G01X8250004Y-4050002D01*
G01X2439975Y-4093732D02*
G01X2259995Y-4093732D01*
G01X2356875Y-4093732D02*
G01X2356875Y-4017532D01*
G01X2306075Y-3966732D01*
G01X2051666Y-3966732D01*
G01X1999996Y-4018402D01*
G01X2356875Y-4093732D02*
G01X2356875Y-4169932D01*
G01X2008406Y-4518401D01*
G01X1999996Y-4518401D01*
G01X2204476Y-4322331D02*
G01X2204476Y-4363671D01*
G01X2336205Y-4495401D01*
G01X2336205Y-4571601D01*
G01X2314075Y-4593731D01*
G01X2260005Y-4593731D01*
G01X2336205Y-4571601D02*
G01X2358335Y-4593731D01*
G01X2439985Y-4593731D01*
G01X2336205Y-4495401D02*
G01X2463205Y-4368401D01*
G01X2793404Y-4368401D01*
G01X2844204Y-4419201D01*
G01X2900804Y-4419201D01*
G01X3000004Y-4518401D01*
G01X2869604Y-4419201D02*
G01X2895004Y-4419201D01*
G01X3072804Y-4241401D01*
G01X3072804Y-4091202D01*
G01X3000004Y-4018402D01*
G01X3000004Y-4518401D02*
G01X3076204Y-4442201D01*
G01X3523803Y-4442201D01*
G01X3600003Y-4518401D01*
G01X3650803Y-4467601D01*
G01X3879402Y-4467601D01*
G01X3904802Y-4442201D01*
G01X3955602Y-4493001D01*
G01X3955602Y-4543801D01*
G01X3905672Y-4593731D01*
G01X3860002Y-4593731D01*
G01X3955602Y-4543801D02*
G01X3955602Y-4569201D01*
G01X3981002Y-4594601D01*
G01X4039112Y-4594601D01*
G01X4039982Y-4593731D01*
G01X3904802Y-4442201D02*
G01X4209602Y-4137402D01*
G01X4209602Y-4110402D01*
G01X4220001Y-4100002D01*
G01X4209602Y-4137402D02*
G01X4219001Y-4137402D01*
G01X4600001Y-4518401D01*
G01X4600001Y-4485251D01*
G01X5050250Y-4035002D01*
G01X1999996Y-4518401D02*
G01X1923796Y-4594601D01*
G01X1644397Y-4594601D01*
G01X1542797Y-4493001D01*
G01X1387497Y-4493001D01*
G01X1327507Y-4552991D01*
G01X1327507Y-4629191D01*
G01X1327507Y-4847510D01*
G01X1329997Y-4850000D01*
G01X5050250Y-4035002D02*
G01X5304249Y-4289001D01*
G01X6030998Y-4289001D01*
G01X6049998Y-4270001D01*
G01X6030998Y-4289001D02*
G01X6030998Y-4365201D01*
G01X6049998Y-4384201D01*
G01X6126198Y-4562001D02*
G01X6107998Y-4562001D01*
G01X6049998Y-4620001D01*
G01X6126198Y-4562001D02*
G01X6151598Y-4536601D01*
G01X6439597Y-4536601D01*
G01X6599997Y-4697001D01*
G01X6430997Y-4536601D02*
G01X6430997Y-4272001D01*
G01X6599997Y-4103002D01*
G01X1327507Y-4629191D02*
G01X1327507Y-4529390D01*
G01X1302107Y-4503990D01*
G01X3495003Y-4223511D02*
G01X3444203Y-4223511D01*
G01X3393403Y-4172712D01*
G01X3241003Y-4020312D02*
G01X3114004Y-3893312D01*
G01X2606005Y-3893312D01*
G01X2529805Y-3969512D01*
G01X1095908Y-4260412D02*
G01X1197508Y-4362011D01*
G01X1197508Y-4629191D01*
G01X1197508Y-4842490D01*
G01X1189998Y-4850000D01*
G01X1095908Y-4260412D02*
G01X867308Y-4260412D01*
G01X638709Y-4031812D01*
G01X607149Y-4031812D01*
G01X599999Y-4024662D01*
G01X613309Y-4031812D02*
G01X333909Y-4311211D01*
G01X333909Y-4336611D01*
G01X313389Y-4336611D01*
G01X299999Y-4350001D01*
G01X333909Y-4336611D02*
G01X333909Y-4409251D01*
G01X599999Y-4675341D01*
G01X3495003Y-4223511D02*
G01X3784402Y-4223511D01*
G01X3850602Y-4157311D01*
G01X3850602Y-4030312D01*
G01X3928712Y-3952202D01*
G01X4335111Y-3952202D01*
G01X4411311Y-4028402D01*
G01X4436711Y-4028402D01*
G01X4512911Y-3952202D01*
G01X4919310Y-3952202D02*
G01X4970110Y-3901402D01*
G01X5401909Y-3901402D01*
G01X5655909Y-4155402D01*
G01X5935308Y-4155402D01*
G01X5960708Y-4130002D01*
G01X6049998Y-4130002D01*
G01X6036908Y-4130002D02*
G01X6126198Y-4219292D01*
G01X6126198Y-4403801D01*
G01X6049998Y-4480001D01*
G01X5973798Y-4556201D01*
G01X5973798Y-4683201D01*
G01X5987598Y-4697001D01*
G01X6369997Y-4697001D01*
G01X6126198Y-4219292D02*
G01X6405597Y-3939892D01*
G01X6786597Y-3939892D01*
G01X7065996Y-4219292D01*
G01X7065996Y-4396001D01*
G01X7149996Y-4480001D01*
G01X7065996Y-4219292D02*
G01X7065996Y-4214001D01*
G01X7149996Y-4130002D01*
G01X6786597Y-3939892D02*
G01X8374663Y-2351825D01*
G01X8374663Y-2199996D01*
G01X8374663Y-1975326D01*
G01X8417493Y-1932496D01*
G01X8417493Y-1874986D01*
G01X8362503Y-1819996D01*
G01X8646093Y-2135696D02*
G01X8660363Y-2135696D01*
G01X8724663Y-2199996D01*
G01X8837502Y-1932496D02*
G01X8837502Y-1459397D01*
G01X8507303Y-1129198D01*
G01X8413303Y-1129198D01*
G01X8362503Y-1179998D01*
G01X8431103Y-1129198D02*
G01X8431103Y-1081108D01*
G01X8417493Y-1067498D01*
G01X8837502Y-1067498D01*
G01X4766910Y-3952202D02*
G01X4766910Y-406889D01*
G01X4760011Y-399989D01*
G01X4766910Y-447009D02*
G01X4589111Y-269210D01*
G01X2096786Y-269210D01*
G01X1966006Y-399989D01*
G01X1839006Y-272990D01*
G01X1077008Y-272990D01*
G01X950008Y-399989D01*
G01X4512911Y-3952202D02*
G01X4766910Y-3952202D01*
G01X4919310Y-3952202D01*
G04 Track End*

M02*

